<svg width="15" height="15" viewBox="0 0 15 15" fill="none" xmlns="http://www.w3.org/2000/svg">
<path d="M4.11347 2.69006C4.11346 2.65159 4.12103 2.61349 4.13575 2.57794C4.15047 2.54239 4.17205 2.51009 4.19926 2.48288C4.22646 2.45567 4.25877 2.43409 4.29432 2.41937C4.32986 2.40465 4.36797 2.39708 4.40644 2.39709H5.79375C5.57792 2.63982 5.4164 2.92584 5.32 3.23601C5.2236 3.54618 5.19454 3.87336 5.23476 4.19567C5.27498 4.51798 5.38356 4.82799 5.55324 5.10495C5.72291 5.38192 5.94977 5.61947 6.21864 5.80171C6.4875 5.98394 6.79219 6.10667 7.1123 6.16168C7.43242 6.21669 7.76059 6.20272 8.07487 6.12069C8.38915 6.03866 8.68229 5.89047 8.93469 5.68604C9.18709 5.4816 9.39293 5.22563 9.53845 4.93524L9.65182 5.23103L9.95275 5.11567L9.7107 4.48413C9.69669 4.44752 9.6698 4.41728 9.63508 4.39908C9.60036 4.38087 9.56019 4.37596 9.52211 4.38525L8.86498 4.54533L8.94125 4.85844L9.25622 4.78172C9.04279 5.21276 8.67835 5.55029 8.23223 5.73008C7.78611 5.90988 7.28947 5.91938 6.8368 5.75679C6.38412 5.5942 6.00703 5.27087 5.77726 4.84831C5.54749 4.42576 5.4811 3.93348 5.5907 3.46515C5.70031 2.99682 5.97826 2.58513 6.37168 2.30842C6.7651 2.03171 7.24652 1.9093 7.72433 1.96447C8.20214 2.01965 8.64299 2.24856 8.96299 2.60765C9.28299 2.96674 9.4598 3.43095 9.45978 3.91193H9.78205C9.78239 3.35322 9.57695 2.81395 9.20495 2.39709H10.5922C10.6307 2.39708 10.6688 2.40465 10.7043 2.41937C10.7399 2.43409 10.7722 2.45567 10.7994 2.48288C10.8266 2.51009 10.8482 2.54239 10.8629 2.57794C10.8776 2.61349 10.8852 2.65159 10.8852 2.69006V8.07069H11.3316V1.88293C11.3316 1.75713 11.3069 1.63255 11.2587 1.51632C11.2106 1.40009 11.14 1.29447 11.0511 1.20551C10.9621 1.11655 10.8565 1.04599 10.7402 0.997845C10.624 0.949702 10.4994 0.924924 10.3736 0.924927H4.625C4.37092 0.924927 4.12725 1.02586 3.94759 1.20552C3.76792 1.38518 3.66699 1.62886 3.66699 1.88293V6.55722H4.11348L4.11347 2.69006Z" fill="#3182CE"/>
<path d="M10.8852 12.5614C10.8851 12.6391 10.8543 12.7136 10.7993 12.7685C10.7444 12.8235 10.6699 12.8543 10.5922 12.8544H4.40645C4.32875 12.8543 4.25425 12.8235 4.19932 12.7685C4.14438 12.7136 4.1135 12.6391 4.11348 12.5614V9.76001H3.66699V13.3838C3.66699 13.6379 3.76792 13.8815 3.94759 14.0612C4.12725 14.2408 4.37092 14.3418 4.625 14.3418H10.3736C10.4994 14.3418 10.624 14.317 10.7402 14.2689C10.8565 14.2207 10.9621 14.1502 11.0511 14.0612C11.14 13.9722 11.2106 13.8666 11.2587 13.7504C11.3069 13.6342 11.3316 13.5096 11.3316 13.3838V11.1598H10.8852V12.5614ZM8.16904 13.7497H6.82812V13.3981H8.16904V13.7497Z" fill="#3182CE"/>
<path d="M11.7313 8.42236H7.44638C7.30084 8.42253 7.16132 8.48042 7.05841 8.58333C6.95551 8.68623 6.89762 8.82576 6.89746 8.97129V10.2593C6.89763 10.4048 6.95552 10.5443 7.05842 10.6472C7.16133 10.7501 7.30085 10.808 7.44638 10.8082H7.61747V11.2781C7.6174 11.3342 7.63414 11.3892 7.66552 11.4357C7.6969 11.4823 7.7415 11.5185 7.79358 11.5395C7.84566 11.5605 7.90285 11.5655 7.95778 11.5538C8.01272 11.5421 8.0629 11.5142 8.10187 11.4738L8.58962 10.9686C8.6387 10.918 8.69742 10.8777 8.76233 10.8502C8.82723 10.8226 8.89699 10.8083 8.9675 10.8082H11.7313C11.8768 10.808 12.0163 10.7501 12.1192 10.6472C12.2221 10.5443 12.28 10.4048 12.2802 10.2593V8.97129C12.28 8.82576 12.2221 8.68623 12.1192 8.58332C12.0163 8.48042 11.8768 8.42253 11.7313 8.42236ZM11.9286 10.2593C11.9286 10.3116 11.9078 10.3617 11.8708 10.3987C11.8338 10.4357 11.7836 10.4565 11.7313 10.4566H8.9675C8.8498 10.4568 8.73335 10.4807 8.62501 10.5267C8.51667 10.5727 8.41864 10.6399 8.3367 10.7244L7.96902 11.1052V10.7479C7.96894 10.6706 7.93822 10.5966 7.88361 10.542C7.82901 10.4874 7.75497 10.4567 7.67774 10.4566H7.44637C7.39405 10.4565 7.34389 10.4357 7.30689 10.3987C7.26989 10.3617 7.24908 10.3116 7.24902 10.2593V8.97129C7.24907 8.91897 7.26988 8.8688 7.30688 8.83181C7.34388 8.79481 7.39405 8.774 7.44637 8.77394H11.7313C11.7836 8.774 11.8338 8.79481 11.8708 8.8318C11.9078 8.8688 11.9286 8.91897 11.9286 8.97129V10.2593Z" fill="#3182CE"/>
<path d="M3.58195 8.24201L3.74388 8.15767C3.79385 8.13176 3.83572 8.0926 3.86491 8.04447C3.89409 7.99635 3.90948 7.94112 3.90937 7.88484V7.74499C3.90928 7.66344 3.87684 7.58525 3.81917 7.52757C3.7615 7.4699 3.68331 7.43747 3.60175 7.43738H3.42969C3.34813 7.43747 3.26994 7.4699 3.21227 7.52757C3.1546 7.58525 3.12216 7.66344 3.12207 7.74499V7.90138H3.38574V7.74499C3.38575 7.73334 3.39039 7.72217 3.39863 7.71393C3.40687 7.7057 3.41804 7.70106 3.42969 7.70105H3.60175C3.6134 7.70106 3.62457 7.7057 3.63281 7.71393C3.64105 7.72217 3.64568 7.73334 3.64569 7.74499V7.88484C3.64571 7.89288 3.64352 7.90077 3.63935 7.90764C3.63518 7.91452 3.6292 7.92011 3.62206 7.92381L3.46013 8.00815C3.39759 8.04057 3.34518 8.08959 3.30864 8.14982C3.27209 8.21005 3.25283 8.27917 3.25296 8.34962H3.51663C3.51659 8.32742 3.52267 8.30563 3.53419 8.28665C3.54571 8.26767 3.56224 8.25222 3.58195 8.24201Z" fill="#3182CE"/>
<path d="M3.52539 8.56567H3.26172V8.79676H3.52539V8.56567Z" fill="#3182CE"/>
<path d="M6.89039 7.75378H4.3252V8.01746H6.89039V7.75378Z" fill="#3182CE"/>
<path d="M5.83204 8.30078H4.3252V8.56445H5.83204V8.30078Z" fill="#3182CE"/>
<path d="M10.0859 9.20483H7.85645V9.46851H10.0859V9.20483Z" fill="#3182CE"/>
<path d="M11.314 9.75916H7.86328V10.0228H11.314V9.75916Z" fill="#3182CE"/>
<path d="M11.3145 9.20483H10.499V9.46851H11.3145V9.20483Z" fill="#3182CE"/>
<path d="M8.42711 2.7682L8.05566 3.13965L8.26282 3.3468L8.63426 2.97535L8.42711 2.7682Z" fill="#3182CE"/>
<path d="M8.26281 4.47705L8.05566 4.6842L8.42713 5.05565L8.63427 4.8485L8.26281 4.47705Z" fill="#3182CE"/>
<path d="M8.96088 3.7655H8.43555V4.05847H8.96088V3.7655Z" fill="#3182CE"/>
<path d="M6.7181 4.47704L6.34668 4.84851L6.55385 5.05565L6.92527 4.68418L6.7181 4.47704Z" fill="#3182CE"/>
<path d="M6.55383 2.76831L6.34668 2.97546L6.71814 3.34691L6.92529 3.13976L6.55383 2.76831Z" fill="#3182CE"/>
<path d="M7.63672 4.85754H7.34375V5.38286H7.63672V4.85754Z" fill="#3182CE"/>
<path d="M7.91334 3.76544H7.63672V3.33337H7.34375L7.34378 3.91193C7.34378 3.95078 7.35921 3.98804 7.38668 4.01551C7.41415 4.04298 7.45141 4.05841 7.49026 4.05841H7.91334V3.76544Z" fill="#3182CE"/>
<path d="M7.63672 2.44104H7.34375V2.96635H7.63672V2.44104Z" fill="#3182CE"/>
<path d="M6.54486 3.7655H6.01953V4.05847H6.54486V3.7655Z" fill="#3182CE"/>
<path d="M6.54548 9.05692H2.73692C2.68187 9.05685 2.62909 9.03495 2.59017 8.99602C2.55125 8.95709 2.52935 8.90431 2.5293 8.84926V7.46803C2.52935 7.41298 2.55125 7.3602 2.59017 7.32127C2.62909 7.28234 2.68187 7.26044 2.73692 7.26038H7.29421C7.34927 7.26044 7.40205 7.28234 7.44098 7.32127C7.47991 7.36019 7.5018 7.41298 7.50187 7.46803V8.07088H7.85343V7.46803C7.85326 7.31977 7.79429 7.17762 7.68946 7.07279C7.58462 6.96795 7.44248 6.90898 7.29421 6.90881H2.73692C2.58866 6.90898 2.44653 6.96796 2.34169 7.07279C2.23686 7.17763 2.1779 7.31977 2.17773 7.46803V8.84927C2.1779 8.99753 2.23687 9.13967 2.3417 9.2445C2.44653 9.34934 2.58866 9.40831 2.73692 9.40848H6.54548V9.05692Z" fill="#3182CE"/>
</svg>
