<svg width="15" height="15" viewBox="0 0 15 15" fill="none" xmlns="http://www.w3.org/2000/svg">
<path d="M1.40625 1.40625H5.15625V0.46875H0.46875V5.15625H1.40625V1.40625Z" fill="#3182CE"/>
<path d="M5.15625 5.15625V2.34375H2.34375V5.15625H5.15625ZM3.28125 3.28125H4.21875V4.21875H3.28125V3.28125Z" fill="#3182CE"/>
<path d="M9.60938 1.40625H13.5938V5.15625H14.5312V0.46875H9.60938V1.40625Z" fill="#3182CE"/>
<path d="M12.6562 5.15625V2.34375H9.84375V5.15625H12.6562ZM10.7812 3.28125H11.7188V4.21875H10.7812V3.28125Z" fill="#3182CE"/>
<path d="M5.15625 13.5938H1.40625V9.84375H0.46875V14.5312H5.15625V13.5938Z" fill="#3182CE"/>
<path d="M5.15625 9.84375H2.34375V12.6562H5.15625V9.84375ZM4.21875 11.7188H3.28125V10.7812H4.21875V11.7188Z" fill="#3182CE"/>
<path d="M13.5938 13.5938H9.60938V14.5312H14.5312V9.84375H13.5938V13.5938Z" fill="#3182CE"/>
<path d="M7.96875 8.90625H11.7188V10.7812H12.6562V7.96875H7.96875V8.90625Z" fill="#3182CE"/>
<path d="M12.6562 12.6562V11.7188H7.03125V7.96875H2.34375V8.90625H6.09375V12.6562H12.6562Z" fill="#3182CE"/>
<path d="M7.03125 2.34375H6.09375V5.15625H7.03125V2.34375Z" fill="#3182CE"/>
<path d="M2.34375 7.03125H8.90625V2.34375H7.96875V6.09375H2.34375V7.03125Z" fill="#3182CE"/>
<path d="M12.6562 6.09375H9.84375V7.03125H12.6562V6.09375Z" fill="#3182CE"/>
<path d="M10.7812 9.84375H9.84375V10.7812H10.7812V9.84375Z" fill="#3182CE"/>
<path d="M8.90625 9.84375H7.96875V10.7812H8.90625V9.84375Z" fill="#3182CE"/>
</svg>
