<svg width="15" height="15" viewBox="0 0 15 15" fill="none" xmlns="http://www.w3.org/2000/svg">
<g clip-path="url(#clip0_53_763)">
<path d="M11.9999 0H2.99992C1.34981 0 0 1.34981 0 2.99992V11.9999C0 13.65 1.34981 15 2.99992 15H11.9998C13.65 15 14.9999 13.65 14.9999 11.9999V2.99992C15 1.34981 13.6502 0 11.9999 0ZM3.03146 11.5678H1.875V3.43217H3.03146V4.75497L3.68267 4.10489H4.61946L4.65242 4.13714L3.03146 5.75824V11.5678ZM3.36909 6.55331L5.81906 4.10418H6.75515L6.78881 4.13643L4.37179 6.55331H3.36909ZM5.50421 6.55331L7.95418 4.10418H8.89168L8.92393 4.13643L6.50677 6.55331H5.50421ZM7.63918 6.55331L10.0899 4.10418H11.0267L11.0595 4.13643L8.6426 6.55331H7.63918ZM13.125 11.5678H11.9684V5.36389L10.7783 6.55331H9.77557L11.9684 4.36048V3.43217H13.125V11.5678Z" fill="#3182CE"/>
</g>
<defs>
<clipPath id="clip0_53_763">
<rect width="15" height="15" fill="white"/>
</clipPath>
</defs>
</svg>
