<svg width="250" height="188" viewBox="0 0 250 188" fill="none" xmlns="http://www.w3.org/2000/svg">
<g id="sent_illustration">
<g id="freepik--background-complete--inject-128">
<rect id="Rectangle" y="164.771" width="250" height="0.125819" fill="#E0E0E0"/>
<rect id="Rectangle_2" x="171.63" y="170.102" width="17.2" height="0.125819" fill="#E0E0E0"/>
<rect id="Rectangle_3" x="45.84" y="170.161" width="9.68" height="0.125819" fill="#E0E0E0"/>
<rect id="Rectangle_4" x="105.88" y="169.87" width="19.62" height="0.125819" fill="#E0E0E0"/>
<rect id="Rectangle_5" x="96.61" y="168.078" width="8.77" height="0.125819" fill="#E0E0E0"/>
<rect id="Rectangle_6" x="185.785" y="168.144" width="26.495" height="0.125819" fill="#E0E0E0"/>
<path id="Shape" fill-rule="evenodd" clip-rule="evenodd" d="M21.955 142.326H118.5C120.077 142.326 121.355 141.039 121.355 139.452V2.87321C121.355 1.28611 120.077 -0.000488281 118.5 -0.000488281H21.955C20.3899 0.0022103 19.1187 1.27274 19.105 2.84805V139.452C19.105 141.037 20.3802 142.323 21.955 142.326ZM19.2301 2.8481C19.2301 1.33245 20.4494 0.102996 21.9551 0.10022H118.5C120.007 0.10299 121.227 1.33164 121.23 2.8481V139.452C121.227 140.968 120.007 142.197 118.5 142.2H21.9551C20.4494 142.197 19.2301 140.968 19.2301 139.452V2.8481Z" fill="#E0E0E0"/>
<path id="Shape_2" fill-rule="evenodd" clip-rule="evenodd" d="M130.105 142.326H226.655C228.228 142.32 229.5 141.035 229.5 139.452V2.84805C229.487 1.2747 228.219 0.00496254 226.655 -0.000488281H130.105C128.539 0.00218062 127.267 1.27193 127.25 2.84805V139.452C127.253 141.038 128.53 142.323 130.105 142.326ZM127.375 2.8481C127.378 1.33164 128.599 0.10299 130.105 0.10022H226.655C228.162 0.10299 229.383 1.33164 229.385 2.8481V139.452C229.383 140.968 228.162 142.197 226.655 142.2H130.105C128.599 142.197 127.378 140.968 127.375 139.452V2.8481Z" fill="#E0E0E0"/>
<path id="Path" d="M219.655 101.777C213.505 92.3504 219.12 82.2195 218.185 71.7313C217.25 61.243 207.35 58.9582 209.225 50.0905C211.395 39.7834 205.61 29.894 199.055 29.894C192.5 29.894 186.72 39.7582 188.89 50.0754C190.765 58.9582 180.89 61.2481 179.93 71.7162C178.97 82.1843 184.61 92.3504 178.455 101.762C172.3 111.173 173.92 123.669 177.385 129.865C178.307 131.508 179.418 133.037 180.695 134.419C185.442 139.548 192.093 142.462 199.058 142.462C206.022 142.462 212.673 139.548 217.42 134.419C218.694 133.036 219.804 131.507 220.725 129.865C224.195 123.684 225.81 111.223 219.655 101.777Z" fill="#E0E0E0"/>
<path id="Path_2" d="M199.055 108.928C199.88 108.928 200.671 109.258 201.254 109.845C201.838 110.432 202.165 111.229 202.165 112.059V164.772H195.945V112.059C195.945 111.229 196.273 110.432 196.856 109.845C197.439 109.258 198.23 108.928 199.055 108.928Z" fill="#F0F0F0"/>
<path id="Path_3" d="M159.955 164.771H151.5V112.064C151.505 109.712 153.398 107.806 155.735 107.801C158.072 107.806 159.965 109.712 159.97 112.064L159.955 164.771Z" fill="#E0E0E0"/>
<ellipse id="Oval" cx="155.72" cy="124.298" rx="26.085" ry="26.2558" fill="#F0F0F0"/>
<ellipse id="Oval_2" cx="176.395" cy="113.925" rx="10.3434" ry="10.2839" transform="rotate(-76.05 176.395 113.925)" fill="#F0F0F0"/>
<ellipse id="Oval_3" cx="134.62" cy="107.797" rx="6.12383" ry="6.08603" transform="rotate(-80.75 134.62 107.797)" fill="#F0F0F0"/>
<ellipse id="Oval_4" cx="141.24" cy="104.63" rx="4.27" ry="4.29797" fill="#F0F0F0"/>
<path id="Path_4" d="M102 133.312C97.9437 133.92 94.0674 135.409 90.6399 137.675C90.6099 133.689 89.8849 129.91 88.0249 126.855C85.1949 129.628 82.8999 133.221 81.0249 137.086C80.3399 129.844 78.4449 122.799 74.2499 118.334C67.9649 122.315 64.7249 128.949 63.1849 135.974C60.6408 131.237 56.948 127.224 52.4499 124.308C48.6049 128.385 47.3749 134.022 47.4799 139.799C43.1099 134.676 38.2599 130.68 33.5299 130.212C32.3649 138.309 34.8449 145.949 37.9999 151.988C42.1744 159.885 50.3482 164.808 59.2349 164.777H79.7799C88.5349 164.777 96.7449 160.076 100.85 152.29C103.445 147.358 104.685 141.012 102 133.312Z" fill="#E0E0E0"/>
<path id="Path_5" d="M96.1299 28.7567C98.6649 21.273 96.6299 15.9434 90.4449 15.9434C86.5549 15.9434 81.7299 18.042 77.0299 21.4542C76.4999 19.5065 75.0049 18.344 72.5999 18.344C68.3649 18.344 62.5299 21.9474 57.9549 27.0305C56.6668 25.7987 54.9616 25.106 53.1849 25.0929C49.1299 24.8614 44.2249 26.9349 39.9599 30.3018C39.5263 29.6909 38.8258 29.329 38.0799 29.3305C35.7449 29.1996 32.5799 31.2932 31.0149 34.0009C30.9199 34.1669 30.8349 34.333 30.7449 34.5041H97.3599C97.5599 32.1387 97.1449 30.1659 96.1299 28.7567Z" fill="#F0F0F0"/>
<path id="Path_6" d="M96.335 74.1976C97.575 70.5438 96.59 67.9419 93.56 67.9419C91.655 67.9419 89.3 68.9484 87.005 70.6344C86.7497 69.6643 85.8322 69.0244 84.84 69.1246C82.775 69.1246 79.925 70.8861 77.685 73.3722C77.0572 72.7685 76.2233 72.4299 75.355 72.4261C73.355 72.3103 70.98 73.3219 68.895 74.9676C68.69 74.6725 68.3577 74.4931 68 74.4845C66.86 74.419 65.315 75.4407 64.55 76.7643L64.415 77.0059H96.955C97.0911 76.0252 96.8709 75.028 96.335 74.1976Z" fill="#F0F0F0"/>
<path id="Path_7" d="M171.385 46.5473C171.128 46.511 170.869 46.4925 170.61 46.4919C170.85 42.8432 169.465 40.508 166.5 40.508C164.365 40.508 161.74 41.7259 159.07 43.7843C159.835 36.6982 157.385 32.0933 151.835 32.0933C147.365 32.0933 141.7 35.1129 136.105 39.9745C135.605 37.1965 133.965 35.5256 131.195 35.5256C126.33 35.5256 119.415 40.6791 113.87 47.9464C112.59 46.2491 110.616 45.226 108.5 45.1633C103.87 44.8362 98.115 47.7954 93 52.6168C92.6202 51.7872 91.8023 51.2494 90.895 51.2328C88.36 51.0516 84.895 53.7139 82.84 57.2721H175.46C177.635 51.877 175.905 47.1563 171.385 46.5473Z" fill="#F0F0F0"/>
</g>
<g id="freepik--Shadow--inject-128">
<ellipse id="Oval_5" cx="125" cy="181.802" rx="96.945" ry="5.69707" fill="#F5F5F5"/>
</g>
<g id="Group 193">
<path id="Vector" d="M148.328 75.6714C168.415 66.4152 172.186 40.8727 170.275 22.9454L148.328 7.12354L126.381 22.9454C124.47 40.8727 128.241 66.4152 148.328 75.6714Z" fill="#3182CE" stroke="#020151" stroke-width="0.503466"/>
<circle id="Ellipse 86" cx="147.921" cy="41.7209" r="10.6422" fill="#7CC3FB" stroke="#E0EBFE" stroke-width="1.5104"/>
<g id="Mask Group">
<mask id="mask0_153_3698" style="mask-type:alpha" maskUnits="userSpaceOnUse" x="138" y="32" width="19" height="19">
<circle id="Ellipse 87" cx="147.921" cy="41.7217" r="8.19993" fill="#7CC3FB" stroke="#DAEFFF" stroke-width="1.5104"/>
</mask>
<g mask="url(#mask0_153_3698)">
<g id="Group 192">
<path id="Vector 28" d="M150.587 37.9767L150.633 38.0714L150.732 38.1061C150.733 38.1066 150.782 38.1292 150.835 38.2872C150.884 38.4324 150.916 38.634 150.935 38.8732C150.964 39.2369 150.96 39.6441 150.956 40.0044C150.955 40.1188 150.954 40.2284 150.954 40.3305V40.408L150.997 40.4721C151.22 40.7988 151.312 41.0899 151.33 41.3512C151.348 41.6139 151.292 41.8634 151.192 42.1075C151.092 42.354 150.95 42.5875 150.801 42.8204C150.78 42.8541 150.758 42.8881 150.736 42.9222C150.611 43.1157 150.482 43.315 150.392 43.505L150.383 43.5231L150.378 43.5424C150.006 44.8112 149.09 45.6901 148.141 45.826C147.226 45.9569 146.139 45.4103 145.381 43.5195L145.366 43.4838L145.342 43.454C144.211 42.0684 144.476 40.9892 144.743 40.7093L144.783 40.6672L144.801 40.6119C145.008 39.9591 145.008 39.3092 145.008 38.5084L145.008 38.484C145.008 37.8748 145.382 37.3256 145.932 36.9164C146.483 36.5071 147.164 36.2737 147.688 36.2737C148.142 36.2737 148.702 36.3238 149.189 36.4684C149.686 36.616 150.048 36.8441 150.197 37.1561L150.587 37.9767Z" fill="white" stroke="white" stroke-width="0.503466"/>
<path id="Vector_2" d="M147.91 46.6489L147.92 46.6493L147.931 46.6489C148.68 46.6188 149.52 46.2798 150.466 45.4519C151.425 45.6649 152.537 46.0128 153.419 46.6566C154.295 47.2958 154.948 48.2275 154.993 49.6404C154.384 49.9037 153.339 50.0937 152.098 50.2194C150.772 50.3538 149.263 50.4112 147.92 50.4212C146.577 50.4112 145.069 50.3538 143.743 50.2194C142.502 50.0937 141.457 49.9037 140.848 49.6404C140.893 48.2275 141.546 47.2958 142.422 46.6566C143.304 46.0128 144.416 45.6649 145.375 45.4519C146.321 46.2798 147.161 46.6188 147.91 46.6489Z" fill="white" stroke="white" stroke-width="0.503466"/>
</g>
</g>
</g>
</g>
<g id="freepik--Character--inject-242">
<path id="Path_8" d="M89.5903 79.9994L91.4003 80.7244C92.0609 80.99 92.6403 81.4245 93.0803 81.9844L93.9103 83.0344C94.4633 83.7303 94.438 84.7226 93.8503 85.3894L92.9703 86.3894C92.645 86.76 92.1849 86.985 91.6926 87.0141C91.2004 87.0432 90.717 86.8741 90.3503 86.5444L89.5003 85.7944C89.5003 85.7944 86.9003 83.9694 86.1353 81.5544L86.6353 81.0544C87.3946 80.25 88.4932 79.8578 89.5903 79.9994Z" fill="#FFB573"/>
<path id="Path_9" d="M94.5501 62.4597L93.9601 62.8497L93.3051 63.2997C92.8701 63.6097 92.4301 63.9297 92.0051 64.2547C91.1501 64.9197 90.3201 65.6047 89.5501 66.3347C88.0298 67.7003 86.725 69.2883 85.6801 71.0447C85.5551 71.2547 85.4451 71.4647 85.3401 71.6797L85.2601 71.8397C85.2803 71.7722 85.297 71.7038 85.3101 71.6347C85.3271 71.5522 85.3271 71.4671 85.3101 71.3847C85.2651 71.2397 85.2601 71.6147 85.3751 71.9847C85.6817 72.9449 86.0819 73.8727 86.5701 74.7547C87.6001 76.7247 88.8901 78.7547 90.1101 80.7547L90.1401 80.8097C90.6437 81.6384 90.3822 82.7183 89.5551 83.2247C88.9281 83.6007 88.1349 83.5551 87.5551 83.1097C86.5559 82.3322 85.6027 81.4975 84.7001 80.6097C83.7769 79.7116 82.9054 78.7618 82.0901 77.7647C81.182 76.6748 80.4112 75.4775 79.7951 74.1997C79.6105 73.8009 79.4535 73.3899 79.3251 72.9697C79.1603 72.4229 79.0728 71.8557 79.0651 71.2847C79.0616 70.8978 79.1036 70.5118 79.1901 70.1347C79.2406 69.9193 79.304 69.7073 79.3801 69.4997L79.4751 69.2447C79.6001 68.8997 79.7401 68.5647 79.8851 68.2447C81.0532 65.6962 82.6688 63.3779 84.6551 61.3997C85.5947 60.4393 86.5969 59.5423 87.6551 58.7147C88.1851 58.3047 88.7201 57.9047 89.2751 57.5297C89.5551 57.3397 89.8351 57.1497 90.1251 56.9697L90.5701 56.6997L91.0701 56.4097C92.6998 55.5299 94.7328 56.0719 95.7081 57.6462C96.6835 59.2206 96.2636 61.2822 94.7501 62.3497L94.5501 62.4597Z" fill="#FFB573"/>
<path id="Path_10" d="M94.6101 54.5242C91.6901 54.5242 88.4901 55.7892 84.3901 60.8742C84.3901 63.9092 90.7951 67.9442 90.7951 67.9442C90.7951 67.9442 101.295 54.4992 94.6101 54.5242Z" fill="#263238"/>
<path id="Shape_3" fill-rule="evenodd" clip-rule="evenodd" d="M72.7601 174.695C72.8104 174.71 72.8626 174.718 72.9151 174.72C73.0619 174.711 73.1972 174.638 73.2851 174.52C73.391 174.395 73.44 174.232 73.4201 174.07C73.3521 173.264 71.9304 172.075 71.7892 171.957C71.785 171.954 71.782 171.951 71.7801 171.95C71.7328 171.92 71.6724 171.92 71.6251 171.95C71.5751 171.973 71.5451 172.025 71.5501 172.08C71.5851 172.94 72.1551 174.48 72.7601 174.695ZM72.8701 174.415C72.4701 174.29 72.0051 173.23 71.8701 172.415C72.3601 172.855 73.1001 173.62 73.1551 174.095C73.1671 174.181 73.1416 174.269 73.0851 174.335C73.0406 174.408 72.9516 174.441 72.8701 174.415Z" fill="#263238"/>
<path id="Shape_4" fill-rule="evenodd" clip-rule="evenodd" d="M71.6101 172.194C72.2909 172.604 73.0616 172.841 73.8551 172.884C74.059 172.893 74.2609 172.84 74.4351 172.734C74.595 172.622 74.6671 172.422 74.6151 172.234C74.578 172.074 74.4742 171.938 74.3301 171.859C73.7246 171.501 72.2647 171.812 71.7983 171.911C71.7178 171.928 71.6668 171.939 71.6551 171.939C71.6007 171.954 71.5598 171.999 71.5501 172.054C71.542 172.108 71.5652 172.163 71.6101 172.194ZM74.275 172.519C73.94 172.749 72.805 172.499 72.07 172.129C72.715 171.999 73.77 171.844 74.185 172.099C74.2646 172.138 74.3217 172.212 74.34 172.299C74.37 172.434 74.325 172.484 74.275 172.519Z" fill="#263238"/>
<path id="Path_11" d="M66.3701 171.744C67.8513 170.16 69.1065 168.378 70.1001 166.449C70.1001 166.449 74.7401 167.589 73.8301 168.949C72.1751 171.374 71.3701 176.359 73.5001 179.029C74.7151 180.554 72.7951 180.809 71.5001 180.154C69.5001 179.119 69.5651 178.729 68.5001 177.014C67.6001 175.549 67.2451 174.974 66.0001 174.344C65.0001 173.799 65.5001 172.779 66.3701 171.744Z" fill="#407BFF"/>
<path id="Path_12" d="M105.72 84.6643C105.72 84.6643 99.0001 117.464 94.0701 131.499C88.9001 146.209 74.6251 168.914 74.0701 169.889C72.0401 169.344 70.2301 168.634 69.0251 167.459C69.0251 167.459 75.7251 142.834 82.2551 126.859C84.7551 93.5093 90.2001 84.6893 90.2001 84.6893L105.72 84.6643Z" fill="#263238"/>
<path id="Path_13" opacity="0.2" d="M95.4551 102.215C95.1501 108.56 94.9551 117.285 95.2401 127.905C97.2951 121.285 99.5301 112.31 101.41 104.255C100.155 102.58 98.2051 101.775 95.4551 102.215Z" fill="black"/>
<path id="Path_14" d="M95.8601 44.4448C96.5651 47.2998 97.2551 51.9448 96.1301 54.4448C96.1301 54.4448 100.34 54.6348 105.72 58.9448C108.255 55.2248 105.32 54.4948 105.32 54.4948C103.085 53.9948 103.195 50.9948 103.2 48.8698L95.8601 44.4448Z" fill="#FFB573"/>
<path id="Path_15" d="M94.8001 55.7196C92.7001 55.4896 94.1501 51.4996 95.2401 51.8896C98.0001 52.8896 104.19 51.7796 106.105 52.8346C108.02 53.8896 107.535 56.0546 107.535 56.0546C107.535 56.0546 97.0601 55.9696 94.8001 55.7196Z" fill="#407BFF"/>
<path id="Path_16" opacity="0.7" d="M94.8001 55.7196C92.7001 55.4896 94.1501 51.4996 95.2401 51.8896C98.0001 52.8896 104.19 51.7796 106.105 52.8346C108.02 53.8896 107.535 56.0546 107.535 56.0546C107.535 56.0546 97.0601 55.9696 94.8001 55.7196Z" fill="white"/>
<path id="Path_17" d="M107.05 39.4098C107.12 39.7898 107.375 40.0648 107.625 40.0198C107.875 39.9748 108.02 39.6298 107.955 39.2498C107.89 38.8698 107.63 38.5948 107.38 38.6398C107.13 38.6848 107 39.0298 107.05 39.4098Z" fill="#263238"/>
<path id="Path_18" d="M107.275 38.6796L108.145 38.2546C108.145 38.2546 107.8 39.0546 107.275 38.6796Z" fill="#263238"/>
<path id="Path_19" d="M107.56 36.3594C107.583 36.305 107.583 36.2438 107.56 36.1894C107.526 36.0686 107.401 35.9974 107.28 36.0294C106.568 36.2034 105.984 36.7097 105.71 37.3894C105.676 37.509 105.739 37.6349 105.855 37.6794C105.975 37.719 106.105 37.6542 106.145 37.5344C106.366 36.9967 106.834 36.5996 107.4 36.4694C107.467 36.4569 107.525 36.4169 107.56 36.3594Z" fill="#263238"/>
<path id="Path_20" d="M107.5 40.3394C107.937 41.1822 108.487 41.9612 109.135 42.6544C108.767 42.9814 108.272 43.1279 107.785 43.0544L107.5 40.3394Z" fill="#ED893E"/>
<path id="Path_21" d="M94.0001 39.2143C95.1151 43.8543 95.5001 45.8393 98.2351 47.8343C102.37 50.8343 107.71 48.4643 107.98 43.5943C108.22 39.2043 106.36 32.3593 101.53 31.2893C96.7001 30.2193 92.8851 34.5743 94.0001 39.2143Z" fill="#FFB573"/>
<path id="Path_22" d="M103 40.0695C105.73 36.4595 107.5 33.5395 106.165 30.3445C105.04 27.6745 101.925 28.4545 101.49 29.7895C93.2102 29.0845 90.2352 32.0845 91.9452 37.0445C93.0352 40.2095 88.8052 38.5445 89.8352 42.5845C90.6202 45.6645 87.8352 46.8395 89.2502 48.6095C91.2902 51.1645 95.5002 47.8345 100.305 49.7495C104.225 51.3195 110.135 48.9445 103 40.0695Z" fill="#263238"/>
<path id="Path_23" d="M102.545 40.7994C103.001 41.5492 103.757 42.0678 104.62 42.2244C105.705 42.3844 106.08 41.1644 105.62 40.0344C105.22 39.0344 104.175 37.7094 103.15 38.0744C102.125 38.4394 101.93 39.8244 102.545 40.7994Z" fill="#FFB573"/>
<path id="Shape_5" fill-rule="evenodd" clip-rule="evenodd" d="M101.795 176.745C102.465 177.313 103.288 177.673 104.16 177.78C104.279 177.788 104.398 177.771 104.51 177.73C104.699 177.641 104.803 177.434 104.76 177.23C104.751 177.065 104.668 176.913 104.535 176.815C103.938 176.335 102.308 176.466 101.945 176.495C101.907 176.498 101.883 176.5 101.875 176.5C101.819 176.507 101.772 176.546 101.755 176.6C101.74 176.652 101.756 176.708 101.795 176.745ZM104.385 177.46C104.02 177.64 102.935 177.225 102.255 176.75C102.915 176.71 104 176.72 104.355 177.03C104.428 177.081 104.474 177.162 104.48 177.25C104.49 177.385 104.44 177.43 104.385 177.46Z" fill="#263238"/>
<path id="Shape_6" fill-rule="evenodd" clip-rule="evenodd" d="M101.775 176.724C101.803 176.76 101.845 176.782 101.89 176.784L101.925 176.794C102.76 176.619 104.19 175.804 104.3 175.169C104.343 174.968 104.244 174.762 104.06 174.669C103.921 174.58 103.749 174.556 103.59 174.604C102.781 174.808 101.829 176.476 101.776 176.568L101.775 176.569C101.745 176.617 101.745 176.677 101.775 176.724ZM103.655 174.864H103.755C103.806 174.86 103.858 174.868 103.905 174.889C104.02 174.964 104.02 175.034 104.02 175.094C103.95 175.494 102.975 176.124 102.195 176.394C102.55 175.839 103.185 174.984 103.655 174.864Z" fill="#263238"/>
<path id="Path_24" d="M107.875 179.535C103.825 179.22 101.095 176.44 101.375 173.495C101.53 171.87 96.3402 171.725 96.3402 171.725C97.1602 176.76 96.1302 177.48 95.7902 178.78C95.4502 180.08 95.5352 181.52 96.6102 181.545C97.8952 181.58 98.4952 181.335 100.11 181.395C101.98 181.47 104 181.54 107.325 181.545C108.64 181.55 109.675 179.675 107.875 179.535Z" fill="#407BFF"/>
<path id="Path_25" d="M112.72 84.6643C112.72 84.6643 112.365 109.509 110.405 125.834C108.445 142.159 101.705 174.179 101.705 174.179C99.9324 174.598 98.0847 174.581 96.3201 174.129C96.3201 174.129 94.1901 149.129 97.7651 124.944C95.1401 99.6093 93.4951 84.6643 93.4951 84.6643L112.72 84.6643Z" fill="#263238"/>
<path id="Path_26" d="M113.64 61.6848C113.555 63.6048 116.585 68.0448 112.845 70.6148C113.545 72.1798 114.135 82.7748 112.72 84.6648C110.655 86.1648 99.4802 85.8898 90.2202 84.6648C89.8252 80.8348 91.9352 72.8998 89.3502 60.5298C89.0638 59.1601 89.3724 57.7333 90.1991 56.6043C91.0258 55.4753 92.293 54.7504 93.6852 54.6098C94.4652 54.5348 95.2902 54.4648 96.1352 54.4248C99.0866 54.2171 102.049 54.2171 105 54.4248C105.955 54.5148 106.945 54.6348 107.89 54.7698C111.301 55.2506 113.79 58.2432 113.64 61.6848Z" fill="#407BFF"/>
<g id="Group" opacity="0.3">
<path id="Path_27" d="M89.58 59.86L89.375 59.975C89.3246 59.9902 89.2884 60.0342 89.2832 60.0865C89.278 60.1389 89.3049 60.1892 89.3512 60.214C89.3976 60.2388 89.4543 60.2333 89.495 60.2L89.725 60.075C90.725 60.44 91.79 61.27 92.405 61.355C91.405 60.48 90.7 59.855 89.905 59.965C90.14 59.825 90.37 59.685 90.6 59.535C91.51 59.875 92.5 60.635 93.065 60.71C92.145 59.9 91.485 59.32 90.76 59.43L91.26 59.085L91.54 58.88C92.365 59.235 93.235 59.99 93.755 60.095C92.925 59.275 92.34 58.695 91.64 58.81C91.86 58.645 92.075 58.48 92.285 58.31C93.04 58.64 93.84 59.31 94.315 59.425C93.555 58.67 93.02 58.14 92.375 58.24L92.915 57.79L93.045 57.68C93.71 58.03 94.37 58.72 94.805 58.845C94.175 58.09 93.735 57.565 93.075 57.65C93.245 57.505 93.415 57.355 93.575 57.2C94.19 57.525 94.795 58.16 95.195 58.275C94.615 57.58 94.195 57.1 93.605 57.175L94.135 56.675C94.67 57.005 95.18 57.605 95.535 57.73C95.035 57.07 94.715 56.615 94.17 56.64C94.265 56.545 94.36 56.455 94.45 56.36L94.61 56.195C95.11 56.5 95.575 57.055 95.9 57.17C95.46 56.565 95.145 56.14 94.645 56.17C94.79 56.02 94.935 55.865 95.075 55.71C95.525 55.955 95.95 56.42 96.25 56.51C95.855 56.01 95.575 55.64 95.095 55.69L95.175 55.605L95.475 55.255C95.8188 55.5151 96.176 55.757 96.545 55.98C96.185 55.515 95.93 55.19 95.5 55.225C95.615 55.085 95.73 54.935 95.83 54.785C95.8386 54.7774 95.8435 54.7665 95.8435 54.755C95.8435 54.7435 95.8386 54.7326 95.83 54.725C95.8138 54.7125 95.7912 54.7125 95.775 54.725C95.675 54.865 95.57 55 95.46 55.13C95.4831 54.8946 95.4171 54.6591 95.275 54.47H95.105C95.2116 54.7108 95.3035 54.9579 95.38 55.21C95.29 55.315 95.195 55.415 95.105 55.515L95.04 55.585C95.135 55.22 94.945 54.905 94.655 54.505H94.56C94.64 54.815 94.875 55.24 94.97 55.65L94.57 56.055C94.7 55.595 94.38 55.19 93.935 54.615C93.935 54.96 94.355 55.555 94.515 56.115L94.375 56.255L94.1 56.515C94.225 56.015 93.885 55.58 93.4 54.965C93.4 55.335 93.855 55.965 94.03 56.58L93.53 57.015C93.635 56.515 93.3 56.015 92.845 55.365C92.845 55.76 93.25 56.46 93.415 57.115L93.02 57.45C93.135 56.91 92.775 56.38 92.28 55.655C92.28 56.085 92.72 56.845 92.895 57.555L92.79 57.64C92.61 57.79 92.425 57.935 92.24 58.08C92.385 57.525 92.04 56.9 91.565 56.05C91.53 56.51 91.94 57.41 92.065 58.205C91.855 58.365 91.645 58.515 91.43 58.67C91.67 58.04 91.28 57.335 90.74 56.355C90.695 56.855 91.165 57.885 91.3 58.76L91.11 58.89L90.515 59.275C90.79 58.64 90.455 57.89 89.965 56.87C89.94 56.905 89.915 56.94 89.895 56.975C89.93 57.575 90.28 58.535 90.355 59.37C90.135 59.51 89.905 59.64 89.68 59.765C89.94 59.235 89.79 58.635 89.47 57.885C89.3965 58.0973 89.338 58.3145 89.295 58.535C89.424 58.9686 89.5193 59.4116 89.58 59.86Z" fill="#263238"/>
<path id="Path_28" d="M102.355 56.395C101.6 55.895 100.855 55.03 100.355 54.845C101.04 55.785 101.53 56.45 102.24 56.45C101.995 56.575 101.74 56.705 101.52 56.84C100.83 56.395 100.15 55.585 99.6949 55.415C100.325 56.28 100.775 56.89 101.425 56.915C101.22 57.03 101.02 57.15 100.82 57.27L100.675 57.36C100.07 56.91 99.5299 56.125 99.1199 55.93C99.6199 56.78 99.9749 57.365 100.62 57.385C100.425 57.5 100.235 57.625 100.045 57.75C99.4949 57.335 98.9949 56.61 98.6199 56.435C99.0799 57.21 99.3999 57.75 100.015 57.77L99.4149 58.175C98.9399 57.765 98.5299 57.09 98.1999 56.91C98.5699 57.635 98.8299 58.145 99.3749 58.205L99.0499 58.435L98.8699 58.57C98.4299 58.195 98.0499 57.57 97.7449 57.405C98.0899 58.075 98.3299 58.54 98.8299 58.6C98.6599 58.725 98.4949 58.85 98.3299 58.98C97.9199 58.67 97.5749 58.145 97.2899 58.01C97.6049 58.58 97.8199 58.975 98.2899 59.01L98.1999 59.08L97.8449 59.38C97.4749 59.09 97.1599 58.615 96.8999 58.49C97.1849 58.99 97.3999 59.37 97.8149 59.405C97.6799 59.525 97.5449 59.655 97.4149 59.79C97.4065 59.7967 97.4016 59.8068 97.4016 59.8175C97.4016 59.8283 97.4065 59.8384 97.4149 59.845C97.4303 59.8597 97.4545 59.8597 97.4699 59.845C97.5875 59.7207 97.7128 59.6039 97.8449 59.495C97.7199 59.835 97.8999 60.18 98.1399 60.65C98.0988 60.236 98.0303 59.8251 97.9349 59.42C98.0399 59.33 98.1449 59.25 98.2549 59.165L98.3299 59.105C98.1599 59.49 98.3549 59.875 98.6299 60.415C98.581 59.9561 98.5059 59.5004 98.4049 59.05C98.5599 58.93 98.7099 58.82 98.8699 58.71C98.6699 59.14 98.9199 59.595 99.2699 60.21C99.3049 59.87 98.9999 59.21 98.9349 58.64L99.0949 58.525L99.4049 58.315C99.2049 58.78 99.4699 59.27 99.8499 59.955C99.8849 59.585 99.5599 58.88 99.4849 58.26L100.03 57.91C99.8449 58.385 100.095 58.91 100.44 59.645C100.5 59.255 100.215 58.5 100.155 57.83L100.6 57.56C100.4 58.06 100.67 58.655 101.05 59.45C101.115 59.025 100.8 58.2 100.74 57.475L100.855 57.41L101.47 57.06C101.24 57.585 101.47 58.255 101.81 59.175C101.92 58.725 101.66 57.77 101.65 56.965C101.885 56.84 102.115 56.72 102.355 56.605C102.015 57.19 102.285 57.945 102.67 59C102.79 58.5 102.49 57.425 102.495 56.54L102.7 56.44L103.355 56.15C102.965 56.76 103.21 57.6 103.56 58.765C103.72 58.225 103.46 57.045 103.525 56.08C103.765 55.98 104.025 55.89 104.255 55.8C103.785 56.465 104.055 57.39 104.44 58.68C104.62 58.095 104.33 56.795 104.405 55.75L104.63 55.67C104.663 55.6599 104.691 55.6363 104.706 55.605C104.721 55.5737 104.723 55.5375 104.71 55.505C104.684 55.4394 104.612 55.4045 104.545 55.425L104.3 55.515C103.721 55.1463 103.166 54.7404 102.64 54.3H102.24C102.89 55.075 103.425 55.595 104.09 55.605C103.835 55.7 103.59 55.81 103.335 55.92C102.49 55.42 101.635 54.535 101.09 54.365C101.87 55.315 102.43 55.99 103.165 55.995L102.605 56.255L102.355 56.395Z" fill="#263238"/>
<path id="Path_29" d="M96.11 65.7454C95.56 65.1454 95.175 64.7454 94.635 64.8104L94.885 64.5054L95.025 64.3254C95.525 64.5704 96.075 65.0704 96.415 65.1454C95.915 64.5954 95.55 64.2054 95.05 64.2854C95.18 64.1204 95.305 63.9554 95.43 63.7854C95.905 63.9754 96.38 64.3904 96.69 64.4454C96.235 63.9804 95.92 63.6554 95.445 63.7604C95.4711 63.7308 95.4945 63.699 95.515 63.6654C95.605 63.5404 95.69 63.4154 95.775 63.2854C96.1474 63.5071 96.5313 63.7091 96.925 63.8904C96.51 63.4654 96.225 63.1704 95.8 63.2554C95.9 63.1004 95.995 62.9404 96.08 62.7554C96.0896 62.7347 96.0807 62.71 96.06 62.7004C96.0393 62.6907 96.0146 62.6997 96.005 62.7204C95.9245 62.8711 95.8343 63.0164 95.735 63.1554C95.765 62.7954 95.5 62.5104 95.14 62.1204C95.2915 62.5099 95.4685 62.8891 95.67 63.2554L95.43 63.5854L95.37 63.6604C95.435 63.2454 95.14 62.9254 94.735 62.4804C94.9023 62.9118 95.096 63.3326 95.315 63.7404L94.96 64.1904C95.035 63.7154 94.675 63.3504 94.165 62.8254C94.225 63.1654 94.665 63.7154 94.91 64.2504L94.785 64.4054L94.54 64.6904C94.61 64.1904 94.225 63.7904 93.675 63.2304C93.74 63.5954 94.24 64.1904 94.48 64.7654L94.05 65.2654C94.1 64.7654 93.715 64.3104 93.185 63.7004C93.235 64.0954 93.715 64.7454 93.95 65.3754L93.595 65.7554C93.65 65.2054 93.23 64.7204 92.655 64.0554C92.705 64.4804 93.225 65.1904 93.48 65.8704L93.385 65.9704C93.225 66.1404 93.055 66.3054 92.885 66.4704C92.97 65.9054 92.56 65.3254 91.995 64.5304C91.995 64.9904 92.495 65.8404 92.74 66.6154C92.55 66.7954 92.355 66.9754 92.16 67.1454C92.33 66.4954 91.865 65.8404 91.215 64.9254C91.215 65.4254 91.81 66.3954 92.04 67.2504L91.865 67.4004C91.685 67.5554 91.5 67.7054 91.315 67.8554C91.53 67.1604 91.065 66.4204 90.42 65.3904C90.42 65.9504 90.975 67.0204 91.17 67.9654C90.9666 68.1254 90.7566 68.2804 90.54 68.4304C90.6739 67.9559 90.6051 67.4472 90.35 67.0254C90.41 67.6204 90.46 68.2004 90.5 68.7704L90.57 68.7204C91.595 68.9754 92.755 69.6754 93.375 69.6904C92.295 68.9304 91.515 68.3904 90.75 68.5904C90.97 68.4254 91.185 68.2554 91.395 68.0904C92.34 68.3254 93.395 68.9704 93.975 68.9854C92.975 68.2804 92.25 67.7754 91.54 67.9854C91.7 67.8504 91.855 67.7204 92.01 67.5804L92.265 67.3454C93.125 67.6104 94.075 68.2654 94.6 68.3054C93.69 67.5854 93.04 67.0754 92.355 67.2654C92.555 67.0804 92.75 66.8904 92.945 66.6954C93.73 66.9404 94.605 67.5404 95.085 67.5804C94.245 66.9154 93.65 66.4454 93.02 66.6204C93.185 66.4504 93.35 66.2854 93.52 66.1204L93.635 65.9954C94.335 66.2704 95.07 66.8804 95.515 66.9604C94.805 66.2804 94.31 65.8054 93.665 65.9604C93.815 65.7954 93.97 65.6254 94.115 65.4604C94.76 65.7154 95.435 66.2754 95.845 66.3454C95.195 65.7204 94.74 65.2904 94.145 65.4304C94.305 65.2504 94.46 65.0654 94.61 64.8804C95.17 65.1204 95.745 65.6604 96.11 65.7454Z" fill="#263238"/>
<path id="Path_30" d="M104.815 65.3804C104.455 65.5404 103.97 66.1854 103.435 66.5954L102.97 66.3654C103.515 66.2604 103.855 65.7204 104.325 64.9754C103.93 65.1454 103.405 65.8504 102.825 66.2954L102.705 66.2304C102.495 66.1254 102.29 66.0104 102.085 65.9004C102.65 65.8154 103.085 65.2504 103.68 64.4754C103.24 64.6254 102.58 65.3604 101.905 65.8004C101.675 65.6704 101.45 65.5404 101.225 65.4004C101.895 65.3754 102.39 64.7354 103.075 63.8454C102.575 64.0154 101.84 64.8454 101.075 65.3154L100.88 65.1954L100.29 64.8004C101.01 64.8004 101.585 64.1454 102.38 63.2254C101.84 63.3754 100.985 64.2254 100.14 64.6954C99.9234 64.5454 99.7134 64.3904 99.5101 64.2304C100.32 64.2704 100.955 63.5454 101.84 62.5254C101.245 62.6854 100.305 63.6304 99.3801 64.1304L99.1951 63.9804C99.1431 63.9315 99.062 63.9315 99.0101 63.9804C98.9618 64.0307 98.9618 64.1101 99.0101 64.1604L99.2151 64.3204C99.2751 65.3754 98.9401 66.6904 99.1051 67.2904C99.5151 66.0304 99.8101 65.1254 99.3951 64.4554C99.6151 64.6154 99.8401 64.7704 100.065 64.9204C100.115 65.9204 99.8101 67.1004 99.9651 67.6504C100.345 66.4854 100.615 65.6504 100.22 65.0254L100.72 65.3554L101.02 65.5354C101.02 66.4304 100.67 67.5354 100.78 68.0354C101.205 66.9554 101.505 66.1854 101.125 65.5904C101.36 65.7254 101.625 65.8554 101.84 65.9854C101.84 66.8104 101.52 67.8154 101.62 68.2904C102.01 67.2904 102.285 66.5854 101.935 66.0354L102.565 66.3554L102.715 66.4304C102.66 67.1754 102.29 68.0604 102.345 68.5054C102.79 67.6304 103.095 67.0054 102.755 66.4454L103.37 66.7304C103.315 67.4204 102.975 68.2304 103.03 68.6454C103.435 67.8354 103.715 67.2754 103.405 66.7504C103.625 66.8504 103.845 66.9454 104.07 67.0354C103.98 67.6554 103.63 68.3654 103.655 68.7404C104.07 68.0354 104.355 67.5454 104.115 67.0554L104.485 67.2054L104.695 67.2854C104.615 67.8604 104.295 68.5104 104.315 68.8554C104.695 68.2104 104.96 67.7554 104.74 67.3004C104.935 67.3754 105.13 67.4504 105.33 67.5154C105.29 68.0154 105.03 68.6004 105.07 68.9154C105.38 68.3454 105.57 67.9454 105.36 67.5254L105.47 67.5654C105.615 67.6104 105.76 67.6604 105.91 67.7004C105.808 68.1209 105.728 68.5465 105.67 68.9754C105.95 68.4754 106.17 68.0954 105.945 67.7104C106.122 67.7661 106.302 67.8095 106.485 67.8404C106.506 67.8436 106.525 67.8306 106.53 67.8104C106.534 67.7886 106.521 67.7674 106.5 67.7604C106.33 67.7254 106.165 67.6804 106 67.6304C106.35 67.5504 106.545 67.2204 106.81 66.7604C106.56 66.8704 106.245 67.3154 105.885 67.5954L105.5 67.4654L105.41 67.4304C105.825 67.3704 106.045 66.9954 106.35 66.4754C106.065 66.6004 105.72 67.0954 105.315 67.3954C105.14 67.3304 104.96 67.2654 104.785 67.1904C105.255 67.1254 105.505 66.6904 105.85 66.0354C105.545 66.1904 105.155 66.7954 104.71 67.1604L104.525 67.0854L104.18 66.9354C104.68 66.8604 104.95 66.3704 105.325 65.6854C104.995 65.8504 104.575 66.5004 104.095 66.9004C103.895 66.8154 103.7 66.7254 103.505 66.6304C104.07 66.5604 104.385 66.0654 104.815 65.3804Z" fill="#263238"/>
<path id="Path_31" d="M101.93 72.0452C102.314 72.242 102.708 72.4189 103.11 72.5752C102.675 72.1802 102.365 71.9052 101.95 72.0102C102.04 71.8502 102.125 71.6902 102.2 71.5102C102.206 71.4968 102.205 71.4811 102.196 71.4689C102.188 71.4568 102.174 71.4502 102.159 71.4514C102.144 71.4527 102.131 71.4618 102.125 71.4752C102.05 71.6302 101.97 71.7802 101.885 71.9302C101.885 71.5702 101.605 71.3002 101.225 70.9302C101.399 71.3078 101.598 71.6736 101.82 72.0252L101.605 72.3702L101.55 72.4502C101.585 72.0302 101.275 71.7302 100.84 71.3152C101.035 71.7323 101.254 72.1379 101.495 72.5302L101.175 73.0052C101.22 72.5302 100.835 72.1802 100.295 71.6952C100.375 72.0302 100.875 72.5502 101.125 73.0702L101.01 73.2302C100.94 73.3302 100.86 73.4302 100.785 73.5302C100.825 73.0302 100.415 72.6502 99.8299 72.1302C99.9199 72.4902 100.455 73.0502 100.73 73.6302C100.6 73.8052 100.465 73.9752 100.33 74.1302C100.33 73.6302 99.9399 73.2002 99.3699 72.6302C99.4449 73.0152 99.9649 73.6302 100.235 74.2502C100.128 74.3868 100.018 74.5218 99.9049 74.6552C99.9049 74.1002 99.4799 73.6552 98.8649 73.0152C98.9399 73.4352 99.5049 74.1102 99.8049 74.7752L99.7149 74.8802C99.5599 75.0602 99.4049 75.2352 99.2449 75.4052C99.2949 74.8402 98.8449 74.2802 98.2449 73.5252C98.2849 73.9852 98.8499 74.8002 99.1199 75.5602C98.9399 75.7502 98.7599 75.9402 98.5749 76.1252C98.6999 75.4702 98.1949 74.8402 97.4899 73.9702C97.5399 74.4702 98.1799 75.4002 98.4599 76.2402L98.2999 76.4002L97.7749 76.9002C97.9449 76.1952 97.4349 75.4852 96.7299 74.5002C96.7299 75.0602 97.3849 76.0952 97.6399 77.0002C97.4449 77.1752 97.2449 77.3452 97.0399 77.5002C97.2649 76.7202 96.7099 75.9352 95.9199 74.8402C95.9199 75.4552 96.6399 76.5852 96.9199 77.6002L96.7299 77.7502C96.6733 77.7944 96.6632 77.8761 96.7074 77.9327C96.7516 77.9893 96.8333 77.9994 96.8899 77.9552L97.0899 77.7902C98.1299 77.9752 99.3349 78.6052 99.9549 78.5802C98.8249 77.8902 98.0149 77.3952 97.2649 77.6452C97.4699 77.4702 97.6749 77.2852 97.8749 77.1002C98.8299 77.2752 99.9349 77.8502 100.505 77.8302C99.4599 77.1902 98.7049 76.7352 98.0049 76.9752C98.1549 76.8302 98.3049 76.6902 98.4499 76.5402L98.6949 76.2902C99.5649 76.5002 100.555 77.0902 101.08 77.1002C100.125 76.4402 99.4499 75.9702 98.7749 76.2052C98.9649 76.0052 99.1449 75.8052 99.3249 75.6002C100.13 75.7902 101.035 76.3352 101.52 76.3452C100.64 75.7352 100.02 75.3052 99.3999 75.5152C99.5549 75.3402 99.7049 75.1602 99.8549 74.9802L99.9599 74.8452C100.68 75.0752 101.46 75.6402 101.9 75.6902C101.145 75.0552 100.625 74.6152 99.9899 74.8152L100.41 74.2852C101.07 74.4952 101.775 75.0102 102.19 75.0552C101.5 74.4752 101.02 74.0552 100.435 74.2502C100.58 74.0602 100.725 73.8652 100.865 73.6702C101.45 73.9002 102.06 74.4052 102.43 74.4652C101.84 73.9052 101.43 73.5102 100.895 73.6302C100.975 73.5252 101.05 73.4152 101.125 73.3102C101.2 73.2052 101.21 73.1802 101.255 73.1202C101.79 73.3302 102.35 73.7952 102.695 73.8502C102.15 73.3502 101.77 72.9702 101.28 73.0802C101.4 72.9068 101.515 72.7318 101.625 72.5552C102.125 72.7152 102.625 73.1002 102.925 73.1352C102.425 72.7002 102.105 72.3952 101.64 72.5302L101.705 72.4302L101.93 72.0452Z" fill="#263238"/>
<path id="Path_32" d="M104.96 77.6252C105.067 77.4885 105.177 77.3585 105.29 77.2352C105.215 77.5852 105.43 77.9052 105.73 78.3452C105.635 77.9386 105.516 77.538 105.375 77.1452L105.66 76.8552L105.725 76.7852C105.605 77.1902 105.845 77.5502 106.185 78.0452C106.08 77.5964 105.95 77.154 105.795 76.7202L106.21 76.3252C106.07 76.7802 106.37 77.2002 106.8 77.7902C106.8 77.4452 106.41 76.8302 106.27 76.2902L106.42 76.1602L106.7 75.9102C106.555 76.4102 106.88 76.8502 107.34 77.4852C107.34 77.1102 106.925 76.4502 106.77 75.8502C106.935 75.7052 107.1 75.5702 107.27 75.4302C107.145 75.9302 107.46 76.4302 107.89 77.1052C107.89 76.7102 107.525 75.9902 107.39 75.3352L107.8 75.0152C107.66 75.5502 108.005 76.0902 108.475 76.8352C108.475 76.4052 108.075 75.6252 107.925 74.9152L108.035 74.8302L108.6 74.4152C108.435 74.9602 108.755 75.5952 109.2 76.4652C109.25 76.0052 108.875 75.0902 108.77 74.2952C108.985 74.1452 109.2 73.9952 109.42 73.8502C109.155 74.4702 109.52 75.1902 110.03 76.1902C110.09 75.6902 109.655 74.6452 109.53 73.7652L109.72 73.6452C109.925 73.5202 110.13 73.3952 110.335 73.2802C110.02 73.9302 110.37 74.7302 110.835 75.8452C110.93 75.2902 110.53 74.1502 110.475 73.1902C110.7 73.0602 110.93 72.9352 111.165 72.8202C110.78 73.5352 111.165 74.4202 111.705 75.6552C111.81 75.0502 111.365 73.7952 111.31 72.7502L111.52 72.6452C111.551 72.6311 111.575 72.605 111.586 72.5729C111.597 72.5409 111.595 72.5055 111.58 72.4752C111.565 72.4438 111.538 72.4199 111.505 72.4086C111.472 72.3973 111.436 72.3997 111.405 72.4152L111.175 72.5352C110.2 72.1352 109.15 71.2652 108.54 71.1602C109.5 72.0702 110.19 72.7252 110.975 72.6602C110.735 72.7852 110.5 72.9252 110.265 73.0602C109.365 72.6902 108.405 71.8952 107.845 71.8002C108.735 72.6452 109.375 73.2452 110.105 73.1602L109.58 73.4902L109.29 73.6852C108.48 73.2952 107.635 72.5102 107.125 72.3902C107.92 73.2402 108.485 73.8402 109.19 73.7502C108.965 73.9052 108.745 74.0652 108.525 74.2502C107.78 73.8952 107.025 73.1752 106.525 73.0652C107.26 73.8452 107.78 74.3952 108.425 74.3202C108.24 74.4602 108.05 74.6002 107.87 74.7452L107.735 74.8552C107.085 74.4802 106.45 73.7652 106.02 73.6252C106.62 74.4052 107.02 74.9402 107.705 74.8802L107.18 75.3102C106.58 74.9702 105.995 74.3102 105.6 74.1802C106.155 74.8952 106.54 75.3902 107.15 75.3402C106.965 75.4952 106.785 75.6502 106.605 75.8402C106.105 75.4902 105.605 74.8702 105.245 74.7352C105.7 75.4102 106.025 75.8802 106.57 75.8752L106.275 76.1402L106.11 76.3002C105.61 75.9752 105.18 75.4052 104.855 75.3002C105.28 75.9202 105.575 76.3552 106.08 76.3502C105.925 76.4952 105.775 76.6402 105.63 76.7902C105.19 76.5352 104.78 76.0552 104.48 75.9552C104.86 76.4552 105.125 76.8452 105.61 76.8152L105.53 76.8952C105.425 77.0052 105.315 77.1202 105.215 77.2352C104.81 76.9952 104.44 76.5602 104.17 76.4702C104.515 76.9452 104.755 77.2802 105.17 77.2652C105.045 77.4 104.928 77.5419 104.82 77.6902C104.811 77.6977 104.806 77.7087 104.806 77.7202C104.806 77.7316 104.811 77.7426 104.82 77.7502C104.827 77.7586 104.837 77.7635 104.847 77.7635C104.858 77.7635 104.868 77.7586 104.875 77.7502L104.96 77.6252Z" fill="#263238"/>
<path id="Path_33" d="M99.1 84.75C99.3 84.5634 99.495 84.3734 99.685 84.18C100.475 84.425 101.345 85.025 101.83 85.065C100.99 84.4 100.395 83.93 99.765 84.1C99.93 83.935 100.095 83.765 100.265 83.6L100.38 83.475C101.08 83.75 101.81 84.36 102.26 84.44C101.55 83.755 101.055 83.285 100.405 83.44C100.56 83.275 100.71 83.105 100.86 82.94C101.505 83.195 102.18 83.755 102.59 83.825C101.935 83.2 101.48 82.765 100.89 82.91L101.355 82.36C101.925 82.625 102.5 83.165 102.855 83.25C102.305 82.655 101.915 82.25 101.355 82.32L101.605 82.015L101.745 81.835C102.27 82.08 102.8 82.575 103.14 82.655C102.64 82.1 102.275 81.715 101.775 81.795C101.905 81.63 102.03 81.465 102.15 81.295C102.65 81.485 103.1 81.9 103.41 81.955C102.96 81.49 102.645 81.165 102.17 81.27L102.24 81.175C102.325 81.05 102.415 80.925 102.5 80.795C102.871 81.0143 103.253 81.2145 103.645 81.395C103.235 80.975 102.945 80.68 102.52 80.76C102.622 80.607 102.716 80.4484 102.8 80.285C102.807 80.2725 102.807 80.2571 102.8 80.2447C102.793 80.2323 102.779 80.2246 102.765 80.2247C102.75 80.2248 102.737 80.2325 102.73 80.245C102.647 80.395 102.557 80.54 102.46 80.68C102.46 80.32 102.225 80.035 101.865 79.645C102.009 80.0328 102.176 80.4117 102.365 80.78L102.13 81.11L102.07 81.185C102.135 80.77 101.84 80.45 101.43 80.005C101.601 80.4334 101.794 80.8523 102.01 81.26C101.895 81.415 101.78 81.565 101.66 81.71C101.735 81.24 101.375 80.87 100.865 80.35C100.925 80.69 101.39 81.24 101.61 81.775C101.565 81.825 101.525 81.88 101.485 81.93L101.24 82.215C101.31 81.715 100.925 81.315 100.375 80.755C100.44 81.12 100.94 81.71 101.18 82.29L100.75 82.79C100.8 82.29 100.415 81.835 99.885 81.225C99.93 81.615 100.385 82.27 100.645 82.9L100.29 83.28C100.345 82.725 99.93 82.245 99.355 81.58C99.405 82.005 99.925 82.715 100.18 83.395L100.085 83.495L99.585 83.995C99.67 83.43 99.255 82.845 98.69 82.055C98.69 82.515 99.215 83.365 99.435 84.14L98.86 84.67C99.025 84.02 98.565 83.365 97.91 82.45C97.91 82.95 98.51 83.92 98.74 84.775L98.565 84.925C98.385 85.08 98.2 85.23 98.015 85.375C98.23 84.685 97.765 83.945 97.12 82.915C97.12 83.47 97.66 84.52 97.86 85.455H98.245C98.4 85.325 98.555 85.195 98.705 85.06C98.855 84.925 98.88 84.905 98.965 84.825C99.5562 85.0478 100.134 85.3049 100.695 85.595H101.075C100.325 85 99.725 84.575 99.1 84.75Z" fill="#263238"/>
<path id="Path_34" d="M96.335 83.2102C96.335 83.7102 96.71 84.5302 96.975 85.3652L97.355 85.3952C97.31 84.7752 96.885 84.0902 96.335 83.2102Z" fill="#263238"/>
<path id="Path_35" d="M98.3201 85.465L99.0751 85.51C98.8328 85.4237 98.5709 85.4081 98.3201 85.465Z" fill="#263238"/>
<path id="Path_36" d="M112.87 84.415C112.885 84.386 112.899 84.3559 112.91 84.325L112.73 84.26L112.64 84.23C112.781 84.2065 112.912 84.1441 113.02 84.05C113.065 83.92 113.11 83.78 113.15 83.625C112.963 83.8301 112.761 84.0207 112.545 84.195L112 84C112.47 83.93 112.72 83.5 113.065 82.84C112.76 82.995 112.37 83.6 111.925 83.97L111.74 83.895L111.395 83.745C111.895 83.665 112.165 83.18 112.54 82.49C112.21 82.66 111.79 83.31 111.31 83.71L110.72 83.44C111.22 83.335 111.53 82.84 111.96 82.155C111.6 82.315 111.115 82.965 110.58 83.375L110.115 83.145C110.66 83.035 111 82.495 111.47 81.75C111.075 81.925 110.55 82.63 109.97 83.07L109.85 83.01L109.23 82.675C109.795 82.59 110.23 82.025 110.825 81.255C110.385 81.405 109.725 82.14 109.05 82.575C108.82 82.45 108.595 82.315 108.37 82.18C109.04 82.15 109.535 81.515 110.22 80.625C109.72 80.79 108.985 81.625 108.22 82.095L108.025 81.975C107.825 81.845 107.63 81.715 107.435 81.575C108.155 81.575 108.73 80.92 109.525 80.005C108.985 80.155 108.13 81.005 107.285 81.475L106.65 81.005C107.465 81.045 108.1 80.32 108.985 79.3C108.39 79.465 107.45 80.405 106.525 80.905L106.34 80.76C106.283 80.7159 106.202 80.7259 106.157 80.7825C106.113 80.8392 106.123 80.9209 106.18 80.965L106.385 81.12C106.445 82.175 106.11 83.495 106.275 84.09C106.685 82.835 106.98 81.93 106.565 81.255C106.785 81.42 107.01 81.575 107.235 81.725C107.285 82.695 106.98 83.905 107.135 84.455C107.515 83.285 107.785 82.455 107.39 81.83C107.565 81.94 107.735 82.055 107.89 82.16L108.19 82.34C108.19 83.235 107.84 84.34 107.95 84.84C108.375 83.755 108.675 82.99 108.295 82.39C108.53 82.53 108.795 82.66 109.01 82.785C109.01 83.61 108.69 84.62 108.79 85.09C109.18 84.09 109.455 83.39 109.105 82.84L109.735 83.155L109.885 83.23C109.83 83.98 109.46 84.86 109.515 85.31C109.96 84.43 110.265 83.81 109.925 83.25L110.54 83.535C110.49 84.205 110.17 84.98 110.195 85.405H110.22C110.615 84.625 110.88 84.075 110.575 83.555L111.24 83.845C111.165 84.345 110.925 84.905 110.85 85.3L110.985 85.275C111.305 84.715 111.485 84.275 111.285 83.865L111.65 84.01L111.865 84.095C111.796 84.4478 111.702 84.7953 111.585 85.135L111.815 85.065C112.001 84.7815 112.037 84.4247 111.91 84.11L112.5 84.325C112.482 84.4941 112.451 84.6614 112.405 84.825C112.481 84.7869 112.555 84.7435 112.625 84.695C112.627 84.567 112.594 84.4407 112.53 84.33L112.64 84.365L112.87 84.415Z" fill="#263238"/>
<path id="Path_37" d="M93.63 73.9997C93.6972 73.9781 93.7365 73.9084 93.72 73.8397C93.7006 73.7708 93.629 73.7305 93.56 73.7497L93.31 73.8247C92.425 73.2497 91.56 72.1997 90.98 71.9797C91.75 73.0547 92.305 73.8247 93.095 73.8897C92.835 73.9697 92.595 74.0597 92.32 74.1547C91.72 73.7597 91.13 73.1547 90.645 72.7547C90.645 72.8697 90.645 72.9797 90.645 73.0947C91.145 73.7447 91.58 74.1797 92.145 74.2197C91.95 74.2897 91.76 74.3647 91.57 74.4447L91.245 74.5797C91.0315 74.4188 90.8294 74.2434 90.64 74.0547C90.64 74.1947 90.64 74.3297 90.64 74.4697C90.7925 74.5601 90.9634 74.6148 91.14 74.6297L90.64 74.8647C90.64 74.9347 90.64 75.0047 90.64 75.0747L91.315 74.7847C90.94 75.3447 91.165 76.1197 91.475 77.1947C91.63 76.6947 91.395 75.6097 91.475 74.7247L91.685 74.6397L92.355 74.3947C91.925 74.9797 92.115 75.8347 92.39 77.0147C92.585 76.4897 92.39 75.2947 92.525 74.3397C92.775 74.2547 93.025 74.1747 93.275 74.1047C92.775 74.7397 92.975 75.6747 93.275 76.9947C93.49 76.4197 93.275 75.1047 93.43 74.0647L93.63 73.9997Z" fill="#263238"/>
<path id="Path_38" d="M90.5399 77.1149C90.5399 77.1749 90.5699 77.2299 90.5899 77.2949C90.6538 76.8605 90.6538 76.4192 90.5899 75.9849C90.5749 76.3699 90.5599 76.7499 90.5399 77.1149Z" fill="#263238"/>
<path id="Path_39" d="M92.31 84.4303L92.125 84.1353C92.53 83.3353 93.34 82.5103 93.47 82.0003C92.6 82.7753 91.97 83.3253 92.06 84.0303C91.91 83.8003 91.755 83.5803 91.6 83.3553C91.975 82.6203 92.715 81.8553 92.84 81.4003C92.04 82.1103 91.475 82.6153 91.535 83.2653L91.12 82.6953L91.02 82.5603C91.405 81.9203 92.135 81.3003 92.29 80.8753C91.495 81.4553 90.945 81.8753 90.995 82.5303L90.575 81.9953C90.935 81.4053 91.605 80.8353 91.745 80.4453C91.015 80.9803 90.51 81.3503 90.55 81.9453L90.24 81.5753V81.7853L90.42 82.0053C90.3575 81.9904 90.294 81.9804 90.23 81.9753C90.23 82.0503 90.23 82.1203 90.23 82.1953L90.52 82.1253L90.835 82.5453C90.6326 82.4856 90.4173 82.4856 90.215 82.5453V82.8553C90.4529 82.7717 90.697 82.7065 90.945 82.6603L91.025 82.7653L91.43 83.3453C91.0165 83.2552 90.5846 83.3136 90.21 83.5103C90.21 83.6003 90.21 83.6953 90.21 83.7853C90.6515 83.6713 91.0988 83.5812 91.55 83.5153C91.695 83.7353 91.835 83.9553 91.97 84.1803C91.495 83.9603 90.97 84.1253 90.245 84.4353C90.245 84.5003 90.245 84.5753 90.245 84.6353H90.355C90.9101 84.493 91.4726 84.3811 92.04 84.3003L92.16 84.4953L92.375 84.8803L92.655 84.9153C92.525 84.7803 92.42 84.6053 92.31 84.4303Z" fill="#263238"/>
<path id="Path_40" d="M90.355 79.8902V80.1252C90.4958 79.9937 90.614 79.84 90.705 79.6702L90.355 79.8902Z" fill="#263238"/>
<path id="Path_41" d="M93.2949 85.0297L93.7399 85.0797C94.1152 84.5806 94.4197 84.0321 94.6449 83.4497C94.1248 83.9122 93.6706 84.4438 93.2949 85.0297H93.2949Z" fill="#263238"/>
<path id="Path_42" d="M92.79 85.0001C93.205 84.1551 93.94 83.2851 94.045 82.7551C93.175 83.6251 92.545 84.2551 92.625 84.9801L92.79 85.0001Z" fill="#263238"/>
<path id="Path_43" d="M90.29 80.7847C90.29 80.9197 90.29 81.0497 90.265 81.1797C90.6196 80.8429 90.9411 80.4729 91.225 80.0747C90.8833 80.2689 90.5688 80.5077 90.29 80.7847Z" fill="#263238"/>
</g>
<path id="Path_44" d="M125 68.5594L127.21 66.2144L130.275 70.5294C130.275 70.5294 127.69 72.3594 125.215 72.2894L124.93 71.6544C124.466 70.6689 124.492 69.5229 125 68.5594Z" fill="#FFB573"/>
<path id="Path_45" d="M130.775 66.4442L131.64 68.0692C132.035 68.8123 131.756 69.7349 131.015 70.1342L130.295 70.5292L127.23 66.2142L128.985 65.7142C129.679 65.502 130.427 65.807 130.775 66.4442Z" fill="#FFB573"/>
<path id="Path_46" d="M113.34 60.1447L113.53 61.0997L113.74 62.0997C113.89 62.7747 114.035 63.4547 114.205 64.0997C114.53 65.4397 114.92 66.7547 115.335 68.0247C115.749 69.2442 116.25 70.4323 116.835 71.5797C117.303 72.5234 117.921 73.3847 118.665 74.1297L117.605 73.6297C117.295 73.5897 117.235 73.6847 117.4 73.6797C117.663 73.6515 117.918 73.577 118.155 73.4597C118.904 73.1158 119.618 72.6988 120.285 72.2147C121.03 71.7147 121.785 71.1247 122.53 70.5197C123.275 69.9147 124.03 69.2697 124.76 68.6747L124.84 68.6147C125.485 68.0879 126.411 68.0854 127.059 68.6088C127.707 69.1323 127.9 70.0382 127.52 70.7797C127.018 71.7376 126.459 72.6643 125.845 73.5547C125.22 74.4566 124.538 75.3183 123.805 76.1347C123.005 77.0357 122.1 77.838 121.11 78.5247C120.49 78.9434 119.817 79.2796 119.11 79.5247C118.654 79.6839 118.181 79.7879 117.7 79.8347C117.104 79.8876 116.503 79.8437 115.92 79.7047C115.58 79.6228 115.259 79.4751 114.975 79.2697L114.855 79.1797C113.319 78.0295 112.026 76.5868 111.05 74.9347C110.593 74.1914 110.183 73.4414 109.82 72.6847C109.457 71.9281 109.123 71.1714 108.82 70.4147C108.241 68.9213 107.751 67.3954 107.35 65.8447C107.155 65.0747 106.97 64.3097 106.815 63.5347C106.74 63.1447 106.66 62.7597 106.595 62.3647C106.53 61.9697 106.47 61.5997 106.405 61.1297C106.165 59.2627 107.444 57.54 109.301 57.2305C111.158 56.921 112.927 58.1357 113.305 59.9797L113.34 60.1447Z" fill="#FFB573"/>
<path id="Path_47" d="M108.545 54.8947C111.455 55.1947 113.78 57.1247 115.405 63.2697C114.155 64.9997 106.28 68.7947 106.28 68.7947C106.28 68.7947 101.895 54.2097 108.545 54.8947Z" fill="#263238"/>
</g>
</g>
</svg>
