<svg width="194" height="208" viewBox="0 0 194 208" fill="none" xmlns="http://www.w3.org/2000/svg">
<path opacity="0.1" d="M0.77832 184.652C0.77832 197.547 43.8594 208 97.0026 208C116.023 208 133.754 206.661 148.683 204.35C150.375 204.088 152.1 204.086 153.812 204.11C158.286 204.174 166.276 203.646 170.462 203.307C176.296 202.901 192.987 190.728 193.222 184.885C193.225 184.807 193.227 184.73 193.227 184.652C193.227 171.757 150.146 161.303 97.0026 161.303C43.8594 161.303 0.77832 171.757 0.77832 184.652Z" fill="#0066FF"/>
<circle opacity="0.4" cx="13.5868" cy="137.399" r="13.5868" fill="#0066FF"/>
<path fill-rule="evenodd" clip-rule="evenodd" d="M13.1135 134.635C13.1135 135.941 12.0544 137 10.7479 137C9.44144 137 8.38232 135.941 8.38232 134.635C8.38232 133.328 9.44144 132.269 10.7479 132.269C12.0544 132.269 13.1135 133.328 13.1135 134.635ZM11.9654 134.635C11.9654 135.307 11.4203 135.852 10.7479 135.852C10.0756 135.852 9.5305 135.307 9.5305 134.635C9.5305 133.962 10.0756 133.417 10.7479 133.417C11.4203 133.417 11.9654 133.962 11.9654 134.635Z" fill="white"/>
<path d="M10.5115 142.677L15.1244 132.978C15.4084 132.411 16.5437 132.86 16.0706 133.806L11.6943 143.269C10.9846 144.57 10.0384 143.624 10.5115 142.677Z" fill="white"/>
<path fill-rule="evenodd" clip-rule="evenodd" d="M16.6168 144.243C17.9233 144.243 18.9824 143.184 18.9824 141.877C18.9824 140.571 17.9233 139.512 16.6168 139.512C15.3103 139.512 14.2512 140.571 14.2512 141.877C14.2512 143.184 15.3103 144.243 16.6168 144.243ZM16.6168 143.095C17.2892 143.095 17.8343 142.55 17.8343 141.877C17.8343 141.205 17.2892 140.66 16.6168 140.66C15.9445 140.66 15.3994 141.205 15.3994 141.877C15.3994 142.55 15.9445 143.095 16.6168 143.095Z" fill="white"/>
<circle cx="27.1737" cy="26.0257" r="13.5868" fill="white"/>
<path opacity="0.2" d="M21.2415 18.7544C20.1846 18.7544 19.3279 19.6112 19.3279 20.668V31.3844C19.3279 32.4412 20.1846 33.298 21.2415 33.298C21.2415 29.7696 23.3313 27.4767 26.0901 27.0036C24.7849 26.6385 23.8301 25.4707 23.8301 24.0864C23.8301 22.4099 25.2305 21.0508 26.958 21.0508C28.6856 21.0508 30.086 22.4099 30.086 24.0864C30.086 25.425 29.1932 26.5613 27.9539 26.9649C30.8615 27.3582 33.106 29.93 33.106 33.298C34.1629 33.298 35.0197 32.4412 35.0197 31.3844V20.668C35.0197 19.6112 34.1629 18.7544 33.106 18.7544H21.2415Z" fill="#0066FF"/>
<circle cx="144.671" cy="13.5868" r="13.5868" fill="white"/>
<g opacity="0.2">
<path d="M142.976 10.7212C142.984 10.2846 143.41 9.93005 144.008 9.79388L143.975 11.6298C143.379 11.3652 142.969 11.0973 142.976 10.7212Z" fill="#0066FF"/>
<path d="M145.286 16.601L145.326 14.4207C145.943 14.7191 146.385 15.06 146.417 15.5697C146.454 16.164 145.954 16.5064 145.286 16.601Z" fill="#0066FF"/>
<path fill-rule="evenodd" clip-rule="evenodd" d="M138.738 6.12378C137.681 6.12378 136.825 6.98054 136.825 8.03741L136.825 18.9451C136.825 20.002 137.681 20.8587 138.738 20.8587L150.603 20.8587C151.66 20.8587 152.516 20.002 152.516 18.9451L152.516 8.03741C152.516 6.98054 151.66 6.12378 150.603 6.12378L138.738 6.12378ZM145.458 7.19L144.057 7.16432L144.039 8.10137C142.425 8.3442 141.161 9.49775 141.134 10.9775C141.129 12.6047 142.56 13.2953 143.934 13.8449L143.886 16.476C143.186 16.2614 142.552 15.8202 142.314 15.1562L140.792 16.4334C141.566 17.5052 142.698 18.1201 143.852 18.3321L143.823 19.9212L145.225 19.9469L145.253 18.3939C146.945 18.2299 148.371 17.1894 148.353 15.4602C148.335 13.6262 146.794 12.7854 145.367 12.1937L145.409 9.86818C145.953 10.0422 146.498 10.3954 146.936 10.9872L148.265 9.7064C147.392 8.78608 146.401 8.29052 145.441 8.12152L145.458 7.19Z" fill="#0066FF"/>
</g>
<path d="M9.61082 187.95L18.5092 174.746C20.0401 172.258 31.0435 171.608 32.1917 171.684H143.948C147.934 171.812 155.984 172.507 156.291 174.268C160.214 177.028 152.631 182.012 143.182 191.586C141.364 192.447 132.657 192.638 127.777 192.638H22.8148C15.1674 192.638 11.0585 191.844 9.85007 190.945C9.5585 190.729 9.4988 190.347 9.4988 189.984V188.428C9.47392 188.267 9.5075 188.105 9.61082 187.95Z" fill="#0066FF"/>
<path d="M18.5092 174.746L9.61082 187.95C9.5075 188.105 9.47392 188.267 9.4988 188.428C9.56607 188.865 10.0605 189.297 10.759 189.577C13.7251 190.763 19.2747 190.916 24.2501 190.916H128.352C130.935 190.916 140.12 190.916 143.182 189.577C143.966 189.234 151.929 180.927 155.979 176.654C156.554 176.048 156.373 174.74 156.291 174.268C155.984 172.507 147.934 171.812 143.948 171.684H32.1917C31.0435 171.608 20.0401 172.258 18.5092 174.746Z" fill="#054FBC"/>
<path d="M11.907 187.375L20.8053 174.745C21.7622 173.214 26.4506 172.257 32.2872 172.066H142.512C146.435 172.066 156.96 172.927 155.142 175.51L143.948 187.088C140.694 190.341 132.561 189.671 127.873 189.671H114.095H24.3455C17.4566 189.671 16.1171 189.671 13.2465 188.906C11.8112 188.523 11.5243 187.949 11.907 187.375Z" fill="white"/>
<rect x="35.0791" y="36.9751" width="138.421" height="106.186" rx="22" fill="#407BFF"/>
<path d="M38.8713 64.9247C38.8713 51.6837 49.595 40.9442 62.836 40.9247L145.673 40.8029C158.941 40.7834 169.708 51.5343 169.708 64.8029V115.212C169.708 128.453 158.984 139.192 145.743 139.212L62.9066 139.334C49.638 139.353 38.8713 128.602 38.8713 115.334V64.9247Z" fill="white"/>
<rect x="47.4043" y="47.4038" width="50.5199" height="51.6425" rx="9" fill="#232533"/>
<path d="M47.4043 56.0644C47.4043 51.2813 51.2818 47.4038 56.0648 47.4038H89.2636C94.0467 47.4038 97.9241 51.2813 97.9241 56.0644H47.4043Z" fill="#407BFF"/>
<circle cx="91.9903" cy="51.8941" r="1.44342" fill="#FCFEFD"/>
<circle cx="86.2164" cy="51.8941" r="1.44342" fill="#FCFEFD"/>
<circle cx="80.4427" cy="51.8941" r="1.44342" fill="#FCFEFD"/>
<rect opacity="0.5" x="68.4141" y="62.3306" width="26.6232" height="1.44342" rx="0.721712" fill="#7E848D"/>
<rect opacity="0.5" x="68.4141" y="66.835" width="26.6232" height="1.44342" rx="0.721712" fill="#7E848D"/>
<rect opacity="0.5" x="68.4141" y="71.3401" width="26.6232" height="1.44342" rx="0.721712" fill="#7E848D"/>
<rect x="50.1306" y="58.9509" width="15.3965" height="17.0003" rx="7.69826" fill="#FEFFFF"/>
<path d="M57.8291 64.7256C58.8035 64.7256 59.5933 63.9358 59.5933 62.9615C59.5933 61.9871 58.8035 61.1973 57.8291 61.1973C56.8548 61.1973 56.0649 61.9871 56.0649 62.9615C56.0649 63.9358 56.8548 64.7256 57.8291 64.7256Z" fill="#1E1E2D"/>
<path d="M57.0218 65.8483C56.4933 65.8483 56.0649 66.2767 56.0649 66.8051V71.9482C56.0649 72.4766 56.4933 72.905 57.0218 72.905H58.6365C59.1649 72.905 59.5933 72.4766 59.5933 71.9482V66.8051C59.5933 66.2767 59.1649 65.8483 58.6365 65.8483H57.0218Z" fill="#1E1E2D"/>
<rect x="52.697" y="88.6216" width="1.76419" height="4.16989" rx="0.882093" fill="white"/>
<rect x="57.8291" y="90.0652" width="1.76419" height="2.72647" rx="0.882093" fill="white"/>
<rect x="63.4426" y="88.4612" width="1.76419" height="4.33027" rx="0.882093" fill="white"/>
<rect x="68.7351" y="86.2153" width="1.76419" height="6.5756" rx="0.882093" fill="white"/>
<rect x="74.0276" y="83.6494" width="1.76419" height="9.14169" rx="0.882093" fill="white"/>
<rect x="79.3201" y="85.2542" width="1.76419" height="7.53788" rx="0.882093" fill="white"/>
<rect x="84.6125" y="83.3293" width="1.76419" height="9.46245" rx="0.882093" fill="white"/>
<rect x="89.905" y="81.8857" width="1.76419" height="10.9059" rx="0.882093" fill="white"/>
<g style="mix-blend-mode:darken">
<rect x="111.875" y="48.3525" width="48.3526" height="68.2625" rx="9" fill="#232533"/>
</g>
<path d="M111.875 57.8334C111.875 52.5973 116.12 48.3525 121.356 48.3525H150.746C155.983 48.3525 160.227 52.5973 160.227 57.8334H111.875Z" fill="black"/>
<circle cx="132.651" cy="52.8022" r="1.84445" fill="white"/>
<circle cx="140.292" cy="52.8022" r="1.84445" fill="white"/>
<circle cx="147.934" cy="52.8022" r="1.84445" fill="white"/>
<rect x="119.142" y="74.9355" width="36.3619" height="8.43175" rx="4.21588" fill="white"/>
<path d="M127.692 80.7437V81H125.849V80.7437H127.692ZM125.937 77.4453V81H125.636V77.4453H125.937ZM129.811 80.5264V79.1641C129.811 79.0387 129.785 78.9305 129.733 78.8394C129.681 78.7482 129.604 78.6782 129.503 78.6294C129.403 78.5806 129.278 78.5562 129.13 78.5562C128.993 78.5562 128.871 78.5806 128.764 78.6294C128.658 78.6766 128.574 78.7409 128.512 78.8223C128.452 78.902 128.422 78.9907 128.422 79.0884L128.129 79.0859C128.129 78.9867 128.153 78.8906 128.202 78.7979C128.251 78.7051 128.32 78.6221 128.41 78.5488C128.499 78.4756 128.606 78.4178 128.729 78.3755C128.855 78.3315 128.992 78.3096 129.142 78.3096C129.331 78.3096 129.497 78.3413 129.64 78.4048C129.785 78.4683 129.898 78.5635 129.979 78.6904C130.061 78.8174 130.102 78.9769 130.102 79.1689V80.4458C130.102 80.5369 130.108 80.6313 130.121 80.729C130.136 80.8267 130.156 80.9072 130.182 80.9707V81H129.872C129.853 80.9414 129.837 80.8682 129.826 80.7803C129.816 80.6908 129.811 80.6061 129.811 80.5264ZM129.879 79.4619L129.884 79.6865H129.311C129.161 79.6865 129.027 79.7004 128.908 79.728C128.791 79.7541 128.691 79.7931 128.61 79.8452C128.528 79.8957 128.466 79.9567 128.422 80.0283C128.38 80.0999 128.358 80.1813 128.358 80.2725C128.358 80.3669 128.382 80.4531 128.429 80.5312C128.478 80.6094 128.546 80.672 128.634 80.7192C128.724 80.7648 128.83 80.7876 128.952 80.7876C129.114 80.7876 129.258 80.7575 129.381 80.6973C129.507 80.637 129.61 80.5581 129.691 80.4604C129.773 80.3628 129.827 80.2562 129.855 80.1406L129.982 80.3091C129.961 80.3905 129.922 80.4743 129.865 80.5605C129.809 80.6452 129.737 80.7249 129.647 80.7998C129.558 80.873 129.452 80.9333 129.33 80.9805C129.21 81.026 129.073 81.0488 128.92 81.0488C128.747 81.0488 128.597 81.0163 128.468 80.9512C128.341 80.8861 128.242 80.7974 128.17 80.6851C128.1 80.5711 128.065 80.4425 128.065 80.2993C128.065 80.1691 128.093 80.0527 128.148 79.9502C128.204 79.846 128.284 79.7581 128.388 79.6865C128.493 79.6133 128.62 79.5579 128.769 79.5205C128.918 79.4814 129.086 79.4619 129.271 79.4619H129.879ZM131.176 78.9224V81H130.885V78.3584H131.164L131.176 78.9224ZM131.11 79.5156L130.98 79.4424C130.99 79.2861 131.022 79.1396 131.076 79.0029C131.129 78.8662 131.202 78.7458 131.293 78.6416C131.386 78.5374 131.494 78.4561 131.618 78.3975C131.743 78.3389 131.881 78.3096 132.033 78.3096C132.165 78.3096 132.283 78.3275 132.387 78.3633C132.491 78.3991 132.58 78.4561 132.653 78.5342C132.726 78.6123 132.781 78.7124 132.819 78.8345C132.858 78.9565 132.877 79.1055 132.877 79.2812V81H132.584V79.2788C132.584 79.0965 132.559 78.9541 132.509 78.8516C132.458 78.7474 132.387 78.6733 132.294 78.6294C132.201 78.5854 132.091 78.5635 131.964 78.5635C131.824 78.5635 131.701 78.5944 131.596 78.6562C131.492 78.7165 131.404 78.7954 131.332 78.8931C131.262 78.9891 131.208 79.0924 131.171 79.2031C131.133 79.3122 131.113 79.4163 131.11 79.5156ZM135.373 78.3584H135.644V80.9536C135.644 81.1831 135.6 81.38 135.512 81.5444C135.425 81.7088 135.303 81.835 135.143 81.9229C134.985 82.0107 134.799 82.0547 134.584 82.0547C134.475 82.0547 134.363 82.0376 134.247 82.0034C134.133 81.9709 134.025 81.9204 133.922 81.8521C133.821 81.7853 133.735 81.7023 133.664 81.603L133.827 81.4248C133.935 81.555 134.049 81.6502 134.171 81.7104C134.293 81.7723 134.425 81.8032 134.567 81.8032C134.735 81.8032 134.876 81.7699 134.992 81.7031C135.109 81.6364 135.198 81.5404 135.258 81.415C135.32 81.2897 135.351 81.1392 135.351 80.9634V78.9395L135.373 78.3584ZM133.517 79.7061V79.6548C133.517 79.4497 133.54 79.265 133.585 79.1006C133.633 78.9346 133.7 78.793 133.788 78.6758C133.876 78.557 133.983 78.4666 134.108 78.4048C134.235 78.3413 134.378 78.3096 134.538 78.3096C134.691 78.3096 134.826 78.3348 134.945 78.3853C135.064 78.4357 135.167 78.5081 135.253 78.6025C135.339 78.6969 135.408 78.8092 135.46 78.9395C135.514 79.0697 135.553 79.2145 135.578 79.374V80.0259C135.558 80.1756 135.522 80.3132 135.47 80.4385C135.418 80.5622 135.349 80.6704 135.263 80.7632C135.176 80.8543 135.072 80.9251 134.95 80.9756C134.83 81.0244 134.691 81.0488 134.533 81.0488C134.375 81.0488 134.233 81.0163 134.108 80.9512C133.983 80.8861 133.876 80.7941 133.788 80.6753C133.7 80.5549 133.633 80.4124 133.585 80.248C133.54 80.0837 133.517 79.903 133.517 79.7061ZM133.81 79.6548V79.7061C133.81 79.8607 133.826 80.0039 133.856 80.1357C133.887 80.2676 133.935 80.3823 133.998 80.48C134.062 80.5776 134.142 80.6541 134.24 80.7095C134.337 80.7648 134.452 80.7925 134.584 80.7925C134.752 80.7925 134.892 80.7607 135.006 80.6973C135.12 80.6322 135.211 80.5467 135.277 80.4409C135.344 80.3335 135.393 80.2163 135.424 80.0894V79.3301C135.406 79.2438 135.378 79.1559 135.341 79.0664C135.305 78.9769 135.255 78.8947 135.189 78.8198C135.126 78.7433 135.045 78.6823 134.945 78.6367C134.848 78.5895 134.729 78.5659 134.589 78.5659C134.455 78.5659 134.339 78.5936 134.24 78.6489C134.142 78.7043 134.062 78.7816 133.998 78.8809C133.935 78.9785 133.887 79.0933 133.856 79.2251C133.826 79.3569 133.81 79.5002 133.81 79.6548ZM138.1 80.3896V78.3584H138.393V81H138.112L138.1 80.3896ZM138.153 79.9014L138.305 79.8965C138.305 80.0625 138.285 80.2155 138.246 80.3555C138.207 80.4954 138.146 80.6175 138.063 80.7217C137.98 80.8258 137.873 80.9064 137.741 80.9634C137.609 81.0203 137.45 81.0488 137.265 81.0488C137.136 81.0488 137.018 81.0309 136.911 80.9951C136.805 80.9577 136.714 80.8991 136.637 80.8193C136.561 80.7396 136.501 80.6362 136.459 80.5093C136.418 80.3823 136.398 80.2285 136.398 80.0479V78.3584H136.688V80.0527C136.688 80.1943 136.704 80.3123 136.735 80.4067C136.767 80.5011 136.811 80.5768 136.867 80.6338C136.924 80.6908 136.989 80.7314 137.062 80.7559C137.135 80.7803 137.214 80.7925 137.299 80.7925C137.514 80.7925 137.683 80.751 137.807 80.668C137.932 80.585 138.021 80.4759 138.073 80.3408C138.126 80.2041 138.153 80.0576 138.153 79.9014ZM140.763 80.5264V79.1641C140.763 79.0387 140.737 78.9305 140.685 78.8394C140.633 78.7482 140.556 78.6782 140.456 78.6294C140.355 78.5806 140.23 78.5562 140.082 78.5562C139.945 78.5562 139.823 78.5806 139.716 78.6294C139.61 78.6766 139.526 78.7409 139.464 78.8223C139.404 78.902 139.374 78.9907 139.374 79.0884L139.081 79.0859C139.081 78.9867 139.105 78.8906 139.154 78.7979C139.203 78.7051 139.272 78.6221 139.362 78.5488C139.451 78.4756 139.558 78.4178 139.682 78.3755C139.807 78.3315 139.944 78.3096 140.094 78.3096C140.283 78.3096 140.449 78.3413 140.592 78.4048C140.737 78.4683 140.85 78.5635 140.932 78.6904C141.013 78.8174 141.054 78.9769 141.054 79.1689V80.4458C141.054 80.5369 141.06 80.6313 141.073 80.729C141.088 80.8267 141.108 80.9072 141.134 80.9707V81H140.824C140.805 80.9414 140.789 80.8682 140.778 80.7803C140.768 80.6908 140.763 80.6061 140.763 80.5264ZM140.832 79.4619L140.836 79.6865H140.263C140.113 79.6865 139.979 79.7004 139.86 79.728C139.743 79.7541 139.643 79.7931 139.562 79.8452C139.481 79.8957 139.418 79.9567 139.374 80.0283C139.332 80.0999 139.311 80.1813 139.311 80.2725C139.311 80.3669 139.334 80.4531 139.381 80.5312C139.43 80.6094 139.499 80.672 139.586 80.7192C139.676 80.7648 139.782 80.7876 139.904 80.7876C140.067 80.7876 140.21 80.7575 140.333 80.6973C140.459 80.637 140.562 80.5581 140.644 80.4604C140.725 80.3628 140.779 80.2562 140.807 80.1406L140.934 80.3091C140.913 80.3905 140.874 80.4743 140.817 80.5605C140.762 80.6452 140.689 80.7249 140.6 80.7998C140.51 80.873 140.404 80.9333 140.282 80.9805C140.162 81.026 140.025 81.0488 139.872 81.0488C139.7 81.0488 139.549 81.0163 139.42 80.9512C139.293 80.8861 139.194 80.7974 139.123 80.6851C139.053 80.5711 139.018 80.4425 139.018 80.2993C139.018 80.1691 139.045 80.0527 139.101 79.9502C139.156 79.846 139.236 79.7581 139.34 79.6865C139.446 79.6133 139.573 79.5579 139.721 79.5205C139.87 79.4814 140.038 79.4619 140.224 79.4619H140.832ZM143.576 78.3584H143.847V80.9536C143.847 81.1831 143.803 81.38 143.715 81.5444C143.629 81.7088 143.506 81.835 143.346 81.9229C143.188 82.0107 143.002 82.0547 142.787 82.0547C142.678 82.0547 142.566 82.0376 142.45 82.0034C142.336 81.9709 142.228 81.9204 142.125 81.8521C142.025 81.7853 141.938 81.7023 141.867 81.603L142.03 81.4248C142.138 81.555 142.252 81.6502 142.375 81.7104C142.497 81.7723 142.628 81.8032 142.77 81.8032C142.938 81.8032 143.079 81.7699 143.195 81.7031C143.312 81.6364 143.401 81.5404 143.461 81.415C143.523 81.2897 143.554 81.1392 143.554 80.9634V78.9395L143.576 78.3584ZM141.72 79.7061V79.6548C141.72 79.4497 141.743 79.265 141.789 79.1006C141.836 78.9346 141.903 78.793 141.991 78.6758C142.079 78.557 142.186 78.4666 142.311 78.4048C142.438 78.3413 142.581 78.3096 142.741 78.3096C142.894 78.3096 143.03 78.3348 143.148 78.3853C143.267 78.4357 143.37 78.5081 143.456 78.6025C143.542 78.6969 143.611 78.8092 143.664 78.9395C143.717 79.0697 143.756 79.2145 143.781 79.374V80.0259C143.761 80.1756 143.725 80.3132 143.673 80.4385C143.621 80.5622 143.552 80.6704 143.466 80.7632C143.38 80.8543 143.275 80.9251 143.153 80.9756C143.033 81.0244 142.894 81.0488 142.736 81.0488C142.578 81.0488 142.436 81.0163 142.311 80.9512C142.186 80.8861 142.079 80.7941 141.991 80.6753C141.903 80.5549 141.836 80.4124 141.789 80.248C141.743 80.0837 141.72 79.903 141.72 79.7061ZM142.013 79.6548V79.7061C142.013 79.8607 142.029 80.0039 142.06 80.1357C142.09 80.2676 142.138 80.3823 142.201 80.48C142.265 80.5776 142.345 80.6541 142.443 80.7095C142.541 80.7648 142.655 80.7925 142.787 80.7925C142.955 80.7925 143.096 80.7607 143.209 80.6973C143.323 80.6322 143.414 80.5467 143.48 80.4409C143.547 80.3335 143.596 80.2163 143.627 80.0894V79.3301C143.609 79.2438 143.581 79.1559 143.544 79.0664C143.508 78.9769 143.458 78.8947 143.393 78.8198C143.329 78.7433 143.248 78.6823 143.148 78.6367C143.051 78.5895 142.932 78.5659 142.792 78.5659C142.659 78.5659 142.542 78.5936 142.443 78.6489C142.345 78.7043 142.265 78.7816 142.201 78.8809C142.138 78.9785 142.09 79.0933 142.06 79.2251C142.029 79.3569 142.013 79.5002 142.013 79.6548ZM145.631 81.0488C145.459 81.0488 145.3 81.0171 145.155 80.9536C145.012 80.8901 144.887 80.8006 144.779 80.6851C144.674 80.5695 144.591 80.4328 144.533 80.2749C144.476 80.1154 144.447 79.9412 144.447 79.7524V79.6475C144.447 79.444 144.477 79.2601 144.538 79.0957C144.598 78.9313 144.681 78.7905 144.787 78.6733C144.892 78.5562 145.013 78.4666 145.148 78.4048C145.285 78.3413 145.428 78.3096 145.578 78.3096C145.745 78.3096 145.894 78.3397 146.024 78.3999C146.155 78.4585 146.264 78.5423 146.352 78.6514C146.441 78.7588 146.509 78.8866 146.554 79.0347C146.6 79.1812 146.623 79.3431 146.623 79.5205V79.6987H144.623V79.4497H146.332V79.4155C146.329 79.2674 146.299 79.1291 146.242 79.0005C146.186 78.8703 146.103 78.7645 145.993 78.6831C145.882 78.6017 145.744 78.561 145.578 78.561C145.454 78.561 145.34 78.5871 145.236 78.6392C145.133 78.6912 145.045 78.7661 144.97 78.8638C144.896 78.9598 144.84 79.0745 144.799 79.208C144.76 79.3398 144.74 79.4863 144.74 79.6475V79.7524C144.74 79.8989 144.761 80.0356 144.804 80.1626C144.848 80.2879 144.91 80.3986 144.989 80.4946C145.071 80.5907 145.167 80.6655 145.277 80.7192C145.388 80.7729 145.51 80.7998 145.644 80.7998C145.8 80.7998 145.938 80.7713 146.059 80.7144C146.179 80.6558 146.287 80.5638 146.383 80.4385L146.566 80.5801C146.509 80.6647 146.438 80.7428 146.352 80.8145C146.267 80.8861 146.165 80.943 146.046 80.9854C145.928 81.0277 145.789 81.0488 145.631 81.0488Z" fill="#407BFF"/>
<rect x="119.142" y="89.968" width="36.3619" height="8.43175" rx="4.21588" fill="white"/>
<path d="M128.692 95.7437V96H126.849V95.7437H128.692ZM126.937 92.4453V96H126.636V92.4453H126.937ZM130.811 95.5264V94.1641C130.811 94.0387 130.785 93.9305 130.733 93.8394C130.681 93.7482 130.604 93.6782 130.503 93.6294C130.403 93.5806 130.278 93.5562 130.13 93.5562C129.993 93.5562 129.871 93.5806 129.764 93.6294C129.658 93.6766 129.574 93.7409 129.512 93.8223C129.452 93.902 129.422 93.9907 129.422 94.0884L129.129 94.0859C129.129 93.9867 129.153 93.8906 129.202 93.7979C129.251 93.7051 129.32 93.6221 129.41 93.5488C129.499 93.4756 129.606 93.4178 129.729 93.3755C129.855 93.3315 129.992 93.3096 130.142 93.3096C130.331 93.3096 130.497 93.3413 130.64 93.4048C130.785 93.4683 130.898 93.5635 130.979 93.6904C131.061 93.8174 131.102 93.9769 131.102 94.1689V95.4458C131.102 95.5369 131.108 95.6313 131.121 95.729C131.136 95.8267 131.156 95.9072 131.182 95.9707V96H130.872C130.853 95.9414 130.837 95.8682 130.826 95.7803C130.816 95.6908 130.811 95.6061 130.811 95.5264ZM130.879 94.4619L130.884 94.6865H130.311C130.161 94.6865 130.027 94.7004 129.908 94.728C129.791 94.7541 129.691 94.7931 129.61 94.8452C129.528 94.8957 129.466 94.9567 129.422 95.0283C129.38 95.0999 129.358 95.1813 129.358 95.2725C129.358 95.3669 129.382 95.4531 129.429 95.5312C129.478 95.6094 129.546 95.672 129.634 95.7192C129.724 95.7648 129.83 95.7876 129.952 95.7876C130.114 95.7876 130.258 95.7575 130.381 95.6973C130.507 95.637 130.61 95.5581 130.691 95.4604C130.773 95.3628 130.827 95.2562 130.855 95.1406L130.982 95.3091C130.961 95.3905 130.922 95.4743 130.865 95.5605C130.809 95.6452 130.737 95.7249 130.647 95.7998C130.558 95.873 130.452 95.9333 130.33 95.9805C130.21 96.026 130.073 96.0488 129.92 96.0488C129.747 96.0488 129.597 96.0163 129.468 95.9512C129.341 95.8861 129.242 95.7974 129.17 95.6851C129.1 95.5711 129.065 95.4425 129.065 95.2993C129.065 95.1691 129.093 95.0527 129.148 94.9502C129.204 94.846 129.284 94.7581 129.388 94.6865C129.493 94.6133 129.62 94.5579 129.769 94.5205C129.918 94.4814 130.086 94.4619 130.271 94.4619H130.879ZM132.176 93.9224V96H131.885V93.3584H132.164L132.176 93.9224ZM132.11 94.5156L131.98 94.4424C131.99 94.2861 132.022 94.1396 132.076 94.0029C132.129 93.8662 132.202 93.7458 132.293 93.6416C132.386 93.5374 132.494 93.4561 132.618 93.3975C132.743 93.3389 132.881 93.3096 133.033 93.3096C133.165 93.3096 133.283 93.3275 133.387 93.3633C133.491 93.3991 133.58 93.4561 133.653 93.5342C133.726 93.6123 133.781 93.7124 133.819 93.8345C133.858 93.9565 133.877 94.1055 133.877 94.2812V96H133.584V94.2788C133.584 94.0965 133.559 93.9541 133.509 93.8516C133.458 93.7474 133.387 93.6733 133.294 93.6294C133.201 93.5854 133.091 93.5635 132.964 93.5635C132.824 93.5635 132.701 93.5944 132.596 93.6562C132.492 93.7165 132.404 93.7954 132.332 93.8931C132.262 93.9891 132.208 94.0924 132.171 94.2031C132.133 94.3122 132.113 94.4163 132.11 94.5156ZM136.373 93.3584H136.644V95.9536C136.644 96.1831 136.6 96.38 136.512 96.5444C136.425 96.7088 136.303 96.835 136.143 96.9229C135.985 97.0107 135.799 97.0547 135.584 97.0547C135.475 97.0547 135.363 97.0376 135.247 97.0034C135.133 96.9709 135.025 96.9204 134.922 96.8521C134.821 96.7853 134.735 96.7023 134.664 96.603L134.827 96.4248C134.935 96.555 135.049 96.6502 135.171 96.7104C135.293 96.7723 135.425 96.8032 135.567 96.8032C135.735 96.8032 135.876 96.7699 135.992 96.7031C136.109 96.6364 136.198 96.5404 136.258 96.415C136.32 96.2897 136.351 96.1392 136.351 95.9634V93.9395L136.373 93.3584ZM134.517 94.7061V94.6548C134.517 94.4497 134.54 94.265 134.585 94.1006C134.633 93.9346 134.7 93.793 134.788 93.6758C134.876 93.557 134.983 93.4666 135.108 93.4048C135.235 93.3413 135.378 93.3096 135.538 93.3096C135.691 93.3096 135.826 93.3348 135.945 93.3853C136.064 93.4357 136.167 93.5081 136.253 93.6025C136.339 93.6969 136.408 93.8092 136.46 93.9395C136.514 94.0697 136.553 94.2145 136.578 94.374V95.0259C136.558 95.1756 136.522 95.3132 136.47 95.4385C136.418 95.5622 136.349 95.6704 136.263 95.7632C136.176 95.8543 136.072 95.9251 135.95 95.9756C135.83 96.0244 135.691 96.0488 135.533 96.0488C135.375 96.0488 135.233 96.0163 135.108 95.9512C134.983 95.8861 134.876 95.7941 134.788 95.6753C134.7 95.5549 134.633 95.4124 134.585 95.248C134.54 95.0837 134.517 94.903 134.517 94.7061ZM134.81 94.6548V94.7061C134.81 94.8607 134.826 95.0039 134.856 95.1357C134.887 95.2676 134.935 95.3823 134.998 95.48C135.062 95.5776 135.142 95.6541 135.24 95.7095C135.337 95.7648 135.452 95.7925 135.584 95.7925C135.752 95.7925 135.892 95.7607 136.006 95.6973C136.12 95.6322 136.211 95.5467 136.277 95.4409C136.344 95.3335 136.393 95.2163 136.424 95.0894V94.3301C136.406 94.2438 136.378 94.1559 136.341 94.0664C136.305 93.9769 136.255 93.8947 136.189 93.8198C136.126 93.7433 136.045 93.6823 135.945 93.6367C135.848 93.5895 135.729 93.5659 135.589 93.5659C135.455 93.5659 135.339 93.5936 135.24 93.6489C135.142 93.7043 135.062 93.7816 134.998 93.8809C134.935 93.9785 134.887 94.0933 134.856 94.2251C134.826 94.3569 134.81 94.5002 134.81 94.6548ZM139.1 95.3896V93.3584H139.393V96H139.112L139.1 95.3896ZM139.153 94.9014L139.305 94.8965C139.305 95.0625 139.285 95.2155 139.246 95.3555C139.207 95.4954 139.146 95.6175 139.063 95.7217C138.98 95.8258 138.873 95.9064 138.741 95.9634C138.609 96.0203 138.45 96.0488 138.265 96.0488C138.136 96.0488 138.018 96.0309 137.911 95.9951C137.805 95.9577 137.714 95.8991 137.637 95.8193C137.561 95.7396 137.501 95.6362 137.459 95.5093C137.418 95.3823 137.398 95.2285 137.398 95.0479V93.3584H137.688V95.0527C137.688 95.1943 137.704 95.3123 137.735 95.4067C137.767 95.5011 137.811 95.5768 137.867 95.6338C137.924 95.6908 137.989 95.7314 138.062 95.7559C138.135 95.7803 138.214 95.7925 138.299 95.7925C138.514 95.7925 138.683 95.751 138.807 95.668C138.932 95.585 139.021 95.4759 139.073 95.3408C139.126 95.2041 139.153 95.0576 139.153 94.9014ZM141.763 95.5264V94.1641C141.763 94.0387 141.737 93.9305 141.685 93.8394C141.633 93.7482 141.556 93.6782 141.456 93.6294C141.355 93.5806 141.23 93.5562 141.082 93.5562C140.945 93.5562 140.823 93.5806 140.716 93.6294C140.61 93.6766 140.526 93.7409 140.464 93.8223C140.404 93.902 140.374 93.9907 140.374 94.0884L140.081 94.0859C140.081 93.9867 140.105 93.8906 140.154 93.7979C140.203 93.7051 140.272 93.6221 140.362 93.5488C140.451 93.4756 140.558 93.4178 140.682 93.3755C140.807 93.3315 140.944 93.3096 141.094 93.3096C141.283 93.3096 141.449 93.3413 141.592 93.4048C141.737 93.4683 141.85 93.5635 141.932 93.6904C142.013 93.8174 142.054 93.9769 142.054 94.1689V95.4458C142.054 95.5369 142.06 95.6313 142.073 95.729C142.088 95.8267 142.108 95.9072 142.134 95.9707V96H141.824C141.805 95.9414 141.789 95.8682 141.778 95.7803C141.768 95.6908 141.763 95.6061 141.763 95.5264ZM141.832 94.4619L141.836 94.6865H141.263C141.113 94.6865 140.979 94.7004 140.86 94.728C140.743 94.7541 140.643 94.7931 140.562 94.8452C140.481 94.8957 140.418 94.9567 140.374 95.0283C140.332 95.0999 140.311 95.1813 140.311 95.2725C140.311 95.3669 140.334 95.4531 140.381 95.5312C140.43 95.6094 140.499 95.672 140.586 95.7192C140.676 95.7648 140.782 95.7876 140.904 95.7876C141.067 95.7876 141.21 95.7575 141.333 95.6973C141.459 95.637 141.562 95.5581 141.644 95.4604C141.725 95.3628 141.779 95.2562 141.807 95.1406L141.934 95.3091C141.913 95.3905 141.874 95.4743 141.817 95.5605C141.762 95.6452 141.689 95.7249 141.6 95.7998C141.51 95.873 141.404 95.9333 141.282 95.9805C141.162 96.026 141.025 96.0488 140.872 96.0488C140.7 96.0488 140.549 96.0163 140.42 95.9512C140.293 95.8861 140.194 95.7974 140.123 95.6851C140.053 95.5711 140.018 95.4425 140.018 95.2993C140.018 95.1691 140.045 95.0527 140.101 94.9502C140.156 94.846 140.236 94.7581 140.34 94.6865C140.446 94.6133 140.573 94.5579 140.721 94.5205C140.87 94.4814 141.038 94.4619 141.224 94.4619H141.832ZM144.576 93.3584H144.847V95.9536C144.847 96.1831 144.803 96.38 144.715 96.5444C144.629 96.7088 144.506 96.835 144.346 96.9229C144.188 97.0107 144.002 97.0547 143.787 97.0547C143.678 97.0547 143.566 97.0376 143.45 97.0034C143.336 96.9709 143.228 96.9204 143.125 96.8521C143.025 96.7853 142.938 96.7023 142.867 96.603L143.03 96.4248C143.138 96.555 143.252 96.6502 143.375 96.7104C143.497 96.7723 143.628 96.8032 143.77 96.8032C143.938 96.8032 144.079 96.7699 144.195 96.7031C144.312 96.6364 144.401 96.5404 144.461 96.415C144.523 96.2897 144.554 96.1392 144.554 95.9634V93.9395L144.576 93.3584ZM142.72 94.7061V94.6548C142.72 94.4497 142.743 94.265 142.789 94.1006C142.836 93.9346 142.903 93.793 142.991 93.6758C143.079 93.557 143.186 93.4666 143.311 93.4048C143.438 93.3413 143.581 93.3096 143.741 93.3096C143.894 93.3096 144.03 93.3348 144.148 93.3853C144.267 93.4357 144.37 93.5081 144.456 93.6025C144.542 93.6969 144.611 93.8092 144.664 93.9395C144.717 94.0697 144.756 94.2145 144.781 94.374V95.0259C144.761 95.1756 144.725 95.3132 144.673 95.4385C144.621 95.5622 144.552 95.6704 144.466 95.7632C144.38 95.8543 144.275 95.9251 144.153 95.9756C144.033 96.0244 143.894 96.0488 143.736 96.0488C143.578 96.0488 143.436 96.0163 143.311 95.9512C143.186 95.8861 143.079 95.7941 142.991 95.6753C142.903 95.5549 142.836 95.4124 142.789 95.248C142.743 95.0837 142.72 94.903 142.72 94.7061ZM143.013 94.6548V94.7061C143.013 94.8607 143.029 95.0039 143.06 95.1357C143.09 95.2676 143.138 95.3823 143.201 95.48C143.265 95.5776 143.345 95.6541 143.443 95.7095C143.541 95.7648 143.655 95.7925 143.787 95.7925C143.955 95.7925 144.096 95.7607 144.209 95.6973C144.323 95.6322 144.414 95.5467 144.48 95.4409C144.547 95.3335 144.596 95.2163 144.627 95.0894V94.3301C144.609 94.2438 144.581 94.1559 144.544 94.0664C144.508 93.9769 144.458 93.8947 144.393 93.8198C144.329 93.7433 144.248 93.6823 144.148 93.6367C144.051 93.5895 143.932 93.5659 143.792 93.5659C143.659 93.5659 143.542 93.5936 143.443 93.6489C143.345 93.7043 143.265 93.7816 143.201 93.8809C143.138 93.9785 143.09 94.0933 143.06 94.2251C143.029 94.3569 143.013 94.5002 143.013 94.6548ZM146.631 96.0488C146.459 96.0488 146.3 96.0171 146.155 95.9536C146.012 95.8901 145.887 95.8006 145.779 95.6851C145.674 95.5695 145.591 95.4328 145.533 95.2749C145.476 95.1154 145.447 94.9412 145.447 94.7524V94.6475C145.447 94.444 145.477 94.2601 145.538 94.0957C145.598 93.9313 145.681 93.7905 145.787 93.6733C145.892 93.5562 146.013 93.4666 146.148 93.4048C146.285 93.3413 146.428 93.3096 146.578 93.3096C146.745 93.3096 146.894 93.3397 147.024 93.3999C147.155 93.4585 147.264 93.5423 147.352 93.6514C147.441 93.7588 147.509 93.8866 147.554 94.0347C147.6 94.1812 147.623 94.3431 147.623 94.5205V94.6987H145.623V94.4497H147.332V94.4155C147.329 94.2674 147.299 94.1291 147.242 94.0005C147.186 93.8703 147.103 93.7645 146.993 93.6831C146.882 93.6017 146.744 93.561 146.578 93.561C146.454 93.561 146.34 93.5871 146.236 93.6392C146.133 93.6912 146.045 93.7661 145.97 93.8638C145.896 93.9598 145.84 94.0745 145.799 94.208C145.76 94.3398 145.74 94.4863 145.74 94.6475V94.7524C145.74 94.8989 145.761 95.0356 145.804 95.1626C145.848 95.2879 145.91 95.3986 145.989 95.4946C146.071 95.5907 146.167 95.6655 146.277 95.7192C146.388 95.7729 146.51 95.7998 146.644 95.7998C146.8 95.7998 146.938 95.7713 147.059 95.7144C147.179 95.6558 147.287 95.5638 147.383 95.4385L147.566 95.5801C147.509 95.6647 147.438 95.7428 147.352 95.8145C147.267 95.8861 147.165 95.943 147.046 95.9854C146.928 96.0277 146.789 96.0488 146.631 96.0488Z" fill="#407BFF"/>
<path d="M104.163 184.53C104.145 185.084 104.049 185.637 103.878 186.17C103.874 186.183 103.87 186.195 103.866 186.207L102.833 186.242C102.835 186.231 102.836 186.218 102.837 186.205C102.909 185.415 102.539 180.687 102.068 179.883C102.109 179.948 104.255 182.023 104.163 184.53Z" fill="#F0F0F0"/>
<path d="M103.965 186.314C103.956 186.327 103.947 186.339 103.938 186.352L103.174 186.386C103.18 186.375 103.187 186.363 103.195 186.349C103.325 186.117 103.709 185.424 104.066 184.708C104.451 183.938 104.805 183.141 104.781 182.859C104.788 182.923 105.015 184.857 103.965 186.314Z" fill="#F0F0F0"/>
<path d="M100.04 174.666L99.9778 174.723L98.4389 173.034C98.322 172.905 98.1808 172.801 98.0235 172.728C97.8662 172.654 97.6958 172.612 97.5221 172.604C97.3483 172.596 97.1747 172.623 97.011 172.682C96.8473 172.741 96.6968 172.832 96.5681 172.949L92.9802 176.219C92.8514 176.336 92.747 176.477 92.6729 176.635C92.5987 176.792 92.5563 176.963 92.5479 177.137C92.5396 177.31 92.5656 177.484 92.6244 177.647C92.6832 177.811 92.7737 177.961 92.8906 178.089L101.333 187.355C101.45 187.483 101.591 187.587 101.748 187.661C101.906 187.734 102.076 187.776 102.25 187.784C102.424 187.792 102.597 187.766 102.761 187.706C102.925 187.647 103.075 187.556 103.204 187.439L106.792 184.17C106.92 184.052 107.025 183.911 107.099 183.753C107.173 183.596 107.216 183.426 107.224 183.252C107.232 183.078 107.206 182.905 107.147 182.741C107.089 182.578 106.998 182.427 106.881 182.299L101.073 175.925L101.135 175.869L100.04 174.666Z" fill="#3F3D56"/>
<path d="M98.2333 173.374L106.523 182.472C106.609 182.566 106.675 182.677 106.718 182.797C106.761 182.918 106.779 183.046 106.772 183.174C106.766 183.302 106.734 183.428 106.678 183.544C106.623 183.661 106.545 183.766 106.449 183.853L102.867 187.117C102.771 187.204 102.66 187.272 102.539 187.316C102.417 187.36 102.289 187.381 102.161 187.376C102.033 187.37 101.907 187.34 101.791 187.286C101.675 187.233 101.571 187.156 101.485 187.062L93.1957 177.964C93.1098 177.87 93.0436 177.76 93.0008 177.639C92.958 177.519 92.9395 177.391 92.9463 177.263C92.9531 177.135 92.9851 177.009 93.0405 176.892C93.0958 176.776 93.1735 176.671 93.269 176.584L93.7038 176.188C93.7297 176.259 93.7727 176.323 93.8292 176.373C93.8857 176.423 93.9539 176.459 94.0278 176.476C94.1016 176.494 94.179 176.493 94.2529 176.474C94.3269 176.454 94.3952 176.417 94.4519 176.366L96.4945 174.505C96.5513 174.453 96.5946 174.388 96.6207 174.317C96.6468 174.245 96.6549 174.168 96.6442 174.092C96.6336 174.017 96.6045 173.946 96.5595 173.885C96.5146 173.824 96.4552 173.775 96.3866 173.743L96.8518 173.319C96.9473 173.232 97.0588 173.165 97.18 173.12C97.3011 173.076 97.4294 173.056 97.5577 173.061C97.686 173.066 97.8117 173.096 97.9276 173.15C98.0435 173.204 98.1474 173.28 98.2333 173.374Z" fill="white"/>
<path d="M101.585 179.065L98.5511 181.829C98.4979 181.878 98.425 181.9 98.3482 181.891C98.2715 181.882 98.1973 181.843 98.1419 181.783L98.0379 181.669C97.9826 181.608 97.9507 181.53 97.9491 181.453C97.9475 181.376 97.9765 181.305 98.0295 181.257L101.063 178.492C101.117 178.444 101.19 178.422 101.266 178.431C101.343 178.439 101.417 178.478 101.473 178.539L101.577 178.653C101.632 178.714 101.664 178.791 101.665 178.869C101.667 178.946 101.638 179.016 101.585 179.065Z" fill="#F0F0F0"/>
<path d="M102.315 179.866L99.2813 182.631C99.2281 182.679 99.1595 182.706 99.0906 182.706C99.0218 182.706 98.9582 182.679 98.9138 182.63L98.8306 182.539C98.7864 182.49 98.7651 182.424 98.7713 182.356C98.7776 182.287 98.8109 182.221 98.864 182.173L101.898 179.408C101.951 179.36 102.02 179.333 102.089 179.333C102.157 179.333 102.221 179.361 102.265 179.409L102.349 179.5C102.393 179.549 102.414 179.615 102.408 179.684C102.402 179.752 102.368 179.818 102.315 179.866Z" fill="#F0F0F0"/>
<path d="M101.475 178.746L98.3584 181.586C98.301 181.638 98.2238 181.664 98.1438 181.657C98.0637 181.651 97.9873 181.613 97.9314 181.552L97.8314 181.442C97.7756 181.38 97.7448 181.301 97.7458 181.221C97.7468 181.14 97.7796 181.066 97.8368 181.013L100.954 178.173C101.011 178.121 101.088 178.096 101.168 178.102C101.248 178.109 101.325 178.147 101.381 178.208L101.481 178.318C101.536 178.379 101.567 178.459 101.566 178.539C101.565 178.619 101.533 178.694 101.475 178.746ZM97.877 181.058C97.8306 181.1 97.8041 181.16 97.8033 181.225C97.8025 181.29 97.8274 181.355 97.8726 181.404L97.9726 181.514C98.0179 181.564 98.0797 181.594 98.1445 181.6C98.2093 181.605 98.2718 181.584 98.3183 181.542L101.435 178.702C101.481 178.66 101.508 178.599 101.509 178.534C101.51 178.469 101.485 178.405 101.439 178.355L101.339 178.245C101.294 178.196 101.232 178.165 101.168 178.16C101.103 178.155 101.04 178.175 100.994 178.218L97.877 181.058Z" fill="#3F3D56"/>
<path d="M102.31 179.662L99.1931 182.502C99.1358 182.554 99.0586 182.58 98.9785 182.573C98.8985 182.567 98.8221 182.529 98.7661 182.468L98.6662 182.358C98.6103 182.296 98.5795 182.217 98.5805 182.137C98.5815 182.056 98.6143 181.982 98.6715 181.929L101.788 179.089C101.846 179.037 101.923 179.012 102.003 179.018C102.083 179.025 102.159 179.063 102.215 179.124L102.315 179.234C102.371 179.295 102.402 179.375 102.401 179.455C102.4 179.535 102.367 179.61 102.31 179.662ZM98.7117 181.974C98.6653 182.016 98.6388 182.076 98.638 182.141C98.6372 182.206 98.6621 182.271 98.7073 182.32L98.8073 182.43C98.8526 182.48 98.9144 182.51 98.9792 182.516C99.044 182.521 99.1065 182.5 99.153 182.458L102.27 179.618C102.316 179.576 102.343 179.515 102.343 179.45C102.344 179.385 102.319 179.321 102.274 179.271L102.174 179.161C102.129 179.112 102.067 179.081 102.002 179.076C101.937 179.071 101.875 179.091 101.829 179.134L98.7117 181.974Z" fill="#3F3D56"/>
<path d="M97.0841 174.412L98.875 176.378C98.6258 176.755 98.2952 177.074 97.9084 177.309C97.5217 177.544 97.0892 177.69 96.6442 177.734C96.1992 177.779 95.7535 177.722 95.3415 177.567C94.9296 177.412 94.5622 177.164 94.2678 176.841C94.2153 176.783 94.1657 176.724 94.1191 176.663L95.3213 175.568C95.379 175.515 95.4234 175.45 95.4505 175.377C95.4776 175.305 95.4866 175.228 95.4768 175.152C95.4669 175.077 95.4385 175.006 95.394 174.945C95.3495 174.884 95.2903 174.836 95.2217 174.805L95.6948 174.373C95.7919 174.285 95.9048 174.216 96.0272 174.17C96.1496 174.124 96.279 174.102 96.408 174.106C96.537 174.109 96.6631 174.138 96.7791 174.191C96.8951 174.243 96.9988 174.319 97.0841 174.412Z" fill="#7CC3FB"/>
<path d="M105.461 184.526C105.499 184.568 105.535 184.611 105.569 184.655L104.479 185.649C104.382 185.737 104.269 185.805 104.147 185.85C104.024 185.895 103.895 185.916 103.765 185.911C103.636 185.906 103.509 185.876 103.392 185.822C103.275 185.768 103.17 185.691 103.084 185.596L102.19 184.615C102.392 184.378 102.642 184.185 102.922 184.05C103.203 183.915 103.508 183.841 103.818 183.832C104.127 183.824 104.434 183.881 104.717 184.001C105.001 184.12 105.254 184.299 105.461 184.526L105.461 184.526Z" fill="#7CC3FB"/>
<path d="M100.545 179.576L99.3687 179.679L99.4683 180.855L100.645 180.752L100.545 179.576Z" fill="#F0F0F0"/>
<path d="M102.556 181.533L101.033 182.92C100.977 182.971 100.906 183.001 100.835 183.003C100.764 183.005 100.699 182.978 100.655 182.93L100.571 182.839C100.527 182.79 100.507 182.723 100.515 182.652C100.524 182.582 100.56 182.513 100.616 182.462L102.139 181.075C102.195 181.024 102.266 180.994 102.338 180.992C102.409 180.99 102.473 181.017 102.518 181.065L102.601 181.156C102.645 181.205 102.665 181.272 102.657 181.343C102.648 181.413 102.612 181.482 102.556 181.533Z" fill="#7CC3FB"/>
<path d="M102.342 181.518L100.924 182.81C100.869 182.86 100.794 182.884 100.716 182.876C100.637 182.868 100.562 182.829 100.506 182.767L100.406 182.658C100.35 182.596 100.319 182.518 100.318 182.439C100.317 182.36 100.348 182.288 100.402 182.238L101.82 180.946C101.875 180.896 101.95 180.872 102.028 180.88C102.107 180.888 102.182 180.927 102.238 180.989L102.338 181.098C102.394 181.16 102.426 181.238 102.426 181.317C102.427 181.396 102.397 181.468 102.342 181.518ZM100.443 182.282C100.398 182.322 100.374 182.381 100.374 182.445C100.375 182.508 100.4 182.572 100.446 182.622L100.546 182.731C100.591 182.781 100.652 182.813 100.715 182.819C100.779 182.825 100.839 182.806 100.884 182.766L102.302 181.474C102.346 181.434 102.371 181.375 102.37 181.311C102.369 181.248 102.344 181.184 102.299 181.134L102.199 181.024C102.153 180.975 102.092 180.943 102.029 180.937C101.965 180.93 101.905 180.949 101.86 180.99L100.443 182.282Z" fill="#3F3D56"/>
<path d="M72.9818 185.863C72.4286 185.903 71.8696 185.865 71.3212 185.75C71.3085 185.747 71.2959 185.744 71.2832 185.742L71.1421 184.718C71.1532 184.718 71.1655 184.718 71.1789 184.718C71.9728 184.708 76.6365 183.851 77.3881 183.3C77.3275 183.348 75.4852 185.696 72.9818 185.863Z" fill="#F0F0F0"/>
<path d="M71.1867 185.851C71.1734 185.843 71.1601 185.836 71.1469 185.828L71.0342 185.072C71.0453 185.077 71.0583 185.082 71.073 185.089C71.3169 185.194 72.0457 185.504 72.7952 185.786C73.6006 186.089 74.4299 186.359 74.7076 186.306C74.6453 186.32 72.7451 186.745 71.1867 185.851Z" fill="#F0F0F0"/>
<path d="M82.367 180.744L82.3046 180.688L83.8256 178.983C83.9412 178.854 84.03 178.703 84.0871 178.539C84.1442 178.374 84.1683 178.201 84.1582 178.027C84.148 177.853 84.1038 177.683 84.028 177.527C83.9522 177.37 83.8463 177.23 83.7163 177.114L80.094 173.883C79.9641 173.767 79.8126 173.678 79.6483 173.62C79.4841 173.563 79.3101 173.538 79.1365 173.548C78.9629 173.557 78.7929 173.601 78.6364 173.676C78.4799 173.752 78.3398 173.857 78.2242 173.987L69.8803 183.341C69.7647 183.47 69.6758 183.621 69.6187 183.786C69.5616 183.95 69.5375 184.123 69.5476 184.297C69.5578 184.471 69.602 184.641 69.6778 184.797C69.7537 184.954 69.8596 185.094 69.9895 185.21L73.6118 188.441C73.7417 188.557 73.8932 188.647 74.0575 188.704C74.2218 188.762 74.3957 188.786 74.5693 188.777C74.743 188.767 74.9129 188.723 75.0694 188.648C75.2259 188.572 75.366 188.467 75.4816 188.337L81.222 181.902L81.2844 181.958L82.367 180.744Z" fill="#3F3D56"/>
<path d="M83.4659 178.814L75.2726 187.999C75.1877 188.094 75.0847 188.171 74.9693 188.226C74.854 188.281 74.7286 188.313 74.6004 188.319C74.4722 188.326 74.3436 188.307 74.222 188.264C74.1004 188.221 73.9882 188.154 73.8918 188.068L70.2747 184.842C70.1783 184.756 70.0995 184.652 70.0429 184.536C69.9863 184.42 69.953 184.294 69.9448 184.166C69.9367 184.038 69.9538 183.91 69.9953 183.789C70.0369 183.668 70.1019 183.557 70.1868 183.462L78.3801 174.277C78.4649 174.182 78.568 174.105 78.6833 174.05C78.7986 173.995 78.9239 173.963 79.0521 173.957C79.1803 173.95 79.3089 173.969 79.4304 174.012C79.552 174.055 79.6642 174.122 79.7606 174.208L80.1996 174.599C80.1314 174.632 80.0726 174.682 80.0284 174.743C79.9842 174.804 79.9559 174.876 79.946 174.951C79.9362 175.027 79.945 175.103 79.9718 175.175C79.9986 175.247 80.0425 175.311 80.0996 175.362L82.1619 177.201C82.219 177.252 82.2878 177.289 82.3619 177.307C82.4361 177.326 82.5135 177.326 82.5872 177.308C82.661 177.289 82.7288 177.253 82.7847 177.202C82.8407 177.151 82.883 177.087 82.908 177.015L83.3777 177.434C83.4742 177.52 83.553 177.624 83.6096 177.74C83.6663 177.856 83.6996 177.982 83.7078 178.11C83.716 178.238 83.6989 178.366 83.6574 178.487C83.6158 178.608 83.5508 178.719 83.4659 178.814Z" fill="white"/>
<path d="M78.1518 182.735L75.0889 180.003C75.0353 179.955 75.0057 179.885 75.0064 179.808C75.0072 179.73 75.0383 179.653 75.093 179.591L75.1957 179.476C75.2505 179.415 75.3243 179.375 75.4009 179.365C75.4775 179.356 75.5507 179.377 75.6044 179.425L78.6674 182.157C78.7209 182.205 78.7506 182.276 78.7499 182.353C78.7491 182.43 78.718 182.508 78.6633 182.569L78.5606 182.684C78.5058 182.746 78.432 182.785 78.3554 182.795C78.2787 182.805 78.2055 182.783 78.1518 182.735Z" fill="#F0F0F0"/>
<path d="M77.43 183.544L74.3671 180.812C74.3135 180.764 74.2794 180.699 74.2725 180.63C74.2655 180.562 74.2861 180.496 74.3298 180.447L74.412 180.355C74.4559 180.306 74.5192 180.278 74.5881 180.277C74.657 180.276 74.7258 180.302 74.7795 180.35L77.8424 183.082C77.896 183.13 77.93 183.195 77.937 183.264C77.944 183.333 77.9234 183.399 77.8796 183.448L77.7974 183.54C77.7536 183.589 77.6903 183.617 77.6214 183.618C77.5525 183.619 77.4837 183.592 77.43 183.544Z" fill="#F0F0F0"/>
<path d="M78.4575 182.593L75.3109 179.786C75.2531 179.735 75.2196 179.66 75.2177 179.58C75.2159 179.5 75.2458 179.42 75.301 179.358L75.3998 179.247C75.4551 179.185 75.5311 179.147 75.6111 179.139C75.691 179.132 75.7685 179.157 75.8264 179.208L78.9731 182.015C79.0309 182.067 79.0644 182.141 79.0662 182.221C79.0681 182.302 79.0382 182.382 78.983 182.444L78.8842 182.554C78.8289 182.616 78.7529 182.655 78.6729 182.662C78.5929 182.67 78.5155 182.645 78.4575 182.593ZM75.7867 179.253C75.7398 179.211 75.6771 179.191 75.6124 179.197C75.5476 179.203 75.4861 179.234 75.4414 179.284L75.3426 179.395C75.2979 179.445 75.2737 179.51 75.2752 179.575C75.2767 179.64 75.3038 179.7 75.3506 179.742L78.4972 182.549C78.5441 182.59 78.6068 182.611 78.6716 182.605C78.7363 182.599 78.7978 182.567 78.8426 182.517L78.9414 182.407C78.9861 182.356 79.0103 182.292 79.0088 182.227C79.0073 182.162 78.9802 182.102 78.9334 182.06L75.7867 179.253Z" fill="#3F3D56"/>
<path d="M77.6326 183.518L74.4859 180.711C74.4281 180.659 74.3946 180.585 74.3928 180.505C74.3909 180.425 74.4209 180.345 74.476 180.283L74.5748 180.172C74.6301 180.11 74.7061 180.071 74.7861 180.064C74.8661 180.057 74.9435 180.082 75.0015 180.133L78.1481 182.94C78.2059 182.992 78.2394 183.066 78.2413 183.146C78.2431 183.226 78.2132 183.306 78.158 183.368L78.0592 183.479C78.0039 183.541 77.9279 183.58 77.848 183.587C77.768 183.594 77.6905 183.57 77.6326 183.518ZM74.9618 180.178C74.9149 180.136 74.8522 180.116 74.7874 180.122C74.7227 180.128 74.6612 180.159 74.6164 180.209L74.5176 180.32C74.4729 180.37 74.4487 180.435 74.4502 180.5C74.4517 180.565 74.4788 180.625 74.5256 180.667L77.6723 183.474C77.7192 183.515 77.7819 183.535 77.8466 183.529C77.9114 183.524 77.9729 183.492 78.0177 183.442L78.1164 183.331C78.1611 183.281 78.1854 183.216 78.1839 183.151C78.1824 183.086 78.1552 183.026 78.1084 182.985L74.9618 180.178Z" fill="#3F3D56"/>
<path d="M82.3145 177.778L80.5445 179.763C80.1433 179.554 79.7923 179.258 79.5185 178.897C79.2446 178.537 79.0552 178.122 78.9647 177.684C78.8743 177.246 78.8852 176.797 78.9968 176.371C79.1083 175.945 79.3175 175.554 79.6081 175.228C79.66 175.17 79.7138 175.114 79.7695 175.061L80.9832 176.144C81.0414 176.196 81.1109 176.234 81.1858 176.253C81.2607 176.272 81.3386 176.273 81.4126 176.256C81.4865 176.238 81.5544 176.203 81.6101 176.152C81.6658 176.102 81.7076 176.038 81.732 175.966L82.2096 176.392C82.3077 176.48 82.3882 176.585 82.4466 176.702C82.5049 176.819 82.54 176.945 82.5497 177.074C82.5595 177.203 82.5437 177.331 82.5034 177.452C82.463 177.573 82.3988 177.684 82.3145 177.778Z" fill="#7CC3FB"/>
<path d="M73.12 187.154C73.0822 187.197 73.0432 187.237 73.0028 187.275L71.9014 186.293C71.8039 186.206 71.7241 186.101 71.6667 185.984C71.6093 185.867 71.5753 185.74 71.5668 185.611C71.5583 185.481 71.5754 185.352 71.6171 185.23C71.6588 185.108 71.7243 184.996 71.8098 184.9L72.6931 183.91C72.9503 184.086 73.1677 184.315 73.331 184.58C73.4943 184.845 73.5997 185.141 73.6401 185.448C73.6805 185.755 73.655 186.066 73.5653 186.36C73.4756 186.655 73.3238 186.925 73.12 187.154L73.12 187.154Z" fill="#7CC3FB"/>
<path d="M77.5361 181.754L77.3118 180.594L76.1522 180.815L76.3765 181.975L77.5361 181.754Z" fill="#F0F0F0"/>
<path d="M75.7971 183.956L74.26 182.585C74.2033 182.534 74.1664 182.466 74.1572 182.396C74.1481 182.325 74.1675 182.258 74.2112 182.209L74.2934 182.117C74.3372 182.068 74.4017 182.041 74.4728 182.042C74.5439 182.043 74.6156 182.072 74.6724 182.122L76.2096 183.494C76.2662 183.544 76.3032 183.612 76.3123 183.683C76.3215 183.753 76.3021 183.82 76.2584 183.87L76.1762 183.962C76.1323 184.011 76.0678 184.038 75.9967 184.037C75.9257 184.036 75.8539 184.007 75.7971 183.956Z" fill="#7CC3FB"/>
<path d="M75.7893 183.741L74.3581 182.465C74.3027 182.415 74.2716 182.343 74.2714 182.264C74.2713 182.186 74.3022 182.107 74.3574 182.045L74.4562 181.934C74.5115 181.872 74.5865 181.832 74.6648 181.823C74.743 181.815 74.8182 181.837 74.8737 181.887L76.3048 183.163C76.3602 183.213 76.3914 183.285 76.3915 183.364C76.3917 183.442 76.3607 183.522 76.3056 183.584L76.2068 183.694C76.1515 183.756 76.0765 183.796 75.9982 183.805C75.9199 183.813 75.8448 183.791 75.7893 183.741ZM74.834 181.931C74.789 181.891 74.7282 181.873 74.6649 181.88C74.6015 181.887 74.5408 181.919 74.496 181.969L74.3972 182.08C74.3525 182.13 74.3275 182.194 74.3276 182.258C74.3277 182.322 74.353 182.38 74.3978 182.42L75.829 183.697C75.8739 183.737 75.9347 183.755 75.9981 183.748C76.0615 183.741 76.1222 183.709 76.167 183.659L76.2657 183.548C76.3104 183.498 76.3354 183.434 76.3353 183.37C76.3352 183.306 76.31 183.248 76.2651 183.208L74.834 181.931Z" fill="#3F3D56"/>
<path d="M158.575 192.171H154.206L152.128 175.17L158.576 175.171L158.575 192.171Z" fill="#FFB573"/>
<path d="M151.086 190.912H159.511V196.264H145.781C145.781 195.561 145.919 194.865 146.185 194.216C146.452 193.567 146.843 192.977 147.335 192.48C147.828 191.983 148.412 191.588 149.056 191.32C149.7 191.051 150.389 190.912 151.086 190.912Z" fill="#2F2E41"/>
<path d="M180.311 192.171H175.942L173.864 175.17L180.311 175.171L180.311 192.171Z" fill="#FFB573"/>
<path d="M172.822 190.912H181.246V196.264H167.517C167.517 195.561 167.654 194.865 167.921 194.216C168.187 193.567 168.578 192.977 169.071 192.48C169.563 191.983 170.148 191.588 170.792 191.32C171.435 191.051 172.125 190.912 172.822 190.912Z" fill="#2F2E41"/>
<path d="M136.661 131.372C136.346 130.904 136.137 130.373 136.049 129.816C135.96 129.258 135.993 128.688 136.146 128.145C136.3 127.602 136.569 127.099 136.935 126.673C137.302 126.246 137.757 125.906 138.268 125.676L153.118 84.3789L160.425 88.4024L143.469 127.867C143.796 128.759 143.786 129.741 143.443 130.626C143.1 131.511 142.447 132.239 141.608 132.671C140.769 133.103 139.801 133.209 138.89 132.97C137.978 132.73 137.185 132.162 136.661 131.372Z" fill="#FFB573"/>
<path d="M178.079 139.132C177.593 138.851 177.175 138.466 176.853 138.004C176.531 137.543 176.313 137.015 176.215 136.459C176.116 135.904 176.14 135.333 176.284 134.787C176.428 134.241 176.689 133.734 177.048 133.301L172.448 89.6165L180.763 89.9998L182.675 132.97C183.356 133.627 183.774 134.513 183.851 135.461C183.927 136.408 183.656 137.351 183.09 138.111C182.523 138.87 181.7 139.394 180.777 139.582C179.853 139.77 178.893 139.61 178.079 139.132Z" fill="#FFB573"/>
<path d="M164.813 76.7297C169.647 76.7297 173.565 72.7763 173.565 67.8995C173.565 63.0227 169.647 59.0693 164.813 59.0693C159.98 59.0693 156.062 63.0227 156.062 67.8995C156.062 72.7763 159.98 76.7297 164.813 76.7297Z" fill="#FFB573"/>
<path d="M178.023 129.196H151.639L151.67 128.989C151.718 128.68 156.373 97.9126 152.94 87.8472C152.595 86.858 152.625 85.7753 153.025 84.8073C153.424 83.8393 154.164 83.0546 155.102 82.6041H155.102C160.009 80.2725 169.429 77.4014 177.38 84.3691C178.549 85.4112 179.463 86.7138 180.048 88.1736C180.633 89.6335 180.873 91.2106 180.75 92.7804L178.023 129.196Z" fill="#3182CE"/>
<path d="M156.706 102.459L144.828 100.028L150.396 86.715C150.729 85.4256 151.555 84.3222 152.694 83.6467C153.832 82.9713 155.19 82.7791 156.468 83.1122C157.747 83.4452 158.843 84.2765 159.515 85.4235C160.187 86.5706 160.381 87.9398 160.054 89.2308L156.706 102.459Z" fill="#3182CE"/>
<path d="M171.92 106.974L171.205 90.4573C170.664 87.3524 172.426 84.4173 175.135 83.9375C177.845 83.4595 180.491 85.6129 181.035 88.7406L183.719 104.174L171.92 106.974Z" fill="#3182CE"/>
<path d="M177.145 127.219C181.391 143.533 181.854 164.274 180.709 186.899L175.007 186.18L164.674 143.038L158.973 186.899L152.559 186.539C150.643 162.801 148.777 142.421 151.846 129.016L177.145 127.219Z" fill="#2F2E41"/>
<path d="M170.579 74.7239C168.947 76.4786 165.915 75.5366 165.702 73.1394C165.685 72.9533 165.686 72.766 165.705 72.5801C165.815 71.5183 166.423 70.5542 166.278 69.433C166.245 69.154 166.142 68.8881 165.978 68.6605C164.677 66.9027 161.623 69.4467 160.395 67.8554C159.643 66.8797 160.528 65.3434 159.95 64.2528C159.187 62.8134 156.929 63.5235 155.512 62.7352C153.936 61.8582 154.031 59.4186 155.068 57.9347C156.333 56.125 158.551 55.1594 160.742 55.0202C162.932 54.881 165.108 55.4785 167.153 56.2826C169.476 57.1963 171.781 58.459 173.211 60.5205C174.949 63.0275 175.117 66.3979 174.247 69.3293C173.718 71.1126 171.913 73.291 170.579 74.7239Z" fill="#263238"/>
</svg>
