<svg width="133" height="97" viewBox="0 0 133 97" fill="none" xmlns="http://www.w3.org/2000/svg">
<path d="M32.5509 93.3368V95.918H9.40073V93.8611L28.1144 70.2673H9.68305V67.6861H32.0669V69.743L13.3935 93.3368H32.5509ZM55.73 86.1981H37.9843C38.1456 88.4029 38.9925 90.1909 40.5251 91.5622C42.0577 92.9066 43.9936 93.5788 46.3328 93.5788C47.6503 93.5788 48.8603 93.3502 49.9626 92.8931C51.065 92.4091 52.0195 91.7101 52.8262 90.7959L54.4394 92.6511C53.4984 93.7804 52.3153 94.6408 50.8903 95.2323C49.4921 95.8239 47.9461 96.1196 46.2522 96.1196C44.0743 96.1196 42.1384 95.6625 40.4445 94.7484C38.7774 93.8073 37.4734 92.5167 36.5323 90.8766C35.5913 89.2364 35.1207 87.3812 35.1207 85.3108C35.1207 83.2405 35.5644 81.3853 36.4517 79.7451C37.3658 78.105 38.6027 76.8278 40.1621 75.9137C41.7485 74.9995 43.5231 74.5424 45.4859 74.5424C47.4487 74.5424 49.2098 74.9995 50.7693 75.9137C52.3287 76.8278 53.5521 78.105 54.4394 79.7451C55.3267 81.3584 55.7703 83.2136 55.7703 85.3108L55.73 86.1981ZM45.4859 77.0026C43.4424 77.0026 41.7216 77.6613 40.3235 78.9788C38.9522 80.2694 38.1725 81.9633 37.9843 84.0606H53.0278C52.8396 81.9633 52.0464 80.2694 50.6483 78.9788C49.277 77.6613 47.5562 77.0026 45.4859 77.0026ZM64.3414 78.8578C65.0136 77.4328 66.0084 76.3573 67.3259 75.6313C68.6703 74.9054 70.3238 74.5424 72.2866 74.5424V77.3253L71.601 77.2849C69.3693 77.2849 67.6217 77.9706 66.3579 79.3418C65.0942 80.7131 64.4624 82.6355 64.4624 85.1092V95.918H61.5988V74.7037H64.3414V78.8578ZM85.9457 96.1196C83.9022 96.1196 82.0605 95.6625 80.4203 94.7484C78.7802 93.8073 77.4896 92.5167 76.5485 90.8766C75.6074 89.2364 75.1369 87.3812 75.1369 85.3108C75.1369 83.2405 75.6074 81.3853 76.5485 79.7451C77.4896 78.105 78.7802 76.8278 80.4203 75.9137C82.0605 74.9995 83.9022 74.5424 85.9457 74.5424C87.9891 74.5424 89.8309 74.9995 91.4711 75.9137C93.1112 76.8278 94.3884 78.105 95.3026 79.7451C96.2436 81.3853 96.7141 83.2405 96.7141 85.3108C96.7141 87.3812 96.2436 89.2364 95.3026 90.8766C94.3884 92.5167 93.1112 93.8073 91.4711 94.7484C89.8309 95.6625 87.9891 96.1196 85.9457 96.1196ZM85.9457 93.5788C87.4514 93.5788 88.7958 93.2427 89.9788 92.5705C91.1888 91.8714 92.1298 90.89 92.802 89.6263C93.4742 88.3626 93.8103 86.9241 93.8103 85.3108C93.8103 83.6976 93.4742 82.2591 92.802 80.9954C92.1298 79.7317 91.1888 78.7637 89.9788 78.0915C88.7958 77.3925 87.4514 77.0429 85.9457 77.0429C84.44 77.0429 83.0822 77.3925 81.8722 78.0915C80.6892 78.7637 79.7481 79.7317 79.049 80.9954C78.3769 82.2591 78.0408 83.6976 78.0408 85.3108C78.0408 86.9241 78.3769 88.3626 79.049 89.6263C79.7481 90.89 80.6892 91.8714 81.8722 92.5705C83.0822 93.2427 84.44 93.5788 85.9457 93.5788Z" fill="#2D62B6"/>
<path d="M120.871 95.918L111.756 83.4959L102.681 95.918H99.2531L109.981 81.3987L99.9388 67.6861H103.367L111.877 79.2208L120.346 67.6861H123.573L113.571 81.318L124.339 95.918H120.871Z" fill="#FE5E58"/>
<path d="M69.4953 6.4206L78.1596 6.4206L44.3808 46.7519L35.8104 46.7519L69.4953 6.4206Z" fill="#2D62B6"/>
<path d="M87.4768 16.2028L96.141 16.2028L62.3622 56.5341L53.7919 56.5341L87.4768 16.2028Z" fill="#2D62B6"/>
<path d="M70.6722 21.2438L77.9909 21.2438L61.6896 41.0385L53.959 41.0385L70.6722 21.2438Z" fill="#FE5E58"/>
</svg>
