<svg width="310" height="187" viewBox="0 0 310 187" fill="none" xmlns="http://www.w3.org/2000/svg">
<g clip-path="url(#clip0_153_2802)">
<path d="M237.343 184.885C233.374 181.502 230.964 176.156 231.596 170.953C232.228 165.749 236.144 160.965 241.223 159.86C246.302 158.755 252.093 161.814 253.635 166.82C254.484 157.168 255.463 147.112 260.549 138.893C265.154 131.45 273.13 126.125 281.774 125.172C290.419 124.22 299.52 127.818 304.911 134.702C310.302 141.586 311.622 151.594 307.846 159.498C305.065 165.32 299.94 169.653 294.571 173.178C277.221 184.473 256.412 189.066 235.973 186.113L237.343 184.885Z" fill="#F2F2F2"/>
<path d="M296.363 128.017C289.23 133.879 282.687 140.435 276.827 147.59C267.657 158.75 260.236 171.262 254.823 184.691C254.427 185.67 256.004 186.097 256.396 185.128C265.252 163.304 279.389 144.068 297.516 129.181C298.33 128.512 297.17 127.354 296.363 128.017Z" fill="white"/>
<path d="M99.794 183.966C105.245 179.319 108.556 171.977 107.688 164.829C106.82 157.682 101.441 151.112 94.465 149.594C87.4886 148.076 79.536 152.278 77.4171 159.154C76.2509 145.897 74.9071 132.085 67.9217 120.795C61.5965 110.573 50.6413 103.259 38.7682 101.95C26.8952 100.642 14.3944 105.584 6.98963 115.039C-0.415149 124.495 -2.22818 138.241 2.95794 149.096C6.77837 157.093 13.8169 163.044 21.1916 167.886C44.7194 183.333 73.9056 189.775 101.677 185.652" fill="#F2F2F2"/>
<path d="M18.7307 105.858C28.5274 113.909 37.5149 122.913 45.5631 132.741C53.6126 142.559 60.6993 153.141 66.7236 164.34C70.091 170.621 73.116 177.084 75.7851 183.698C76.3293 185.044 74.1638 185.63 73.6256 184.299C68.898 172.638 63.0491 161.472 56.1626 150.962C49.3097 140.49 41.4661 130.713 32.7421 121.77C27.8077 116.713 22.6016 111.935 17.1472 107.455C16.0292 106.537 17.6219 104.947 18.7307 105.858L18.7307 105.858Z" fill="white"/>
<path d="M222.523 186.591H92.4656V51.9506C92.4656 23.3049 115.563 0 143.954 0H171.035C199.425 0 222.523 23.3049 222.523 51.9506V186.591Z" fill="#F2F2F2"/>
<path d="M195.443 186.591H92.4655V51.9506C92.4371 40.9743 95.8819 30.2753 102.298 21.4115C102.535 21.0862 102.771 20.7651 103.014 20.4476C106.118 16.3404 109.811 12.7233 113.973 9.7157C114.208 9.54313 114.444 9.37356 114.683 9.20398C118.165 6.7727 121.932 4.78517 125.897 3.28665C126.133 3.19659 126.373 3.10636 126.612 3.01981C130.199 1.72844 133.917 0.843862 137.697 0.382401C137.931 0.350099 138.172 0.324821 138.413 0.299543C142.097 -0.0978947 145.812 -0.0978947 149.496 0.299543C149.736 0.324821 149.977 0.350096 150.214 0.382747C153.993 0.844238 157.71 1.72871 161.296 3.01983C161.535 3.10637 161.775 3.1966 162.011 3.28683C165.928 4.76646 169.65 6.72432 173.095 9.11674C173.335 9.28263 173.574 9.45221 173.81 9.62179C176.143 11.3017 178.334 13.1733 180.361 15.2173C181.986 16.8569 183.501 18.6046 184.895 20.4486C185.137 20.7651 185.373 21.0862 185.609 21.411C192.026 30.2749 195.471 40.9741 195.443 51.9506V186.591Z" fill="#CCCCCC"/>
<path d="M187.069 126.371C190.218 126.371 192.77 123.796 192.77 120.619C192.77 117.442 190.218 114.866 187.069 114.866C183.92 114.866 181.368 117.442 181.368 120.619C181.368 123.796 183.92 126.371 187.069 126.371Z" fill="#3182CE"/>
<path d="M211.869 182.558H207.5L205.422 165.557L211.869 165.557L211.869 182.558Z" fill="#FFB573"/>
<path d="M204.38 181.299H212.805V186.651H199.075C199.075 185.948 199.212 185.252 199.479 184.603C199.746 183.953 200.136 183.363 200.629 182.866C201.121 182.369 201.706 181.975 202.35 181.706C202.993 181.437 203.683 181.299 204.38 181.299Z" fill="#2F2E41"/>
<path d="M233.604 182.558H229.236L227.157 165.557L233.605 165.557L233.604 182.558Z" fill="#FFB573"/>
<path d="M226.115 181.299H234.54V186.651H220.811C220.811 185.948 220.948 185.252 221.215 184.603C221.481 183.953 221.872 183.363 222.364 182.866C222.857 182.369 223.442 181.975 224.085 181.706C224.729 181.437 225.419 181.299 226.115 181.299Z" fill="#2F2E41"/>
<path d="M189.954 121.758C189.64 121.291 189.431 120.76 189.342 120.203C189.253 119.645 189.287 119.075 189.44 118.532C189.593 117.989 189.863 117.486 190.229 117.06C190.596 116.633 191.051 116.293 191.562 116.062L206.412 74.7656L213.719 78.7891L196.763 118.254C197.089 119.146 197.08 120.127 196.737 121.013C196.394 121.898 195.741 122.626 194.901 123.058C194.062 123.489 193.095 123.596 192.183 123.356C191.271 123.117 190.478 122.548 189.954 121.758Z" fill="#FFB573"/>
<path d="M231.373 129.518C230.887 129.237 230.469 128.852 230.147 128.391C229.825 127.929 229.607 127.402 229.508 126.846C229.41 126.29 229.434 125.719 229.578 125.174C229.722 124.628 229.983 124.121 230.342 123.688L225.742 80.0029L234.057 80.3862L235.969 123.356C236.65 124.013 237.068 124.9 237.145 125.847C237.221 126.795 236.95 127.738 236.384 128.497C235.817 129.257 234.994 129.78 234.07 129.968C233.147 130.156 232.187 129.996 231.373 129.518Z" fill="#FFB573"/>
<path d="M218.107 67.1164C222.94 67.1164 226.858 63.163 226.858 58.2862C226.858 53.4095 222.94 49.4561 218.107 49.4561C213.273 49.4561 209.355 53.4095 209.355 58.2862C209.355 63.163 213.273 67.1164 218.107 67.1164Z" fill="#FFB573"/>
<path d="M231.317 119.583H204.932L204.964 119.376C205.012 119.066 209.666 88.2994 206.233 78.2339C205.889 77.2447 205.919 76.162 206.318 75.194C206.718 74.2261 207.458 73.4413 208.396 72.9908H208.396C213.303 70.6592 222.723 67.7882 230.673 74.7558C231.843 75.798 232.757 77.1005 233.342 78.5603C233.927 80.0202 234.167 81.5974 234.044 83.1671L231.317 119.583Z" fill="#3182CE"/>
<path d="M210 92.846L198.121 90.4145L203.689 77.1015C204.023 75.8121 204.849 74.7086 205.987 74.0332C207.126 73.3578 208.483 73.1655 209.762 73.4986C211.041 73.8317 212.137 74.6629 212.809 75.81C213.481 76.957 213.675 78.3262 213.348 79.6173L210 92.846Z" fill="#3182CE"/>
<path d="M225.213 97.3609L224.499 80.844C223.958 77.7391 225.719 74.804 228.428 74.3242C231.138 73.8462 233.785 75.9997 234.329 79.1274L237.013 94.5607L225.213 97.3609Z" fill="#3182CE"/>
<path d="M230.439 117.605C234.684 133.919 235.148 154.661 234.002 177.286L228.301 176.567L217.968 133.424L212.267 177.286L205.853 176.926C203.937 153.187 202.071 132.808 205.14 119.403L230.439 117.605Z" fill="#2F2E41"/>
<path d="M223.873 65.1106C222.24 66.8653 219.208 65.9234 218.996 63.5261C218.979 63.34 218.98 63.1527 218.999 62.9668C219.109 61.905 219.717 60.9409 219.572 59.8197C219.539 59.5407 219.436 59.2748 219.272 59.0472C217.971 57.2894 214.917 59.8334 213.689 58.2421C212.936 57.2664 213.821 55.7301 213.244 54.6395C212.481 53.2002 210.222 53.9102 208.806 53.1219C207.23 52.2449 207.324 49.8053 208.362 48.3214C209.627 46.5117 211.845 45.5461 214.036 45.4069C216.226 45.2677 218.402 45.8652 220.447 46.6693C222.77 47.583 225.074 48.8457 226.504 50.9072C228.243 53.4142 228.411 56.7846 227.541 59.716C227.012 61.4993 225.206 63.6777 223.873 65.1106Z" fill="#263238"/>
<path d="M299.304 186.822H36.2335C36.1211 186.822 36.0136 186.776 35.9343 186.696C35.855 186.616 35.8104 186.507 35.8104 186.394C35.8104 186.281 35.855 186.172 35.9343 186.092C36.0136 186.011 36.1211 185.966 36.2335 185.966H299.304C299.416 185.966 299.524 186.011 299.603 186.092C299.682 186.172 299.727 186.281 299.727 186.394C299.727 186.507 299.682 186.616 299.603 186.696C299.524 186.776 299.416 186.822 299.304 186.822Z" fill="#3F3D56"/>
<path d="M167.115 147.583H120.793C120.183 147.586 119.597 147.345 119.162 146.913C118.728 146.48 118.482 145.892 118.477 145.276V40.9547C118.482 40.3391 118.728 39.7506 119.162 39.3183C119.597 38.8859 120.183 38.6449 120.793 38.6482H167.115C167.725 38.6449 168.312 38.8859 168.746 39.3183C169.18 39.7506 169.426 40.3391 169.431 40.9547V145.276C169.426 145.892 169.18 146.48 168.746 146.913C168.312 147.345 167.725 147.586 167.115 147.583Z" fill="white"/>
<path d="M169.431 72.4036H118.477V73.1226H169.431V72.4036Z" fill="#CCCCCC"/>
<path d="M169.609 113.428H118.655V114.147H169.609V113.428Z" fill="#CCCCCC"/>
<path d="M135.224 38.6484H134.511V147.942H135.224V38.6484Z" fill="#CCCCCC"/>
<path d="M153.04 38.6484H152.328V147.942H153.04V38.6484Z" fill="#CCCCCC"/>
</g>
<defs>
<clipPath id="clip0_153_2802">
<rect width="310" height="187" fill="white"/>
</clipPath>
</defs>
</svg>
