<svg width="250" height="188" viewBox="0 0 250 188" fill="none" xmlns="http://www.w3.org/2000/svg">
<rect y="164.772" width="250" height="0.125819" fill="#EBEBEB"/>
<rect x="26.2301" y="169.564" width="16.56" height="0.125819" fill="#EBEBEB"/>
<rect x="85.5701" y="168.2" width="21.265" height="0.125819" fill="#EBEBEB"/>
<rect x="46.7351" y="171.33" width="9.595" height="0.125819" fill="#EBEBEB"/>
<rect x="217.335" y="173.393" width="7.615" height="0.125819" fill="#EBEBEB"/>
<rect x="195.735" y="173.393" width="17.145" height="0.125819" fill="#EBEBEB"/>
<rect x="154" y="169.769" width="11.915" height="0.125819" fill="#EBEBEB"/>
<path fill-rule="evenodd" clip-rule="evenodd" d="M21.96 142.326H118.5C120.077 142.326 121.355 141.039 121.355 139.452V2.8737C121.355 1.2866 120.077 2.15734e-09 118.5 2.15734e-09H21.96C20.3929 -6.04716e-05 19.1187 1.27127 19.105 2.84853V139.452C19.105 141.039 20.3832 142.326 21.96 142.326ZM19.2301 2.84859C19.2329 1.33212 20.4535 0.103478 21.9601 0.100708H118.5C120.007 0.103478 121.227 1.33212 121.23 2.84859V139.452C121.227 140.969 120.007 142.198 118.5 142.2H21.9601C20.4535 142.198 19.2329 140.969 19.2301 139.452V2.84859Z" fill="#EBEBEB"/>
<path fill-rule="evenodd" clip-rule="evenodd" d="M130.105 142.326H226.655C228.228 142.321 229.5 141.036 229.5 139.452V2.84853C229.486 1.27519 228.218 0.00545082 226.655 0H130.105C128.539 0.0026689 127.266 1.27242 127.25 2.84853V139.452C127.253 141.038 128.529 142.323 130.105 142.326ZM127.375 2.84859C127.378 1.33212 128.598 0.103478 130.105 0.100708H226.655C228.161 0.103478 229.382 1.33212 229.385 2.84859V139.452C229.382 140.969 228.161 142.198 226.655 142.2H130.105C128.598 142.198 127.378 140.969 127.375 139.452V2.84859Z" fill="#EBEBEB"/>
<rect x="207.685" y="71.1477" width="53.935" height="54.4342" transform="rotate(180 207.685 71.1477)" fill="#F0F0F0"/>
<rect x="152.82" y="16.7185" width="0.93" height="54.4342" fill="#E0E0E0"/>
<rect x="202.925" y="67.7104" width="44.41" height="47.5595" transform="rotate(180 202.925 67.7104)" fill="#FAFAFA"/>
<path d="M176 57.3736H190.065C193.115 57.3736 195.155 54.8874 194.62 51.8376L191.885 36.07C191.259 32.9287 188.566 30.6351 185.385 30.5339H171.355C168.305 30.5339 166.265 33.0201 166.8 36.07L169.535 51.8376C170.156 54.9674 172.831 57.2582 176 57.3736Z" fill="#F0F0F0"/>
<rect x="40.4851" y="87.6802" width="12" height="74.5098" fill="#F0F0F0"/>
<rect x="41.71" y="162.196" width="63.43" height="2.57173" fill="#F0F0F0"/>
<rect x="106.195" y="162.196" width="53.71" height="74.5098" transform="rotate(180 106.195 162.196)" fill="#F5F5F5"/>
<rect x="104.035" y="139.785" width="49.39" height="13.3066" transform="rotate(180 104.035 139.785)" fill="#F0F0F0"/>
<rect x="104.035" y="157.198" width="49.39" height="13.3066" transform="rotate(180 104.035 157.198)" fill="#F0F0F0"/>
<rect x="59.8999" y="125.662" width="38.88" height="1.82689" rx="0.913444" fill="#F5F5F5"/>
<rect x="59.8999" y="143.081" width="38.88" height="1.82689" rx="0.913444" fill="#F5F5F5"/>
<rect x="104.035" y="105.093" width="49.39" height="13.3066" transform="rotate(180 104.035 105.093)" fill="#F0F0F0"/>
<rect x="104.035" y="122.376" width="49.39" height="13.3066" transform="rotate(180 104.035 122.376)" fill="#F0F0F0"/>
<rect x="59.8999" y="90.9771" width="38.88" height="1.82689" rx="0.913444" fill="#F5F5F5"/>
<rect x="59.8999" y="108.249" width="38.88" height="1.82689" rx="0.913444" fill="#F5F5F5"/>
<rect x="36.895" y="12.6118" width="67.355" height="59.5173" fill="#E6E6E6"/>
<path d="M111.47 10.2966H32.535C32.3578 10.2966 32.1879 10.3678 32.063 10.4945C31.9382 10.6211 31.8687 10.7926 31.87 10.971C31.87 11.3407 32.1677 11.6404 32.535 11.6404H111.47C111.838 11.6404 112.137 11.3415 112.14 10.971C112.14 10.5986 111.84 10.2966 111.47 10.2966Z" fill="#E6E6E6"/>
<rect x="38.2299" y="12.6118" width="68.88" height="59.5173" fill="#F0F0F0"/>
<path d="M104.25 72.1294H36.895V74.0368H106.22L104.25 72.1294Z" fill="#E6E6E6"/>
<path d="M111.87 72.1294H42.995L44.96 74.0368H113.84L111.87 72.1294Z" fill="#F0F0F0"/>
<path d="M103.11 16.6382V68.103H42.235V16.6382L103.11 16.6382Z" fill="#FAFAFA"/>
<path d="M56.0549 68.103L79.5349 16.6382H90.6249L67.1399 68.103H56.0549Z" fill="white"/>
<path d="M69.52 68.103L93.005 16.6382H97.325L73.845 68.103H69.52Z" fill="white"/>
<path d="M103.11 16.6382V68.103H102.6V16.6382H103.11Z" fill="#E6E6E6"/>
<g opacity="0.4">
<rect x="35.395" y="9.09473" width="6.885" height="49.1146" fill="#F0F0F0"/>
<rect x="39.6001" y="9.09473" width="5.365" height="49.1146" fill="#E6E6E6"/>
<rect x="42.28" y="9.09473" width="6.885" height="49.1146" fill="#F0F0F0"/>
<rect x="46.4851" y="9.09473" width="5.365" height="49.1146" fill="#E6E6E6"/>
<rect x="49.165" y="9.09473" width="6.885" height="49.1146" fill="#F0F0F0"/>
</g>
<g opacity="0.4">
<rect x="96.58" y="9.09473" width="3.97" height="49.1146" fill="#F0F0F0"/>
<rect x="99" y="9.09473" width="3.09" height="49.1146" fill="#E6E6E6"/>
<rect x="100.545" y="9.09473" width="3.97" height="49.1146" fill="#F0F0F0"/>
<rect x="102.97" y="9.09473" width="3.09" height="49.1146" fill="#E6E6E6"/>
<rect x="104.515" y="9.09473" width="3.97" height="49.1146" fill="#F0F0F0"/>
</g>
<path d="M178.425 107.806C178.261 109.839 179.764 111.621 181.784 111.787C183.803 111.954 185.575 110.441 185.74 108.408C185.906 106.376 184.404 104.592 182.385 104.424C180.364 104.259 178.592 105.772 178.425 107.806Z" fill="#E0E0E0"/>
<ellipse cx="188.094" cy="110.03" rx="3.67551" ry="3.69856" transform="rotate(-8.37 188.094 110.03)" fill="#E0E0E0"/>
<path d="M190.86 110.494C190.696 112.527 192.199 114.309 194.219 114.476C196.238 114.642 198.01 113.129 198.176 111.096C198.342 109.064 196.839 107.28 194.82 107.112C193.849 107.03 192.885 107.341 192.142 107.975C191.399 108.61 190.938 109.517 190.86 110.494Z" fill="#E0E0E0"/>
<path d="M171.6 109.744C171.436 111.777 172.939 113.559 174.959 113.725C176.978 113.891 178.75 112.379 178.916 110.346C179.081 108.313 177.579 106.53 175.56 106.362C173.539 106.197 171.767 107.71 171.6 109.744Z" fill="#E0E0E0"/>
<ellipse cx="199.824" cy="110.027" rx="3.67551" ry="3.69856" transform="rotate(-8.37 199.824 110.027)" fill="#E0E0E0"/>
<ellipse cx="170.309" cy="106.919" rx="3.68537" ry="3.6891" transform="rotate(-40.5392 170.309 106.919)" fill="#E0E0E0"/>
<path d="M161.46 108.904C161.296 110.937 162.799 112.719 164.819 112.885C166.838 113.051 168.61 111.539 168.775 109.506C168.941 107.473 167.439 105.69 165.42 105.522C163.399 105.357 161.627 106.87 161.46 108.904Z" fill="#E0E0E0"/>
<path d="M157.265 109.9C157.265 109.9 157.895 125.033 182.055 125.033C206.215 125.033 206.845 109.9 206.845 109.9H157.265Z" fill="#F0F0F0"/>
<rect x="216.035" y="125.034" width="4.595" height="39.7335" fill="#E6E6E6"/>
<rect x="219.15" y="125.034" width="2.705" height="39.7335" fill="#F0F0F0"/>
<rect x="196.485" y="125.034" width="4.595" height="39.7335" fill="#E6E6E6"/>
<rect x="199.235" y="125.034" width="2.705" height="39.7335" fill="#F0F0F0"/>
<rect x="222.695" y="129.855" width="65.23" height="4.81634" transform="rotate(180 222.695 129.855)" fill="#F0F0F0"/>
<rect x="132.935" y="125.034" width="4.595" height="39.7335" fill="#E6E6E6"/>
<rect x="135.685" y="125.034" width="2.705" height="39.7335" fill="#F0F0F0"/>
<rect x="155.5" y="129.855" width="23.385" height="4.81634" transform="rotate(180 155.5 129.855)" fill="#E6E6E6"/>
<rect x="152.48" y="125.034" width="4.595" height="39.7335" fill="#E6E6E6"/>
<rect x="155.6" y="125.034" width="2.705" height="39.7335" fill="#F0F0F0"/>
<ellipse cx="125" cy="181.803" rx="96.945" ry="5.69707" fill="#F5F5F5"/>
<path d="M96.4399 42.3559C96.4399 43.3004 95.8746 44.1519 95.0077 44.5134C94.1408 44.8748 93.1429 44.675 92.4794 44.0072C91.8159 43.3393 91.6174 42.3349 91.9765 41.4623C92.3356 40.5897 93.1815 40.0208 94.1199 40.0208C95.4012 40.0208 96.4399 41.0663 96.4399 42.3559Z" fill="#263238"/>
<path d="M92.255 42.6931C92.2089 42.6944 92.1662 42.669 92.145 42.6277C91.7279 41.8563 91.7514 40.9196 92.2065 40.1703C92.6616 39.421 93.4792 38.9731 94.3515 38.9952C95.2237 39.0173 96.0179 39.506 96.435 40.2774C96.4656 40.3388 96.4437 40.4135 96.385 40.4485C96.3559 40.4646 96.3216 40.4683 96.2897 40.4589C96.2578 40.4494 96.2309 40.4276 96.215 40.3982C95.6365 39.3281 94.3057 38.9326 93.2425 39.5149C92.1794 40.0972 91.7865 41.4368 92.365 42.5069C92.381 42.5362 92.3848 42.5708 92.3754 42.6029C92.366 42.635 92.3443 42.662 92.315 42.678C92.2965 42.6876 92.2759 42.6928 92.255 42.6931Z" fill="#263238"/>
<path d="M89.9998 53.0251C89.0782 53.0213 88.237 52.4962 87.824 51.6669C87.411 50.8377 87.4963 49.8451 88.0448 49.0995C88.432 48.5776 89.0093 48.2318 89.6498 48.1383C89.6824 48.1325 89.716 48.1406 89.7425 48.1606C89.769 48.1807 89.7861 48.2108 89.7898 48.244C89.7987 48.3119 89.7521 48.3745 89.6848 48.3849C88.4877 48.5614 87.6594 49.6813 87.8348 50.8862C88.0101 52.0911 89.1227 52.9248 90.3198 52.7483C90.3888 52.7372 90.4537 52.7845 90.4648 52.854C90.4758 52.9235 90.4288 52.9888 90.3598 52.9999C90.2404 53.0158 90.1202 53.0242 89.9998 53.0251Z" fill="#263238"/>
<path d="M102.605 56.8301C102.136 56.8294 101.677 56.6913 101.285 56.4325C101.227 56.394 101.209 56.3164 101.245 56.2564C101.285 56.1998 101.362 56.1844 101.42 56.2212C102.435 56.8841 103.791 56.5934 104.45 55.5719C105.109 54.5505 104.82 53.185 103.805 52.5221C103.747 52.4835 103.729 52.406 103.765 52.3459C103.805 52.2894 103.882 52.2739 103.94 52.3107C105.068 53.0503 105.39 54.5691 104.66 55.7078C104.31 56.2575 103.755 56.6422 103.12 56.7748C102.951 56.8106 102.778 56.8291 102.605 56.8301Z" fill="#263238"/>
<ellipse cx="92.82" cy="46.3364" rx="3.28" ry="3.30148" fill="#263238"/>
<circle cx="92.8225" cy="50.7803" r="4.36427" transform="rotate(-45 92.8225 50.7803)" fill="#263238"/>
<ellipse cx="93.2798" cy="56.3471" rx="4.81" ry="4.8415" fill="#263238"/>
<ellipse cx="98.092" cy="56.6751" rx="4.83985" ry="4.81167" transform="rotate(-76.72 98.092 56.6751)" fill="#263238"/>
<path d="M114.045 66.6633C114.045 67.0558 114.045 67.5541 114.08 68.007C114.115 68.46 114.115 68.9431 114.145 69.4111C114.21 70.3472 114.275 71.2934 114.375 72.2345C114.555 74.1235 114.807 76.004 115.13 77.8762C115.215 78.3392 115.29 78.8123 115.385 79.2753L115.605 80.4178C115.66 80.5989 115.605 80.5637 115.535 80.5587C115.465 80.5536 115.535 80.6493 115.83 80.6493C116.585 80.5731 117.32 80.3599 118 80.0202C118.4 79.839 118.81 79.6427 119.22 79.4313C119.63 79.22 120.045 78.9784 120.42 78.767L121.88 80.4631C121.532 80.8646 121.161 81.246 120.77 81.6055C120.385 81.9745 119.977 82.3191 119.55 82.6372C119.102 82.9766 118.629 83.2811 118.135 83.5481C117.573 83.8569 116.97 84.084 116.345 84.2225C115.959 84.3071 115.564 84.341 115.17 84.3232C114.689 84.2951 114.217 84.1755 113.78 83.9709C113.315 83.7512 112.901 83.4357 112.565 83.0449C112.276 82.7051 112.04 82.3233 111.865 81.9125C111.729 81.5982 111.619 81.2734 111.535 80.9412L111.34 80.2064C111.2 79.7031 111.085 79.225 110.965 78.7318C110.497 76.7533 110.137 74.7507 109.885 72.7328C109.76 71.7262 109.66 70.7197 109.6 69.6879C109.57 69.1847 109.545 68.6814 109.53 68.1479C109.515 67.6145 109.53 67.1414 109.53 66.5425L114.045 66.6633Z" fill="#FFB573"/>
<path d="M111.62 61.2379C115.885 64.5243 115.715 70.7196 115.715 70.7196L108.085 72.5566C108.085 72.5566 105.745 66.3261 106.695 64.0462C107.685 61.6708 109.22 59.3859 111.62 61.2379Z" fill="#1A87DD"/>
<path opacity="0.7" d="M111.62 61.2379C115.885 64.5243 115.715 70.7196 115.715 70.7196L108.085 72.5566C108.085 72.5566 105.745 66.3261 106.695 64.0462C107.685 61.6708 109.22 59.3859 111.62 61.2379Z" fill="white"/>
<path d="M120.135 79.3463L121.395 77.2124L124.555 80.6145C124.555 80.6145 122.29 82.074 119.94 81.0323L120.135 79.3463Z" fill="#FFB573"/>
<path d="M122.95 76.1902L127.005 78.5958L124.555 80.614L121.395 77.2118L122.95 76.1902Z" fill="#FFB573"/>
<path d="M87.745 178.089L92.105 178.512L94.815 168.23L90.45 167.807L87.745 178.089Z" fill="#FFB573"/>
<path d="M65.395 169.448L69.31 171.511L73.965 162.221L70.05 160.157L65.395 169.448Z" fill="#FFB573"/>
<path d="M70.3549 169.704L66.8549 166.126C66.7344 165.996 66.5358 165.979 66.3949 166.086L63.1799 168.466C63.0222 168.594 62.9257 168.783 62.9142 168.986C62.9028 169.19 62.9775 169.388 63.1199 169.533C64.3599 170.761 65.0199 171.29 66.5599 172.865C67.5099 173.831 69.4599 176.111 70.7699 177.45C72.0799 178.788 73.4599 177.555 73.0349 176.881C71.1249 173.861 70.8049 171.964 70.6849 170.429C70.6632 170.156 70.5463 169.899 70.3549 169.704Z" fill="#263238"/>
<path d="M92.785 177.177H87.5C87.3057 177.179 87.1363 177.311 87.085 177.5L85.955 181.682C85.8977 181.883 85.939 182.1 86.0663 182.266C86.1936 182.432 86.3918 182.527 86.6 182.522C88.455 182.522 89.335 182.522 91.65 182.522H98.735C100.66 182.522 101.065 180.564 100.265 180.383C96.695 179.588 94.635 178.491 93.535 177.444C93.3265 177.265 93.0592 177.17 92.785 177.177Z" fill="#263238"/>
<path opacity="0.2" d="M94.8098 168.235L93.4148 173.534H88.9398L90.4448 167.812L94.8098 168.235Z" fill="black"/>
<path opacity="0.2" d="M70.0449 160.157L73.9649 162.226L71.5649 167.012L67.6449 164.943L70.0449 160.157Z" fill="black"/>
<path d="M110.33 60.6046C110.33 60.6046 112.26 61.4551 105.79 87.2228L87.8198 85.6576C88.7548 78.3249 89.1498 73.7853 86.9548 58.37C89.5166 58.0681 92.0966 57.952 94.6748 58.0228C97.4081 58.0644 100.135 58.3016 102.835 58.7324C105.363 59.2286 107.865 59.8535 110.33 60.6046Z" fill="#1A87DD"/>
<path opacity="0.7" d="M110.33 60.6046C110.33 60.6046 112.26 61.4551 105.79 87.2228L87.8198 85.6576C88.7548 78.3249 89.1498 73.7853 86.9548 58.37C89.5166 58.0681 92.0966 57.952 94.6748 58.0228C97.4081 58.0644 100.135 58.3016 102.835 58.7324C105.363 59.2286 107.865 59.8535 110.33 60.6046Z" fill="white"/>
<path d="M94.6749 57.8765C94.6749 57.8765 93.6749 57.8765 92.4499 57.8765C91.7249 58.9988 94.7849 62.2751 98.6749 65.496C99.6149 62.562 101.095 62.572 101.095 62.572L94.6749 57.8765Z" fill="white"/>
<path d="M102.83 58.667C102.83 58.667 103.285 58.7324 104.375 58.9841C105.095 60.1064 105.5 62.9146 103.375 65.3605C102.54 62.3409 101.1 62.6127 101.1 62.6127L102.83 58.667Z" fill="white"/>
<path d="M96.2748 48.8423C96.5648 51.5298 96.6598 56.3914 94.6748 58.022C94.6748 58.022 96.7948 60.2062 101.095 62.6119C104.215 60.4377 102.835 58.7316 102.835 58.7316C99.9648 57.7754 100.23 55.5962 100.915 53.5831L96.2748 48.8423Z" fill="#FFB573"/>
<path opacity="0.2" d="M98.1698 50.7803L100.915 53.5835C100.746 54.0494 100.619 54.5294 100.535 55.0178C99.4348 54.7612 97.8348 53.6036 97.8148 52.4159C97.834 51.8536 97.9543 51.2994 98.1698 50.7803V50.7803Z" fill="black"/>
<path d="M106.585 40.0757C108.425 41.7164 108.965 45.7124 107.215 48.425C106.69 45.6752 106.478 42.8739 106.585 40.0757V40.0757Z" fill="#263238"/>
<path d="M95.7149 43.2014C95.3949 47.6252 95.1699 49.4923 97.0699 52.0439C99.9299 55.8839 105.4 55.3051 107.025 51.0676C108.49 47.2477 108.765 40.6548 104.73 38.3297C102.927 37.2703 100.706 37.2305 98.8671 38.2245C97.0277 39.2185 95.8339 41.1034 95.7149 43.2014Z" fill="#FFB573"/>
<path d="M95.13 46.7641C98.38 46.6383 100.18 42.3605 99.365 40.5537C103.05 42.4863 108.63 44.0062 108.01 41.52C107.175 38.1632 103.14 35.7022 98.175 37.4938C95.3 38.752 92.84 41.52 95.13 46.7641Z" fill="#263238"/>
<path d="M94.1399 46.7593C94.2788 47.6052 94.742 48.3624 95.4299 48.868C96.3499 49.5273 97.1899 48.7925 97.2549 47.7205C97.3149 46.7492 96.9099 45.2394 95.8299 45.0079C95.3494 44.9118 94.8532 45.0674 94.5119 45.4211C94.1705 45.7749 94.0305 46.2786 94.1399 46.7593Z" fill="#FFB573"/>
<path d="M105.79 87.2226C105.79 87.2226 109.855 113.921 107.59 131.073C105.875 144.032 94.81 171.994 94.81 171.994L87.625 171.798C87.625 171.798 95.045 144.697 96.58 134.052C99.205 115.824 92.63 86.0952 92.63 86.0952L105.79 87.2226Z" fill="#263238"/>
<path opacity="0.2" d="M98.7799 92.6931L94.9449 98.7777C96.0997 105.992 96.8327 113.269 97.1399 120.569C102.53 110.856 99.9999 97.8315 98.7799 92.6931Z" fill="black"/>
<path d="M95.9299 172.397L86.8999 172.15L87.4499 169.226L96.7799 169.281L95.9299 172.397Z" fill="#1A87DD"/>
<path d="M101.86 86.9352C101.86 86.9352 98.86 116.498 92.005 132.582C86.46 145.567 73.24 166.337 73.24 166.337L67.96 163.227C67.96 163.227 76.46 140.131 80.655 131.475C90.89 110.252 81.37 93.2261 87.82 85.677L101.86 86.9352Z" fill="#263238"/>
<path d="M73.8148 166.791L67.0798 163.071L68.1748 160.173L75.3498 164.249L73.8148 166.791Z" fill="#1A87DD"/>
<path d="M87.64 84.5751L86.69 86.1251C86.62 86.2409 86.755 86.3869 86.965 86.4019L105.81 88.0426C105.97 88.0426 106.115 87.9873 106.13 87.8866L106.435 86.2812C106.435 86.1704 106.32 86.0648 106.145 86.0497L87.945 84.4643C87.8313 84.4469 87.7165 84.4886 87.64 84.5751Z" fill="#1A87DD"/>
<path d="M89.9099 86.8346L89.4099 86.7943C89.3149 86.7943 89.2449 86.7289 89.2549 86.6685L89.6649 84.585C89.6649 84.5195 89.7699 84.4793 89.8649 84.4893L90.3649 84.5296C90.4649 84.5296 90.5349 84.595 90.5199 84.6554L90.1149 86.739C90.0949 86.7994 89.9999 86.8447 89.9099 86.8346Z" fill="#263238"/>
<path d="M104.425 88.0981L103.925 88.0579C103.825 88.0579 103.755 87.9924 103.77 87.932L104.18 85.8485C104.18 85.7881 104.28 85.7428 104.375 85.7529L104.875 85.7931C104.97 85.7931 105.04 85.8586 105.03 85.9189L104.62 88.0025C104.61 88.073 104.5 88.1082 104.425 88.0981Z" fill="#263238"/>
<path d="M97.1649 87.4694L96.6649 87.4241C96.5699 87.4241 96.4999 87.3587 96.5099 87.2983L96.9199 85.2147C96.9199 85.1543 97.0199 85.109 97.1199 85.1191L97.6199 85.1644C97.7149 85.1644 97.7849 85.2298 97.7749 85.2902L97.3649 87.3738C97.3549 87.4341 97.2649 87.4744 97.1649 87.4694Z" fill="#263238"/>
<path d="M102.6 45.4003C102.55 45.7576 102.7 46.0747 102.93 46.1049C103.16 46.1351 103.39 45.8734 103.43 45.516C103.47 45.1587 103.325 44.8416 103.095 44.8115C102.865 44.7813 102.645 45.043 102.6 45.4003Z" fill="#263238"/>
<path d="M106.61 45.9445C106.565 46.3018 106.715 46.6189 106.945 46.6491C107.175 46.6793 107.405 46.4176 107.445 46.0602C107.485 45.7029 107.345 45.3858 107.115 45.3556C106.885 45.3254 106.66 45.5871 106.61 45.9445Z" fill="#263238"/>
<path d="M107 45.36L107.89 45.2291C107.89 45.2291 107.37 45.8381 107 45.36Z" fill="#263238"/>
<path d="M105.035 46.3369C105.243 47.1938 105.566 48.0183 105.995 48.7879C105.595 49.0021 105.121 49.0278 104.7 48.8583L105.035 46.3369Z" fill="#ED893E"/>
<path d="M102.62 49.9243C101.917 49.6936 101.327 49.2025 100.97 48.5504C100.951 48.5072 100.969 48.4569 101.01 48.4346C101.054 48.4127 101.108 48.4307 101.13 48.4749C101.58 49.2702 102.381 49.8012 103.285 49.9042C103.332 49.9042 103.37 49.9425 103.37 49.9897C103.37 50.037 103.332 50.0753 103.285 50.0753C103.058 50.0501 102.835 49.9995 102.62 49.9243Z" fill="#263238"/>
<path d="M100.775 43.3322C100.746 43.3201 100.72 43.3011 100.7 43.2768C100.667 43.2446 100.648 43.2 100.648 43.1535C100.648 43.107 100.667 43.0625 100.7 43.0302C101.197 42.5826 101.881 42.4095 102.53 42.5672C102.574 42.58 102.611 42.6102 102.633 42.6509C102.655 42.6917 102.659 42.7396 102.645 42.7836C102.618 42.8764 102.522 42.9303 102.43 42.9044C101.896 42.7849 101.338 42.931 100.93 43.297C100.886 43.3309 100.829 43.3438 100.775 43.3322Z" fill="#263238"/>
<path d="M108.295 44.4037C108.269 44.3935 108.245 44.3781 108.225 44.3585C107.87 43.9385 107.337 43.7142 106.79 43.7545C106.744 43.7648 106.696 43.7548 106.657 43.7269C106.619 43.699 106.595 43.6559 106.59 43.6086C106.575 43.5127 106.64 43.4227 106.735 43.4073C107.397 43.3473 108.048 43.6136 108.48 44.1219C108.53 44.1816 108.535 44.2673 108.492 44.3324C108.449 44.3975 108.369 44.4265 108.295 44.4037Z" fill="#263238"/>
<path d="M112.25 82.3763C113.131 79.6145 115.408 77.5354 118.225 76.9222C121.041 76.309 123.969 77.2548 125.905 79.4034C127.841 81.5519 128.491 84.5768 127.61 87.3386L124.5 97.1323L109.14 92.165L112.25 82.3763Z" fill="#1A87DD"/>
<path opacity="0.3" d="M112.25 82.3763C113.131 79.6145 115.408 77.5354 118.225 76.9222C121.041 76.309 123.969 77.2548 125.905 79.4034C127.841 81.5519 128.491 84.5768 127.61 87.3386L124.5 97.1323L109.14 92.165L112.25 82.3763Z" fill="black"/>
<path d="M97.095 77.4738L94.285 86.2811C94.2019 86.5367 94.2238 86.8151 94.3459 87.0544C94.468 87.2936 94.6801 87.4736 94.935 87.5544L109.135 92.1443L112.255 82.3707C113.618 78.1056 118.156 75.7586 122.395 77.1266L107.24 72.2247C102.999 70.8598 98.4605 73.208 97.095 77.4738Z" fill="#1A87DD"/>
<path d="M104.715 84.1525L108.63 71.8877C108.657 71.7986 108.645 71.702 108.596 71.6229C108.547 71.5437 108.466 71.4898 108.375 71.475L104.375 70.8811L103.875 72.4715L106.79 73.4126L103.49 83.7498L104.715 84.1525Z" fill="#263238"/>
<path d="M102.635 83.4785C102.383 84.2721 102.817 85.1215 103.605 85.3763C104.393 85.6311 105.237 85.1949 105.491 84.4018C105.745 83.6087 105.313 82.7585 104.525 82.5022C104.146 82.3788 103.733 82.4124 103.379 82.5955C103.024 82.7787 102.756 83.0964 102.635 83.4785Z" fill="#263238"/>
<path opacity="0.2" d="M109.875 93.6096L117.925 96.2115C118.07 96.2591 118.228 96.2465 118.364 96.1766C118.5 96.1068 118.603 95.9853 118.65 95.8391C118.745 95.5363 118.58 95.2128 118.28 95.1144L109.135 92.1602C108.942 92.7661 109.273 93.4149 109.875 93.6096Z" fill="black"/>
<path d="M86.9549 58.3798C84.7499 58.7724 81.6649 65.1338 81.6649 65.1338L87.2199 70.1665C87.2199 70.1665 91.6349 65.315 91.3999 62.4262C91.1999 59.9853 89.7599 57.8766 86.9549 58.3798Z" fill="#1A87DD"/>
<path opacity="0.7" d="M86.9549 58.3798C84.7499 58.7724 81.6649 65.1338 81.6649 65.1338L87.2199 70.1665C87.2199 70.1665 91.6349 65.315 91.3999 62.4262C91.1999 59.9853 89.7599 57.8766 86.9549 58.3798Z" fill="white"/>
<path fill-rule="evenodd" clip-rule="evenodd" d="M71.9001 171.647C71.9581 171.655 72.017 171.655 72.0751 171.647C72.2123 171.6 72.33 171.508 72.4101 171.386C72.4885 171.29 72.5112 171.16 72.4701 171.044C72.2751 170.515 70.7201 170.163 70.5401 170.128C70.5056 170.118 70.4688 170.132 70.4501 170.163C70.4307 170.192 70.4307 170.23 70.4501 170.258C70.7551 170.762 71.3451 171.617 71.9001 171.647ZM71.91 171.491C71.595 171.471 71.155 171.058 70.71 170.369C71.25 170.5 72.185 170.801 72.305 171.124C72.3277 171.183 72.314 171.25 72.27 171.295C72.1926 171.419 72.0559 171.494 71.91 171.491Z" fill="#1A87DD"/>
<path fill-rule="evenodd" clip-rule="evenodd" d="M70.5001 170.475C70.9702 170.577 71.4541 170.553 71.9151 170.406C72.1284 170.355 72.3215 170.225 72.4651 170.035C72.5539 169.874 72.5375 169.664 72.4251 169.525C72.3328 169.375 72.1843 169.284 72.0251 169.282C71.4268 169.233 70.5843 170.145 70.4555 170.285C70.4476 170.293 70.4424 170.299 70.4401 170.301C70.4259 170.332 70.4259 170.369 70.4401 170.4C70.4473 170.436 70.4701 170.464 70.5001 170.475ZM72.3402 169.919C72.1452 170.25 71.2102 170.394 70.7102 170.313C70.9702 170.041 71.6002 169.45 72.0352 169.485C72.1433 169.487 72.2439 169.55 72.3052 169.653C72.3952 169.786 72.3702 169.867 72.3402 169.919Z" fill="#1A87DD"/>
<path fill-rule="evenodd" clip-rule="evenodd" d="M93.215 177.8C93.6856 177.928 94.1665 178 94.65 178.013C95.0127 178.05 95.3763 177.956 95.69 177.742C95.8493 177.606 95.9453 177.393 95.95 177.165C95.9612 177.042 95.9131 176.922 95.825 176.853C95.345 176.46 93.43 177.494 93.215 177.615C93.1812 177.629 93.1587 177.666 93.1587 177.707C93.1587 177.749 93.1812 177.786 93.215 177.8ZM95.565 177.574C95.13 177.95 94.08 177.788 93.515 177.667H93.5C94.305 177.263 95.435 176.806 95.705 177.02C95.744 177.048 95.7639 177.101 95.755 177.153C95.747 177.318 95.6778 177.472 95.565 177.574Z" fill="#1A87DD"/>
<path fill-rule="evenodd" clip-rule="evenodd" d="M93.1748 177.656C93.1928 177.661 93.2118 177.661 93.2298 177.656L93.2748 177.671C93.8498 177.429 95.0548 176.478 94.9898 175.975C94.9748 175.869 94.9048 175.743 94.6448 175.708C93.5998 175.587 93.1448 177.485 93.1448 177.565C93.139 177.599 93.1503 177.633 93.1748 177.656ZM93.3648 177.409C93.4948 176.966 93.8798 175.859 94.5398 175.859L94.6148 175.864C94.8098 175.884 94.8098 175.955 94.8098 175.98C94.8648 176.287 93.9898 177.077 93.3648 177.409Z" fill="#1A87DD"/>
<path d="M103 44.8168L103.885 44.6859C103.885 44.6859 103.36 45.2949 103 44.8168Z" fill="#263238"/>
<path d="M102.276 66.0464L132.122 77.2606C132.722 77.4861 133.026 78.1553 132.801 78.7552L124.01 102.15C123.785 102.75 123.115 103.053 122.515 102.828L93.7566 92.022C93.1563 91.7965 92.8525 91.1273 93.0779 90.5275L102.276 66.0464Z" fill="#8BB3F0"/>
<path d="M100.457 67.8418L131.389 79.4644L123.415 100.687C123.19 101.287 122.52 101.59 121.92 101.365L93.1614 90.5588C92.5611 90.3333 92.2573 89.6642 92.4827 89.0643L100.457 67.8418Z" fill="#CCE0FF"/>
<path d="M101.273 65.6697C101.499 65.0698 102.168 64.7663 102.768 64.9919L131.527 75.7977C132.127 76.0233 132.431 76.6924 132.205 77.2923L131.389 79.4647L100.457 67.8421L101.273 65.6697Z" fill="#0066FF"/>
<path d="M103.98 67.3537C103.858 67.6768 103.498 67.8402 103.175 67.7187C102.852 67.5973 102.688 67.237 102.809 66.914C102.931 66.591 103.291 66.4275 103.614 66.549C103.937 66.6704 104.101 67.0307 103.98 67.3537Z" fill="#1E1E2D"/>
<path d="M105.484 67.9194C105.363 68.2424 105.003 68.4058 104.679 68.2844C104.356 68.163 104.193 67.8027 104.314 67.4796C104.435 67.1566 104.796 66.9932 105.119 67.1147C105.442 67.2361 105.606 67.5964 105.484 67.9194Z" fill="#76AAFF"/>
<path d="M106.989 68.4849C106.868 68.8079 106.507 68.9713 106.184 68.8498C105.861 68.7284 105.697 68.3681 105.819 68.0451C105.94 67.7221 106.301 67.5587 106.624 67.6801C106.947 67.8015 107.111 68.1618 106.989 68.4849Z" fill="white"/>
<path d="M107.01 91.417C112.836 91.3248 116.463 85.5714 117.911 81.0482L114.307 74.8996L107.334 76.376C104.966 80.4924 103.155 87.0485 107.01 91.417Z" fill="#011A51" stroke="#020151" stroke-width="0.132626"/>
<circle cx="110.526" cy="83.1929" r="2.80343" transform="rotate(23.8331 110.526 83.1929)" fill="#7C94FB" stroke="#E0EBFE" stroke-width="0.397877"/>
<mask id="mask0_139_2445" style="mask-type:alpha" maskUnits="userSpaceOnUse" x="108" y="80" width="5" height="6">
<circle cx="110.526" cy="83.1931" r="2.16006" transform="rotate(23.8331 110.526 83.1931)" fill="#FB847C" stroke="#DAFFF3" stroke-width="0.397877"/>
</mask>
<g mask="url(#mask0_139_2445)">
<path d="M111.567 82.5739L111.568 82.6015L111.588 82.6204C111.588 82.6207 111.598 82.6314 111.594 82.6751C111.59 82.7153 111.576 82.7673 111.555 82.8269C111.524 82.9177 111.479 83.0153 111.44 83.1018C111.428 83.1292 111.416 83.1555 111.405 83.1801L111.397 83.1988L111.4 83.2189C111.419 83.3212 111.41 83.4012 111.387 83.4661C111.363 83.5313 111.323 83.5855 111.273 83.6337C111.223 83.6824 111.164 83.7235 111.103 83.7638C111.094 83.7696 111.085 83.7755 111.076 83.7814C111.026 83.8147 110.974 83.8491 110.931 83.8852L110.931 83.8846L110.924 83.8927C110.699 84.1589 110.385 84.2732 110.142 84.2049C109.908 84.1391 109.704 83.8916 109.722 83.3553L109.723 83.3452L109.72 83.3354C109.595 82.8811 109.774 82.6493 109.868 82.6103L109.882 82.6044L109.892 82.5929C110.012 82.4577 110.081 82.3011 110.166 82.1081L110.169 82.1023C110.233 81.9555 110.382 81.863 110.558 81.8229C110.734 81.7829 110.923 81.7992 111.05 81.8549C111.159 81.9033 111.289 81.975 111.391 82.0617C111.495 82.1501 111.558 82.2436 111.56 82.3346L111.567 82.5739Z" fill="white" stroke="white" stroke-width="0.132626"/>
<path d="M109.999 84.3792L109.999 84.3794L110.004 84.3813C110.187 84.4538 110.426 84.4616 110.742 84.3628C110.95 84.5161 111.181 84.7184 111.325 84.9674C111.468 85.2147 111.527 85.5086 111.387 85.8539C111.212 85.8525 110.94 85.7871 110.628 85.6853C110.294 85.5765 109.924 85.4298 109.6 85.2892C109.277 85.1439 108.92 84.9695 108.614 84.7959C108.329 84.6336 108.097 84.4766 107.979 84.3482C108.14 84.0126 108.396 83.8576 108.675 83.7968C108.957 83.7356 109.262 83.7701 109.515 83.8209C109.655 84.121 109.821 84.2922 109.999 84.3792Z" fill="white" stroke="white" stroke-width="0.132626"/>
</g>
<circle cx="112.678" cy="90.8525" r="2.63791" transform="rotate(23.8331 112.678 90.8525)" fill="url(#paint0_linear_139_2445)" stroke="#D6E0F2" stroke-width="0.132626"/>
<path d="M112.474 91.0349L112.316 90.9649C112.336 90.921 112.356 90.8857 112.376 90.859C112.397 90.8318 112.421 90.8096 112.448 90.7922C112.476 90.7751 112.51 90.759 112.55 90.7439C112.581 90.7327 112.609 90.7217 112.635 90.7109C112.661 90.6997 112.684 90.686 112.703 90.6698C112.723 90.653 112.739 90.6309 112.751 90.6035C112.765 90.5736 112.771 90.546 112.77 90.5208C112.769 90.4956 112.762 90.4732 112.747 90.4537C112.733 90.4344 112.712 90.4185 112.683 90.406C112.66 90.3955 112.635 90.3904 112.61 90.3907C112.585 90.3905 112.562 90.3972 112.541 90.411C112.52 90.4243 112.502 90.4464 112.487 90.4773L112.316 90.4016C112.343 90.3423 112.379 90.2983 112.425 90.2697C112.47 90.2411 112.521 90.2269 112.576 90.227C112.632 90.2271 112.688 90.2399 112.745 90.2652C112.809 90.2933 112.858 90.3281 112.894 90.3698C112.929 90.411 112.95 90.4575 112.955 90.5092C112.961 90.5606 112.952 90.6152 112.926 90.673C112.908 90.7147 112.883 90.749 112.851 90.7758C112.82 90.8021 112.784 90.8241 112.745 90.8418C112.705 90.8589 112.664 90.8752 112.62 90.8905C112.583 90.9029 112.554 90.9213 112.532 90.9455C112.51 90.9693 112.491 90.9991 112.474 91.0349ZM112.203 91.1804C112.215 91.1548 112.233 91.1371 112.258 91.1273C112.284 91.117 112.312 91.1186 112.342 91.132C112.372 91.1454 112.392 91.165 112.402 91.1907C112.412 91.216 112.411 91.2414 112.4 91.267C112.388 91.2926 112.37 91.3106 112.344 91.3208C112.319 91.3306 112.291 91.3288 112.261 91.3154C112.231 91.302 112.211 91.2827 112.201 91.2574C112.191 91.2316 112.192 91.206 112.203 91.1804Z" fill="#7C94FB"/>
<path d="M91.5389 81.1518L94.8989 79.3594L95.0477 82.9926C95.0477 82.9926 92.6477 83.9927 91.2749 82.8912L91.5389 81.1518Z" fill="#FFB573"/>
<path d="M97.6686 79.084L97.1646 82.4322L95.0526 82.9926L94.9038 79.3594L97.6686 79.084Z" fill="#FFB573"/>
<path d="M85.1357 68.0921L84.8717 68.3868L84.5741 68.7299C84.3725 68.9618 84.1709 69.213 83.9789 69.4498C83.5853 69.9329 83.2109 70.4499 82.8605 70.9717C81.4102 73.038 80.2685 75.3071 79.4717 77.7067C79.2797 78.3058 79.1021 78.9049 78.9629 79.5185C78.9149 79.6972 78.9101 79.7697 78.8861 79.8518C78.8824 79.9226 78.8824 79.9936 78.8861 80.0644C78.8784 80.1399 78.8784 80.216 78.8861 80.2915C78.8861 80.3785 79.0493 80.5814 79.4429 80.7746C79.9161 80.9889 80.4146 81.1415 80.9261 81.2288C82.1608 81.4264 83.4109 81.5088 84.6605 81.4752C85.9661 81.4752 87.2909 81.3592 88.6157 81.2191C89.9405 81.079 91.2845 80.9051 92.5853 80.707L93.1085 82.799C90.4295 83.6767 87.6728 84.2931 84.8765 84.6398C83.4043 84.8326 81.9157 84.865 80.4365 84.7364C79.5909 84.6565 78.7605 84.4581 77.9693 84.147C77.4948 83.9555 77.0489 83.6985 76.6445 83.3836C76.1683 83.0077 75.7758 82.5353 75.4925 81.997C75.0049 80.9872 74.8745 79.84 75.1229 78.7454C75.2381 78.0062 75.4061 77.296 75.6029 76.552C75.9796 75.1237 76.4808 73.7317 77.1005 72.3921C77.7219 71.0494 78.4457 69.7572 79.2653 68.5269C79.6781 67.9134 80.1197 67.3191 80.5805 66.7345C80.8157 66.4446 81.0605 66.1595 81.3005 65.8745L81.6893 65.4542C81.8285 65.3044 81.9389 65.1836 82.1309 65L85.1357 68.0921Z" fill="#FFB573"/>
<defs>
<linearGradient id="paint0_linear_139_2445" x1="115.55" y1="91.0434" x2="109.974" y2="91.3651" gradientUnits="userSpaceOnUse">
<stop stop-color="#E5EDFD"/>
<stop offset="0.495527" stop-color="#FDFDFD"/>
<stop offset="1" stop-color="#E5EDFD"/>
</linearGradient>
</defs>
</svg>
