<svg width="250" height="187" viewBox="0 0 250 187" fill="none" xmlns="http://www.w3.org/2000/svg">
<rect y="163.847" width="250" height="0.125112" fill="#EBEBEB"/>
<rect x="75.02" y="167.039" width="11.59" height="0.125112" fill="#EBEBEB"/>
<rect x="201.05" y="169.721" width="28.335" height="0.125112" fill="#EBEBEB"/>
<rect x="21.3599" y="169.721" width="28.335" height="0.125112" fill="#EBEBEB"/>
<path fill-rule="evenodd" clip-rule="evenodd" d="M21.955 141.526H118.5C120.077 141.526 121.355 140.247 121.355 138.669V2.85755C121.355 1.27937 120.077 0 118.5 0H21.955C20.3899 0.00268342 19.1187 1.26608 19.105 2.83253V138.669C19.105 140.245 20.3802 141.524 21.955 141.526ZM19.23 2.83229C19.23 1.32516 20.4492 0.102609 21.955 0.0998486H118.5C120.005 0.105338 121.224 1.32548 121.23 2.83229V138.669C121.224 140.175 120.005 141.396 118.5 141.401H21.955C20.4492 141.398 19.23 140.176 19.23 138.669V2.83229Z" fill="#EBEBEB"/>
<path fill-rule="evenodd" clip-rule="evenodd" d="M130.105 141.526H226.655C227.411 141.525 228.135 141.223 228.669 140.687C229.202 140.151 229.501 139.425 229.5 138.669V2.83253C229.486 1.26802 228.218 0.0054202 226.655 0H130.105C128.539 0.00265391 127.266 1.26527 127.25 2.83253V138.669C127.255 140.245 128.531 141.521 130.105 141.526ZM127.375 2.83229C127.38 1.32548 128.6 0.105338 130.105 0.0998486H226.655C228.16 0.105338 229.379 1.32548 229.385 2.83229V138.669C229.379 140.175 228.16 141.396 226.655 141.401H130.105C128.6 141.396 127.38 140.175 127.375 138.669V2.83229Z" fill="#EBEBEB"/>
<rect x="145.99" y="124.125" width="11.545" height="39.9907" fill="#E6E6E6"/>
<rect x="137.815" y="124.125" width="11.545" height="39.9907" fill="#E6E6E6"/>
<path d="M147.17 164.117H149.36V157.872H144.865L147.17 164.117Z" fill="#F0F0F0"/>
<rect x="79.7798" y="124.125" width="11.545" height="39.9907" fill="#E6E6E6"/>
<rect x="89.415" y="124.125" width="59.95" height="36.918" fill="#F0F0F0"/>
<path fill-rule="evenodd" clip-rule="evenodd" d="M122.13 152.737H145.63C146.88 152.718 147.885 151.701 147.89 150.45V127.975C147.887 126.714 146.865 125.693 145.605 125.693H122.13C120.87 125.693 119.848 126.714 119.845 127.975V150.45C119.851 151.711 120.871 152.732 122.13 152.737ZM120.35 127.984C120.356 127.004 121.151 126.213 122.13 126.213L145.625 126.203C146.095 126.202 146.547 126.388 146.88 126.72C147.213 127.052 147.4 127.504 147.4 127.974V150.495C147.392 151.477 146.591 152.267 145.61 152.261H122.11C121.638 152.256 121.187 152.063 120.857 151.725C120.527 151.387 120.345 150.932 120.35 150.46V127.984Z" fill="#E0E0E0"/>
<path fill-rule="evenodd" clip-rule="evenodd" d="M93.12 152.737H116.62C117.881 152.734 118.902 151.712 118.905 150.45V127.975C118.902 126.714 117.88 125.693 116.62 125.693H93.12C91.8599 125.693 90.8377 126.714 90.835 127.975V150.45C90.8404 151.711 91.8603 152.732 93.12 152.737ZM91.8651 126.73C92.1981 126.398 92.6496 126.212 93.1199 126.213L116.62 126.203C117.599 126.203 118.394 126.994 118.4 127.974V150.46C118.394 151.44 117.6 152.233 116.62 152.236H93.1199C92.6492 152.236 92.1977 152.049 91.8648 151.716C91.5319 151.383 91.3449 150.931 91.3449 150.46V127.984C91.3449 127.514 91.5321 127.062 91.8651 126.73Z" fill="#E0E0E0"/>
<path d="M114.44 132.794C113.223 132.794 112.236 131.807 112.235 130.589C112.234 129.37 113.219 128.382 114.437 128.38C115.654 128.378 116.642 129.364 116.645 130.582C116.645 131.802 115.658 132.791 114.44 132.794Z" fill="#FAFAFA"/>
<path d="M124.33 132.794C123.112 132.802 122.118 131.821 122.11 130.602C122.102 129.383 123.082 128.388 124.3 128.38C125.518 128.372 126.512 129.353 126.52 130.572V130.617C126.506 131.819 125.531 132.788 124.33 132.794Z" fill="#FAFAFA"/>
<path d="M91.6052 164.117H89.4102V157.872H93.9052L91.6052 164.117Z" fill="#F0F0F0"/>
<rect x="76.105" y="124.125" width="11.545" height="39.9907" fill="#E6E6E6"/>
<path d="M85.4548 164.117H87.6498V157.872H83.1548L85.4548 164.117Z" fill="#F0F0F0"/>
<rect x="27.7002" y="124.125" width="59.95" height="36.918" fill="#F0F0F0"/>
<path fill-rule="evenodd" clip-rule="evenodd" d="M60.4149 152.737H83.9149C85.1671 152.723 86.175 151.703 86.1749 150.45V127.975C86.1721 126.714 85.1499 125.693 83.8899 125.693H60.4149C59.1549 125.693 58.1326 126.714 58.1299 127.975V150.45C58.1299 151.713 59.1529 152.737 60.4149 152.737ZM59.1601 126.73C59.4931 126.398 59.9446 126.212 60.4149 126.213L83.9199 126.203C84.8971 126.206 85.6894 126.996 85.6949 127.974V150.495C85.6839 151.477 84.8819 152.267 83.8999 152.261H60.3999C59.9278 152.256 59.4771 152.063 59.1471 151.725C58.817 151.387 58.6346 150.932 58.6399 150.46V127.984C58.6399 127.514 58.8271 127.062 59.1601 126.73Z" fill="#E0E0E0"/>
<path fill-rule="evenodd" clip-rule="evenodd" d="M31.4349 152.737H54.9049C56.1657 152.734 57.1872 151.712 57.1899 150.45V127.975C57.1899 127.369 56.949 126.788 56.5203 126.359C56.0917 125.931 55.5105 125.692 54.9049 125.693H31.4349C30.8293 125.692 30.2481 125.931 29.8195 126.359C29.3908 126.788 29.1499 127.369 29.1499 127.975V150.45C29.1499 151.713 30.1729 152.737 31.4349 152.737ZM30.1768 126.728C30.5109 126.396 30.9637 126.21 31.4349 126.213L54.9149 126.193C55.386 126.19 55.8388 126.376 56.1729 126.708C56.507 127.041 56.6949 127.493 56.6949 127.965V150.485C56.6949 150.957 56.5072 151.41 56.1732 151.743C55.8393 152.076 55.3865 152.263 54.9149 152.261H31.4149C30.9428 152.256 30.4921 152.063 30.1621 151.725C29.832 151.388 29.6496 150.932 29.6549 150.46V127.985C29.6549 127.513 29.8427 127.061 30.1768 126.728Z" fill="#E0E0E0"/>
<path d="M52.73 132.794C51.5122 132.797 50.5228 131.811 50.52 130.592C50.5173 129.373 51.5022 128.383 52.72 128.38C53.9378 128.377 54.9272 129.363 54.93 130.582C54.9327 131.168 54.7021 131.73 54.2892 132.145C53.8763 132.56 53.3152 132.794 52.73 132.794Z" fill="#FAFAFA"/>
<path d="M62.6199 132.794C61.4021 132.802 60.4082 131.821 60.4 130.602C60.3917 129.383 61.3721 128.388 62.5899 128.38C63.8076 128.372 64.8015 129.353 64.8099 130.572V130.617C64.7962 131.819 63.8213 132.788 62.6199 132.794Z" fill="#FAFAFA"/>
<path d="M29.8902 164.117H27.7002V157.872H32.1902L29.8902 164.117Z" fill="#F0F0F0"/>
<rect x="112.16" y="13.272" width="21.48" height="21.4992" fill="#EBEBEB"/>
<rect x="133.645" y="13.2769" width="0.95" height="21.4992" fill="#E0E0E0"/>
<rect x="115.075" y="16.189" width="15.66" height="15.674" fill="white"/>
<path d="M125.525 26.6438C124.83 27.3409 123.886 27.7326 122.903 27.7326C121.919 27.7326 120.975 27.3409 120.28 26.6438C118.836 25.1944 118.836 22.8485 120.28 21.3991C121.73 19.9529 124.075 19.9529 125.525 21.3991C126.969 22.8485 126.969 25.1944 125.525 26.6438Z" fill="#F5F5F5"/>
<rect x="87.415" y="40.9165" width="25.185" height="25.2075" fill="#EBEBEB"/>
<rect x="112.6" y="40.9214" width="1.115" height="25.2075" fill="#E0E0E0"/>
<rect x="90.8301" y="44.335" width="18.36" height="18.3764" fill="white"/>
<rect x="96.0898" y="49.5991" width="7.83" height="7.837" fill="#F5F5F5"/>
<rect x="211.615" y="32.8091" width="13.635" height="3.18785" fill="#E6E6E6"/>
<rect x="155.175" y="32.8091" width="56.44" height="3.18785" fill="#F5F5F5"/>
<rect x="171.355" y="15.8838" width="15.89" height="16.9301" fill="#E0E0E0"/>
<rect x="167.285" y="15.8838" width="4.07" height="16.9301" fill="#F0F0F0"/>
<rect x="179.475" y="13.272" width="11.935" height="19.5374" fill="#E6E6E6"/>
<rect x="176.03" y="13.272" width="3.45" height="19.5374" fill="#F0F0F0"/>
<rect x="182.995" y="15.8838" width="10.065" height="16.9301" fill="#F0F0F0"/>
<rect x="180.695" y="15.8838" width="2.3" height="16.9301" fill="#FAFAFA"/>
<rect x="191.23" y="18.7471" width="13.2" height="14.0626" fill="#E6E6E6"/>
<rect x="187.85" y="18.7471" width="3.38" height="14.0626" fill="#FAFAFA"/>
<rect x="197.975" y="16.5796" width="9.915" height="16.2345" fill="#E6E6E6"/>
<rect x="195.11" y="16.5796" width="2.865" height="16.2345" fill="#F0F0F0"/>
<rect x="200.895" y="18.7471" width="9.63" height="14.0626" fill="#F0F0F0"/>
<rect x="198.985" y="18.7471" width="1.91" height="14.0626" fill="#FAFAFA"/>
<path d="M203.545 127.324C207.815 121.739 217.98 119.662 221.495 116.139C226.095 111.52 226.075 104.589 222.155 102.086C218.755 99.9144 207.475 114.598 206.21 116.249C201.835 121.899 200.57 126.088 199.75 130.146C199.845 126.698 199.935 123.526 200.01 121.083C200.245 113.111 200.54 110.544 200.68 109.758C201.18 109.368 201.71 108.922 202.03 108.682C204.76 106.645 210.81 104.218 213.835 101.261C218.255 96.9368 217.54 91.7521 214.44 89.8354C211.205 87.8336 205.475 92.5829 202.44 97.3021C199.405 102.021 200.7 106.545 199.85 110.434C199.67 111.204 199.485 114.122 199.315 118.171C198.595 114.181 196.39 110.613 193.145 108.187C188.96 104.844 185.345 100.77 181.895 101.296C178.445 101.821 180.32 107.211 183.03 110.994C185.46 114.362 197.455 117.725 199.22 120.433C199.01 125.938 198.825 132.869 198.695 139.345C197.75 136.002 198.4 135.721 194.525 130.587C192.225 127.544 182.775 123.781 181.655 125.883C180.535 127.984 182.24 131.928 185.805 134.695C188.68 136.927 195.035 136.922 196.54 138.309C196.885 138.629 198.04 139.87 198.67 140.586C198.515 148.483 198.45 155.454 198.525 157.836L199.145 157.861C199.115 157.246 199.185 153.227 199.31 147.907C200.86 145.08 211.31 143.403 214.515 140.481C217.885 137.403 220.305 133.81 218.86 131.403C217.655 129.401 208.17 132.123 204.285 135.446C201.715 137.658 200.145 140.025 199.425 143.198C199.51 139.575 199.615 135.691 199.71 132.013C200.5 131.117 202.265 129 203.545 127.324Z" fill="#E6E6E6"/>
<path d="M204.455 164.011H193.625C193.03 164.011 192.52 163.241 192.405 162.17L191.635 155.164H206.44L205.675 162.17C205.55 163.241 205.045 164.011 204.455 164.011Z" fill="#F0F0F0"/>
<path d="M206.75 157.871H191.325C190.955 157.871 190.645 157.371 190.605 156.68L190.29 151.495C190.24 150.7 190.575 149.994 191.01 149.994H207.07C207.5 149.994 207.835 150.69 207.785 151.495L207.47 156.68C207.435 157.361 207.12 157.871 206.75 157.871Z" fill="#F0F0F0"/>
<ellipse cx="125" cy="180.781" rx="96.945" ry="5.66506" fill="#F5F5F5"/>
<path d="M161.22 99.4048L109.765 102.407C107.947 102.515 106.164 102.949 104.5 103.689L48.61 128.711C46.5892 129.6 45.4639 131.782 45.91 133.946L55.145 177.66C55.4614 179.086 56.4188 180.286 57.7388 180.911C59.0588 181.535 60.593 181.514 61.895 180.853L117.06 153.288L168 151.581C169.268 151.548 170.46 150.969 171.273 149.994C172.085 149.019 172.439 147.741 172.245 146.487L165.43 104.629C165.075 102.468 163.435 99.3397 161.22 99.4048Z" fill="#1A87DD"/>
<path opacity="0.1" d="M161.22 99.4048L109.765 102.407C107.947 102.515 106.164 102.949 104.5 103.689L48.61 128.711C46.5892 129.6 45.4639 131.782 45.91 133.946L55.145 177.66C55.4614 179.086 56.4188 180.286 57.7388 180.911C59.0588 181.535 60.593 181.514 61.895 180.853L117.06 153.288L168 151.581C169.268 151.548 170.46 150.969 171.273 149.994C172.085 149.019 172.439 147.741 172.245 146.487L165.43 104.629C165.075 102.468 163.435 99.3397 161.22 99.4048Z" fill="black"/>
<path d="M161.555 101.182L110.805 104.044C109.006 104.143 107.241 104.576 105.6 105.32L50.5298 130.202C48.5316 131.106 47.4296 133.279 47.8798 135.427L57.1148 179.161C57.4163 180.579 58.3573 181.777 59.6627 182.405C60.9681 183.033 62.4905 183.019 63.7848 182.369L118.135 154.96L168.375 153.368C169.633 153.328 170.813 152.748 171.614 151.775C172.414 150.803 172.757 149.532 172.555 148.289L165.72 106.436C165.365 104.254 163.745 101.121 161.555 101.182Z" fill="#1A87DD"/>
<path opacity="0.2" d="M112.87 111.701L156.415 109.019" stroke="black" stroke-width="1.33014" stroke-linecap="round" stroke-linejoin="round"/>
<path opacity="0.2" d="M107.655 112.827L115.61 149.399" stroke="black" stroke-width="1.33014" stroke-linecap="round" stroke-linejoin="round"/>
<path opacity="0.2" d="M54.6147 145.846L60.2247 173.976C60.2247 173.976 64.5247 162.816 54.6147 145.846Z" fill="#FAFAFA"/>
<path opacity="0.2" d="M55.3501 146.177C55.5451 146.677 105.18 125.358 105.18 125.358C105.454 135.215 100.165 144.387 91.5001 149.08C76.5601 157.462 55.3501 146.177 55.3501 146.177Z" fill="#FAFAFA"/>
<ellipse cx="88.3199" cy="144.856" rx="2.15" ry="2.15192" fill="#1A87DD"/>
<path opacity="0.2" d="M105.205 125.358C105.205 125.358 111.36 134.632 109.87 150.426L105.205 125.358Z" fill="black"/>
<g opacity="0.2">
<path d="M52.2397 134.796L53.3847 134.291" stroke="#FAFAFA" stroke-width="0.66507" stroke-linecap="round" stroke-linejoin="round"/>
<path d="M55.7598 133.24L102.11 112.731" stroke="#FAFAFA" stroke-width="0.66507" stroke-linecap="round" stroke-linejoin="round" stroke-dasharray="3.46 3.46"/>
<path d="M103.3 112.206L104.44 111.701" stroke="#FAFAFA" stroke-width="0.66507" stroke-linecap="round" stroke-linejoin="round"/>
</g>
<path opacity="0.2" d="M114.33 119.923L157.875 117.235" stroke="black" stroke-width="1.33014" stroke-linecap="round" stroke-linejoin="round"/>
<path opacity="0.2" d="M116.29 130.177L159.835 127.49" stroke="black" stroke-width="1.33014" stroke-linecap="round" stroke-linejoin="round"/>
<path d="M150.29 57.3315C150.29 57.3315 149.195 69.007 144.86 70.0129C142.176 70.5932 139.377 70.3131 136.86 69.2122L133.335 66.4997L131.615 72.5051C131.615 72.5051 133.495 75.0624 137.42 73.2908C137.42 73.2908 144.42 76.3735 148.29 73.2908C152.16 70.208 153.4 61.7505 153.4 61.7505L150.29 57.3315Z" fill="#FFB573"/>
<path d="M153.775 51.6761C153.775 51.6761 150.75 46.5165 152.125 37.1632C153.5 27.8098 161.335 26.6538 164.36 27.3294C167.385 28.005 169.86 30.9126 171.92 36.4475C173.98 41.9825 174.74 43.4238 178.175 42.4529C181.61 41.482 190.75 38.4493 193.295 41.1467C194.782 42.6431 195.425 44.7829 195.01 46.8518C195.01 46.8518 207.725 43.7591 206.625 55.1092C205.525 66.4593 187.175 77.0538 169.72 65.8388C152.265 54.6238 153.775 51.6761 153.775 51.6761Z" fill="#263238"/>
<path d="M153.635 79.1456C153.635 79.1456 150.18 108.887 150.295 122.835C150.41 136.782 155.36 169.651 155.36 169.651H161.465C161.465 169.651 160.66 143.368 160.775 134.375C160.89 125.382 162.5 110.504 162.5 110.504C162.5 110.504 164.455 123.876 166.76 128.6C169.065 133.324 181.85 150.044 190.72 155.234L194.865 151.425C194.865 151.425 185.65 140.015 182.195 134.365C178.74 128.715 175.635 127.113 174.365 116.604C173.095 106.095 175.29 89.2847 171.605 79.1406L153.635 79.1456Z" fill="#263238"/>
<path opacity="0.2" d="M162.5 110.503L159.845 91.6509C159.845 91.6509 157.75 102.981 161.875 116.818L162.5 110.503Z" fill="black"/>
<path d="M156.615 171.318L156.82 177.158L160.915 177.498L161.12 176.953V170.907L156.615 171.318Z" fill="#B97964"/>
<path d="M154.67 169.096L155.045 171.283L162.075 171.454L162.52 168.826L154.67 169.096Z" fill="#1A87DD"/>
<path d="M188.795 155.638L195.31 149.563L196.745 151.85L191.15 156.975L188.795 155.638Z" fill="#1A87DD"/>
<path d="M191.935 155.639L196.235 159.262L198.995 156.014L195.465 152.361L191.935 155.639Z" fill="#B97964"/>
<path d="M199.83 155.764L202.43 157.365C202.67 157.513 202.832 157.759 202.874 158.038C202.915 158.317 202.832 158.6 202.645 158.811C200.76 160.943 195.945 166.358 195.465 166.739C194.87 167.239 194.15 166.398 193.965 165.648C193.965 165.648 195.33 163.836 195.465 162.675C195.522 161.778 195.522 160.879 195.465 159.982C195.455 159.758 195.53 159.538 195.675 159.367L198.58 155.954C198.891 155.586 199.425 155.505 199.83 155.764Z" fill="#263238"/>
<path d="M161.915 177.658L162.455 180.661C162.505 180.939 162.43 181.225 162.25 181.442C162.069 181.659 161.802 181.785 161.52 181.787C158.675 181.787 151.435 181.817 150.83 181.717C150.075 181.592 150.21 180.511 150.655 179.88C150.655 179.88 152.91 179.69 153.855 179.004C154.558 178.452 155.226 177.857 155.855 177.223C156.016 177.065 156.23 176.974 156.455 176.968L160.93 176.862C161.411 176.845 161.831 177.184 161.915 177.658Z" fill="#263238"/>
<path d="M172.26 62.6508L178.5 58.2669C178.5 58.2669 176.84 51.6209 174.38 51.2907C171.92 50.9604 159.71 48.6333 151.945 51.2907C151.945 51.2907 149.155 52.0864 148.295 59.9284L151.615 60.9893C151.615 60.9893 152.805 75.6724 153.54 77.9344H171.26C171.26 77.9344 171.46 65.3082 172.26 62.6508Z" fill="#1A87DD"/>
<path d="M173.605 61.7053C173.605 61.7053 175.97 68.4614 176.39 72.0946C176.39 72.0946 170.77 69.8526 169.32 68.8267L168.22 64.8732L164.5 63.0565L163.395 66.0592L166.5 69.9127C166.5 69.9127 174.965 77.8397 179.255 76.0281C183.545 74.2165 177.56 58.9429 177.56 58.9429L173.605 61.7053Z" fill="#FFB573"/>
<path d="M157.73 32.1231C157.73 32.1231 155.565 36.447 155.73 39.9651C155.895 43.4833 157.67 44.9196 161.045 45.415C161.045 45.415 162.485 49.919 158.705 50.3744C158.415 50.4095 158.315 51.5555 158.335 51.7407C158.435 52.4713 159.16 52.8717 159.835 53.0418C160.546 53.1994 161.272 53.2799 162 53.282C163.55 53.3355 165.037 52.673 166.035 51.4854C166.115 51.3903 166.875 50.4195 166.875 50.4195C166.875 50.4195 165.07 49.5237 165.705 43.6584C166.567 43.0972 167.228 42.2773 167.595 41.3163C168.292 40.9462 168.811 40.3115 169.035 39.5548C169.305 38.3837 168.27 36.7623 166.38 38.3837C166.38 38.3837 162.82 36.5821 161.47 30.2715C160.469 31.295 159.15 31.9479 157.73 32.1231Z" fill="#FFB573"/>
<path d="M158.745 39.0044L159.05 36.6924L157.415 38.504C157.757 38.8682 158.248 39.053 158.745 39.0044Z" fill="#ED893E"/>
<path d="M159.695 40.6957C159.695 40.6957 161.42 40.961 162.25 39.855" stroke="#222221" stroke-width="0.498802" stroke-linecap="round" stroke-linejoin="round"/>
<path d="M161.42 33.4539C162.218 33.227 163.076 33.4555 163.655 34.0495" stroke="#222221" stroke-width="0.66507" stroke-linecap="round" stroke-linejoin="round"/>
<path d="M158.435 32.9547C158.435 32.9547 157.435 32.7995 156.99 33.365" stroke="#222221" stroke-width="0.66507" stroke-linecap="round" stroke-linejoin="round"/>
<path d="M162.115 36.4971C162.07 36.8474 161.845 37.1026 161.615 37.0726C161.385 37.0426 161.23 36.7373 161.275 36.387C161.32 36.0367 161.545 35.7815 161.775 35.8115C162.005 35.8415 162.16 36.1468 162.115 36.4971Z" fill="#222221"/>
<ellipse cx="157.703" cy="35.6686" rx="0.635558" ry="0.425006" transform="rotate(-82.6 157.703 35.6686)" fill="#222221"/>
<path d="M161.78 35.8117L160.99 35.4664C161.011 35.6425 161.124 35.7943 161.287 35.8652C161.449 35.9362 161.637 35.9159 161.78 35.8117Z" fill="#222221"/>
<path d="M157.86 35.0715L157.07 34.7262C157.091 34.9023 157.204 35.054 157.367 35.125C157.529 35.196 157.717 35.1756 157.86 35.0715Z" fill="#222221"/>
<path d="M152.92 77.1537V79.2405L172.12 79.4007L171.605 76.9185L152.92 77.1537Z" fill="#1A87DD"/>
<path opacity="0.4" d="M152.92 77.1537V79.2405L172.12 79.4007L171.605 76.9185L152.92 77.1537Z" fill="white"/>
<path d="M128.61 30H67C75.5198 30.0887 82.5138 36.7636 83 45.27L86.935 126.72C87.4236 135.225 94.4162 141.899 102.935 141.99H134C137.998 142.032 141.834 140.411 144.591 137.516C147.349 134.621 148.781 130.711 148.545 126.72L144.615 45.27C144.131 36.7606 137.133 30.0836 128.61 30Z" fill="#FAFAFA" stroke="#1A87DD" stroke-opacity="0.54"/>
<path d="M117.475 126.72C117.712 130.709 116.283 134.618 113.528 137.513C110.773 140.408 106.941 142.029 102.945 141.99H164.55C168.546 142.029 172.379 140.408 175.135 137.513C177.89 134.618 179.321 130.71 179.085 126.72H117.475Z" fill="#E6E6E6"/>
<path d="M137.285 80.5547H93.7449C93.1116 80.5479 92.5917 80.052 92.5549 79.4197C92.5383 79.1235 92.6449 78.8336 92.8494 78.6186C93.054 78.4037 93.3382 78.2828 93.6349 78.2847H137.175C137.816 78.2809 138.348 78.7797 138.385 79.4197C138.402 79.7194 138.292 80.0126 138.084 80.2282C137.875 80.4438 137.585 80.5621 137.285 80.5547Z" fill="#407BFF"/>
<path d="M134.732 59.27H91.1917C90.5584 59.2632 90.0384 58.7673 90.0017 58.135C89.9851 57.8388 90.0917 57.5489 90.2962 57.334C90.5007 57.119 90.785 56.9982 91.0817 57H134.622C135.263 56.9963 135.794 57.4951 135.832 58.135C135.849 58.4348 135.739 58.7279 135.53 58.9435C135.321 59.1591 135.032 59.2775 134.732 59.27Z" fill="#407BFF"/>
<path d="M137.625 87.6396H94.0847C93.4514 87.6328 92.9315 87.1369 92.8947 86.5046C92.8782 86.2084 92.9848 85.9185 93.1893 85.7036C93.3938 85.4887 93.6781 85.3678 93.9747 85.3696H137.52C138.151 85.3791 138.668 85.8743 138.705 86.5046C138.721 86.8009 138.615 87.0908 138.41 87.3057C138.206 87.5206 137.921 87.6415 137.625 87.6396Z" fill="#407BFF"/>
<path d="M136.072 66.355H92.5315C91.8982 66.3482 91.3783 65.8523 91.3415 65.22C91.325 64.9238 91.4316 64.6339 91.6361 64.4189C91.8406 64.204 92.1248 64.0831 92.4215 64.085H135.967C136.598 64.0944 137.115 64.5896 137.152 65.22C137.168 65.5162 137.061 65.8061 136.857 66.021C136.652 66.236 136.368 66.3568 136.072 66.355Z" fill="#407BFF"/>
<path d="M137.97 94.7197H94.4251C93.7918 94.7129 93.2718 94.217 93.2351 93.5847C93.2185 93.2885 93.3251 92.9986 93.5296 92.7837C93.7341 92.5687 94.0184 92.4479 94.3151 92.4497H137.885C138.518 92.4565 139.038 92.9525 139.075 93.5847C139.092 93.8854 138.982 94.1793 138.772 94.3951C138.562 94.6108 138.271 94.7286 137.97 94.7197Z" fill="#407BFF"/>
<path d="M136.417 73.4351H92.8719C92.2386 73.4282 91.7186 72.9323 91.6819 72.3001C91.6653 72.0038 91.7719 71.7139 91.9764 71.499C92.1809 71.2841 92.4652 71.1632 92.7619 71.1651H136.332C136.965 71.1719 137.485 71.6678 137.522 72.3001C137.539 72.6007 137.429 72.8947 137.219 73.1104C137.009 73.3262 136.718 73.4439 136.417 73.4351Z" fill="#407BFF"/>
<path d="M138.31 101.815H94.7698C94.1375 101.806 93.6189 101.311 93.5798 100.68C93.5632 100.384 93.6698 100.094 93.8744 99.8789C94.0789 99.664 94.3631 99.5431 94.6598 99.5449H138.2C138.833 99.5518 139.353 100.048 139.39 100.68C139.406 100.976 139.3 101.266 139.095 101.481C138.891 101.696 138.606 101.817 138.31 101.815Z" fill="#407BFF"/>
<path d="M121.34 108.899H95.1096C94.4763 108.893 93.9564 108.397 93.9196 107.764C93.9031 107.468 94.0097 107.178 94.2142 106.963C94.4187 106.748 94.703 106.628 94.9996 106.629H121.23C121.863 106.636 122.383 107.132 122.42 107.764C122.436 108.061 122.33 108.351 122.125 108.565C121.921 108.78 121.636 108.901 121.34 108.899Z" fill="#407BFF"/>
</svg>
