<svg width="250" height="187" viewBox="0 0 250 187" fill="none" xmlns="http://www.w3.org/2000/svg">
<g id="illustration">
<g id="freepik--background-complete--inject-242">
<rect id="Rectangle" y="163.7" width="250" height="0.125" fill="#EBEBEB"/>
<rect id="Rectangle_2" x="208.39" y="171.745" width="16.56" height="0.125" fill="#EBEBEB"/>
<rect id="Rectangle_3" x="161.265" y="173.105" width="4.345" height="0.125" fill="#EBEBEB"/>
<rect id="Rectangle_4" x="198.295" y="167.105" width="9.595" height="0.125" fill="#EBEBEB"/>
<rect id="Rectangle_5" x="26.23" y="167.945" width="21.595" height="0.125" fill="#EBEBEB"/>
<rect id="Rectangle_6" x="52.28" y="167.945" width="3.165" height="0.125" fill="#EBEBEB"/>
<rect id="Rectangle_7" x="65.735" y="170.055" width="46.84" height="0.125" fill="#EBEBEB"/>
<path id="Shape" fill-rule="evenodd" clip-rule="evenodd" d="M21.955 141.4H118.5C120.077 141.4 121.355 140.122 121.355 138.545V2.855C121.355 1.27823 120.077 0 118.5 0H21.955C20.3899 0.00268102 19.1187 1.26495 19.105 2.83V138.545C19.105 140.12 20.3802 141.397 21.955 141.4ZM19.23 2.83026C19.23 1.32447 20.4492 0.103018 21.955 0.10026H118.5C120.007 0.103012 121.227 1.32366 121.23 2.83026V138.545C121.227 140.052 120.007 141.273 118.5 141.275H21.955C20.4492 141.273 19.23 140.051 19.23 138.545V2.83026Z" fill="#EBEBEB"/>
<path id="Shape_2" fill-rule="evenodd" clip-rule="evenodd" d="M130.105 141.4H226.655C228.228 141.395 229.5 140.118 229.5 138.545V2.83C229.486 1.26689 228.218 0.00541536 226.655 0H130.105C128.539 0.00265154 127.266 1.26414 127.25 2.83V138.545C127.253 140.121 128.529 141.397 130.105 141.4ZM127.375 2.83026C127.378 1.32366 128.598 0.103012 130.105 0.10026H226.655C228.162 0.103012 229.382 1.32366 229.385 2.83026V138.545C229.382 140.052 228.162 141.273 226.655 141.275H130.105C128.598 141.273 127.378 140.052 127.375 138.545V2.83026Z" fill="#EBEBEB"/>
<rect id="Rectangle_8" x="143.62" y="163.7" width="14.445" height="51.46" transform="rotate(180 143.62 163.7)" fill="#E6E6E6"/>
<path id="Path" d="M131.915 163.7H129.17V158.93H134.79L131.915 163.7Z" fill="#F0F0F0"/>
<rect id="Rectangle_9" x="226.035" y="163.7" width="14.445" height="51.46" transform="rotate(180 226.035 163.7)" fill="#E6E6E6"/>
<rect id="Rectangle_10" x="213.985" y="162.445" width="84.81" height="50.21" transform="rotate(180 213.985 162.445)" fill="#F0F0F0"/>
<path id="Rectangle_11" d="M186.02 159.66V115.22H211.16V159.66H186.02Z" fill="#E6E6E6"/>
<path id="Path_2" d="M196.105 117.77H201.075C203.317 117.73 205.419 116.674 206.79 114.9H190.39C191.762 116.673 193.864 117.728 196.105 117.77Z" fill="#F0F0F0"/>
<path id="Rectangle_12" d="M159.005 159.665V115.225H184.145V159.665H159.005Z" fill="#E6E6E6"/>
<path id="Path_3" d="M168.835 117.77H173.81C176.043 117.723 178.135 116.668 179.5 114.9H163.125C164.494 116.673 166.595 117.729 168.835 117.77Z" fill="#F0F0F0"/>
<path id="Rectangle_13" d="M131.99 159.665V115.225H157.13V159.665H131.99Z" fill="#E6E6E6"/>
<path id="Path_4" d="M141.82 117.77H146.795C149.033 117.727 151.132 116.672 152.5 114.9H136.11C137.479 116.673 139.58 117.729 141.82 117.77Z" fill="#F0F0F0"/>
<path id="Path_5" d="M211.24 163.7H213.98V158.93H208.36L211.24 163.7Z" fill="#F0F0F0"/>
<rect id="Rectangle_14" x="135.24" y="98.8601" width="96.915" height="82.515" transform="rotate(180 135.24 98.8601)" fill="#E6E6E6"/>
<rect id="Rectangle_15" x="134.29" y="98.8601" width="98.145" height="82.515" transform="rotate(180 134.29 98.8601)" fill="#F5F5F5"/>
<path id="Rectangle_16" d="M130.375 20.3047V94.8997H40.06V20.3047L130.375 20.3047Z" fill="#FAFAFA"/>
<path id="Path_6" d="M119.295 94.8997L83.75 20.3047H71.675L107.22 94.8997H119.295Z" fill="white"/>
<path id="Path_7" d="M103.8 94.8997L68.2499 20.3047H59.9399L95.4849 94.8997H103.8Z" fill="white"/>
<path id="Rectangle_17" d="M73.5999 20.3V94.8951H68.9299V20.3H73.5999Z" fill="#E6E6E6"/>
<path id="Rectangle_18" d="M104.64 20.3V94.8951H99.97V20.3H104.64Z" fill="#E6E6E6"/>
<path id="Rectangle_19" d="M72.7549 17.3601V97.4151H66.8499V17.3601H72.7549Z" fill="#F5F5F5"/>
<path id="Rectangle_20" d="M103.795 17.3601V97.4151H97.8899V17.3601H103.795Z" fill="#F5F5F5"/>
<path id="Rectangle_21" d="M40.4751 20.3047L40.4751 94.8997H40.0601L40.0601 20.3047H40.4751Z" fill="#E6E6E6"/>
<path id="Path_8" d="M34.5 11.25H139.5C139.776 11.25 140 11.4739 140 11.75C140 12.0261 139.776 12.25 139.5 12.25H34.5C34.2239 12.25 34 12.0261 34 11.75C34 11.4739 34.2239 11.25 34.5 11.25Z" fill="#E6E6E6"/>
<path id="Path_9" d="M135.24 14.5851C135.616 14.5824 135.92 14.2765 135.92 13.9001V12.4351C135.92 12.0596 135.616 11.7551 135.24 11.7551C134.864 11.7551 134.558 12.0588 134.555 12.4351V13.9001C134.558 14.2773 134.863 14.5824 135.24 14.5851Z" fill="#E6E6E6"/>
<path id="Path_10" d="M42.1151 14.5851C42.4922 14.5824 42.7973 14.2773 42.8001 13.9001V12.4351C42.7973 12.0588 42.4914 11.7551 42.1151 11.7551C41.7395 11.7551 41.4351 12.0596 41.4351 12.4351V13.9001C41.435 14.2765 41.7387 14.5824 42.1151 14.5851Z" fill="#E6E6E6"/>
<rect id="Rectangle_22" opacity="0.6" x="132.735" y="52.7102" width="98.075" height="40.955" transform="rotate(180 132.735 52.7102)" fill="#E0E0E0"/>
<rect id="Rectangle_23" x="38.5251" y="163.7" width="2.52" height="41.32" transform="rotate(180 38.5251 163.7)" fill="#E6E6E6"/>
<rect id="Rectangle_24" x="81.4749" y="114.335" width="13.645" height="8.04" fill="#E6E6E6"/>
<rect id="Rectangle_25" x="81.4749" y="122.38" width="54.195" height="8.04" transform="rotate(180 81.4749 122.38)" fill="#F5F5F5"/>
<rect id="Rectangle_26" x="81.475" y="127.375" width="13.645" height="8.04" fill="#E6E6E6"/>
<rect id="Rectangle_27" x="81.4749" y="135.42" width="54.195" height="8.04" transform="rotate(180 81.4749 135.42)" fill="#F5F5F5"/>
<rect id="Rectangle_28" x="81.4749" y="140.42" width="13.645" height="8.04" fill="#E6E6E6"/>
<rect id="Rectangle_29" x="81.4749" y="148.46" width="54.195" height="8.04" transform="rotate(180 81.4749 148.46)" fill="#F5F5F5"/>
<rect id="Rectangle_30" x="92.72" y="163.7" width="2.52" height="41.32" transform="rotate(180 92.72 163.7)" fill="#E6E6E6"/>
<rect id="Rectangle_31" x="81.4749" y="163.7" width="2.52" height="41.32" transform="rotate(180 81.4749 163.7)" fill="#F5F5F5"/>
<rect id="Rectangle_32" x="29.8" y="163.7" width="2.52" height="41.32" transform="rotate(180 29.8 163.7)" fill="#F5F5F5"/>
</g>
<g id="freepik--Shadow--inject-242">
<ellipse id="freepik--path--inject-242" cx="125" cy="180.621" rx="96.945" ry="5.66" fill="#F5F5F5"/>
</g>
<g id="freepik--Invoice--inject-242">
<path id="Path_11" d="M198 157.919H116.8C115.186 157.939 113.639 157.273 112.544 156.087C111.449 154.902 110.908 153.307 111.055 151.699L121 21.3145C121.321 17.8361 124.207 15.1562 127.7 15.0945H208.9C210.515 15.0734 212.062 15.7387 213.158 16.9249C214.253 18.1111 214.794 19.7066 214.645 21.3145L204.7 151.699C204.377 155.177 201.492 157.855 198 157.919Z" fill="#407BFF"/>
<path id="Path_12" opacity="0.5" d="M198 157.919H116.8C115.186 157.939 113.639 157.273 112.544 156.087C111.449 154.902 110.908 153.307 111.055 151.699L121 21.3145C121.321 17.8361 124.207 15.1562 127.7 15.0945H208.9C210.515 15.0734 212.062 15.7387 213.158 16.9249C214.253 18.1111 214.794 19.7066 214.645 21.3145L204.7 151.699C204.377 155.177 201.492 157.855 198 157.919Z" fill="white"/>
<path id="Path_13" d="M196.795 157.919H115.59C113.976 157.939 112.429 157.273 111.334 156.087C110.239 154.902 109.698 153.307 109.845 151.699L119.795 21.3145C120.116 17.8342 123.005 15.1537 126.5 15.0945H207.7C209.315 15.0734 210.862 15.7387 211.958 16.9249C213.053 18.1111 213.594 19.7066 213.445 21.3145L203.5 151.699C203.179 155.18 200.289 157.86 196.795 157.919Z" fill="#407BFF"/>
<path id="Path_14" opacity="0.7" d="M196.795 157.919H115.59C113.976 157.939 112.429 157.273 111.334 156.087C110.239 154.902 109.698 153.307 109.845 151.699L119.795 21.3145C120.116 17.8342 123.005 15.1537 126.5 15.0945H207.7C209.315 15.0734 210.862 15.7387 211.958 16.9249C213.053 18.1111 213.594 19.7066 213.445 21.3145L203.5 151.699C203.179 155.18 200.289 157.86 196.795 157.919Z" fill="white"/>
<path id="Path_15" d="M115.75 155.845C114.673 155.861 113.641 155.418 112.91 154.627C112.179 153.836 111.819 152.772 111.92 151.7L121.735 23.0448C121.944 20.7247 123.871 18.9364 126.2 18.8998H207.4C208.477 18.8837 209.51 19.3264 210.24 20.1173C210.971 20.9083 211.331 21.9727 211.23 23.0448L201.415 151.7C201.206 154.018 199.282 155.806 196.955 155.845H115.75Z" fill="#407BFF"/>
<path id="Path_16" opacity="0.2" d="M196.38 40.5393H138.27C137.631 40.5478 137.019 40.2846 136.586 39.8153C136.153 39.3461 135.94 38.715 136 38.0793C136.129 36.7076 137.267 35.6513 138.645 35.6243H196.755C197.393 35.6144 198.005 35.8764 198.438 36.3449C198.871 36.8134 199.085 37.444 199.025 38.0793C198.902 39.4552 197.761 40.5166 196.38 40.5393Z" fill="black"/>
<path id="Path_17" opacity="0.3" d="M171.59 17.6294H162.205C162.048 17.6315 161.897 17.5668 161.79 17.4515C161.684 17.3362 161.631 17.181 161.645 17.0244C161.678 16.6875 161.957 16.428 162.295 16.4194H171.685C171.841 16.4188 171.99 16.4841 172.096 16.5993C172.202 16.7144 172.254 16.8688 172.24 17.0244C172.212 17.3635 171.93 17.6255 171.59 17.6294Z" fill="#407BFF"/>
<path id="Path_18" d="M138 38.0796C138.168 36.3207 137.579 34.5736 136.38 33.2756C135.181 31.9776 133.486 31.2517 131.72 31.2796H190.72C192.486 31.2517 194.181 31.9776 195.38 33.2756C196.579 34.5736 197.168 36.3207 197 38.0796H138Z" fill="#F0F0F0"/>
<path id="Path_19" d="M131.735 31.2795C127.913 31.3384 124.752 34.2727 124.41 38.0795L118.365 117.315C118.025 121.121 114.866 124.055 111.045 124.115H170.045C173.867 124.056 177.028 121.121 177.37 117.315L183.415 38.0795C183.755 34.2735 186.914 31.3386 190.735 31.2795L131.735 31.2795Z" fill="white"/>
<path id="Path_20" d="M163.76 117.315C163.592 119.074 164.181 120.821 165.38 122.119C166.578 123.417 168.273 124.143 170.04 124.115H111.04C109.273 124.143 107.578 123.417 106.38 122.119C105.181 120.821 104.592 119.074 104.76 117.315H163.76Z" fill="#F0F0F0"/>
<path id="Path_21" d="M129.225 115.75C129.45 112.855 128.54 110.515 125.65 110.515H171.08C173.97 110.515 176.145 113.16 174.66 115.75H129.225Z" fill="#E0E0E0"/>
<path id="Path_22" d="M163.76 117.315C164.093 113.503 167.254 110.559 171.08 110.5H112.08C108.259 110.559 105.1 113.493 104.76 117.3L163.76 117.315Z" fill="#F0F0F0"/>
<path id="Path_23" d="M191.655 136.96H123.93C123.466 136.966 123.022 136.775 122.707 136.435C122.393 136.094 122.237 135.636 122.28 135.175C122.372 134.177 123.199 133.408 124.2 133.39H191.93C192.393 133.385 192.836 133.576 193.149 133.917C193.463 134.257 193.617 134.714 193.575 135.175C193.483 136.172 192.656 136.941 191.655 136.96Z" fill="white"/>
<path id="Path_24" d="M157.455 145.54H123.275C122.811 145.548 122.366 145.357 122.051 145.017C121.736 144.676 121.581 144.217 121.625 143.755C121.716 142.758 122.544 141.989 123.545 141.97H157.725C158.188 141.964 158.633 142.154 158.947 142.495C159.262 142.835 159.417 143.293 159.375 143.755C159.283 144.752 158.456 145.521 157.455 145.54Z" fill="white"/>
<path id="Path_25" d="M181.12 145.54H167.275C166.811 145.548 166.366 145.357 166.051 145.016C165.736 144.676 165.581 144.217 165.625 143.755C165.716 142.757 166.544 141.989 167.545 141.97H181.39C181.853 141.965 182.296 142.156 182.611 142.497C182.925 142.837 183.081 143.294 183.04 143.755C182.948 144.752 182.121 145.521 181.12 145.54Z" fill="white"/>
<path id="Path_26" d="M176.18 65.7748H127.415L127.515 64.4248H176.285L176.18 65.7748Z" fill="#407BFF"/>
<path id="Path_27" d="M176.18 65.7744H127.415L127.095 69.9194H175.865L176.18 65.7744Z" fill="#F0F0F0"/>
<path id="Path_28" d="M175.55 74.0596H126.78L126.465 78.1996H175.235L175.55 74.0596Z" fill="#F0F0F0"/>
<path id="Path_29" d="M174.915 82.3394H126.15L125.835 86.4844H174.6L174.915 82.3394Z" fill="#F0F0F0"/>
<path id="Path_30" d="M174.285 90.6245H125.515L125.2 94.7645H173.97L174.285 90.6245Z" fill="#F0F0F0"/>
<path id="Path_31" d="M173.55 100.26H124.78L124.885 98.9045H173.655L173.55 100.26Z" fill="#407BFF"/>
<path id="Path_32" d="M167.97 40.5393H178.105L177.645 46.5843H167.51L167.97 40.5393Z" fill="#F0F0F0"/>
</g>
<g id="freepik--Character--inject-242">
<path id="Path_33" d="M68.5901 78.9999L70.4001 79.7249C71.0608 79.9905 71.6402 80.425 72.0801 80.9849L72.9101 82.0349C73.4632 82.7308 73.4379 83.7231 72.8501 84.3899L71.9701 85.3899C71.6448 85.7605 71.1847 85.9855 70.6925 86.0146C70.2003 86.0437 69.7168 85.8746 69.3501 85.5449L68.5001 84.7949C68.5001 84.7949 65.9001 82.9699 65.1351 80.5549L65.6351 80.0549C66.3944 79.2505 67.493 78.8583 68.5901 78.9999Z" fill="#FFB573"/>
<path id="Path_34" d="M73.55 61.4601L72.96 61.8501L72.305 62.3001C71.87 62.6101 71.43 62.9301 71.005 63.2551C70.15 63.9201 69.32 64.6051 68.55 65.3351C67.0296 66.7008 65.7248 68.2888 64.68 70.0451C64.555 70.2551 64.445 70.4651 64.34 70.6801L64.26 70.8401C64.2802 70.7727 64.2969 70.7043 64.31 70.6351C64.327 70.5527 64.327 70.4676 64.31 70.3851C64.265 70.2401 64.26 70.6151 64.375 70.9851C64.6816 71.9454 65.0818 72.8732 65.57 73.7551C66.6 75.7251 67.89 77.7551 69.11 79.7551L69.14 79.8101C69.6436 80.6388 69.382 81.7188 68.555 82.2251C67.928 82.6012 67.1348 82.5556 66.555 82.1101C65.5558 81.3327 64.6025 80.498 63.7 79.6101C62.7767 78.7121 61.9053 77.7622 61.09 76.7651C60.1819 75.6753 59.4111 74.478 58.795 73.2001C58.6104 72.8014 58.4534 72.3904 58.325 71.9701C58.1602 71.4234 58.0726 70.8562 58.065 70.2851C58.0615 69.8982 58.1035 69.5123 58.19 69.1351C58.2405 68.9198 58.3039 68.7078 58.38 68.5001L58.475 68.2451C58.6 67.9001 58.74 67.5651 58.885 67.2451C60.0531 64.6967 61.6687 62.3784 63.655 60.4001C64.5945 59.4398 65.5967 58.5428 66.655 57.7151C67.185 57.3051 67.72 56.9051 68.275 56.5301C68.555 56.3401 68.835 56.1501 69.125 55.9701L69.57 55.7001L70.07 55.4101C71.6997 54.5303 73.7327 55.0724 74.708 56.6467C75.6834 58.2211 75.2634 60.2827 73.75 61.3501L73.55 61.4601Z" fill="#FFB573"/>
<path id="Path_35" d="M73.61 53.5247C70.69 53.5247 67.49 54.7897 63.39 59.8747C63.39 62.9097 69.795 66.9447 69.795 66.9447C69.795 66.9447 80.295 53.4997 73.61 53.5247Z" fill="#263238"/>
<path id="Shape_3" fill-rule="evenodd" clip-rule="evenodd" d="M51.7601 173.695C51.8104 173.71 51.8626 173.719 51.9151 173.72C52.0619 173.711 52.1972 173.638 52.2851 173.52C52.391 173.396 52.44 173.232 52.4201 173.07C52.3521 172.264 50.9304 171.076 50.7892 170.958C50.785 170.954 50.782 170.952 50.7801 170.95C50.7328 170.92 50.6724 170.92 50.6251 170.95C50.5751 170.973 50.5451 171.025 50.5501 171.08C50.5851 171.94 51.1551 173.48 51.7601 173.695ZM51.8701 173.415C51.4701 173.29 51.0051 172.23 50.8701 171.415C51.3601 171.855 52.1001 172.62 52.1551 173.095C52.1671 173.182 52.1416 173.269 52.0851 173.335C52.0406 173.409 51.9516 173.442 51.8701 173.415Z" fill="#263238"/>
<path id="Shape_4" fill-rule="evenodd" clip-rule="evenodd" d="M50.61 171.195C51.2908 171.604 52.0616 171.841 52.855 171.885C53.0589 171.893 53.2608 171.841 53.435 171.735C53.5949 171.623 53.6671 171.423 53.615 171.235C53.5779 171.075 53.4742 170.938 53.33 170.86C52.7245 170.501 51.2647 170.812 50.7982 170.912C50.7177 170.929 50.6668 170.94 50.655 170.94C50.6006 170.954 50.5597 170.999 50.55 171.055C50.5419 171.109 50.5651 171.163 50.61 171.195ZM53.275 171.52C52.94 171.75 51.805 171.5 51.07 171.13C51.715 171 52.77 170.845 53.185 171.1C53.2645 171.139 53.3216 171.213 53.34 171.3C53.37 171.435 53.325 171.485 53.275 171.52Z" fill="#263238"/>
<path id="Path_36" d="M45.3701 170.745C46.8513 169.16 48.1065 167.378 49.1001 165.45C49.1001 165.45 53.7401 166.59 52.8301 167.95C51.1751 170.375 50.3701 175.36 52.5001 178.03C53.7151 179.555 51.7951 179.81 50.5001 179.155C48.5001 178.12 48.5651 177.73 47.5001 176.015C46.6001 174.55 46.2451 173.975 45.0001 173.345C44.0001 172.8 44.5001 171.78 45.3701 170.745Z" fill="#407BFF"/>
<path id="Path_37" d="M84.7201 83.6648C84.7201 83.6648 78.0001 116.465 73.0701 130.5C67.9001 145.21 53.6251 167.915 53.0701 168.89C51.0401 168.345 49.2301 167.635 48.0251 166.46C48.0251 166.46 54.7251 141.835 61.2551 125.86C63.7551 92.5098 69.2001 83.6898 69.2001 83.6898L84.7201 83.6648Z" fill="#263238"/>
<path id="Path_38" opacity="0.2" d="M74.4551 101.215C74.1501 107.56 73.9551 116.285 74.2401 126.905C76.2951 120.285 78.5301 111.31 80.4101 103.255C79.1551 101.58 77.2051 100.775 74.4551 101.215Z" fill="black"/>
<path id="Path_39" d="M74.8601 43.4453C75.5651 46.3003 76.2551 50.9453 75.1301 53.4453C75.1301 53.4453 79.3401 53.6353 84.7201 57.9453C87.2551 54.2253 84.3201 53.4953 84.3201 53.4953C82.0851 52.9953 82.1951 49.9953 82.2001 47.8703L74.8601 43.4453Z" fill="#FFB573"/>
<path id="Path_40" d="M73.8 54.7201C71.7 54.4901 73.15 50.5001 74.24 50.8901C77 51.8901 83.19 50.7801 85.105 51.8351C87.02 52.8901 86.535 55.0551 86.535 55.0551C86.535 55.0551 76.06 54.9701 73.8 54.7201Z" fill="#407BFF"/>
<path id="Path_41" opacity="0.7" d="M73.8 54.7201C71.7 54.4901 73.15 50.5001 74.24 50.8901C77 51.8901 83.19 50.7801 85.105 51.8351C87.02 52.8901 86.535 55.0551 86.535 55.0551C86.535 55.0551 76.06 54.9701 73.8 54.7201Z" fill="white"/>
<path id="Path_42" d="M86.05 38.4103C86.12 38.7903 86.375 39.0653 86.625 39.0203C86.875 38.9753 87.02 38.6303 86.955 38.2503C86.89 37.8703 86.63 37.5953 86.38 37.6403C86.13 37.6853 86 38.0303 86.05 38.4103Z" fill="#263238"/>
<path id="Path_43" d="M86.2751 37.6801L87.1451 37.2551C87.1451 37.2551 86.8001 38.0551 86.2751 37.6801Z" fill="#263238"/>
<path id="Path_44" d="M86.56 35.3599C86.5828 35.3055 86.5828 35.2442 86.56 35.1899C86.526 35.0691 86.4014 34.9979 86.28 35.0299C85.5682 35.2039 84.9838 35.7101 84.71 36.3899C84.6759 36.5095 84.7388 36.6354 84.855 36.6799C84.9751 36.7195 85.1046 36.6547 85.145 36.5349C85.3656 35.9972 85.8336 35.6001 86.4 35.4699C86.4664 35.4574 86.5245 35.4174 86.56 35.3599Z" fill="#263238"/>
<path id="Path_45" d="M86.5001 39.3398C86.9365 40.1827 87.4866 40.9617 88.1351 41.6548C87.7667 41.9819 87.2721 42.1284 86.7851 42.0548L86.5001 39.3398Z" fill="#ED893E"/>
<path id="Path_46" d="M73.0001 38.2148C74.1151 42.8548 74.5001 44.8398 77.2351 46.8348C81.3701 49.8348 86.7101 47.4648 86.9801 42.5948C87.2201 38.2048 85.3601 31.3598 80.5301 30.2898C75.7001 29.2198 71.8851 33.5748 73.0001 38.2148Z" fill="#FFB573"/>
<path id="Path_47" d="M82.0001 39.07C84.7301 35.46 86.5001 32.54 85.1651 29.345C84.0401 26.675 80.9251 27.455 80.4901 28.79C72.2101 28.085 69.2351 31.085 70.9451 36.045C72.0351 39.21 67.8051 37.545 68.8351 41.585C69.6201 44.665 66.8351 45.84 68.2501 47.61C70.2901 50.165 74.5001 46.835 79.3051 48.75C83.2251 50.32 89.1351 47.945 82.0001 39.07Z" fill="#263238"/>
<path id="Path_48" d="M81.5452 39.7999C82.0014 40.5496 82.7566 41.0683 83.6202 41.2249C84.7052 41.3849 85.0802 40.1649 84.6202 39.0349C84.2202 38.0349 83.1752 36.7099 82.1502 37.0749C81.1252 37.4399 80.9302 38.8249 81.5452 39.7999Z" fill="#FFB573"/>
<path id="Shape_5" fill-rule="evenodd" clip-rule="evenodd" d="M80.7951 175.745C81.4654 176.314 82.2876 176.674 83.1601 176.78C83.279 176.789 83.3984 176.772 83.5101 176.73C83.6994 176.642 83.8029 176.435 83.7601 176.23C83.7506 176.065 83.6681 175.913 83.5351 175.815C82.9377 175.335 81.3082 175.466 80.9449 175.495C80.9068 175.498 80.8827 175.5 80.8751 175.5C80.819 175.507 80.7722 175.546 80.7551 175.6C80.7403 175.652 80.7557 175.708 80.7951 175.745ZM83.3851 176.46C83.0201 176.64 81.9351 176.225 81.2551 175.75C81.9151 175.71 83.0001 175.72 83.3551 176.03C83.4277 176.081 83.4736 176.162 83.4801 176.25C83.4901 176.385 83.4401 176.43 83.3851 176.46Z" fill="#263238"/>
<path id="Shape_6" fill-rule="evenodd" clip-rule="evenodd" d="M80.7751 175.725C80.8029 175.761 80.8449 175.783 80.8901 175.785L80.9251 175.795C81.7601 175.62 83.1901 174.805 83.3001 174.17C83.3427 173.968 83.2442 173.763 83.0601 173.67C82.9206 173.58 82.7487 173.557 82.5901 173.605C81.7808 173.808 80.8285 175.476 80.7761 175.568L80.7751 175.57C80.7452 175.617 80.7452 175.678 80.7751 175.725ZM82.6551 173.865H82.7551C82.8064 173.86 82.858 173.869 82.9051 173.89C83.0201 173.965 83.0201 174.035 83.0201 174.095C82.9501 174.495 81.9751 175.125 81.1951 175.395C81.5501 174.84 82.1851 173.985 82.6551 173.865Z" fill="#263238"/>
<path id="Path_49" d="M86.8751 178.535C82.8251 178.22 80.0951 175.44 80.3751 172.495C80.5301 170.87 75.3401 170.725 75.3401 170.725C76.1601 175.76 75.1301 176.48 74.7901 177.78C74.4501 179.08 74.5351 180.52 75.6101 180.545C76.8951 180.58 77.4951 180.335 79.1101 180.395C80.9801 180.47 83.0001 180.54 86.3251 180.545C87.6401 180.55 88.6751 178.675 86.8751 178.535Z" fill="#407BFF"/>
<path id="Path_50" d="M91.72 83.6648C91.72 83.6648 91.365 108.51 89.405 124.835C87.445 141.16 80.705 173.18 80.705 173.18C78.9323 173.598 77.0846 173.581 75.32 173.13C75.32 173.13 73.19 148.13 76.765 123.945C74.14 98.6098 72.495 83.6648 72.495 83.6648L91.72 83.6648Z" fill="#263238"/>
<path id="Path_51" d="M92.6401 60.6853C92.5551 62.6053 95.5851 67.0453 91.8451 69.6153C92.5451 71.1803 93.1351 81.7753 91.7201 83.6653C89.6551 85.1653 78.4801 84.8903 69.2201 83.6653C68.8251 79.8353 70.9351 71.9003 68.3501 59.5303C68.0638 58.1606 68.3723 56.7338 69.1991 55.6048C70.0258 54.4758 71.2929 53.7508 72.6851 53.6103C73.4651 53.5353 74.2901 53.4653 75.1351 53.4253C78.0865 53.2176 81.0488 53.2176 84.0001 53.4253C84.9551 53.5153 85.9451 53.6353 86.8901 53.7703C90.3013 54.2511 92.7897 57.2437 92.6401 60.6853Z" fill="#407BFF"/>
<g id="Group" opacity="0.3">
<path id="Path_52" d="M68.58 58.8605L68.375 58.9755C68.3246 58.9907 68.2884 59.0347 68.2832 59.087C68.278 59.1394 68.3049 59.1897 68.3512 59.2145C68.3976 59.2393 68.4543 59.2338 68.495 59.2005L68.725 59.0755C69.725 59.4405 70.79 60.2705 71.405 60.3555C70.405 59.4805 69.7 58.8555 68.905 58.9655C69.14 58.8255 69.37 58.6855 69.6 58.5355C70.51 58.8755 71.5 59.6355 72.065 59.7105C71.145 58.9005 70.485 58.3205 69.76 58.4305L70.26 58.0855L70.54 57.8805C71.365 58.2355 72.235 58.9905 72.755 59.0955C71.925 58.2755 71.34 57.6955 70.64 57.8105C70.86 57.6455 71.075 57.4805 71.285 57.3105C72.04 57.6405 72.84 58.3105 73.315 58.4255C72.555 57.6705 72.02 57.1405 71.375 57.2405L71.915 56.7905L72.045 56.6805C72.71 57.0305 73.37 57.7205 73.805 57.8455C73.175 57.0905 72.735 56.5655 72.075 56.6505C72.245 56.5055 72.415 56.3555 72.575 56.2005C73.19 56.5255 73.795 57.1605 74.195 57.2755C73.615 56.5805 73.195 56.1005 72.605 56.1755L73.135 55.6755C73.67 56.0055 74.18 56.6055 74.535 56.7305C74.035 56.0705 73.715 55.6155 73.17 55.6405C73.265 55.5455 73.36 55.4555 73.45 55.3605L73.61 55.1955C74.11 55.5005 74.575 56.0555 74.9 56.1705C74.46 55.5655 74.145 55.1405 73.645 55.1705C73.79 55.0205 73.935 54.8655 74.075 54.7105C74.525 54.9555 74.95 55.4205 75.25 55.5105C74.855 55.0105 74.575 54.6405 74.095 54.6905L74.175 54.6055L74.475 54.2555C74.8188 54.5155 75.176 54.7575 75.545 54.9805C75.185 54.5155 74.93 54.1905 74.5 54.2255C74.615 54.0855 74.73 53.9355 74.83 53.7855C74.8386 53.7779 74.8435 53.7669 74.8435 53.7555C74.8435 53.744 74.8386 53.7331 74.83 53.7255C74.8138 53.713 74.7912 53.713 74.775 53.7255C74.675 53.8655 74.57 54.0005 74.46 54.1305C74.4831 53.8951 74.4171 53.6596 74.275 53.4705H74.105C74.2116 53.7113 74.3035 53.9584 74.38 54.2105C74.29 54.3155 74.195 54.4155 74.105 54.5155L74.04 54.5855C74.135 54.2205 73.945 53.9055 73.655 53.5055H73.56C73.64 53.8155 73.875 54.2405 73.97 54.6505L73.57 55.0555C73.7 54.5955 73.38 54.1905 72.935 53.6155C72.935 53.9605 73.355 54.5555 73.515 55.1155L73.375 55.2555L73.1 55.5155C73.225 55.0155 72.885 54.5805 72.4 53.9655C72.4 54.3355 72.855 54.9655 73.03 55.5805L72.53 56.0155C72.635 55.5155 72.3 55.0155 71.845 54.3655C71.845 54.7605 72.25 55.4605 72.415 56.1155L72.02 56.4505C72.135 55.9105 71.775 55.3805 71.28 54.6555C71.28 55.0855 71.72 55.8455 71.895 56.5555L71.79 56.6405C71.61 56.7905 71.425 56.9355 71.24 57.0805C71.385 56.5255 71.04 55.9005 70.565 55.0505C70.53 55.5105 70.94 56.4105 71.065 57.2055C70.855 57.3655 70.645 57.5155 70.43 57.6705C70.67 57.0405 70.28 56.3355 69.74 55.3555C69.695 55.8555 70.165 56.8855 70.3 57.7605L70.11 57.8905L69.515 58.2755C69.79 57.6405 69.455 56.8905 68.965 55.8705C68.94 55.9055 68.915 55.9405 68.895 55.9755C68.93 56.5755 69.28 57.5355 69.355 58.3705C69.135 58.5105 68.905 58.6405 68.68 58.7655C68.94 58.2355 68.79 57.6355 68.47 56.8855C68.3965 57.0978 68.338 57.315 68.295 57.5355C68.424 57.9691 68.5193 58.4121 68.58 58.8605Z" fill="#263238"/>
<path id="Path_53" d="M81.355 55.3955C80.6 54.8955 79.855 54.0305 79.355 53.8455C80.04 54.7855 80.53 55.4505 81.24 55.4505C80.995 55.5755 80.74 55.7055 80.52 55.8405C79.83 55.3955 79.15 54.5855 78.695 54.4155C79.325 55.2805 79.775 55.8905 80.425 55.9155C80.22 56.0305 80.02 56.1505 79.82 56.2705L79.675 56.3605C79.07 55.9105 78.53 55.1255 78.12 54.9305C78.62 55.7805 78.975 56.3655 79.62 56.3855C79.425 56.5005 79.235 56.6255 79.045 56.7505C78.495 56.3355 77.995 55.6105 77.62 55.4355C78.08 56.2105 78.4 56.7505 79.015 56.7705L78.415 57.1755C77.94 56.7655 77.53 56.0905 77.2 55.9105C77.57 56.6355 77.83 57.1455 78.375 57.2055L78.05 57.4355L77.87 57.5705C77.43 57.1955 77.05 56.5705 76.745 56.4055C77.09 57.0755 77.33 57.5405 77.83 57.6005C77.66 57.7255 77.495 57.8505 77.33 57.9805C76.92 57.6705 76.575 57.1455 76.29 57.0105C76.605 57.5805 76.82 57.9755 77.29 58.0105L77.2 58.0805L76.845 58.3805C76.475 58.0905 76.16 57.6155 75.9 57.4905C76.185 57.9905 76.4 58.3705 76.815 58.4055C76.68 58.5255 76.545 58.6555 76.415 58.7905C76.4065 58.7972 76.4016 58.8073 76.4016 58.818C76.4016 58.8288 76.4065 58.8389 76.415 58.8455C76.4304 58.8601 76.4545 58.8601 76.47 58.8455C76.5876 58.7212 76.7128 58.6043 76.845 58.4955C76.72 58.8355 76.9 59.1805 77.14 59.6505C77.0988 59.2365 77.0303 58.8256 76.935 58.4205C77.04 58.3305 77.145 58.2505 77.255 58.1655L77.33 58.1055C77.16 58.4905 77.355 58.8755 77.63 59.4155C77.5811 58.9566 77.506 58.5009 77.405 58.0505C77.56 57.9305 77.71 57.8205 77.87 57.7105C77.67 58.1405 77.92 58.5955 78.27 59.2105C78.305 58.8705 78 58.2105 77.935 57.6405L78.095 57.5255L78.405 57.3155C78.205 57.7805 78.47 58.2705 78.85 58.9555C78.885 58.5855 78.56 57.8805 78.485 57.2605L79.03 56.9105C78.845 57.3855 79.095 57.9105 79.44 58.6455C79.5 58.2555 79.215 57.5005 79.155 56.8305L79.6 56.5605C79.4 57.0605 79.67 57.6555 80.05 58.4505C80.115 58.0255 79.8 57.2005 79.74 56.4755L79.855 56.4105L80.47 56.0605C80.24 56.5855 80.47 57.2555 80.81 58.1755C80.92 57.7255 80.66 56.7705 80.65 55.9655C80.885 55.8405 81.115 55.7205 81.355 55.6055C81.015 56.1905 81.285 56.9455 81.67 58.0005C81.79 57.5005 81.49 56.4255 81.495 55.5405L81.7 55.4405L82.355 55.1505C81.965 55.7605 82.21 56.6005 82.56 57.7655C82.72 57.2255 82.46 56.0455 82.525 55.0805C82.765 54.9805 83.025 54.8905 83.255 54.8005C82.785 55.4655 83.055 56.3905 83.44 57.6805C83.62 57.0955 83.33 55.7955 83.405 54.7505L83.63 54.6705C83.6633 54.6604 83.6908 54.6368 83.706 54.6055C83.7212 54.5742 83.7226 54.538 83.71 54.5055C83.6843 54.4399 83.6124 54.405 83.545 54.4255L83.3 54.5155C82.721 54.1467 82.1665 53.7409 81.64 53.3005H81.24C81.89 54.0755 82.425 54.5955 83.09 54.6055C82.835 54.7005 82.59 54.8105 82.335 54.9205C81.49 54.4205 80.635 53.5355 80.09 53.3655C80.87 54.3155 81.43 54.9905 82.165 54.9955L81.605 55.2555L81.355 55.3955Z" fill="#263238"/>
<path id="Path_54" d="M75.11 64.7458C74.56 64.1458 74.175 63.7458 73.635 63.8108L73.885 63.5058L74.025 63.3258C74.525 63.5708 75.075 64.0708 75.415 64.1458C74.915 63.5958 74.55 63.2058 74.05 63.2858C74.18 63.1208 74.305 62.9558 74.43 62.7858C74.905 62.9758 75.38 63.3908 75.69 63.4458C75.235 62.9808 74.92 62.6558 74.445 62.7608C74.4711 62.7313 74.4945 62.6995 74.515 62.6658C74.605 62.5408 74.69 62.4158 74.775 62.2858C75.1474 62.5076 75.5313 62.7096 75.925 62.8908C75.51 62.4658 75.225 62.1708 74.8 62.2558C74.9 62.1008 74.995 61.9408 75.08 61.7558C75.0896 61.7351 75.0807 61.7105 75.06 61.7008C75.0393 61.6912 75.0146 61.7001 75.005 61.7208C74.9245 61.8716 74.8343 62.0169 74.735 62.1558C74.765 61.7958 74.5 61.5108 74.14 61.1208C74.2915 61.5104 74.4685 61.8896 74.67 62.2558L74.43 62.5858L74.37 62.6608C74.435 62.2458 74.14 61.9258 73.735 61.4808C73.9023 61.9123 74.096 62.3331 74.315 62.7408L73.96 63.1908C74.035 62.7158 73.675 62.3508 73.165 61.8258C73.225 62.1658 73.665 62.7158 73.91 63.2508L73.785 63.4058L73.54 63.6908C73.61 63.1908 73.225 62.7908 72.675 62.2308C72.74 62.5958 73.24 63.1908 73.48 63.7658L73.05 64.2658C73.1 63.7658 72.715 63.3108 72.185 62.7008C72.235 63.0958 72.715 63.7458 72.95 64.3758L72.595 64.7558C72.65 64.2058 72.23 63.7208 71.655 63.0558C71.705 63.4808 72.225 64.1908 72.48 64.8708L72.385 64.9708C72.225 65.1408 72.055 65.3059 71.885 65.4708C71.97 64.9058 71.56 64.3258 70.995 63.5308C70.995 63.9908 71.495 64.8408 71.74 65.6158C71.55 65.7958 71.355 65.9758 71.16 66.1458C71.33 65.4958 70.865 64.8408 70.215 63.9258C70.215 64.4258 70.81 65.3958 71.04 66.2508L70.865 66.4008C70.685 66.5559 70.5 66.7058 70.315 66.8558C70.53 66.1608 70.065 65.4208 69.42 64.3908C69.42 64.9508 69.975 66.0208 70.17 66.9658C69.9666 67.1258 69.7566 67.2808 69.54 67.4309C69.6739 66.9564 69.6051 66.4477 69.35 66.0258C69.41 66.6208 69.46 67.2009 69.5 67.7709L69.57 67.7208C70.595 67.9758 71.755 68.6758 72.375 68.6908C71.295 67.9308 70.515 67.3908 69.75 67.5908C69.97 67.4258 70.185 67.2558 70.395 67.0908C71.34 67.3258 72.395 67.9708 72.975 67.9858C71.975 67.2808 71.25 66.7758 70.54 66.9858C70.7 66.8508 70.855 66.7208 71.01 66.5808L71.265 66.3458C72.125 66.6108 73.075 67.2659 73.6 67.3059C72.69 66.5858 72.04 66.0759 71.355 66.2659C71.555 66.0809 71.75 65.8909 71.945 65.6958C72.73 65.9408 73.605 66.5408 74.085 66.5808C73.245 65.9158 72.65 65.4458 72.02 65.6208C72.185 65.4508 72.35 65.2858 72.52 65.1208L72.635 64.9958C73.335 65.2708 74.07 65.8808 74.515 65.9608C73.805 65.2808 73.31 64.8058 72.665 64.9608C72.815 64.7958 72.97 64.6258 73.115 64.4608C73.76 64.7158 74.435 65.2758 74.845 65.3458C74.195 64.7208 73.74 64.2908 73.145 64.4308C73.305 64.2508 73.46 64.0658 73.61 63.8808C74.17 64.1208 74.745 64.6608 75.11 64.7458Z" fill="#263238"/>
<path id="Path_55" d="M83.815 64.3809C83.455 64.5409 82.97 65.1859 82.435 65.5959L81.97 65.3659C82.515 65.2609 82.855 64.7209 83.325 63.9759C82.93 64.1459 82.405 64.8509 81.825 65.2959L81.705 65.2309C81.495 65.1259 81.29 65.0109 81.085 64.9009C81.65 64.8159 82.085 64.2509 82.68 63.4759C82.24 63.6259 81.58 64.3609 80.905 64.8009C80.675 64.6709 80.45 64.5409 80.225 64.4009C80.895 64.3759 81.39 63.7359 82.075 62.8459C81.575 63.0159 80.84 63.8459 80.075 64.3159L79.88 64.1959L79.29 63.8009C80.01 63.8009 80.585 63.1459 81.38 62.2259C80.84 62.3759 79.985 63.2259 79.14 63.6959C78.9233 63.5459 78.7133 63.3909 78.51 63.2309C79.32 63.2709 79.955 62.5459 80.84 61.5259C80.245 61.6859 79.305 62.6309 78.38 63.1309L78.195 62.9809C78.143 62.932 78.062 62.932 78.01 62.9809C77.9618 63.0312 77.9618 63.1106 78.01 63.1609L78.215 63.3209C78.275 64.3759 77.94 65.6909 78.105 66.2909C78.515 65.0309 78.81 64.1259 78.395 63.4559C78.615 63.6159 78.84 63.7709 79.065 63.9209C79.115 64.9209 78.81 66.1009 78.965 66.6509C79.345 65.4859 79.615 64.6509 79.22 64.0259L79.72 64.3559L80.02 64.5359C80.02 65.4309 79.67 66.5359 79.78 67.0359C80.205 65.9559 80.505 65.1859 80.125 64.5909C80.36 64.7259 80.625 64.8559 80.84 64.9859C80.84 65.8109 80.52 66.8159 80.62 67.2909C81.01 66.2909 81.285 65.5859 80.935 65.0359L81.565 65.3559L81.715 65.4309C81.66 66.1759 81.29 67.0609 81.345 67.5059C81.79 66.6309 82.095 66.0059 81.755 65.4459L82.37 65.7309C82.315 66.4209 81.975 67.2309 82.03 67.6459C82.435 66.8359 82.715 66.2759 82.405 65.7509C82.625 65.8509 82.845 65.9459 83.07 66.0359C82.98 66.6559 82.63 67.3659 82.655 67.7409C83.07 67.0359 83.355 66.5459 83.115 66.0559L83.485 66.2059L83.695 66.2859C83.615 66.8609 83.295 67.5109 83.315 67.8559C83.695 67.2109 83.96 66.7559 83.74 66.3009C83.935 66.3759 84.13 66.4509 84.33 66.5159C84.29 67.0159 84.03 67.6009 84.07 67.9159C84.38 67.3459 84.57 66.9459 84.36 66.5259L84.47 66.5659C84.615 66.6109 84.76 66.6609 84.91 66.7009C84.808 67.1214 84.7279 67.547 84.67 67.9759C84.95 67.4759 85.17 67.0959 84.945 66.7109C85.1218 66.7665 85.3022 66.81 85.485 66.8409C85.5055 66.8441 85.5251 66.831 85.53 66.8109C85.5336 66.7891 85.5209 66.7679 85.5 66.7609C85.33 66.7259 85.165 66.6809 85 66.6309C85.35 66.5509 85.545 66.2209 85.81 65.7609C85.56 65.8709 85.245 66.3159 84.885 66.5959L84.5 66.4659L84.41 66.4309C84.825 66.3709 85.045 65.9959 85.35 65.4759C85.065 65.6009 84.72 66.0959 84.315 66.3959C84.14 66.3309 83.96 66.2659 83.785 66.1909C84.255 66.1259 84.505 65.6909 84.85 65.0359C84.545 65.1909 84.155 65.7959 83.71 66.1609L83.525 66.0859L83.18 65.9359C83.68 65.8609 83.95 65.3709 84.325 64.6859C83.995 64.8509 83.575 65.5009 83.095 65.9009C82.895 65.8159 82.7 65.7259 82.505 65.6309C83.07 65.5609 83.385 65.0659 83.815 64.3809Z" fill="#263238"/>
<path id="Path_56" d="M80.93 71.0457C81.3139 71.2425 81.7078 71.4194 82.11 71.5757C81.675 71.1807 81.365 70.9057 80.95 71.0107C81.04 70.8507 81.125 70.6907 81.2 70.5107C81.2062 70.4973 81.2049 70.4816 81.1964 70.4694C81.1879 70.4573 81.1736 70.4507 81.1589 70.4519C81.1442 70.4532 81.1312 70.4623 81.125 70.4757C81.05 70.6307 80.97 70.7807 80.885 70.9307C80.885 70.5707 80.605 70.3007 80.225 69.9307C80.3991 70.3083 80.5979 70.6741 80.82 71.0257L80.605 71.3707L80.55 71.4507C80.585 71.0307 80.275 70.7307 79.84 70.3157C80.0351 70.7328 80.2538 71.1384 80.495 71.5307L80.175 72.0057C80.22 71.5307 79.835 71.1807 79.295 70.6957C79.375 71.0307 79.875 71.5507 80.125 72.0707L80.01 72.2307C79.94 72.3307 79.86 72.4307 79.785 72.5307C79.825 72.0307 79.415 71.6507 78.83 71.1307C78.92 71.4907 79.455 72.0507 79.73 72.6307C79.6 72.8057 79.465 72.9757 79.33 73.1307C79.33 72.6307 78.94 72.2007 78.37 71.6307C78.445 72.0157 78.965 72.6307 79.235 73.2507C79.1283 73.3873 79.0183 73.5223 78.905 73.6557C78.905 73.1007 78.48 72.6557 77.865 72.0157C77.94 72.4357 78.505 73.1107 78.805 73.7757L78.715 73.8807C78.56 74.0607 78.405 74.2357 78.245 74.4057C78.295 73.8407 77.845 73.2807 77.245 72.5257C77.285 72.9857 77.85 73.8007 78.12 74.5607C77.94 74.7507 77.76 74.9407 77.575 75.1257C77.7 74.4707 77.195 73.8407 76.49 72.9707C76.54 73.4707 77.18 74.4007 77.46 75.2407L77.3 75.4007L76.775 75.9007C76.945 75.1957 76.435 74.4857 75.73 73.5007C75.73 74.0607 76.385 75.0957 76.64 76.0007C76.445 76.1757 76.245 76.3457 76.04 76.5007C76.265 75.7207 75.71 74.9357 74.92 73.8407C74.92 74.4557 75.64 75.5857 75.92 76.6007L75.73 76.7507C75.6734 76.7948 75.6633 76.8766 75.7075 76.9332C75.7517 76.9898 75.8334 76.9998 75.89 76.9557L76.09 76.7907C77.13 76.9757 78.335 77.6057 78.955 77.5807C77.825 76.8907 77.015 76.3957 76.265 76.6457C76.47 76.4707 76.675 76.2857 76.875 76.1007C77.83 76.2757 78.935 76.8507 79.505 76.8307C78.46 76.1907 77.705 75.7357 77.005 75.9757C77.155 75.8307 77.305 75.6907 77.45 75.5407L77.695 75.2907C78.565 75.5007 79.555 76.0907 80.08 76.1007C79.125 75.4407 78.45 74.9707 77.775 75.2057C77.965 75.0057 78.145 74.8057 78.325 74.6007C79.13 74.7907 80.035 75.3357 80.52 75.3457C79.64 74.7357 79.02 74.3057 78.4 74.5157C78.555 74.3407 78.705 74.1607 78.855 73.9807L78.96 73.8457C79.68 74.0757 80.46 74.6407 80.9 74.6907C80.145 74.0557 79.625 73.6157 78.99 73.8157L79.41 73.2857C80.07 73.4957 80.775 74.0107 81.19 74.0557C80.5 73.4757 80.02 73.0557 79.435 73.2507C79.58 73.0607 79.725 72.8657 79.865 72.6707C80.45 72.9007 81.06 73.4057 81.43 73.4657C80.84 72.9057 80.43 72.5107 79.895 72.6307C79.975 72.5257 80.05 72.4157 80.125 72.3107C80.2 72.2057 80.21 72.1807 80.255 72.1207C80.79 72.3307 81.35 72.7957 81.695 72.8507C81.15 72.3507 80.77 71.9707 80.28 72.0807C80.4 71.9073 80.515 71.7323 80.625 71.5557C81.125 71.7157 81.625 72.1007 81.925 72.1357C81.425 71.7007 81.105 71.3957 80.64 71.5307L80.705 71.4307L80.93 71.0457Z" fill="#263238"/>
<path id="Path_57" d="M83.96 76.6256C84.0666 76.489 84.1766 76.359 84.29 76.2356C84.215 76.5856 84.43 76.9056 84.73 77.3456C84.6349 76.9391 84.5164 76.5385 84.375 76.1456L84.66 75.8556L84.725 75.7856C84.605 76.1906 84.845 76.5506 85.185 77.0456C85.0803 76.5969 84.9501 76.1545 84.795 75.7206L85.21 75.3256C85.07 75.7806 85.37 76.2006 85.8 76.7906C85.8 76.4456 85.41 75.8306 85.27 75.2906L85.42 75.1606L85.7 74.9106C85.555 75.4106 85.88 75.8506 86.34 76.4856C86.34 76.1106 85.925 75.4506 85.77 74.8506C85.935 74.7056 86.1 74.5706 86.27 74.4306C86.145 74.9306 86.46 75.4306 86.89 76.1056C86.89 75.7106 86.525 74.9906 86.39 74.3356L86.8 74.0156C86.66 74.5506 87.005 75.0906 87.475 75.8356C87.475 75.4056 87.075 74.6256 86.925 73.9156L87.035 73.8306L87.6 73.4156C87.435 73.9606 87.755 74.5956 88.2 75.4656C88.25 75.0056 87.875 74.0906 87.77 73.2956C87.985 73.1456 88.2 72.9956 88.42 72.8506C88.155 73.4706 88.52 74.1906 89.03 75.1906C89.09 74.6906 88.655 73.6456 88.53 72.7656L88.72 72.6456C88.925 72.5206 89.13 72.3956 89.335 72.2806C89.02 72.9306 89.37 73.7306 89.835 74.8456C89.93 74.2906 89.53 73.1506 89.475 72.1906C89.7 72.0606 89.93 71.9356 90.165 71.8206C89.78 72.5356 90.165 73.4206 90.705 74.6556C90.81 74.0506 90.365 72.7956 90.31 71.7506L90.52 71.6456C90.551 71.6316 90.5749 71.6055 90.5862 71.5734C90.5975 71.5413 90.5953 71.506 90.58 71.4756C90.5649 71.4443 90.5379 71.4204 90.505 71.4091C90.4721 71.3978 90.4361 71.4002 90.405 71.4156L90.175 71.5356C89.2 71.1356 88.15 70.2656 87.54 70.1606C88.5 71.0706 89.19 71.7256 89.975 71.6606C89.735 71.7856 89.5 71.9256 89.265 72.0606C88.365 71.6906 87.405 70.8956 86.845 70.8006C87.735 71.6456 88.375 72.2456 89.105 72.1606L88.58 72.4906L88.29 72.6856C87.48 72.2956 86.635 71.5106 86.125 71.3906C86.92 72.2406 87.485 72.8406 88.19 72.7506C87.965 72.9056 87.745 73.0656 87.525 73.2506C86.78 72.8956 86.025 72.1756 85.525 72.0656C86.26 72.8456 86.78 73.3956 87.425 73.3206C87.24 73.4606 87.05 73.6006 86.87 73.7456L86.735 73.8556C86.085 73.4806 85.45 72.7656 85.02 72.6256C85.62 73.4056 86.02 73.9406 86.705 73.8806L86.18 74.3106C85.58 73.9706 84.995 73.3106 84.6 73.1806C85.155 73.8956 85.54 74.3906 86.15 74.3406C85.965 74.4956 85.785 74.6506 85.605 74.8406C85.105 74.4906 84.605 73.8706 84.245 73.7356C84.7 74.4106 85.025 74.8806 85.57 74.8756L85.275 75.1406L85.11 75.3006C84.61 74.9756 84.18 74.4056 83.855 74.3006C84.28 74.9206 84.575 75.3556 85.08 75.3506C84.925 75.4956 84.775 75.6406 84.63 75.7906C84.19 75.5356 83.78 75.0556 83.48 74.9556C83.86 75.4556 84.125 75.8456 84.61 75.8156L84.53 75.8956C84.425 76.0056 84.315 76.1206 84.215 76.2356C83.81 75.9956 83.44 75.5606 83.17 75.4706C83.515 75.9456 83.755 76.2806 84.17 76.2656C84.0453 76.4005 83.9284 76.5424 83.82 76.6906C83.8114 76.6982 83.8064 76.7092 83.8064 76.7206C83.8064 76.7321 83.8114 76.7431 83.82 76.7506C83.8266 76.7591 83.8368 76.764 83.8475 76.764C83.8582 76.764 83.8683 76.7591 83.875 76.7506L83.96 76.6256Z" fill="#263238"/>
<path id="Path_58" d="M78.1 83.7505C78.3 83.5638 78.495 83.3738 78.685 83.1805C79.475 83.4255 80.345 84.0255 80.83 84.0655C79.99 83.4005 79.395 82.9305 78.765 83.1005C78.93 82.9355 79.095 82.7655 79.265 82.6005L79.38 82.4755C80.08 82.7505 80.81 83.3605 81.26 83.4405C80.55 82.7555 80.055 82.2855 79.405 82.4405C79.56 82.2755 79.71 82.1055 79.86 81.9405C80.505 82.1955 81.18 82.7555 81.59 82.8255C80.935 82.2005 80.48 81.7655 79.89 81.9105L80.355 81.3605C80.925 81.6255 81.5 82.1655 81.855 82.2505C81.305 81.6555 80.915 81.2505 80.355 81.3205L80.605 81.0155L80.745 80.8355C81.27 81.0805 81.8 81.5755 82.14 81.6555C81.64 81.1005 81.275 80.7155 80.775 80.7955C80.905 80.6305 81.03 80.4655 81.15 80.2955C81.65 80.4855 82.1 80.9005 82.41 80.9555C81.96 80.4905 81.645 80.1655 81.17 80.2705L81.24 80.1755C81.325 80.0505 81.415 79.9255 81.5 79.7955C81.8713 80.0148 82.2534 80.215 82.645 80.3955C82.235 79.9755 81.945 79.6805 81.52 79.7605C81.6221 79.6075 81.7156 79.4489 81.8 79.2855C81.8071 79.273 81.8071 79.2576 81.7998 79.2452C81.7926 79.2328 81.7792 79.2251 81.7648 79.2252C81.7504 79.2253 81.7371 79.233 81.73 79.2455C81.6467 79.3955 81.5567 79.5405 81.46 79.6805C81.46 79.3205 81.225 79.0355 80.865 78.6455C81.0095 79.0332 81.1764 79.4122 81.365 79.7805L81.13 80.1105L81.07 80.1855C81.135 79.7705 80.84 79.4505 80.43 79.0055C80.6008 79.4339 80.7944 79.8528 81.01 80.2605C80.895 80.4155 80.78 80.5655 80.66 80.7105C80.735 80.2405 80.375 79.8705 79.865 79.3505C79.925 79.6905 80.39 80.2405 80.61 80.7755C80.565 80.8255 80.525 80.8805 80.485 80.9305L80.24 81.2155C80.31 80.7155 79.925 80.3155 79.375 79.7555C79.44 80.1205 79.94 80.7105 80.18 81.2905L79.75 81.7905C79.8 81.2905 79.415 80.8355 78.885 80.2255C78.93 80.6155 79.385 81.2705 79.645 81.9005L79.29 82.2805C79.345 81.7255 78.93 81.2455 78.355 80.5805C78.405 81.0055 78.925 81.7155 79.18 82.3955L79.085 82.4955L78.585 82.9955C78.67 82.4305 78.255 81.8455 77.69 81.0555C77.69 81.5155 78.215 82.3655 78.435 83.1405L77.86 83.6705C78.025 83.0205 77.565 82.3655 76.91 81.4505C76.91 81.9505 77.51 82.9205 77.74 83.7755L77.565 83.9255C77.385 84.0805 77.2 84.2305 77.015 84.3755C77.23 83.6855 76.765 82.9455 76.12 81.9155C76.12 82.4705 76.66 83.5205 76.86 84.4555H77.245C77.4 84.3255 77.555 84.1955 77.705 84.0605C77.855 83.9255 77.88 83.9055 77.965 83.8255C78.5562 84.0483 79.1338 84.3054 79.695 84.5955H80.075C79.325 84.0005 78.725 83.5755 78.1 83.7505Z" fill="#263238"/>
<path id="Path_59" d="M75.335 82.2107C75.335 82.7107 75.71 83.5307 75.975 84.3657L76.355 84.3957C76.31 83.7757 75.885 83.0907 75.335 82.2107Z" fill="#263238"/>
<path id="Path_60" d="M77.32 84.4655L78.075 84.5105C77.8327 84.4242 77.5708 84.4085 77.32 84.4655Z" fill="#263238"/>
<path id="Path_61" d="M91.87 83.4155C91.8854 83.3865 91.8987 83.3564 91.91 83.3255L91.73 83.2605L91.64 83.2305C91.7809 83.207 91.9125 83.1446 92.02 83.0505C92.065 82.9205 92.11 82.7805 92.15 82.6255C91.9631 82.8306 91.7608 83.0212 91.545 83.1955L91 83.0005C91.47 82.9305 91.72 82.5005 92.065 81.8405C91.76 81.9955 91.37 82.6005 90.925 82.9705L90.74 82.8955L90.395 82.7455C90.895 82.6655 91.165 82.1805 91.54 81.4905C91.21 81.6605 90.79 82.3105 90.31 82.7105L89.72 82.4405C90.22 82.3355 90.53 81.8405 90.96 81.1555C90.6 81.3155 90.115 81.9655 89.58 82.3755L89.115 82.1455C89.66 82.0355 90 81.4955 90.47 80.7505C90.075 80.9255 89.55 81.6305 88.97 82.0705L88.85 82.0105L88.23 81.6755C88.795 81.5905 89.23 81.0255 89.825 80.2555C89.385 80.4055 88.725 81.1405 88.05 81.5755C87.82 81.4505 87.595 81.3155 87.37 81.1805C88.04 81.1505 88.535 80.5155 89.22 79.6255C88.72 79.7905 87.985 80.6255 87.22 81.0955L87.025 80.9755C86.825 80.8455 86.63 80.7155 86.435 80.5755C87.155 80.5755 87.73 79.9205 88.525 79.0055C87.985 79.1555 87.13 80.0055 86.285 80.4755L85.65 80.0055C86.465 80.0455 87.1 79.3205 87.985 78.3005C87.39 78.4655 86.45 79.4055 85.525 79.9055L85.34 79.7605C85.2834 79.7164 85.2017 79.7264 85.1575 79.783C85.1133 79.8396 85.1234 79.9214 85.18 79.9655L85.385 80.1205C85.445 81.1755 85.11 82.4955 85.275 83.0905C85.685 81.8355 85.98 80.9305 85.565 80.2555C85.785 80.4205 86.01 80.5755 86.235 80.7255C86.285 81.6955 85.98 82.9055 86.135 83.4555C86.515 82.2855 86.785 81.4555 86.39 80.8305C86.565 80.9405 86.735 81.0555 86.89 81.1605L87.19 81.3405C87.19 82.2355 86.84 83.3405 86.95 83.8405C87.375 82.7555 87.675 81.9905 87.295 81.3905C87.53 81.5305 87.795 81.6605 88.01 81.7855C88.01 82.6105 87.69 83.6205 87.79 84.0905C88.18 83.0905 88.455 82.3905 88.105 81.8405L88.735 82.1555L88.885 82.2305C88.83 82.9805 88.46 83.8605 88.515 84.3105C88.96 83.4305 89.265 82.8105 88.925 82.2505L89.54 82.5355C89.49 83.2055 89.17 83.9805 89.195 84.4055H89.22C89.615 83.6255 89.88 83.0755 89.575 82.5555L90.24 82.8455C90.165 83.3455 89.925 83.9055 89.85 84.3005L89.985 84.2755C90.305 83.7155 90.485 83.2755 90.285 82.8655L90.65 83.0105L90.865 83.0955C90.7959 83.4483 90.7023 83.7958 90.585 84.1355L90.815 84.0655C91.0012 83.782 91.0367 83.4252 90.91 83.1105L91.5 83.3255C91.4825 83.4946 91.4507 83.6619 91.405 83.8255C91.4813 83.7874 91.5548 83.744 91.625 83.6955C91.6273 83.5675 91.5944 83.4412 91.53 83.3305L91.64 83.3655L91.87 83.4155Z" fill="#263238"/>
<path id="Path_62" d="M72.63 73.0002C72.6972 72.9786 72.7365 72.9089 72.72 72.8402C72.7006 72.7713 72.629 72.731 72.56 72.7502L72.31 72.8252C71.425 72.2502 70.56 71.2002 69.98 70.9802C70.75 72.0552 71.305 72.8252 72.095 72.8902C71.835 72.9702 71.595 73.0602 71.32 73.1552C70.72 72.7602 70.13 72.1552 69.645 71.7552C69.645 71.8702 69.645 71.9802 69.645 72.0952C70.145 72.7452 70.58 73.1802 71.145 73.2202C70.95 73.2902 70.76 73.3652 70.57 73.4452L70.245 73.5802C70.0315 73.4193 69.8294 73.2439 69.64 73.0552C69.64 73.1952 69.64 73.3302 69.64 73.4702C69.7925 73.5606 69.9634 73.6153 70.14 73.6302L69.64 73.8652C69.64 73.9352 69.64 74.0052 69.64 74.0752L70.315 73.7852C69.94 74.3452 70.165 75.1202 70.475 76.1952C70.63 75.6952 70.395 74.6102 70.475 73.7252L70.685 73.6402L71.355 73.3952C70.925 73.9802 71.115 74.8352 71.39 76.0152C71.585 75.4902 71.39 74.2952 71.525 73.3402C71.775 73.2552 72.025 73.1752 72.275 73.1052C71.775 73.7402 71.975 74.6752 72.275 75.9952C72.49 75.4202 72.275 74.1052 72.43 73.0652L72.63 73.0002Z" fill="#263238"/>
<path id="Path_63" d="M69.54 76.1154C69.54 76.1754 69.57 76.2304 69.59 76.2954C69.6539 75.861 69.6539 75.4197 69.59 74.9854C69.575 75.3704 69.56 75.7504 69.54 76.1154Z" fill="#263238"/>
<path id="Path_64" d="M71.31 83.4308L71.125 83.1358C71.53 82.3358 72.34 81.5108 72.47 81.0008C71.6 81.7758 70.97 82.3258 71.06 83.0308C70.91 82.8008 70.755 82.5808 70.6 82.3558C70.975 81.6208 71.715 80.8558 71.84 80.4008C71.04 81.1108 70.475 81.6158 70.535 82.2658L70.12 81.6958L70.02 81.5608C70.405 80.9208 71.135 80.3008 71.29 79.8758C70.495 80.4558 69.945 80.8758 69.995 81.5308L69.575 80.9958C69.935 80.4058 70.605 79.8358 70.745 79.4458C70.015 79.9808 69.51 80.3508 69.55 80.9458L69.24 80.5758V80.7858L69.42 81.0058C69.3576 80.9909 69.294 80.9809 69.23 80.9758C69.23 81.0508 69.23 81.1208 69.23 81.1958L69.52 81.1258L69.835 81.5458C69.6327 81.4861 69.4174 81.4861 69.215 81.5458V81.8558C69.453 81.7722 69.6971 81.707 69.945 81.6608L70.025 81.7658L70.43 82.3458C70.0166 82.2557 69.5847 82.3141 69.21 82.5108C69.21 82.6008 69.21 82.6958 69.21 82.7858C69.6515 82.6718 70.0988 82.5817 70.55 82.5158C70.695 82.7358 70.835 82.9558 70.97 83.1808C70.495 82.9608 69.97 83.1258 69.245 83.4358C69.245 83.5008 69.245 83.5758 69.245 83.6358H69.355C69.9102 83.4935 70.4727 83.3816 71.04 83.3008L71.16 83.4958L71.375 83.8808L71.655 83.9158C71.525 83.7808 71.42 83.6058 71.31 83.4308Z" fill="#263238"/>
<path id="Path_65" d="M69.355 78.8907V79.1257C69.4957 78.9942 69.614 78.8405 69.705 78.6707L69.355 78.8907Z" fill="#263238"/>
<path id="Path_66" d="M72.295 84.0302L72.74 84.0802C73.1152 83.5811 73.4198 83.0326 73.645 82.4502C73.1249 82.9127 72.6707 83.4443 72.295 84.0302H72.295Z" fill="#263238"/>
<path id="Path_67" d="M71.7901 84.0006C72.2051 83.1556 72.9401 82.2856 73.0451 81.7556C72.1751 82.6256 71.5451 83.2556 71.6251 83.9806L71.7901 84.0006Z" fill="#263238"/>
<path id="Path_68" d="M69.29 79.7852C69.29 79.9202 69.29 80.0502 69.265 80.1802C69.6196 79.8434 69.9411 79.4734 70.225 79.0752C69.8833 79.2694 69.5688 79.5081 69.29 79.7852Z" fill="#263238"/>
</g>
<path id="Path_69" d="M104 67.5598L106.21 65.2148L109.275 69.5298C109.275 69.5298 106.69 71.3598 104.215 71.2898L103.93 70.6548C103.466 69.6694 103.492 68.5234 104 67.5598Z" fill="#FFB573"/>
<path id="Path_70" d="M109.775 65.4447L110.64 67.0697C111.035 67.8128 110.756 68.7354 110.015 69.1347L109.295 69.5297L106.23 65.2147L107.985 64.7147C108.679 64.5025 109.427 64.8075 109.775 65.4447Z" fill="#FFB573"/>
<path id="Path_71" d="M92.34 59.1452L92.53 60.1002L92.74 61.1002C92.89 61.7752 93.035 62.4552 93.205 63.1002C93.53 64.4402 93.92 65.7552 94.335 67.0252C94.749 68.2447 95.2503 69.4328 95.835 70.5802C96.3026 71.5239 96.9206 72.3852 97.665 73.1302L96.605 72.6302C96.295 72.5902 96.235 72.6852 96.4 72.6802C96.6627 72.652 96.9183 72.5775 97.155 72.4602C97.9043 72.1163 98.6177 71.6993 99.285 71.2152C100.03 70.7152 100.785 70.1252 101.53 69.5202C102.275 68.9152 103.03 68.2702 103.76 67.6752L103.84 67.6152C104.485 67.0883 105.411 67.0859 106.059 67.6093C106.707 68.1327 106.9 69.0387 106.52 69.7802C106.018 70.7381 105.459 71.6648 104.845 72.5552C104.22 73.4571 103.538 74.3188 102.805 75.1352C102.005 76.0362 101.1 76.8385 100.11 77.5252C99.4896 77.9439 98.8173 78.2801 98.11 78.5252C97.6541 78.6844 97.1807 78.7884 96.7 78.8352C96.1036 78.8881 95.5025 78.8442 94.92 78.7052C94.5796 78.6233 94.2586 78.4755 93.975 78.2702L93.855 78.1802C92.3192 77.03 91.026 75.5873 90.05 73.9352C89.5934 73.1919 89.1834 72.4419 88.82 71.6852C88.4567 70.9285 88.1234 70.1719 87.82 69.4152C87.2414 67.9218 86.7506 66.3959 86.35 64.8452C86.155 64.0752 85.97 63.3102 85.815 62.5352C85.74 62.1452 85.66 61.7602 85.595 61.3652C85.53 60.9702 85.47 60.6002 85.405 60.1302C85.1647 58.2632 86.4442 56.5404 88.301 56.231C90.1578 55.9215 91.9269 57.1361 92.305 58.9802L92.34 59.1452Z" fill="#FFB573"/>
<path id="Path_72" d="M87.5451 53.8952C90.4551 54.1952 92.7801 56.1252 94.4051 62.2702C93.1551 64.0002 85.2801 67.7952 85.2801 67.7952C85.2801 67.7952 80.8951 53.2102 87.5451 53.8952Z" fill="#263238"/>
</g>
</g>
</svg>
