<svg width="25" height="25" viewBox="0 0 25 25" fill="none" xmlns="http://www.w3.org/2000/svg">
<g clip-path="url(#clip0_169_3054)">
<path d="M0.590234 8.69585C0.207324 9.89546 -4.88195e-05 11.1734 8.62084e-09 12.5C-4.88195e-05 13.8267 0.207373 15.1048 0.590283 16.3044L12.5 16.8479L24.4097 16.3045C24.7926 15.1048 25 13.8267 25 12.5001C25 11.1735 24.7926 9.89546 24.4097 8.6958L12.5 8.15234L0.590234 8.69585Z" fill="white"/>
<path d="M24.4097 8.6958L12.4999 8.15234L0.590186 8.6958C0.476709 9.05147 0.379004 9.41411 0.297119 9.78276H24.7026C24.6208 9.41406 24.5231 9.05137 24.4097 8.6958Z" fill="#FF2A50"/>
<path d="M0.297363 15.2173C0.37915 15.5859 0.476856 15.9485 0.590332 16.3042L0.591504 16.3042L12.5 16.8477L24.4097 16.3042C24.5232 15.9486 24.6209 15.5859 24.7027 15.2173H0.297363Z" fill="#FF2A50"/>
<path d="M12.5 24.9999C18.077 24.9999 22.8001 21.3474 24.4097 16.3042H0.590332C2.19995 21.3473 6.92319 24.9999 12.5 24.9999Z" fill="#76E822"/>
<path d="M12.5 4.89555e-10C6.92319 4.88286e-05 2.20005 3.65254 0.590332 8.69565L24.4097 8.6957C22.8002 3.65249 18.077 -4.88276e-05 12.5 4.89555e-10Z" fill="#3D95FF"/>
<path d="M5.71221 5.16289C5.71221 3.99214 6.53501 3.01411 7.63379 2.77417C7.46494 2.73726 7.2897 2.71729 7.10972 2.71729C5.75903 2.71729 4.66406 3.81221 4.66406 5.16294C4.66406 6.51367 5.75894 7.60859 7.10972 7.60859C7.2897 7.60859 7.46489 7.58857 7.63379 7.55171C6.53506 7.31167 5.71221 6.33364 5.71221 5.16289Z" fill="#F0F0F0"/>
<path d="M9.0793 6.2749L9.24482 6.78442H9.78057L9.34717 7.09936L9.5127 7.60889L9.0793 7.29399L8.6458 7.60889L8.81138 7.09936L8.37793 6.78442H8.91367L9.0793 6.2749Z" fill="#F0F0F0"/>
<path d="M10.7892 6.2749L10.9547 6.78442H11.4905L11.057 7.09936L11.2226 7.60889L10.7892 7.29399L10.3557 7.60889L10.5213 7.09936L10.0879 6.78442H10.6236L10.7892 6.2749Z" fill="#F0F0F0"/>
<path d="M12.4992 6.2749L12.6647 6.78442H13.2005L12.7671 7.09936L12.9326 7.60889L12.4992 7.29399L12.0657 7.60889L12.2313 7.09936L11.7979 6.78442H12.3336L12.4992 6.2749Z" fill="#F0F0F0"/>
<path d="M14.2092 6.2749L14.3748 6.78442H14.9105L14.4771 7.09936L14.6426 7.60889L14.2092 7.29399L13.7757 7.60889L13.9413 7.09936L13.5078 6.78442H14.0436L14.2092 6.2749Z" fill="#F0F0F0"/>
<path d="M15.9193 6.2749L16.0849 6.78442H16.6206L16.1872 7.09936L16.3528 7.60889L15.9193 7.29399L15.4858 7.60889L15.6514 7.09936L15.218 6.78442H15.7537L15.9193 6.2749Z" fill="#F0F0F0"/>
<path d="M10.7892 4.49609L10.9547 5.00557H11.4905L11.057 5.32056L11.2226 5.83003L10.7892 5.51514L10.3557 5.83003L10.5213 5.32056L10.0879 5.00557H10.6236L10.7892 4.49609Z" fill="#F0F0F0"/>
<path d="M12.4992 4.49609L12.6647 5.00557H13.2005L12.7671 5.32056L12.9326 5.83003L12.4992 5.51514L12.0657 5.83003L12.2313 5.32056L11.7979 5.00557H12.3336L12.4992 4.49609Z" fill="#F0F0F0"/>
<path d="M14.2092 4.49609L14.3748 5.00557H14.9105L14.4771 5.32056L14.6426 5.83003L14.2092 5.51514L13.7757 5.83003L13.9413 5.32056L13.5078 5.00557H14.0436L14.2092 4.49609Z" fill="#F0F0F0"/>
<path d="M15.9193 4.49609L16.0849 5.00557H16.6206L16.1872 5.32056L16.3528 5.83003L15.9193 5.51514L15.4858 5.83003L15.6514 5.32056L15.218 5.00557H15.7537L15.9193 4.49609Z" fill="#F0F0F0"/>
<path d="M12.4992 2.71729L12.6647 3.22686H13.2005L12.7671 3.54175L12.9326 4.05132L12.4992 3.73643L12.0657 4.05132L12.2313 3.54175L11.7979 3.22686H12.3336L12.4992 2.71729Z" fill="#F0F0F0"/>
<path d="M14.2092 2.71729L14.3748 3.22686H14.9105L14.4771 3.54175L14.6426 4.05132L14.2092 3.73643L13.7757 4.05132L13.9413 3.54175L13.5078 3.22686H14.0436L14.2092 2.71729Z" fill="#F0F0F0"/>
<path d="M15.9193 2.71729L16.0849 3.22686H16.6206L16.1872 3.54175L16.3528 4.05132L15.9193 3.73643L15.4858 4.05132L15.6514 3.54175L15.218 3.22686H15.7537L15.9193 2.71729Z" fill="#F0F0F0"/>
</g>
<defs>
<clipPath id="clip0_169_3054">
<rect width="25" height="25" fill="white"/>
</clipPath>
</defs>
</svg>
