<svg width="16" height="18" viewBox="0 0 16 18" fill="none" xmlns="http://www.w3.org/2000/svg">
<path d="M15.1922 12.3324C15.1273 12.2543 15.0636 12.1762 15.0011 12.1008C14.1418 11.0613 13.6218 10.434 13.6218 7.4914C13.6218 5.96797 13.2574 4.71797 12.539 3.78047C12.0093 3.08789 11.2933 2.5625 10.3496 2.17422C10.3374 2.16746 10.3266 2.1586 10.3176 2.14805C9.9781 1.01133 9.04919 0.25 8.00154 0.25C6.95388 0.25 6.02537 1.01133 5.68591 2.14687C5.67685 2.15704 5.66616 2.16562 5.65427 2.17226C3.45193 3.07891 2.38162 4.81836 2.38162 7.49023C2.38162 10.434 1.86248 11.0613 1.00232 12.0996C0.939822 12.175 0.87615 12.2516 0.811306 12.3312C0.643806 12.5332 0.537682 12.779 0.505491 13.0394C0.473301 13.2999 0.516392 13.5641 0.629665 13.8008C0.870681 14.3086 1.38435 14.6238 1.97068 14.6238H14.0367C14.6203 14.6238 15.1304 14.309 15.3722 13.8035C15.486 13.5667 15.5295 13.3023 15.4976 13.0416C15.4657 12.7809 15.3597 12.5348 15.1922 12.3324Z" fill="white"/>
<path d="M7.99879 17.75C8.56326 17.7495 9.11708 17.5963 9.60151 17.3066C10.0859 17.0168 10.4829 16.6014 10.7503 16.1043C10.7629 16.0805 10.7692 16.0538 10.7684 16.0269C10.7677 15.9999 10.7599 15.9736 10.746 15.9506C10.7321 15.9275 10.7125 15.9084 10.689 15.8952C10.6655 15.8819 10.639 15.875 10.6121 15.875H5.38629C5.35931 15.8749 5.33276 15.8818 5.30923 15.895C5.28571 15.9082 5.266 15.9273 5.25204 15.9504C5.23808 15.9735 5.23033 15.9998 5.22956 16.0268C5.22878 16.0537 5.235 16.0804 5.24762 16.1043C5.51501 16.6013 5.91194 17.0167 6.39629 17.3065C6.88065 17.5962 7.43439 17.7495 7.99879 17.75Z" fill="white"/>
</svg>
