<svg width="375" height="500" viewBox="0 0 375 321" fill="none" xmlns="http://www.w3.org/2000/svg">
<rect x="-242.316" y="-1.77344" width="1064.62" height="400.948" fill="#3182CE"/>
<rect x="-111.569" y="0.230225" width="602.252" height="400.131" fill="url(#paint0_linear_46_426)" fill-opacity="0.4"/>
<g opacity="0.9">
<path d="M160.743 243.533C176.214 234.827 238.904 188.894 351.548 188.894C492.354 188.894 571.052 295.92 783.382 207.507" stroke="white" stroke-width="0.249058"/>
<path d="M160.743 147.523C176.214 138.817 238.904 92.8838 351.548 92.8838C492.354 92.8838 571.052 199.911 783.382 111.497" stroke="white" stroke-width="0.249058"/>
<path d="M160.743 240.435C176.214 231.729 238.904 185.796 351.548 185.796C492.354 185.796 571.052 292.823 783.382 204.41" stroke="white" stroke-width="0.249058"/>
<path d="M160.743 237.338C176.214 228.632 238.904 182.699 351.548 182.699C492.354 182.699 571.052 289.726 783.382 201.312" stroke="white" stroke-width="0.249058"/>
<path d="M160.743 234.242C176.214 225.536 238.904 179.603 351.548 179.603C492.354 179.603 571.052 286.629 783.382 198.216" stroke="white" stroke-width="0.249058"/>
<path d="M160.743 231.143C176.214 222.437 238.904 176.504 351.548 176.504C492.354 176.504 571.052 283.531 783.382 195.117" stroke="white" stroke-width="0.249058"/>
<path d="M160.743 228.047C176.214 219.341 238.904 173.408 351.548 173.408C492.354 173.408 571.052 280.435 783.382 192.021" stroke="white" stroke-width="0.249058"/>
<path d="M160.743 224.95C176.214 216.243 238.904 170.31 351.548 170.31C492.354 170.31 571.052 277.337 783.382 188.924" stroke="white" stroke-width="0.249058"/>
<path d="M160.743 221.853C176.214 213.147 238.904 167.214 351.548 167.214C492.354 167.214 571.052 274.241 783.382 185.827" stroke="white" stroke-width="0.249058"/>
<path d="M160.743 218.756C176.214 210.05 238.904 164.117 351.548 164.117C492.354 164.117 571.052 271.144 783.382 182.73" stroke="white" stroke-width="0.249058"/>
<path d="M160.743 215.659C176.214 206.952 238.904 161.019 351.548 161.019C492.354 161.019 571.052 268.046 783.382 179.633" stroke="white" stroke-width="0.249058"/>
<path d="M160.743 212.561C176.214 203.855 238.904 157.922 351.548 157.922C492.354 157.922 571.052 264.949 783.382 176.535" stroke="white" stroke-width="0.249058"/>
<path d="M160.743 209.464C176.214 200.757 238.904 154.824 351.548 154.824C492.354 154.824 571.052 261.851 783.382 173.438" stroke="white" stroke-width="0.249058"/>
<path d="M160.743 206.367C176.214 197.66 238.904 151.727 351.548 151.727C492.354 151.727 571.052 258.754 783.382 170.341" stroke="white" stroke-width="0.249058"/>
<path d="M160.743 203.27C176.214 194.564 238.904 148.631 351.548 148.631C492.354 148.631 571.052 255.658 783.382 167.244" stroke="white" stroke-width="0.249058"/>
<path d="M160.743 200.174C176.214 191.468 238.904 145.535 351.548 145.535C492.354 145.535 571.052 252.562 783.382 164.148" stroke="white" stroke-width="0.249058"/>
<path d="M160.743 197.076C176.214 188.369 238.904 142.436 351.548 142.436C492.354 142.436 571.052 249.463 783.382 161.05" stroke="white" stroke-width="0.249058"/>
<path d="M160.743 193.979C176.214 185.273 238.904 139.34 351.548 139.34C492.354 139.34 571.052 246.367 783.382 157.953" stroke="white" stroke-width="0.249058"/>
<path d="M160.743 190.882C176.214 182.176 238.904 136.243 351.548 136.243C492.354 136.243 571.052 243.27 783.382 154.856" stroke="white" stroke-width="0.249058"/>
<path d="M160.743 187.784C176.214 179.078 238.904 133.145 351.548 133.145C492.354 133.145 571.052 240.172 783.382 151.759" stroke="white" stroke-width="0.249058"/>
<path d="M160.743 184.688C176.214 175.982 238.904 130.049 351.548 130.049C492.354 130.049 571.052 237.076 783.382 148.662" stroke="white" stroke-width="0.249058"/>
<path d="M160.743 181.591C176.214 172.885 238.904 126.952 351.548 126.952C492.354 126.952 571.052 233.979 783.382 145.565" stroke="white" stroke-width="0.249058"/>
<path d="M160.743 178.494C176.214 169.788 238.904 123.855 351.548 123.855C492.354 123.855 571.052 230.882 783.382 142.469" stroke="white" stroke-width="0.249058"/>
<path d="M160.743 175.397C176.214 166.691 238.904 120.758 351.548 120.758C492.354 120.758 571.052 227.785 783.382 139.371" stroke="white" stroke-width="0.249058"/>
<path d="M160.743 172.3C176.214 163.594 238.904 117.661 351.548 117.661C492.354 117.661 571.052 224.687 783.382 136.274" stroke="white" stroke-width="0.249058"/>
<path d="M160.743 169.202C176.214 160.496 238.904 114.563 351.548 114.563C492.354 114.563 571.052 221.59 783.382 133.177" stroke="white" stroke-width="0.249058"/>
<path d="M160.743 166.105C176.214 157.399 238.904 111.466 351.548 111.466C492.354 111.466 571.052 218.493 783.382 130.079" stroke="white" stroke-width="0.249058"/>
<path d="M160.743 163.008C176.214 154.301 238.904 108.368 351.548 108.368C492.354 108.368 571.052 215.395 783.382 126.982" stroke="white" stroke-width="0.249058"/>
<path d="M160.743 159.911C176.214 151.205 238.904 105.272 351.548 105.272C492.354 105.272 571.052 212.299 783.382 123.886" stroke="white" stroke-width="0.249058"/>
<path d="M160.743 156.814C176.214 148.108 238.904 102.175 351.548 102.175C492.354 102.175 571.052 209.202 783.382 120.788" stroke="white" stroke-width="0.249058"/>
<path d="M160.743 153.718C176.214 145.012 238.904 99.0786 351.548 99.0786C492.354 99.0786 571.052 206.105 783.382 117.692" stroke="white" stroke-width="0.249058"/>
<path d="M160.743 150.62C176.214 141.914 238.904 95.9812 351.548 95.9812C492.354 95.9812 571.052 203.008 783.382 114.595" stroke="white" stroke-width="0.249058"/>
</g>
<g opacity="0.9">
<path d="M-339.815 319.999C-321.25 309.551 -246.017 254.428 -110.836 254.428C58.14 254.428 152.584 382.868 407.394 276.765" stroke="white" stroke-width="0.298886"/>
<path d="M-339.815 204.782C-321.25 194.333 -246.017 139.211 -110.836 139.211C58.14 139.211 152.584 267.65 407.394 161.548" stroke="white" stroke-width="0.298886"/>
<path d="M-339.815 316.282C-321.25 305.834 -246.017 250.712 -110.836 250.712C58.14 250.712 152.584 379.151 407.394 273.049" stroke="white" stroke-width="0.298886"/>
<path d="M-339.815 312.565C-321.25 302.117 -246.017 246.994 -110.836 246.994C58.14 246.994 152.584 375.434 407.394 269.331" stroke="white" stroke-width="0.298886"/>
<path d="M-339.815 308.848C-321.25 298.4 -246.017 243.278 -110.836 243.278C58.14 243.278 152.584 371.717 407.394 265.615" stroke="white" stroke-width="0.298886"/>
<path d="M-339.815 305.131C-321.25 294.683 -246.017 239.56 -110.836 239.56C58.14 239.56 152.584 368 407.394 261.898" stroke="white" stroke-width="0.298886"/>
<path d="M-339.815 301.415C-321.25 290.966 -246.017 235.844 -110.836 235.844C58.14 235.844 152.584 364.283 407.394 258.181" stroke="white" stroke-width="0.298886"/>
<path d="M-339.815 297.699C-321.25 287.251 -246.017 232.128 -110.836 232.128C58.14 232.128 152.584 360.568 407.394 254.466" stroke="white" stroke-width="0.298886"/>
<path d="M-339.815 293.982C-321.25 283.534 -246.017 228.411 -110.836 228.411C58.14 228.411 152.584 356.85 407.394 250.748" stroke="white" stroke-width="0.298886"/>
<path d="M-339.815 290.265C-321.25 279.817 -246.017 224.695 -110.836 224.695C58.14 224.695 152.584 353.134 407.394 247.032" stroke="white" stroke-width="0.298886"/>
<path d="M-339.815 286.548C-321.25 276.1 -246.017 220.977 -110.836 220.977C58.14 220.977 152.584 349.417 407.394 243.314" stroke="white" stroke-width="0.298886"/>
<path d="M-339.815 282.833C-321.25 272.384 -246.017 217.262 -110.836 217.262C58.14 217.262 152.584 345.701 407.394 239.599" stroke="white" stroke-width="0.298886"/>
<path d="M-339.815 279.116C-321.25 268.668 -246.017 213.545 -110.836 213.545C58.14 213.545 152.584 341.985 407.394 235.883" stroke="white" stroke-width="0.298886"/>
<path d="M-339.815 275.399C-321.25 264.951 -246.017 209.828 -110.836 209.828C58.14 209.828 152.584 338.267 407.394 232.165" stroke="white" stroke-width="0.298886"/>
<path d="M-339.815 271.681C-321.25 261.233 -246.017 206.11 -110.836 206.11C58.14 206.11 152.584 334.55 407.394 228.448" stroke="white" stroke-width="0.298886"/>
<path d="M-339.815 267.965C-321.25 257.517 -246.017 202.394 -110.836 202.394C58.14 202.394 152.584 330.834 407.394 224.731" stroke="white" stroke-width="0.298886"/>
<path d="M-339.815 264.248C-321.25 253.8 -246.017 198.677 -110.836 198.677C58.14 198.677 152.584 327.117 407.394 221.015" stroke="white" stroke-width="0.298886"/>
<path d="M-339.815 260.531C-321.25 250.083 -246.017 194.96 -110.836 194.96C58.14 194.96 152.584 323.4 407.394 217.297" stroke="white" stroke-width="0.298886"/>
<path d="M-339.815 256.815C-321.25 246.367 -246.017 191.245 -110.836 191.245C58.14 191.245 152.584 319.684 407.394 213.582" stroke="white" stroke-width="0.298886"/>
<path d="M-339.815 253.098C-321.25 242.65 -246.017 187.527 -110.836 187.527C58.14 187.527 152.584 315.967 407.394 209.865" stroke="white" stroke-width="0.298886"/>
<path d="M-339.815 249.382C-321.25 238.934 -246.017 183.811 -110.836 183.811C58.14 183.811 152.584 312.25 407.394 206.148" stroke="white" stroke-width="0.298886"/>
<path d="M-339.815 245.664C-321.25 235.216 -246.017 180.093 -110.836 180.093C58.14 180.093 152.584 308.533 407.394 202.431" stroke="white" stroke-width="0.298886"/>
<path d="M-339.815 241.948C-321.25 231.5 -246.017 176.377 -110.836 176.377C58.14 176.377 152.584 304.817 407.394 198.714" stroke="white" stroke-width="0.298886"/>
<path d="M-339.815 238.232C-321.25 227.784 -246.017 172.662 -110.836 172.662C58.14 172.662 152.584 301.101 407.394 194.999" stroke="white" stroke-width="0.298886"/>
<path d="M-339.815 234.515C-321.25 224.067 -246.017 168.944 -110.836 168.944C58.14 168.944 152.584 297.384 407.394 191.281" stroke="white" stroke-width="0.298886"/>
<path d="M-339.815 230.797C-321.25 220.349 -246.017 165.227 -110.836 165.227C58.14 165.227 152.584 293.666 407.394 187.564" stroke="white" stroke-width="0.298886"/>
<path d="M-339.815 227.081C-321.25 216.633 -246.017 161.51 -110.836 161.51C58.14 161.51 152.584 289.95 407.394 183.848" stroke="white" stroke-width="0.298886"/>
<path d="M-339.815 223.365C-321.25 212.916 -246.017 157.794 -110.836 157.794C58.14 157.794 152.584 286.233 407.394 180.131" stroke="white" stroke-width="0.298886"/>
<path d="M-339.815 219.648C-321.25 209.2 -246.017 154.077 -110.836 154.077C58.14 154.077 152.584 282.517 407.394 176.415" stroke="white" stroke-width="0.298886"/>
<path d="M-339.815 215.932C-321.25 205.484 -246.017 150.361 -110.836 150.361C58.14 150.361 152.584 278.801 407.394 172.698" stroke="white" stroke-width="0.298886"/>
<path d="M-339.815 212.214C-321.25 201.766 -246.017 146.644 -110.836 146.644C58.14 146.644 152.584 275.083 407.394 168.981" stroke="white" stroke-width="0.298886"/>
<path d="M-339.815 208.498C-321.25 198.05 -246.017 142.927 -110.836 142.927C58.14 142.927 152.584 271.367 407.394 165.264" stroke="white" stroke-width="0.298886"/>
</g>
<defs>
<linearGradient id="paint0_linear_46_426" x1="88.2143" y1="0.230225" x2="88.2143" y2="288.362" gradientUnits="userSpaceOnUse">
<stop stop-color="#FFF6F0" stop-opacity="0.38"/>
<stop offset="0.574389" stop-color="#FBE8E9" stop-opacity="0.31"/>
<stop offset="1" stop-color="#FCFCFF" stop-opacity="0.57"/>
</linearGradient>
</defs>
</svg>
