<svg width="8" height="10" viewBox="0 0 8 10" fill="none" xmlns="http://www.w3.org/2000/svg">
<line x1="1.36816" y1="8.73094" x2="7.25907" y2="8.73094" stroke="white" stroke-width="0.736364"/>
<path d="M3.91544 8.23114C4.05922 8.37493 4.29234 8.37493 4.43613 8.23114L6.77922 5.88805C6.923 5.74426 6.923 5.51114 6.77922 5.36736C6.63544 5.22358 6.40232 5.22358 6.25853 5.36736L4.17578 7.45011L2.09303 5.36736C1.94925 5.22358 1.71613 5.22358 1.57234 5.36736C1.42856 5.51114 1.42856 5.74426 1.57234 5.88805L3.91544 8.23114ZM3.8076 0.989746L3.8076 7.9708H4.54396L4.54396 0.989746L3.8076 0.989746Z" fill="white"/>
<path d="M1 7.99451L1 8.73087" stroke="white" stroke-width="0.736364" stroke-linecap="square"/>
<line x1="7.62697" y1="7.99452" x2="7.62697" y2="8.73089" stroke="white" stroke-width="0.736364" stroke-linecap="square"/>
</svg>
