<svg width="24" height="24" viewBox="0 0 24 24" fill="none" xmlns="http://www.w3.org/2000/svg">
<path d="M12 24C18.6274 24 24 18.6274 24 12C24 5.37258 18.6274 0 12 0C5.37258 0 0 5.37258 0 12C0 18.6274 5.37258 24 12 24Z" fill="#3182CE"/>
<rect width="24" height="24" rx="5.16667" fill="#3182CE"/>
<g clip-path="url(#clip0_46_586)">
<path d="M8.59919 8.78402H15.6304C15.7126 8.78398 15.7946 8.78919 15.8761 8.79962C15.8485 8.60577 15.7819 8.41952 15.6804 8.2521C15.5788 8.08469 15.4444 7.93956 15.2853 7.82549C15.1261 7.71141 14.9455 7.63075 14.7544 7.58835C14.5632 7.54596 14.3654 7.54272 14.173 7.57882L8.39045 8.56605H8.38386C8.02089 8.63546 7.69811 8.84083 7.48145 9.1402C7.80787 8.90802 8.19862 8.7835 8.59919 8.78402Z" fill="white"/>
<path d="M15.6309 9.31226H8.59961C8.22677 9.31266 7.86932 9.46095 7.60569 9.72459C7.34206 9.98822 7.19377 10.3457 7.19336 10.7185V14.9373C7.19377 15.3101 7.34206 15.6675 7.60569 15.9312C7.86932 16.1948 8.22677 16.3431 8.59961 16.3435H15.6309C16.0037 16.3431 16.3611 16.1948 16.6248 15.9312C16.8884 15.6675 17.0367 15.3101 17.0371 14.9373V10.7185C17.0367 10.3457 16.8884 9.98822 16.6248 9.72459C16.3611 9.46095 16.0037 9.31266 15.6309 9.31226ZM14.5872 13.531C14.4481 13.531 14.3121 13.4898 14.1965 13.4125C14.0809 13.3352 13.9908 13.2254 13.9376 13.097C13.8843 12.9685 13.8704 12.8271 13.8975 12.6907C13.9247 12.5543 13.9916 12.429 14.09 12.3307C14.1883 12.2324 14.3136 12.1654 14.45 12.1383C14.5864 12.1111 14.7278 12.1251 14.8562 12.1783C14.9847 12.2315 15.0945 12.3216 15.1718 12.4372C15.249 12.5529 15.2903 12.6888 15.2903 12.8279C15.2903 13.0144 15.2162 13.1932 15.0843 13.3251C14.9525 13.4569 14.7736 13.531 14.5872 13.531Z" fill="white"/>
<path d="M7.2041 12.2007V10.0144C7.2041 9.53826 7.46777 8.73999 8.38293 8.56707C9.15967 8.42139 9.92871 8.42139 9.92871 8.42139C9.92871 8.42139 10.4341 8.77295 10.0166 8.77295C9.59912 8.77295 9.61011 9.31128 10.0166 9.31128C10.4231 9.31128 10.0166 9.82764 10.0166 9.82764L8.37964 11.6843L7.2041 12.2007Z" fill="white"/>
</g>
<defs>
<clipPath id="clip0_46_586">
<rect width="11.25" height="11.25" fill="white" transform="translate(6.50098 6.5)"/>
</clipPath>
</defs>
</svg>
