<svg width="30" height="30" viewBox="0 0 30 30" fill="none" xmlns="http://www.w3.org/2000/svg">
<path d="M15 30C23.2843 30 30 23.2843 30 15C30 6.71573 23.2843 0 15 0C6.71573 0 0 6.71573 0 15C0 23.2843 6.71573 30 15 30Z" fill="#3182CE"/>
<rect width="30" height="30" rx="3" fill="#3182CE"/>
<g clip-path="url(#clip0_536_2223)">
<path d="M15 22.0313C13.6094 22.0313 12.2499 21.6189 11.0936 20.8463C9.93737 20.0737 9.03615 18.9755 8.50398 17.6907C7.9718 16.406 7.83255 14.9922 8.10386 13.6283C8.37516 12.2643 9.04482 11.0115 10.0282 10.0282C11.0115 9.04482 12.2643 8.37516 13.6283 8.10386C14.9922 7.83255 16.406 7.9718 17.6907 8.50398C18.9755 9.03615 20.0737 9.93737 20.8463 11.0936C21.6189 12.2499 22.0313 13.6094 22.0313 15C22.0313 16.8648 21.2905 18.6532 19.9718 19.9718C18.6532 21.2905 16.8648 22.0313 15 22.0313ZM15 8.90625C13.7948 8.90625 12.6166 9.26365 11.6145 9.93324C10.6124 10.6028 9.83133 11.5545 9.37011 12.668C8.90889 13.7815 8.78821 15.0068 9.02334 16.1888C9.25847 17.3709 9.83884 18.4567 10.6911 19.3089C11.5433 20.1612 12.6291 20.7415 13.8112 20.9767C14.9932 21.2118 16.2185 21.0911 17.332 20.6299C18.4455 20.1687 19.3972 19.3876 20.0668 18.3855C20.7364 17.3834 21.0938 16.2052 21.0938 15C21.0938 13.3838 20.4517 11.8339 19.3089 10.6911C18.1661 9.54827 16.6162 8.90625 15 8.90625Z" fill="white"/>
<path d="M16.9875 17.6531L14.6672 15.3328C14.6238 15.289 14.5894 15.2371 14.5661 15.18C14.5427 15.1228 14.5309 15.0617 14.5313 15V11.25H15.4688V14.8078L17.6531 16.9875L16.9875 17.6531Z" fill="white"/>
</g>
<path d="M10.7246 12.6953V12.1855H11.5254V11.3848H12.0391V12.1855H12.8398V12.6953H12.0391V13.5H11.5254V12.6953H10.7246Z" fill="white"/>
<defs>
<clipPath id="clip0_536_2223">
<rect x="7.5" y="7.5" width="15" height="15" rx="3" fill="white"/>
</clipPath>
</defs>
</svg>
