<svg width="30" height="30" viewBox="0 0 30 30" fill="none" xmlns="http://www.w3.org/2000/svg">
<path d="M15 30C23.2843 30 30 23.2843 30 15C30 6.71573 23.2843 0 15 0C6.71573 0 0 6.71573 0 15C0 23.2843 6.71573 30 15 30Z" fill="#3182CE"/>
<rect width="30" height="30" rx="4.16667" fill="#3182CE"/>
<g clip-path="url(#clip0_46_529)">
<path d="M10.7478 10.9802H19.5368C19.6395 10.9802 19.7421 10.9867 19.8439 10.9997C19.8094 10.7574 19.7261 10.5246 19.5992 10.3153C19.4723 10.106 19.3043 9.92464 19.1054 9.78204C18.9064 9.63945 18.6807 9.53861 18.4417 9.48562C18.2028 9.43263 17.9556 9.42858 17.715 9.47371L10.4868 10.7077H10.4786C10.0249 10.7945 9.62142 11.0512 9.35059 11.4254C9.75862 11.1352 10.2471 10.9796 10.7478 10.9802Z" fill="white"/>
<path d="M19.5371 11.6406H10.748C10.282 11.6411 9.83519 11.8265 9.50565 12.156C9.1761 12.4856 8.99074 12.9324 8.99023 13.3984V18.6719C8.99074 19.1379 9.1761 19.5847 9.50565 19.9143C9.83519 20.2438 10.282 20.4292 10.748 20.4297H19.5371C20.0031 20.4292 20.45 20.2438 20.7795 19.9143C21.109 19.5847 21.2944 19.1379 21.2949 18.6719V13.3984C21.2944 12.9324 21.109 12.4856 20.7795 12.156C20.45 11.8265 20.0031 11.6411 19.5371 11.6406ZM18.2325 16.9141C18.0586 16.9141 17.8887 16.8625 17.7442 16.7659C17.5997 16.6694 17.487 16.5321 17.4205 16.3715C17.354 16.2109 17.3365 16.0342 17.3705 15.8637C17.4044 15.6932 17.4881 15.5366 17.611 15.4137C17.7339 15.2908 17.8905 15.207 18.061 15.1731C18.2315 15.1392 18.4082 15.1566 18.5688 15.2232C18.7294 15.2897 18.8667 15.4023 18.9633 15.5469C19.0598 15.6914 19.1114 15.8613 19.1114 16.0352C19.1114 16.2683 19.0188 16.4918 18.854 16.6566C18.6891 16.8215 18.4656 16.9141 18.2325 16.9141Z" fill="white"/>
<path d="M9.00391 15.251V12.5181C9.00391 11.9229 9.3335 10.9251 10.4774 10.709C11.4484 10.5269 12.4097 10.5269 12.4097 10.5269C12.4097 10.5269 13.0414 10.9663 12.5195 10.9663C11.9977 10.9663 12.0114 11.6392 12.5195 11.6392C13.0276 11.6392 12.5195 12.2847 12.5195 12.2847L10.4733 14.6055L9.00391 15.251Z" fill="white"/>
</g>
<path d="M10.2728 13.8677V13.0712H11.524V11.8199H12.3267V13.0712H13.5779V13.8677H12.3267V15.125H11.524V13.8677H10.2728Z" fill="#3182CE"/>
<defs>
<clipPath id="clip0_46_529">
<rect width="14.0625" height="14.0625" fill="white" transform="translate(8.125 8.125)"/>
</clipPath>
</defs>
</svg>
