<svg width="9" height="11" viewBox="0 0 9 11" fill="none" xmlns="http://www.w3.org/2000/svg">
<path d="M7.28427 7.40066C6.9345 7.40066 6.62154 7.53872 6.38222 7.75503L3.1008 5.84509C3.12381 5.73923 3.14222 5.63338 3.14222 5.52293C3.14222 5.41247 3.12381 5.30662 3.1008 5.20077L6.34541 3.30923C6.59393 3.53935 6.92069 3.68202 7.28427 3.68202C8.04825 3.68202 8.66495 3.06531 8.66495 2.30134C8.66495 1.53736 8.04825 0.920654 7.28427 0.920654C6.52029 0.920654 5.90359 1.53736 5.90359 2.30134C5.90359 2.41179 5.922 2.51764 5.94501 2.6235L2.7004 4.51503C2.45188 4.28492 2.12512 4.14225 1.76154 4.14225C0.997564 4.14225 0.380859 4.75895 0.380859 5.52293C0.380859 6.28691 0.997564 6.90361 1.76154 6.90361C2.12512 6.90361 2.45188 6.76094 2.7004 6.53083L5.97722 8.44537C5.95421 8.54202 5.9404 8.64327 5.9404 8.74452C5.9404 9.48549 6.5433 10.0884 7.28427 10.0884C8.02523 10.0884 8.62813 9.48549 8.62813 8.74452C8.62813 8.00355 8.02523 7.40066 7.28427 7.40066Z" fill="white"/>
</svg>
