<svg width="142" height="14" viewBox="0 0 142 14" fill="none" xmlns="http://www.w3.org/2000/svg">
<path d="M10.208 11.24V13H0.656V11.608L7.248 3.56H0.768V1.8H10V3.192L3.408 11.24H10.208ZM19.7971 8.776C19.7971 8.91467 19.7865 9.112 19.7651 9.368H13.0611C13.1785 9.99733 13.4825 10.4987 13.9731 10.872C14.4745 11.2347 15.0931 11.416 15.8291 11.416C16.7678 11.416 17.5411 11.1067 18.1491 10.488L19.2211 11.72C18.8371 12.1787 18.3518 12.5253 17.7651 12.76C17.1785 12.9947 16.5171 13.112 15.7811 13.112C14.8425 13.112 14.0158 12.9253 13.3011 12.552C12.5865 12.1787 12.0318 11.6613 11.6371 11C11.2531 10.328 11.0611 9.57067 11.0611 8.728C11.0611 7.896 11.2478 7.14933 11.6211 6.488C12.0051 5.816 12.5331 5.29333 13.2051 4.92C13.8771 4.54667 14.6345 4.36 15.4771 4.36C16.3091 4.36 17.0505 4.54667 17.7011 4.92C18.3625 5.28267 18.8745 5.8 19.2371 6.472C19.6105 7.13333 19.7971 7.90133 19.7971 8.776ZM15.4771 5.96C14.8371 5.96 14.2931 6.152 13.8451 6.536C13.4078 6.90933 13.1411 7.41067 13.0451 8.04H17.8931C17.8078 7.42133 17.5465 6.92 17.1091 6.536C16.6718 6.152 16.1278 5.96 15.4771 5.96ZM23.6223 5.704C24.1983 4.808 25.2116 4.36 26.6623 4.36V6.264C26.4916 6.232 26.3369 6.216 26.1983 6.216C25.4196 6.216 24.8116 6.44533 24.3743 6.904C23.9369 7.352 23.7183 8.00267 23.7183 8.856V13H21.7183V4.456H23.6223V5.704ZM32.1208 13.112C31.2568 13.112 30.4781 12.9253 29.7848 12.552C29.0914 12.1787 28.5474 11.6613 28.1528 11C27.7688 10.328 27.5768 9.57067 27.5768 8.728C27.5768 7.88533 27.7688 7.13333 28.1528 6.472C28.5474 5.81067 29.0914 5.29333 29.7848 4.92C30.4781 4.54667 31.2568 4.36 32.1208 4.36C32.9954 4.36 33.7794 4.54667 34.4728 4.92C35.1661 5.29333 35.7048 5.81067 36.0888 6.472C36.4834 7.13333 36.6808 7.88533 36.6808 8.728C36.6808 9.57067 36.4834 10.328 36.0888 11C35.7048 11.6613 35.1661 12.1787 34.4728 12.552C33.7794 12.9253 32.9954 13.112 32.1208 13.112ZM32.1208 11.4C32.8568 11.4 33.4648 11.1547 33.9448 10.664C34.4248 10.1733 34.6648 9.528 34.6648 8.728C34.6648 7.928 34.4248 7.28267 33.9448 6.792C33.4648 6.30133 32.8568 6.056 32.1208 6.056C31.3848 6.056 30.7768 6.30133 30.2968 6.792C29.8274 7.28267 29.5928 7.928 29.5928 8.728C29.5928 9.528 29.8274 10.1733 30.2968 10.664C30.7768 11.1547 31.3848 11.4 32.1208 11.4Z" fill="#2D62B6"/>
<path d="M45.8413 13L42.8013 8.744L39.7933 13H37.4253L41.5853 7.288L37.6493 1.8H40.0013L42.8653 5.784L45.6973 1.8H47.9533L44.0333 7.208L48.2413 13H45.8413Z" fill="#FE5E58"/>
<path d="M64.8929 4.36C65.9702 4.36 66.8235 4.67467 67.4529 5.304C68.0822 5.92267 68.3969 6.856 68.3969 8.104V13H66.3969V8.36C66.3969 7.61333 66.2315 7.05333 65.9009 6.68C65.5702 6.296 65.0955 6.104 64.4769 6.104C63.8049 6.104 63.2662 6.328 62.8609 6.776C62.4555 7.21333 62.2529 7.84267 62.2529 8.664V13H60.2529V8.36C60.2529 7.61333 60.0875 7.05333 59.7569 6.68C59.4262 6.296 58.9515 6.104 58.3329 6.104C57.6502 6.104 57.1062 6.32267 56.7009 6.76C56.3062 7.19733 56.1089 7.832 56.1089 8.664V13H54.1089V4.456H56.0129V5.544C56.3329 5.16 56.7329 4.86667 57.2129 4.664C57.6929 4.46133 58.2262 4.36 58.8129 4.36C59.4529 4.36 60.0182 4.48267 60.5089 4.728C61.0102 4.96267 61.4049 5.31467 61.6929 5.784C62.0449 5.336 62.4982 4.98933 63.0529 4.744C63.6075 4.488 64.2209 4.36 64.8929 4.36ZM74.8708 13.112C74.0068 13.112 73.2281 12.9253 72.5348 12.552C71.8414 12.1787 71.2974 11.6613 70.9028 11C70.5188 10.328 70.3268 9.57067 70.3268 8.728C70.3268 7.88533 70.5188 7.13333 70.9028 6.472C71.2974 5.81067 71.8414 5.29333 72.5348 4.92C73.2281 4.54667 74.0068 4.36 74.8708 4.36C75.7454 4.36 76.5294 4.54667 77.2228 4.92C77.9161 5.29333 78.4548 5.81067 78.8388 6.472C79.2334 7.13333 79.4308 7.88533 79.4308 8.728C79.4308 9.57067 79.2334 10.328 78.8388 11C78.4548 11.6613 77.9161 12.1787 77.2228 12.552C76.5294 12.9253 75.7454 13.112 74.8708 13.112ZM74.8708 11.4C75.6068 11.4 76.2148 11.1547 76.6948 10.664C77.1748 10.1733 77.4148 9.528 77.4148 8.728C77.4148 7.928 77.1748 7.28267 76.6948 6.792C76.2148 6.30133 75.6068 6.056 74.8708 6.056C74.1348 6.056 73.5268 6.30133 73.0468 6.792C72.5774 7.28267 72.3428 7.928 72.3428 8.728C72.3428 9.528 72.5774 10.1733 73.0468 10.664C73.5268 11.1547 74.1348 11.4 74.8708 11.4ZM86.0793 4.36C86.9113 4.36 87.6526 4.54133 88.3033 4.904C88.9646 5.26667 89.4819 5.77867 89.8553 6.44C90.2286 7.10133 90.4153 7.864 90.4153 8.728C90.4153 9.592 90.2286 10.36 89.8553 11.032C89.4819 11.6933 88.9646 12.2053 88.3033 12.568C87.6526 12.9307 86.9113 13.112 86.0793 13.112C85.4926 13.112 84.9539 13.0107 84.4633 12.808C83.9833 12.6053 83.5779 12.3013 83.2473 11.896V13H81.3433V1.128H83.3433V5.496C83.6846 5.12267 84.0846 4.84 84.5433 4.648C85.0126 4.456 85.5246 4.36 86.0793 4.36ZM85.8553 11.4C86.5913 11.4 87.1939 11.1547 87.6633 10.664C88.1433 10.1733 88.3833 9.528 88.3833 8.728C88.3833 7.928 88.1433 7.28267 87.6633 6.792C87.1939 6.30133 86.5913 6.056 85.8553 6.056C85.3753 6.056 84.9433 6.168 84.5593 6.392C84.1753 6.60533 83.8713 6.91467 83.6473 7.32C83.4233 7.72533 83.3113 8.19467 83.3113 8.728C83.3113 9.26133 83.4233 9.73067 83.6473 10.136C83.8713 10.5413 84.1753 10.856 84.5593 11.08C84.9433 11.2933 85.3753 11.4 85.8553 11.4ZM92.312 4.456H94.312V13H92.312V4.456ZM93.32 3.048C92.9573 3.048 92.6533 2.936 92.408 2.712C92.1627 2.47733 92.04 2.18933 92.04 1.848C92.04 1.50667 92.1627 1.224 92.408 0.999999C92.6533 0.765333 92.9573 0.648 93.32 0.648C93.6827 0.648 93.9867 0.76 94.232 0.983999C94.4773 1.19733 94.6 1.46933 94.6 1.8C94.6 2.152 94.4773 2.45067 94.232 2.696C93.9973 2.93067 93.6933 3.048 93.32 3.048ZM96.937 1.128H98.937V13H96.937V1.128ZM105.984 4.456H107.984V13H105.984V4.456ZM106.992 3.048C106.629 3.048 106.325 2.936 106.08 2.712C105.835 2.47733 105.712 2.18933 105.712 1.848C105.712 1.50667 105.835 1.224 106.08 0.999999C106.325 0.765333 106.629 0.648 106.992 0.648C107.355 0.648 107.659 0.76 107.904 0.983999C108.149 1.19733 108.272 1.46933 108.272 1.8C108.272 2.152 108.149 2.45067 107.904 2.696C107.669 2.93067 107.365 3.048 106.992 3.048ZM110.609 1.128H112.609V13H110.609V1.128ZM119.074 13.112C118.21 13.112 117.431 12.9253 116.738 12.552C116.045 12.1787 115.501 11.6613 115.106 11C114.722 10.328 114.53 9.57067 114.53 8.728C114.53 7.88533 114.722 7.13333 115.106 6.472C115.501 5.81067 116.045 5.29333 116.738 4.92C117.431 4.54667 118.21 4.36 119.074 4.36C119.949 4.36 120.733 4.54667 121.426 4.92C122.119 5.29333 122.658 5.81067 123.042 6.472C123.437 7.13333 123.634 7.88533 123.634 8.728C123.634 9.57067 123.437 10.328 123.042 11C122.658 11.6613 122.119 12.1787 121.426 12.552C120.733 12.9253 119.949 13.112 119.074 13.112ZM119.074 11.4C119.81 11.4 120.418 11.1547 120.898 10.664C121.378 10.1733 121.618 9.528 121.618 8.728C121.618 7.928 121.378 7.28267 120.898 6.792C120.418 6.30133 119.81 6.056 119.074 6.056C118.338 6.056 117.73 6.30133 117.25 6.792C116.781 7.28267 116.546 7.928 116.546 8.728C116.546 9.528 116.781 10.1733 117.25 10.664C117.73 11.1547 118.338 11.4 119.074 11.4ZM133.312 4.456L129.648 13H127.584L123.92 4.456H126L128.656 10.792L131.392 4.456H133.312ZM137.56 4.36C138.819 4.36 139.779 4.664 140.44 5.272C141.112 5.86933 141.448 6.776 141.448 7.992V13H139.56V11.96C139.315 12.3333 138.963 12.6213 138.504 12.824C138.056 13.016 137.512 13.112 136.872 13.112C136.232 13.112 135.672 13.0053 135.192 12.792C134.712 12.568 134.339 12.264 134.072 11.88C133.816 11.4853 133.688 11.0427 133.688 10.552C133.688 9.784 133.971 9.17067 134.536 8.712C135.112 8.24267 136.014 8.008 137.24 8.008H139.448V7.88C139.448 7.28267 139.267 6.824 138.904 6.504C138.552 6.184 138.024 6.024 137.32 6.024C136.84 6.024 136.366 6.09867 135.896 6.248C135.438 6.39733 135.048 6.60533 134.728 6.872L133.944 5.416C134.392 5.07467 134.931 4.81333 135.56 4.632C136.19 4.45067 136.856 4.36 137.56 4.36ZM137.288 11.656C137.79 11.656 138.232 11.544 138.616 11.32C139.011 11.0853 139.288 10.7547 139.448 10.328V9.336H137.384C136.232 9.336 135.656 9.71467 135.656 10.472C135.656 10.8347 135.8 11.1227 136.088 11.336C136.376 11.5493 136.776 11.656 137.288 11.656Z" fill="#37363C"/>
</svg>
