 <svg
                  width="142"
                  height="43"
                  viewBox="0 0 142 43"
                  fill="none"
                  xmlns="http://www.w3.org/2000/svg"
                >
                  <path
                    d="M136.502 42.9998H5.49785C4.04025 42.9998 2.64235 42.4234 1.61166 41.3974C0.580984 40.3714 0.00195313 38.9799 0.00195312 37.5289V5.47283C0.00195313 4.02186 0.580984 2.63032 1.61166 1.60434C2.64235 0.578347 4.04025 0.00195313 5.49785 0.00195313H136.502C137.223 0.00195312 137.938 0.143461 138.605 0.418399C139.272 0.693336 139.878 1.09632 140.388 1.60434C140.898 2.11235 141.303 2.71546 141.579 3.37921C141.855 4.04297 141.998 4.75438 141.998 5.47283V37.5257C141.998 38.2442 141.855 38.9556 141.579 39.6193C141.303 40.2831 140.898 40.8862 140.388 41.3942C139.878 41.9022 139.272 42.3052 138.605 42.5801C137.938 42.8551 137.223 42.9966 136.502 42.9966V42.9998ZM50.1914 30.154H52.4231L47.2247 18.6684H45.1287L39.9302 30.154H42.135L43.2784 27.499H49.0426L50.1914 30.154ZM43.9853 25.8191L46.1406 20.8063L48.3184 25.8191H43.9853ZM58.5742 21.2944C58.0258 21.2668 57.4783 21.3646 56.9736 21.5801C56.4689 21.7955 56.0204 22.1231 55.6625 22.5377V21.4049H53.7023V33.3539H55.7713V29.0995C56.1211 29.4916 56.5537 29.8018 57.0381 30.0079C57.5225 30.2139 58.0467 30.3107 58.5731 30.2913C59.1708 30.3167 59.7672 30.2174 60.324 29.9996C60.8808 29.7818 61.3857 29.4505 61.8061 29.0268C62.2265 28.6032 62.5532 28.0966 62.7651 27.5397C62.977 26.9828 63.0696 26.388 63.0367 25.7934C63.0668 25.2007 62.9723 24.6082 62.759 24.054C62.5457 23.4998 62.2185 22.9961 61.7982 22.5752C61.378 22.1542 60.874 21.8253 60.3187 21.6096C59.7633 21.3938 59.1687 21.296 58.5731 21.3223L58.5742 21.2944ZM58.3587 28.502C58.0019 28.5091 57.6475 28.4422 57.3181 28.3054C56.9888 28.1686 56.6917 27.9649 56.4458 27.7075C56.1999 27.45 56.0106 27.1443 55.89 26.8099C55.7695 26.4756 55.7202 26.1199 55.7455 25.7655C55.7278 25.413 55.7824 25.0606 55.9057 24.7297C56.0291 24.3988 56.2188 24.0964 56.4632 23.8407C56.7076 23.585 57.0016 23.3814 57.3274 23.2423C57.6533 23.1032 58.0041 23.0315 58.3587 23.0315C58.7132 23.0315 59.0641 23.1032 59.3899 23.2423C59.7158 23.3814 60.0098 23.585 60.2542 23.8407C60.4986 24.0964 60.6883 24.3988 60.8117 24.7297C60.935 25.0606 60.9896 25.413 60.9719 25.7655C60.9999 26.1207 60.9525 26.4779 60.8327 26.8137C60.713 27.1495 60.5237 27.4565 60.2771 27.7148C60.0305 27.973 59.732 28.1768 59.4011 28.3127C59.0703 28.4487 58.7144 28.5139 58.3565 28.5041L58.3587 28.502ZM69.899 21.2944C69.3502 21.2665 68.8023 21.3641 68.2972 21.5796C67.7921 21.7951 67.3433 22.1228 66.9851 22.5377V21.4049H65.0249V33.3539H67.0939V29.0995C67.4437 29.4916 67.8763 29.8018 68.3607 30.0079C68.8451 30.2139 69.3694 30.3107 69.8958 30.2913C70.4935 30.3167 71.0899 30.2174 71.6467 29.9996C72.2035 29.7818 72.7083 29.4505 73.1287 29.0268C73.5491 28.6032 73.8758 28.0966 74.0877 27.5397C74.2997 26.9828 74.3922 26.388 74.3593 25.7934C74.3895 25.2007 74.2949 24.6082 74.0816 24.054C73.8684 23.4998 73.5411 22.9961 73.1209 22.5752C72.7006 22.1542 72.1967 21.8253 71.6413 21.6096C71.0859 21.3938 70.4914 21.296 69.8958 21.3223L69.899 21.2944ZM69.6835 28.502C69.3267 28.5091 68.9723 28.4422 68.6429 28.3054C68.3136 28.1686 68.0165 27.9649 67.7706 27.7075C67.5247 27.45 67.3354 27.1443 67.2148 26.8099C67.0943 26.4756 67.045 26.1199 67.0702 25.7655C67.0526 25.413 67.1071 25.0606 67.2305 24.7297C67.3539 24.3988 67.5435 24.0964 67.7879 23.8407C68.0323 23.585 68.3264 23.3814 68.6522 23.2423C68.9781 23.1032 69.3289 23.0315 69.6835 23.0315C70.038 23.0315 70.3889 23.1032 70.7147 23.2423C71.0406 23.3814 71.3346 23.585 71.579 23.8407C71.8234 24.0964 72.0131 24.3988 72.1364 24.7297C72.2598 25.0606 72.3144 25.413 72.2967 25.7655C72.3247 26.1208 72.2772 26.478 72.1575 26.8139C72.0377 27.1498 71.8483 27.4569 71.6015 27.7152C71.3548 27.9734 71.0562 28.1772 70.7252 28.3131C70.3942 28.449 70.0382 28.5141 69.6803 28.5041L69.6835 28.502ZM84.6539 30.317C87.8113 30.317 89.3082 28.7455 89.3082 26.9026C89.3082 22.7029 82.476 24.2744 82.476 21.8361C82.476 20.9693 83.2109 20.2646 84.9804 20.2646C86.1016 20.2848 87.1984 20.593 88.1648 21.1592L88.8448 19.5062C87.6851 18.8182 86.3573 18.4619 85.0073 18.4763C81.8499 18.4763 80.3531 20.0479 80.3531 21.9176C80.3531 26.172 87.2122 24.5458 87.2122 27.0388C87.2122 27.8787 86.4503 28.5288 84.6539 28.5288C83.2767 28.5325 81.9365 28.0859 80.8391 27.2576L80.1041 28.9107C81.4276 29.8518 83.0237 30.337 84.6496 30.2924L84.6539 30.317ZM95.9496 28.2306C95.6165 28.4676 95.2155 28.591 94.8062 28.5824C94.6346 28.5966 94.462 28.5719 94.3014 28.5103C94.1407 28.4488 93.996 28.3519 93.8782 28.2269C93.7604 28.1019 93.6725 27.952 93.621 27.7884C93.5696 27.6249 93.5559 27.4519 93.5809 27.2823V23.1094H95.9517V21.4585H93.5809V19.4536H91.5119V21.4585H90.0668V23.1116H91.5097V27.3381C91.4686 27.7404 91.5189 28.1468 91.6567 28.5271C91.7946 28.9075 92.0166 29.2522 92.3063 29.5357C92.5959 29.8192 92.9459 30.0343 93.3303 30.1651C93.7147 30.2959 94.1237 30.339 94.5271 30.2913C95.2372 30.3143 95.9353 30.1048 96.5143 29.6949L95.9431 28.2317L95.9496 28.2306ZM101.883 30.2902C102.766 30.2564 103.619 29.965 104.337 29.4522C105.055 28.9395 105.606 28.2281 105.921 27.4064C106.236 26.5847 106.301 25.6889 106.109 24.8304C105.917 23.972 105.476 23.1886 104.84 22.5778C104.204 21.967 103.402 21.5556 102.534 21.3948C101.665 21.234 100.768 21.3309 99.9542 21.6733C99.1404 22.0158 98.4456 22.5888 97.9563 23.3211C97.4669 24.0535 97.2045 24.9128 97.2018 25.7923C97.1888 26.4002 97.3022 27.0042 97.5348 27.5664C97.7673 28.1286 98.1141 28.6369 98.5533 29.0595C98.9926 29.482 99.5148 29.8096 100.087 30.0218C100.66 30.2339 101.27 30.326 101.88 30.2924L101.883 30.2902ZM101.883 28.5288C101.526 28.536 101.172 28.469 100.842 28.3322C100.513 28.1954 100.216 27.9918 99.9701 27.7343C99.7242 27.4768 99.5349 27.1711 99.4143 26.8367C99.2938 26.5024 99.2445 26.1467 99.2697 25.7923C99.2521 25.4398 99.3067 25.0874 99.43 24.7565C99.5534 24.4257 99.743 24.1232 99.9874 23.8675C100.232 23.6118 100.526 23.4082 100.852 23.2691C101.178 23.13 101.528 23.0583 101.883 23.0583C102.238 23.0583 102.588 23.13 102.914 23.2691C103.24 23.4082 103.534 23.6118 103.779 23.8675C104.023 24.1232 104.213 24.4257 104.336 24.7565C104.459 25.0874 104.514 25.4398 104.496 25.7923C104.524 26.1476 104.477 26.5049 104.357 26.8408C104.237 27.1766 104.048 27.4837 103.801 27.742C103.554 28.0003 103.256 28.204 102.925 28.3399C102.594 28.4758 102.238 28.5409 101.88 28.531L101.883 28.5288ZM110.512 22.7039V21.4317H108.551V30.1829H110.62V25.9296C110.571 25.5763 110.602 25.2164 110.71 24.8765C110.819 24.5365 111.002 24.2251 111.248 23.9651C111.493 23.7052 111.794 23.5033 112.128 23.3743C112.462 23.2454 112.821 23.1926 113.179 23.2199C113.343 23.2276 113.507 23.2459 113.669 23.2746V21.3233C113.072 21.2645 112.471 21.3608 111.923 21.6031C111.375 21.8453 110.9 22.225 110.544 22.705L110.512 22.7039ZM123.577 25.847C123.613 25.2526 123.524 24.6572 123.315 24.0991C123.107 23.541 122.783 23.0325 122.365 22.6064C121.947 22.1802 121.445 21.8458 120.889 21.6247C120.334 21.4035 119.738 21.3005 119.14 21.3223C118.541 21.299 117.944 21.3983 117.386 21.6141C116.827 21.8298 116.319 22.1574 115.893 22.5766C115.467 22.9957 115.132 23.4975 114.909 24.0508C114.685 24.6042 114.578 25.1973 114.595 25.7934C114.595 28.3947 116.5 30.2913 119.467 30.2913C120.127 30.3322 120.788 30.2242 121.401 29.9756C122.014 29.7269 122.562 29.3438 123.006 28.8549L121.89 27.5795C121.583 27.8994 121.21 28.1497 120.796 28.3133C120.383 28.4769 119.939 28.5501 119.495 28.5277C118.844 28.588 118.194 28.409 117.668 28.0245C117.141 27.64 116.774 27.0768 116.637 26.4413H123.551C123.573 26.2433 123.582 26.044 123.578 25.8449L123.577 25.847ZM119.14 22.9753C119.752 22.9452 120.351 23.1517 120.813 23.5516C121.275 23.9515 121.564 24.5138 121.619 25.1208H116.638C116.709 24.5156 117.005 23.959 117.469 23.5615C117.933 23.1641 118.531 22.9548 119.142 22.9753H119.14ZM41.9475 12.6772H44.6146C45.0772 12.7131 45.5422 12.6525 45.9799 12.4992C46.4176 12.346 46.8184 12.1035 47.1565 11.7873C47.4947 11.471 47.7628 11.088 47.9438 10.6628C48.1247 10.2375 48.2146 9.77927 48.2074 9.31746C48.2146 8.85565 48.1247 8.39745 47.9438 7.97216C47.7628 7.54688 47.4947 7.16387 47.1565 6.84764C46.8184 6.53141 46.4176 6.28892 45.9799 6.13568C45.5422 5.98244 45.0772 5.92182 44.6146 5.9577H41.9443L41.9475 12.6772ZM42.4378 12.2481V6.42111H44.5931C44.9964 6.38711 45.4023 6.43804 45.7846 6.57056C46.1668 6.70309 46.5167 6.91425 46.8115 7.19031C47.1063 7.46636 47.3394 7.80112 47.4956 8.17279C47.6518 8.54446 47.7277 8.94471 47.7182 9.3475C47.7277 9.75028 47.6518 10.1505 47.4956 10.5222C47.3394 10.8939 47.1063 11.2286 46.8115 11.5047C46.5167 11.7807 46.1668 11.9919 45.7846 12.1244C45.4023 12.257 44.9964 12.3079 44.5931 12.2739H42.4378V12.2481ZM51.7194 12.7362C52.0547 12.7435 52.3879 12.6821 52.6983 12.5557C53.0087 12.4294 53.2897 12.2408 53.5238 12.0017C53.7579 11.7627 53.94 11.4783 54.059 11.1662C54.1779 10.854 54.2311 10.5209 54.2152 10.1874C54.2221 9.85577 54.1625 9.52606 54.0398 9.21764C53.917 8.90922 53.7337 8.62828 53.5005 8.39128C53.2673 8.15429 52.989 7.96601 52.6817 7.83747C52.3745 7.70893 52.0446 7.64272 51.7114 7.64272C51.3781 7.64272 51.0482 7.70893 50.741 7.83747C50.4338 7.96601 50.1554 8.15429 49.9222 8.39128C49.689 8.62828 49.5057 8.90922 49.383 9.21764C49.2602 9.52606 49.2006 9.85577 49.2075 10.1874C49.1918 10.5217 49.2456 10.8556 49.3654 11.1683C49.4852 11.481 49.6685 11.7658 49.9038 12.0047C50.1391 12.2437 50.4214 12.4319 50.7331 12.5573C51.0448 12.6828 51.3791 12.743 51.7151 12.7341L51.7194 12.7362ZM51.7194 12.3071C51.4451 12.3089 51.1734 12.2547 50.921 12.1477C50.6686 12.0407 50.4409 11.8833 50.2521 11.6852C50.0633 11.4871 49.9174 11.2525 49.8233 10.996C49.7293 10.7395 49.6891 10.4665 49.7054 10.1939C49.6898 9.92103 49.7304 9.6479 49.8246 9.3912C49.9188 9.13451 50.0646 8.89966 50.2532 8.70103C50.4417 8.5024 50.669 8.34416 50.9211 8.23602C51.1733 8.12788 51.4449 8.07209 51.7194 8.07209C51.994 8.07209 52.2656 8.12788 52.5177 8.23602C52.7699 8.34416 52.9972 8.5024 53.1857 8.70103C53.3743 8.89966 53.5201 9.13451 53.6143 9.3912C53.7085 9.6479 53.7491 9.92103 53.7335 10.1939C53.7489 10.4663 53.7079 10.739 53.6132 10.995C53.5184 11.2511 53.372 11.4851 53.1828 11.6825C52.9936 11.88 52.7658 12.0367 52.5133 12.143C52.2609 12.2494 51.9892 12.303 51.7151 12.3007L51.7194 12.3071ZM62.3351 7.70087L60.6476 12.172L58.9288 7.69443H58.5203L56.8015 12.1655L55.1183 7.69443H54.656L56.5612 12.7073H56.9923L58.7068 8.37239L60.3943 12.7073H60.8566L62.7619 7.69443H62.3308L62.3351 7.70087ZM66.3633 7.67405C65.9595 7.6472 65.5565 7.738 65.2036 7.93535C64.8507 8.1327 64.5632 8.42807 64.3762 8.78539V7.69443H63.9139V12.7073H64.4042V10.0523C64.3809 9.7949 64.4137 9.53556 64.5004 9.292C64.5872 9.04843 64.7257 8.8264 64.9067 8.64109C65.0876 8.45579 65.3066 8.31159 65.5487 8.21837C65.7908 8.12515 66.0503 8.08511 66.3094 8.10099C66.5383 8.08218 66.7684 8.1151 66.9827 8.19729C67.197 8.27947 67.3898 8.4088 67.5468 8.5756C67.7038 8.7424 67.8209 8.94236 67.8893 9.16055C67.9578 9.37873 67.9758 9.60949 67.942 9.83558V12.7319H68.4324V9.80769C68.4666 9.52904 68.4381 9.2463 68.3488 8.98C68.2596 8.7137 68.1119 8.47054 67.9164 8.26817C67.721 8.0658 67.4827 7.90931 67.2189 7.81007C66.9551 7.71082 66.6724 7.67132 66.3913 7.69443L66.3633 7.67405ZM70.3915 12.7158H70.8818V5.58117H70.3915V12.7158ZM74.883 12.7427C75.2193 12.7508 75.5537 12.6897 75.8652 12.5633C76.1767 12.4369 76.4586 12.2478 76.6934 12.008C76.9282 11.7682 77.1107 11.4827 77.2295 11.1694C77.3484 10.8562 77.4011 10.5219 77.3842 10.1874C77.3911 9.85577 77.3315 9.52606 77.2087 9.21764C77.086 8.90922 76.9027 8.62828 76.6695 8.39128C76.4363 8.15429 76.1579 7.96601 75.8507 7.83747C75.5435 7.70893 75.2136 7.64272 74.8803 7.64272C74.5471 7.64272 74.2172 7.70893 73.91 7.83747C73.6027 7.96601 73.3244 8.15429 73.0912 8.39128C72.858 8.62828 72.6747 8.90922 72.5519 9.21764C72.4292 9.52606 72.3696 9.85577 72.3765 10.1874C72.3608 10.5213 72.4144 10.8547 72.5339 11.167C72.6534 11.4793 72.8362 11.7638 73.071 12.0027C73.3057 12.2416 73.5873 12.4299 73.8984 12.5557C74.2094 12.6815 74.5431 12.7422 74.8787 12.7341L74.883 12.7427ZM74.883 12.3136C74.6087 12.3154 74.337 12.2611 74.0846 12.1541C73.8322 12.0471 73.6045 11.8897 73.4157 11.6916C73.2269 11.4935 73.081 11.2589 72.9869 11.0024C72.8929 10.7459 72.8527 10.4729 72.8689 10.2003C72.8534 9.92746 72.894 9.65433 72.9882 9.39764C73.0824 9.14095 73.2282 8.9061 73.4168 8.70746C73.6053 8.50883 73.8326 8.3506 74.0847 8.24246C74.3369 8.13431 74.6085 8.07853 74.883 8.07853C75.1576 8.07853 75.4292 8.13431 75.6813 8.24246C75.9335 8.3506 76.1608 8.50883 76.3493 8.70746C76.5379 8.9061 76.6837 9.14095 76.7779 9.39764C76.8721 9.65433 76.9127 9.92746 76.8971 10.2003C76.9115 10.4722 76.8699 10.7442 76.7748 10.9995C76.6796 11.2548 76.533 11.488 76.3439 11.6847C76.1548 11.8815 75.9273 12.0376 75.6753 12.1436C75.4233 12.2495 75.1522 12.303 74.8787 12.3007L74.883 12.3136ZM80.5718 7.65367C79.8373 7.6409 79.1227 7.89099 78.5577 8.35845L78.8024 8.7103C79.2848 8.29353 79.9063 8.07125 80.5449 8.08705C80.7436 8.05732 80.9466 8.0735 81.1381 8.13433C81.3295 8.19517 81.5044 8.29903 81.6491 8.43788C81.7938 8.57673 81.9044 8.74685 81.9725 8.93509C82.0406 9.12332 82.0643 9.32462 82.0417 9.52342V9.92998H80.3218C78.9338 9.92998 78.4435 10.5801 78.4435 11.3385C78.4435 12.2052 79.1235 12.7748 80.2669 12.7748C80.6263 12.8016 80.9863 12.7298 81.3077 12.5674C81.6291 12.405 81.8998 12.158 82.0902 11.8534V12.748H82.5568V9.56418C82.5872 9.30596 82.5574 9.04425 82.4697 8.79936C82.382 8.55447 82.2387 8.333 82.0511 8.15215C81.8635 7.97129 81.6365 7.83592 81.3878 7.75654C81.1391 7.67716 80.8754 7.6559 80.6171 7.69443L80.5718 7.65367ZM80.2992 12.3415C79.4004 12.3415 78.9112 11.9349 78.9112 11.2848C78.9112 10.7163 79.2647 10.2818 80.3261 10.2818H82.0406V11.2301C81.9149 11.5756 81.6795 11.8709 81.3702 12.0714C81.0609 12.2719 80.6944 12.3667 80.3261 12.3415H80.2992ZM88.4892 5.56723V8.83259C88.2953 8.46329 88.001 8.15571 87.6399 7.94497C87.2788 7.73423 86.8655 7.62883 86.4471 7.6408C86.1125 7.63272 85.78 7.69369 85.4703 7.81987C85.1606 7.94604 84.8805 8.13469 84.6477 8.37393C84.4148 8.61316 84.2343 8.8978 84.1174 9.20991C84.0005 9.52203 83.9498 9.85486 83.9685 10.1874C83.9521 10.5195 84.0043 10.8513 84.122 11.1624C84.2397 11.4735 84.4204 11.7573 84.6527 11.996C84.8851 12.2348 85.1643 12.4235 85.4729 12.5505C85.7816 12.6774 86.1131 12.7399 86.4471 12.7341C86.8726 12.7466 87.2929 12.6387 87.6592 12.4228C88.0255 12.2069 88.3226 11.8918 88.5161 11.5144V12.7062H88.9784V5.58117H88.4838L88.4892 5.56723ZM86.4751 12.2867C86.2008 12.2885 85.929 12.2343 85.6766 12.1273C85.4242 12.0203 85.1966 11.8629 85.0078 11.6648C84.819 11.4667 84.673 11.2321 84.579 10.9756C84.4849 10.7191 84.4448 10.4461 84.461 10.1735C84.4454 9.90065 84.486 9.62752 84.5802 9.37082C84.6744 9.11413 84.8203 8.87928 85.0088 8.68065C85.1974 8.48201 85.4247 8.32378 85.6768 8.21564C85.9289 8.10749 86.2005 8.05171 86.4751 8.05171C86.7496 8.05171 87.0212 8.10749 87.2734 8.21564C87.5255 8.32378 87.7528 8.48201 87.9413 8.68065C88.1299 8.87928 88.2757 9.11413 88.3699 9.37082C88.4641 9.62752 88.5047 9.90065 88.4892 10.1735C88.5036 10.4451 88.462 10.7168 88.3671 10.9719C88.2721 11.227 88.1258 11.46 87.9371 11.6567C87.7483 11.8534 87.5212 12.0097 87.2696 12.1158C87.018 12.2219 86.7472 12.2757 86.474 12.2739L86.4751 12.2867ZM95.4571 12.7158C95.7929 12.7243 96.1268 12.6638 96.4381 12.5381C96.7494 12.4124 97.0313 12.2242 97.2663 11.9853C97.5013 11.7464 97.6843 11.4618 97.8039 11.1493C97.9235 10.8369 97.9771 10.5032 97.9615 10.1692C97.9684 9.83753 97.9088 9.50783 97.786 9.1994C97.6633 8.89098 97.48 8.61004 97.2468 8.37305C97.0136 8.13605 96.7352 7.94777 96.428 7.81923C96.1208 7.69069 95.7909 7.62448 95.4576 7.62448C95.1244 7.62448 94.7945 7.69069 94.4873 7.81923C94.18 7.94777 93.9017 8.13605 93.6685 8.37305C93.4353 8.61004 93.252 8.89098 93.1292 9.1994C93.0065 9.50783 92.9469 9.83753 92.9538 10.1692C92.9393 10.5023 92.9938 10.8348 93.1139 11.1461C93.2339 11.4574 93.4169 11.7409 93.6515 11.9788C93.8861 12.2168 94.1674 12.4043 94.4778 12.5296C94.7882 12.6549 95.1212 12.7154 95.456 12.7073L95.4571 12.7158ZM95.4571 12.2867C95.1814 12.289 94.9083 12.2346 94.6547 12.1269C94.4011 12.0193 94.1726 11.8607 93.9834 11.6612C93.7942 11.4617 93.6483 11.2254 93.555 10.9672C93.4616 10.709 93.4228 10.4344 93.4408 10.1606C93.4253 9.88777 93.4659 9.61464 93.5601 9.35795C93.6543 9.10126 93.8001 8.86641 93.9887 8.66777C94.1772 8.46914 94.4045 8.31091 94.6566 8.20276C94.9088 8.09462 95.1804 8.03884 95.4549 8.03884C95.7295 8.03884 96.0011 8.09462 96.2532 8.20276C96.5054 8.31091 96.7327 8.46914 96.9212 8.66777C97.1098 8.86641 97.2556 9.10126 97.3498 9.35795C97.444 9.61464 97.4846 9.88777 97.469 10.1606C97.4853 10.4331 97.4451 10.706 97.3511 10.9625C97.2572 11.2189 97.1113 11.4534 96.9226 11.6515C96.7339 11.8496 96.5064 12.0071 96.2542 12.1141C96.0019 12.2211 95.7302 12.2755 95.456 12.2739L95.4571 12.2867ZM101.935 7.62685C101.531 7.6 101.128 7.6908 100.775 7.88815C100.422 8.0855 100.135 8.38087 99.9476 8.73819V7.6408H99.4853V12.6536H99.9756V9.99756C99.9523 9.7402 99.9851 9.48085 100.072 9.23729C100.159 8.99372 100.297 8.77169 100.478 8.58638C100.659 8.40108 100.878 8.25688 101.12 8.16366C101.362 8.07044 101.622 8.0304 101.881 8.04628C102.11 8.02748 102.34 8.06039 102.554 8.14258C102.768 8.22476 102.961 8.35409 103.118 8.52089C103.275 8.68769 103.392 8.88765 103.461 9.10584C103.529 9.32402 103.547 9.55478 103.513 9.78087V12.6772H104.002V9.75406C104.036 9.47541 104.007 9.19266 103.918 8.92636C103.829 8.66007 103.681 8.4169 103.486 8.21453C103.29 8.01216 103.052 7.85567 102.788 7.75643C102.524 7.65719 102.242 7.61769 101.961 7.6408L101.935 7.62685ZM110.726 12.0164C110.508 12.205 110.225 12.3023 109.937 12.2878C109.311 12.2878 109.011 11.936 109.011 11.2848V8.04736H110.617V7.6408H109.011V6.55413H108.521V7.63758H107.595V8.04414H108.521V11.3224C108.503 11.5047 108.526 11.6887 108.588 11.8612C108.65 12.0337 108.75 12.1903 108.88 12.3199C109.01 12.4494 109.168 12.5487 109.341 12.6105C109.514 12.6722 109.699 12.695 109.882 12.6772C110.259 12.6942 110.629 12.5685 110.917 12.3254L110.726 12.0164ZM114.727 7.62685C114.327 7.60207 113.928 7.6907 113.576 7.88245C113.225 8.07421 112.935 8.36125 112.74 8.7103V5.55435H112.25V12.6804H112.74V10.0255C112.717 9.76809 112.75 9.50874 112.836 9.26518C112.923 9.02161 113.062 8.79958 113.243 8.61427C113.423 8.42897 113.643 8.28477 113.885 8.19155C114.127 8.09833 114.386 8.05829 114.645 8.07417C114.874 8.05537 115.104 8.08828 115.319 8.17047C115.533 8.25265 115.726 8.38198 115.883 8.54878C116.04 8.71558 116.157 8.91555 116.225 9.13373C116.294 9.35191 116.312 9.58267 116.278 9.80876V12.7051H116.768V9.78087C116.802 9.50222 116.774 9.21948 116.685 8.95318C116.595 8.68688 116.448 8.44372 116.252 8.24135C116.057 8.03898 115.819 7.88249 115.555 7.78325C115.291 7.68401 115.008 7.64451 114.727 7.66761V7.62685ZM123.025 10.1467C123.045 9.82193 122.998 9.49651 122.887 9.19063C122.775 8.88476 122.602 8.60497 122.377 8.36865C122.152 8.13233 121.881 7.94452 121.581 7.81691C121.28 7.6893 120.956 7.62461 120.629 7.62685C120.299 7.62477 119.972 7.69027 119.668 7.81929C119.364 7.9483 119.09 8.13808 118.863 8.37686C118.636 8.61563 118.46 8.89831 118.348 9.20737C118.235 9.51642 118.187 9.84526 118.207 10.1735C118.194 10.5138 118.252 10.8532 118.377 11.17C118.503 11.4869 118.693 11.7742 118.937 12.0137C119.18 12.2532 119.471 12.4398 119.79 12.5614C120.11 12.683 120.451 12.7371 120.793 12.7201C121.151 12.7328 121.508 12.6664 121.837 12.5258C122.167 12.3853 122.461 12.1739 122.698 11.907L122.426 11.5852C122.227 11.8129 121.979 11.9941 121.702 12.1159C121.424 12.2378 121.123 12.2972 120.82 12.29C120.547 12.3018 120.275 12.2588 120.019 12.1636C119.763 12.0684 119.529 11.9229 119.331 11.7359C119.133 11.5488 118.975 11.3239 118.866 11.0746C118.757 10.8254 118.7 10.5569 118.697 10.2851H123.025V10.1338V10.1467ZM120.629 8.03341C121.133 8.03213 121.617 8.22703 121.978 8.57645C122.339 8.92586 122.549 9.40205 122.562 9.90316H118.7C118.71 9.39942 118.918 8.91953 119.279 8.5671C119.641 8.21467 120.128 8.01797 120.634 8.01947L120.629 8.03341ZM24.1968 7.61398C22.6093 7.76026 21.1384 8.50655 20.0868 9.69935C19.5592 10.2794 19.1565 10.9609 18.9037 11.7019C18.6509 12.4428 18.5533 13.2274 18.6169 14.0074C18.6259 14.0587 18.6521 14.1054 18.6912 14.1399C18.7304 14.1744 18.7802 14.1946 18.8324 14.1973H19.132C19.8813 14.1638 20.6146 13.9698 21.2817 13.6284C21.9488 13.287 22.5341 12.8063 22.9974 12.2192C24.0387 10.9907 24.5565 9.4059 24.4404 7.80278C24.4343 7.75025 24.4089 7.70182 24.3691 7.66678C24.3293 7.63174 24.278 7.61255 24.2249 7.61291L24.1968 7.61398ZM8.89453 17.5849C6.5841 21.5722 8.05614 27.6095 10.6155 31.2675C11.8946 33.1104 13.1738 34.7356 14.9433 34.7356H15.051C15.7511 34.6853 16.4349 34.5014 17.0651 34.1938C17.8039 33.8334 18.6133 33.6393 19.4359 33.6253C20.2221 33.63 20.9965 33.8154 21.6989 34.167C22.3698 34.5182 23.1189 34.6953 23.8768 34.6819C25.8639 34.6551 27.0881 32.8669 28.1507 31.3222C28.9526 30.1422 29.5848 28.8565 30.029 27.5022V27.4722C30.0407 27.4214 30.0367 27.3683 30.0174 27.3198C29.9982 27.2714 29.9646 27.2299 29.9212 27.2008H29.8943C28.8679 26.7681 27.9926 26.0437 27.3777 25.1183C26.7628 24.1929 26.4357 23.1076 26.4372 21.9981C26.4537 21.0191 26.7163 20.0598 27.2013 19.2079C27.6862 18.356 28.3779 17.6386 29.2132 17.1215H29.2401C29.2899 17.0894 29.3278 17.0419 29.3479 16.9863C29.3524 16.9306 29.3431 16.8746 29.321 16.8233C28.7483 16.0068 27.9925 15.3344 27.1133 14.8594C26.2341 14.3844 25.2559 14.1198 24.2561 14.0868C24.1136 14.0646 23.9693 14.0557 23.8251 14.06C22.7237 14.1215 21.6436 14.3879 20.6407 14.8452C20.16 15.077 19.6459 15.2323 19.1169 15.3054C18.5693 15.2373 18.0362 15.082 17.5382 14.8452C16.665 14.4402 15.7236 14.2012 14.7622 14.1404H14.6663C13.4932 14.1765 12.3491 14.512 11.3435 15.1145C10.338 15.7171 9.50474 16.5666 8.92363 17.5817L8.89453 17.5849Z"
                    fill="#3182CE"
                  />
                </svg>