
<svg width="40" height="40" viewBox="0 0 40 40" fill="none" xmlns="http://www.w3.org/2000/svg">
<circle cx="20" cy="20" r="20" fill="#3182CE"/>
<path d="M27 7.70243C27 7.51831 26.9282 7.34173 26.8003 7.21154C26.6724 7.08135 26.499 7.00821 26.3182 7.00821H22.9091C21.1924 6.92114 19.5117 7.52942 18.2342 8.70013C16.9566 9.87084 16.1861 11.5088 16.0909 13.2562V17.0049H12.6818C12.501 17.0049 12.3276 17.0781 12.1997 17.2083C12.0718 17.3384 12 17.515 12 17.6991V21.3091C12 21.4932 12.0718 21.6698 12.1997 21.8C12.3276 21.9301 12.501 22.0033 12.6818 22.0033H16.0909V31.3058C16.0909 31.4899 16.1627 31.6665 16.2906 31.7967C16.4185 31.9269 16.5919 32 16.7727 32H20.8636C21.0445 32 21.2179 31.9269 21.3458 31.7967C21.4736 31.6665 21.5455 31.4899 21.5455 31.3058V22.0033H25.1182C25.2698 22.0055 25.4178 21.9562 25.5388 21.8632C25.6599 21.7701 25.747 21.6387 25.7864 21.4896L26.7682 17.8796C26.7953 17.7771 26.799 17.6695 26.7788 17.5653C26.7587 17.461 26.7154 17.3629 26.6522 17.2784C26.5889 17.1939 26.5075 17.1253 26.4141 17.0779C26.3208 17.0305 26.218 17.0055 26.1136 17.0049H21.5455V13.2562C21.5794 12.9125 21.7379 12.594 21.99 12.363C22.2422 12.1319 22.5699 12.0048 22.9091 12.0066H26.3182C26.499 12.0066 26.6724 11.9334 26.8003 11.8032C26.9282 11.673 27 11.4965 27 11.3124V7.70243Z" fill="white"/>
</svg>