       <svg
                  width="142"
                  height="43"
                  viewBox="0 0 142 43"
                  fill="none"
                  xmlns="http://www.w3.org/2000/svg"
                >
                  <path
                    d="M136.502 43H5.49761C4.77547 43.0007 4.06029 42.8596 3.39299 42.5848C2.72569 42.31 2.11937 41.9069 1.60874 41.3985C1.09811 40.8902 0.693186 40.2867 0.417139 39.6224C0.141092 38.9581 -0.000657379 38.2462 2.29191e-06 37.5273V5.47273C-0.000657379 4.75386 0.141092 4.04191 0.417139 3.37763C0.693186 2.71335 1.09811 2.10978 1.60874 1.60146C2.11937 1.09314 2.72569 0.690049 3.39299 0.415251C4.06029 0.140454 4.77547 -0.000654404 5.49761 2.28154e-06H136.502C137.225 -0.000654404 137.94 0.140454 138.607 0.415251C139.274 0.690049 139.881 1.09314 140.391 1.60146C140.902 2.10978 141.307 2.71335 141.583 3.37763C141.859 4.04191 142.001 4.75386 142 5.47273V37.5243C142.001 38.2432 141.859 38.9551 141.583 39.6194C141.307 40.2837 140.902 40.8872 140.391 41.3955C139.881 41.9039 139.274 42.307 138.607 42.5818C137.94 42.8566 137.225 42.9977 136.502 42.997V43ZM7.98011 7.81818L7.95504 36.4429L22.852 22.1176L7.98011 7.81818ZM9.0694 36.7964L21.9142 29.76L27.463 26.5818L23.5873 22.8495L9.0694 36.8213V36.7964ZM27.8431 17.3008L21.8891 13.871L8.84171 7.2131L23.5863 21.3917L27.8421 17.2809L27.8431 17.3008ZM34.1773 20.9324L28.7559 17.8301L24.2974 22.1176L28.3507 26.0267L34.1522 22.6977C34.3106 22.6118 34.4418 22.4838 34.5313 22.3279C34.6207 22.172 34.6649 21.9944 34.6587 21.815C34.6594 21.6366 34.613 21.4611 34.5241 21.3062C34.4352 21.1513 34.3069 21.0224 34.1522 20.9324H34.1773ZM48.1104 27.8679C47.4037 28.254 46.6095 28.4537 45.8034 28.448C45.2752 28.4625 44.7494 28.3715 44.2571 28.1803C43.7648 27.9891 43.3161 27.7016 42.9373 27.3348C42.5585 26.968 42.2574 26.5293 42.0519 26.0448C41.8463 25.5602 41.7404 25.0395 41.7404 24.5134C41.7404 23.9874 41.8463 23.4667 42.0519 22.9821C42.2574 22.4976 42.5585 22.0589 42.9373 21.6921C43.3161 21.3253 43.7648 21.0378 44.2571 20.8466C44.7494 20.6554 45.2752 20.5644 45.8034 20.5789C46.384 20.5665 46.9609 20.6745 47.4974 20.8959C48.0339 21.1173 48.5182 21.4473 48.9198 21.865L50.2388 20.5789C49.6618 19.9652 48.9569 19.4846 48.1735 19.1708C47.3901 18.8571 46.5473 18.7177 45.7041 18.7626C44.9191 18.7239 44.1344 18.8441 43.3975 19.116C42.6605 19.3879 41.9867 19.8059 41.4168 20.3446C40.8468 20.8833 40.3926 21.5315 40.0816 22.25C39.7707 22.9686 39.6095 23.7424 39.6077 24.5248C39.6059 25.3072 39.7637 26.0818 40.0714 26.8017C40.3791 27.5216 40.8304 28.1719 41.3979 28.7131C41.9654 29.2543 42.6373 29.6753 43.373 29.9505C44.1087 30.2257 44.8929 30.3494 45.678 30.3142C47.2685 30.3451 48.8225 29.8382 50.0863 28.8764V24.4131H48.1104V27.9188V27.8679ZM56.5218 30.2133C57.3836 30.1818 58.2172 29.8987 58.9187 29.3993C59.6203 28.8999 60.1588 28.2061 60.4674 27.4044C60.776 26.6027 60.841 25.7283 60.6543 24.8901C60.4676 24.0519 60.0374 23.2868 59.4174 22.6901C58.7973 22.0933 58.0147 21.6912 57.1668 21.5338C56.319 21.3763 55.4433 21.4705 54.6488 21.8046C53.8543 22.1387 53.176 22.6979 52.6983 23.4127C52.2206 24.1275 51.9645 24.9664 51.962 25.825C51.9508 26.4172 52.0623 27.0054 52.2895 27.5528C52.5167 28.1003 52.8547 28.5953 53.2825 29.007C53.7103 29.4187 54.2187 29.7383 54.776 29.9458C55.3333 30.1534 55.9276 30.2444 56.5218 30.2133ZM56.5218 28.4979C56.1741 28.505 55.8287 28.4395 55.508 28.3056C55.1873 28.1717 54.8982 27.9725 54.6596 27.7207C54.4209 27.4689 54.2378 27.1701 54.1222 26.8436C54.0065 26.5171 53.9609 26.1701 53.9881 25.825C53.97 25.4809 54.0224 25.1368 54.1421 24.8135C54.2619 24.4903 54.4465 24.1947 54.6847 23.9448C54.9229 23.6948 55.2098 23.4958 55.5278 23.3598C55.8457 23.2238 56.1882 23.1537 56.5343 23.1537C56.8804 23.1537 57.2229 23.2238 57.5409 23.3598C57.8588 23.4958 58.1457 23.6948 58.3839 23.9448C58.6221 24.1947 58.8067 24.4903 58.9265 24.8135C59.0463 25.1368 59.0986 25.4809 59.0805 25.825C59.1073 26.1722 59.0606 26.5211 58.9432 26.8491C58.8259 27.1772 58.6405 27.477 58.3993 27.7291C58.158 27.9813 57.8662 28.1801 57.5427 28.3127C57.2193 28.4453 56.8714 28.5088 56.5218 28.4989V28.4979ZM66.9121 30.2133C67.774 30.1818 68.6076 29.8987 69.3091 29.3993C70.0107 28.8999 70.5492 28.2061 70.8578 27.4044C71.1664 26.6027 71.2313 25.7283 71.0446 24.8901C70.8579 24.0519 70.4278 23.2868 69.8077 22.6901C69.1877 22.0933 68.405 21.6912 67.5572 21.5338C66.7094 21.3763 65.8337 21.4705 65.0392 21.8046C64.2447 22.1387 63.5664 22.6979 63.0887 23.4127C62.611 24.1275 62.3549 24.9664 62.3524 25.825C62.3412 26.4172 62.4527 27.0054 62.6799 27.5528C62.9071 28.1003 63.2451 28.5953 63.6729 29.007C64.1007 29.4187 64.6091 29.7383 65.1664 29.9458C65.7237 30.1534 66.3179 30.2444 66.9121 30.2133ZM66.9121 28.4979C66.5644 28.505 66.2191 28.4395 65.8984 28.3056C65.5776 28.1717 65.2886 27.9725 65.05 27.7207C64.8113 27.4689 64.6282 27.1701 64.5126 26.8436C64.3969 26.5171 64.3513 26.1701 64.3785 25.825C64.3603 25.4809 64.4127 25.1368 64.5325 24.8135C64.6523 24.4903 64.8369 24.1947 65.0751 23.9448C65.3133 23.6948 65.6002 23.4958 65.9181 23.3598C66.2361 23.2238 66.5786 23.1537 66.9247 23.1537C67.2708 23.1537 67.6133 23.2238 67.9312 23.3598C68.2492 23.4958 68.5361 23.6948 68.7743 23.9448C69.0125 24.1947 69.1971 24.4903 69.3169 24.8135C69.4366 25.1368 69.489 25.4809 69.4709 25.825C69.4977 26.1722 69.451 26.5211 69.3336 26.8491C69.2162 27.1772 69.0309 27.477 68.7896 27.7291C68.5484 27.9813 68.2565 28.1801 67.9331 28.3127C67.6097 28.4453 67.2618 28.5088 66.9121 28.4989V28.4979ZM80.0318 21.5374V22.6757C79.6597 22.2583 79.1975 21.9303 78.6798 21.7162C78.1621 21.5021 77.6024 21.4075 77.0428 21.4396C76.4808 21.4135 75.9194 21.5012 75.3925 21.6973C74.8655 21.8934 74.384 22.1938 73.9771 22.5805C73.5701 22.9671 73.2462 23.432 73.0249 23.9468C72.8036 24.4616 72.6895 25.0158 72.6895 25.5758C72.6895 26.1358 72.8036 26.69 73.0249 27.2049C73.2462 27.7197 73.5701 28.1845 73.9771 28.5712C74.384 28.9578 74.8655 29.2583 75.3925 29.4544C75.9194 29.6505 76.4808 29.7382 77.0428 29.7121C77.577 29.7337 78.1099 29.6438 78.6072 29.4483C79.1045 29.2528 79.5552 28.9559 79.9305 28.5768V29.0311C79.9305 30.7715 79.094 31.6272 77.1942 31.6272C76.0528 31.6407 74.9391 31.2769 74.0276 30.5928L73.1159 32.1055C74.3392 32.9527 75.8076 33.3777 77.2965 33.3156C80.3116 33.3156 81.9325 31.9038 81.9325 28.8015V21.5374H80.0067H80.0318ZM77.3717 28.0187C77.0357 28.0431 76.6981 27.9983 76.3802 27.8871C76.0623 27.7758 75.7709 27.6006 75.524 27.3722C75.2772 27.1438 75.0804 26.8672 74.9458 26.5597C74.8112 26.2521 74.7417 25.9203 74.7417 25.5848C74.7417 25.2494 74.8112 24.9175 74.9458 24.61C75.0804 24.3025 75.2772 24.0259 75.524 23.7975C75.7709 23.5691 76.0623 23.3938 76.3802 23.2826C76.6981 23.1713 77.0357 23.1266 77.3717 23.151C77.7066 23.1286 78.0426 23.1749 78.3587 23.2871C78.6749 23.3993 78.9645 23.5749 79.2097 23.8031C79.4548 24.0313 79.6503 24.3072 79.7839 24.6137C79.9175 24.9202 79.9865 25.2507 79.9865 25.5848C79.9865 25.9189 79.9175 26.2495 79.7839 26.556C79.6503 26.8625 79.4548 27.1384 79.2097 27.3666C78.9645 27.5948 78.6749 27.7704 78.3587 27.8826C78.0426 27.9947 77.7066 28.0411 77.3717 28.0187ZM84.5936 30.1155H86.5996V18.2334H84.5936V30.1155ZM97.3321 25.8789C97.3678 25.2965 97.2801 24.7132 97.0748 24.1668C96.8695 23.6203 96.5511 23.1229 96.1403 22.7068C95.7295 22.2906 95.2354 21.9651 94.6901 21.7513C94.1448 21.5375 93.5604 21.4401 92.9749 21.4656C92.3905 21.4414 91.8073 21.5374 91.2618 21.7475C90.7163 21.9576 90.2201 22.2773 89.8041 22.6867C89.3882 23.096 89.0614 23.5863 88.8442 24.1269C88.627 24.6676 88.5239 25.247 88.5415 25.829C88.5415 28.3761 90.4162 30.2173 93.2788 30.2173C93.9239 30.2522 94.5688 30.1461 95.1684 29.9065C95.7679 29.667 96.3075 29.2997 96.7493 28.8304L95.66 27.5943C95.3602 27.9055 94.9972 28.1497 94.5954 28.3107C94.1935 28.4716 93.7618 28.5457 93.329 28.5279C92.6944 28.5827 92.0616 28.4056 91.5487 28.0296C91.0359 27.6536 90.6782 27.1045 90.5425 26.485H97.2819C97.3024 26.284 97.3107 26.0819 97.307 25.8799L97.3321 25.8789ZM92.9749 23.0542C93.5725 23.0287 94.1573 23.2317 94.6095 23.6215C95.0617 24.0113 95.3471 24.5585 95.4072 25.151H90.5205C90.589 24.5572 90.8802 24.011 91.3358 23.6217C91.7915 23.2324 92.3779 23.0286 92.9779 23.0512L92.9749 23.0542ZM108.538 18.8895H103.902V30.1125H106.008V26.8844H108.538C111.502 26.8844 113.326 25.3717 113.326 22.8994C113.326 20.4032 111.502 18.9144 108.538 18.9144V18.8895ZM108.438 25.119H105.98V20.6548H108.438C110.262 20.6548 111.224 21.4616 111.224 22.8744C111.224 24.2873 110.261 25.0941 108.438 25.0941V25.119ZM115.38 30.1115H117.386V18.2294H115.38V30.1115ZM123.31 21.4606C122.011 21.4174 120.733 21.7886 119.662 22.52L120.447 23.9827C121.197 23.4171 122.114 23.1154 123.055 23.125C124.499 23.125 125.208 23.806 125.208 24.9912V25.117H122.979C120.371 25.117 119.407 26.2264 119.407 27.6642C119.407 29.1519 120.648 30.2363 122.599 30.2363C123.113 30.2905 123.632 30.2122 124.106 30.009C124.58 29.8058 124.994 29.4845 125.308 29.0761V30.1105H127.207V25.0941C127.207 22.6228 125.763 21.4626 123.306 21.4626L123.31 21.4606ZM123.031 28.7745C121.992 28.7745 121.384 28.3202 121.384 27.5893C121.384 26.9593 121.764 26.454 123.132 26.454H125.209V27.4375C125.033 27.8598 124.728 28.2161 124.337 28.4561C123.946 28.696 123.489 28.8074 123.031 28.7745ZM135.749 21.5614L133.041 27.8918L130.333 21.5614H128.226L131.976 30.1614L131.823 30.4889C131.443 31.3466 131.013 31.6741 130.304 31.6741C129.753 31.673 129.225 31.4556 128.834 31.069L128.024 32.5318C128.675 33.057 129.493 33.3342 130.331 33.3136C131.775 33.3136 132.864 32.7086 133.65 30.7915L137.678 21.5354H135.752L135.749 21.5614ZM46.5908 12.6099H47.1224L44.006 5.90108H43.5245L40.4081 12.6099H40.9397L41.8013 10.7188H45.7031L46.5647 12.6099H46.5908ZM42.0049 10.3134L43.7783 6.42928L45.5516 10.3134H42.0049ZM51.4805 7.61749L49.4534 12.1107L47.4473 7.61749H46.9408L49.1956 12.6359H49.6771L51.957 7.61749H51.4755H51.4805ZM54.5749 7.56557C53.8427 7.55346 53.1307 7.80404 52.5688 8.2715L52.8226 8.62496C53.2994 8.21108 53.9133 7.98769 54.5458 7.99791C54.7444 7.96906 54.947 7.98592 55.1381 8.0472C55.3291 8.10848 55.5035 8.21254 55.6478 8.3514C55.7922 8.49025 55.9026 8.6602 55.9706 8.84818C56.0387 9.03615 56.0625 9.23716 56.0403 9.43574V9.83514H54.3171C52.9239 9.83514 52.4424 10.4652 52.4424 11.247C52.4424 12.1047 53.1265 12.6848 54.2409 12.6848C54.6021 12.7136 54.9643 12.6414 55.2866 12.4765C55.6089 12.3116 55.8786 12.0604 56.0654 11.7512V12.6339H56.5218V9.45771C56.5499 9.20133 56.519 8.94195 56.4314 8.69925C56.3437 8.45656 56.2017 8.23692 56.0161 8.05703C55.8304 7.87714 55.6061 7.74173 55.36 7.66107C55.1139 7.58041 54.8526 7.55663 54.5959 7.59153L54.5749 7.56557ZM54.296 12.2585C53.4094 12.2585 52.9028 11.8591 52.9028 11.1991C52.9028 10.619 53.2579 10.1906 54.3211 10.1906H56.0443V11.1242C55.9197 11.4739 55.6842 11.7737 55.3733 11.9785C55.0625 12.1833 54.6932 12.2819 54.3211 12.2595L54.296 12.2585ZM58.7294 6.38235C58.8358 6.38235 58.9379 6.34028 59.0131 6.26537C59.0884 6.19047 59.1306 6.08888 59.1306 5.98296C59.1267 5.88019 59.0825 5.78304 59.0075 5.71231C58.9326 5.64158 58.8327 5.60289 58.7294 5.60453C58.623 5.60453 58.521 5.64661 58.4457 5.72151C58.3705 5.79641 58.3282 5.898 58.3282 6.00393C58.3326 6.10564 58.3765 6.20169 58.4506 6.27189C58.5246 6.34209 58.6231 6.38097 58.7254 6.38036L58.7294 6.38235ZM58.4757 12.6119H58.9571V7.59153H58.4757V12.6119ZM60.9832 12.6119H61.4647V5.50169H60.9832V12.6119ZM65.1889 7.56756C64.4568 7.55546 63.7447 7.80604 63.1829 8.2735L63.4367 8.62696C63.9134 8.21212 64.5277 7.98799 65.1609 7.99791C65.3595 7.96906 65.5621 7.98592 65.7531 8.0472C65.9442 8.10848 66.1186 8.21254 66.2629 8.3514C66.4072 8.49025 66.5176 8.6602 66.5857 8.84818C66.6537 9.03615 66.6776 9.23716 66.6554 9.43574V9.83514H64.9322C63.539 9.83514 63.0575 10.4652 63.0575 11.247C63.0575 12.1047 63.7416 12.6848 64.8559 12.6848C65.2172 12.7136 65.5793 12.6414 65.9017 12.4765C66.224 12.3116 66.4937 12.0604 66.6805 11.7512V12.6339H67.1368V9.45771C67.1651 9.20095 67.1341 8.94117 67.0463 8.69813C66.9585 8.45509 66.8161 8.23521 66.63 8.05524C66.4438 7.87527 66.2189 7.73995 65.9723 7.6596C65.7258 7.57924 65.464 7.55596 65.207 7.59153L65.1889 7.56756ZM64.9101 12.2605C64.0234 12.2605 63.5169 11.8611 63.5169 11.2011C63.5169 10.6209 63.872 10.1926 64.9352 10.1926H66.6584V11.1262C66.5337 11.4759 66.2982 11.7757 65.9874 11.9805C65.6766 12.1853 65.3072 12.2839 64.9352 12.2615L64.9101 12.2605ZM71.6234 7.56756C71.2045 7.55587 70.7906 7.66056 70.4281 7.8699C70.0656 8.07924 69.7689 8.38496 69.5712 8.75277V5.50169H69.0897V12.6139H69.5461V11.4247C69.7424 11.7956 70.0381 12.105 70.4004 12.3186C70.7626 12.5322 71.1773 12.6417 71.5983 12.6349C71.933 12.6427 72.2656 12.5815 72.5754 12.4552C72.8852 12.329 73.1654 12.1404 73.3985 11.9012C73.6316 11.662 73.8126 11.3775 73.93 11.0654C74.0474 10.7534 74.0987 10.4205 74.0808 10.0878C74.0987 9.755 74.0474 9.42215 73.93 9.11008C73.8126 8.79802 73.6316 8.51348 73.3985 8.27431C73.1654 8.03515 72.8852 7.84652 72.5754 7.72026C72.2656 7.594 71.933 7.53283 71.5983 7.5406L71.6234 7.56756ZM71.5983 12.2335C71.3221 12.2383 71.0479 12.1859 70.7931 12.0798C70.5382 11.9736 70.3083 11.816 70.1178 11.6169C69.9272 11.4177 69.7803 11.1814 69.6862 10.9228C69.5921 10.6643 69.553 10.3891 69.5712 10.1147C69.5575 9.84133 69.5998 9.56804 69.6955 9.31143C69.7912 9.05482 69.9382 8.82025 70.1278 8.62195C70.3173 8.42365 70.5453 8.26577 70.798 8.15789C71.0508 8.05 71.3228 7.99438 71.5978 7.99438C71.8728 7.99438 72.1449 8.05 72.3976 8.15789C72.6503 8.26577 72.8783 8.42365 73.0678 8.62195C73.2574 8.82025 73.4044 9.05482 73.5001 9.31143C73.5958 9.56804 73.6381 9.84133 73.6244 10.1147C73.6401 10.3886 73.5991 10.6628 73.5039 10.9202C73.4088 11.1777 73.2615 11.413 73.0713 11.6114C72.881 11.8099 72.6519 11.9673 72.398 12.074C72.1441 12.1807 71.8709 12.2343 71.5953 12.2315L71.5983 12.2335ZM75.6014 12.6329H76.0829V5.52365H75.6014V12.6329ZM82.3588 10.1137C82.3805 9.78756 82.334 9.46048 82.2224 9.15309C82.1107 8.8457 81.9363 8.56467 81.7102 8.32771C81.484 8.09075 81.211 7.903 80.9083 7.77629C80.6056 7.64959 80.2799 7.58668 79.9515 7.59153C79.6225 7.59175 79.297 7.65895 78.995 7.78899C78.693 7.91904 78.421 8.10918 78.1955 8.34774C77.97 8.5863 77.796 8.86823 77.684 9.17622C77.572 9.4842 77.5244 9.81173 77.5443 10.1387C77.5522 10.6528 77.7138 11.1529 78.0085 11.5752C78.3032 11.9975 78.7176 12.3228 79.1989 12.5095C79.6801 12.6963 80.2063 12.736 80.7104 12.6238C81.2144 12.5115 81.6735 12.2522 82.0288 11.879L81.75 11.5515C81.5526 11.7857 81.3035 11.9713 81.0222 12.0938C80.7408 12.2163 80.4348 12.2723 80.1281 12.2575C79.855 12.2721 79.5818 12.2313 79.325 12.1377C79.0682 12.0441 78.8332 11.8995 78.6342 11.7128C78.4352 11.5261 78.2763 11.3011 78.1672 11.0515C78.0582 10.8018 78.0012 10.5327 77.9996 10.2605H82.3317V10.1347L82.3588 10.1137ZM79.9515 8.01688C80.4546 8.01337 80.9387 8.20725 81.2992 8.55654C81.6596 8.90583 81.8674 9.38241 81.8774 9.88306H78.0307C78.0415 9.3838 78.2489 8.90874 78.6082 8.56023C78.9675 8.21172 79.4499 8.01767 79.9515 8.01988V8.01688ZM88.2867 12.6828C88.6227 12.6911 88.9567 12.6305 89.2681 12.5048C89.5795 12.379 89.8616 12.1908 90.0968 11.9519C90.332 11.713 90.5153 11.4285 90.6353 11.116C90.7553 10.8036 90.8094 10.4699 90.7943 10.1357C90.7943 9.47364 90.5301 8.83872 90.0599 8.37058C89.5896 7.90245 88.9518 7.63945 88.2867 7.63945C87.6217 7.63945 86.9839 7.90245 86.5136 8.37058C86.0433 8.83872 85.7792 9.47364 85.7792 10.1357C85.7636 10.4704 85.8175 10.8048 85.9376 11.1179C86.0576 11.431 86.2412 11.7161 86.4769 11.9554C86.7126 12.1947 86.9953 12.3831 87.3074 12.5087C87.6195 12.6344 87.9542 12.6947 88.2907 12.6858L88.2867 12.6828ZM88.2867 12.2545C88.0105 12.2592 87.7363 12.2069 87.4815 12.1007C87.2266 11.9946 86.9967 11.837 86.8062 11.6378C86.6157 11.4387 86.4687 11.2024 86.3746 10.9438C86.2806 10.6853 86.2414 10.4101 86.2596 10.1357C86.2459 9.8623 86.2882 9.58901 86.3839 9.3324C86.4796 9.07579 86.6267 8.84122 86.8162 8.64292C87.0057 8.44462 87.2338 8.28674 87.4865 8.17885C87.7392 8.07097 88.0113 8.01534 88.2862 8.01534C88.5612 8.01534 88.8333 8.07097 89.086 8.17885C89.3387 8.28674 89.5667 8.44462 89.7563 8.64292C89.9458 8.84122 90.0929 9.07579 90.1886 9.3324C90.2842 9.58901 90.3265 9.8623 90.3129 10.1357C90.3313 10.4098 90.2925 10.6848 90.1989 10.9432C90.1052 11.2017 89.9588 11.438 89.7688 11.6373C89.5788 11.8366 89.3493 11.9945 89.0949 12.101C88.8405 12.2076 88.5667 12.2605 88.2907 12.2565L88.2867 12.2545ZM94.7472 7.58853C94.3412 7.56209 93.936 7.65264 93.5803 7.84937C93.2245 8.0461 92.9332 8.34067 92.7412 8.69785V7.61649H92.2848V12.6349H92.7663V9.96194C92.7435 9.7056 92.7767 9.44738 92.8634 9.20495C92.9501 8.96252 93.0884 8.74157 93.2687 8.5572C93.4491 8.37283 93.6673 8.22937 93.9084 8.13664C94.1496 8.04391 94.408 8.00408 94.666 8.01988C94.8932 8.00105 95.1218 8.03326 95.3348 8.11413C95.5479 8.195 95.74 8.32247 95.8969 8.48713C96.0538 8.65178 96.1716 8.84942 96.2415 9.06545C96.3115 9.28149 96.3318 9.5104 96.3009 9.73529V12.6309H96.7824V9.70933C96.8164 9.42921 96.7872 9.14506 96.697 8.87758C96.6068 8.61011 96.4577 8.36604 96.2607 8.16315C96.0638 7.96027 95.8238 7.80368 95.5583 7.70479C95.2929 7.60591 95.0086 7.56721 94.7262 7.59153L94.7472 7.58853ZM103.539 11.9769C103.319 12.1608 103.04 12.2593 102.753 12.2545C102.146 12.2545 101.816 11.901 101.816 11.246V8.01988H103.411V7.62048H101.818V6.53213H101.336V7.61649H100.398V8.01589H101.336V11.2949C101.318 11.4782 101.341 11.6631 101.404 11.8365C101.466 12.0098 101.566 12.1672 101.697 12.2975C101.828 12.4277 101.986 12.5274 102.16 12.5896C102.334 12.6517 102.52 12.6747 102.704 12.6569C103.082 12.6638 103.449 12.5387 103.743 12.3034L103.539 11.9769ZM107.542 7.58853C107.143 7.56179 106.744 7.64978 106.394 7.84202C106.044 8.03427 105.756 8.32267 105.566 8.67289V5.52365H105.084V12.6359H105.566V9.96194C105.543 9.7056 105.576 9.44738 105.663 9.20495C105.75 8.96252 105.888 8.74157 106.068 8.5572C106.249 8.37283 106.467 8.22937 106.708 8.13664C106.949 8.04391 107.208 8.00408 107.466 8.01988C107.692 8.0031 107.919 8.03684 108.13 8.11862C108.342 8.2004 108.532 8.32816 108.688 8.49256C108.843 8.65697 108.96 8.85387 109.029 9.06888C109.098 9.28388 109.118 9.51156 109.088 9.73529V12.6309H109.569V9.70933C109.603 9.42949 109.574 9.14561 109.484 8.87833C109.394 8.61104 109.246 8.36706 109.049 8.16414C108.853 7.96122 108.613 7.80445 108.348 7.70522C108.083 7.606 107.799 7.56682 107.517 7.59053L107.542 7.58853ZM115.852 10.1107C115.874 9.78457 115.827 9.45749 115.716 9.1501C115.604 8.84271 115.43 8.56168 115.203 8.32471C114.977 8.08775 114.704 7.9 114.401 7.7733C114.099 7.64659 113.773 7.58368 113.445 7.58853C113.116 7.58875 112.79 7.65595 112.488 7.786C112.186 7.91604 111.914 8.10618 111.689 8.34474C111.463 8.5833 111.289 8.86524 111.177 9.17322C111.065 9.48121 111.018 9.80874 111.037 10.1357C111.045 10.6498 111.207 11.1499 111.502 11.5722C111.796 11.9945 112.211 12.3198 112.692 12.5065C113.173 12.6933 113.7 12.7331 114.204 12.6208C114.708 12.5085 115.167 12.2492 115.522 11.876L115.243 11.5485C115.046 11.7828 114.797 11.9683 114.515 12.0908C114.234 12.2133 113.928 12.2693 113.621 12.2545C113.348 12.2691 113.075 12.2283 112.818 12.1347C112.561 12.0411 112.326 11.8965 112.127 11.7098C111.928 11.5231 111.77 11.2981 111.66 11.0485C111.551 10.7988 111.494 10.5297 111.493 10.2575H115.825V10.1317L115.852 10.1107ZM113.445 8.01389C113.948 8.01038 114.432 8.20426 114.792 8.55355C115.153 8.90283 115.361 9.37941 115.371 9.88007H111.52C111.53 9.37941 111.738 8.90283 112.098 8.55355C112.459 8.20426 112.943 8.01038 113.446 8.01389H113.445Z"
                    fill="#3182CE"
                  />
                </svg>