
<svg width="40" height="40" viewBox="0 0 40 40" fill="none" xmlns="http://www.w3.org/2000/svg">
<circle cx="20" cy="20" r="20" fill="#3182CE"/>
<path fill-rule="evenodd" clip-rule="evenodd" d="M15.3466 8.075C16.6795 8.01364 17.1045 8 20.5 8C23.8955 8 24.3205 8.01477 25.6523 8.075C26.9841 8.13523 27.8932 8.34773 28.6886 8.65568C29.5216 8.97045 30.2773 9.4625 30.9023 10.0989C31.5386 10.7227 32.0295 11.4773 32.3432 12.3114C32.6523 13.1068 32.8636 14.0159 32.925 15.3455C32.9864 16.6807 33 17.1057 33 20.5C33 23.8955 32.9852 24.3205 32.925 25.6534C32.8648 26.983 32.6523 27.892 32.3432 28.6875C32.0295 29.5217 31.5378 30.2775 30.9023 30.9023C30.2773 31.5386 29.5216 32.0295 28.6886 32.3432C27.8932 32.6523 26.9841 32.8636 25.6545 32.925C24.3205 32.9864 23.8955 33 20.5 33C17.1045 33 16.6795 32.9852 15.3466 32.925C14.017 32.8648 13.108 32.6523 12.3125 32.3432C11.4783 32.0295 10.7225 31.5378 10.0977 30.9023C9.4618 30.278 8.96968 29.5226 8.65568 28.6886C8.34773 27.8932 8.13636 26.9841 8.075 25.6545C8.01364 24.3193 8 23.8943 8 20.5C8 17.1045 8.01477 16.6795 8.075 15.3477C8.13523 14.0159 8.34773 13.1068 8.65568 12.3114C8.97014 11.4774 9.46263 10.7219 10.0989 10.0977C10.7228 9.46193 11.4778 8.96982 12.3114 8.65568C13.1068 8.34773 14.0159 8.13636 15.3455 8.075H15.3466ZM25.5511 10.325C24.233 10.2648 23.8375 10.2523 20.5 10.2523C17.1625 10.2523 16.767 10.2648 15.4489 10.325C14.2295 10.3807 13.5682 10.5841 13.1273 10.7557C12.5443 10.983 12.1273 11.2523 11.6898 11.6898C11.2751 12.0932 10.9559 12.5844 10.7557 13.1273C10.5841 13.5682 10.3807 14.2295 10.325 15.4489C10.2648 16.767 10.2523 17.1625 10.2523 20.5C10.2523 23.8375 10.2648 24.233 10.325 25.5511C10.3807 26.7705 10.5841 27.4318 10.7557 27.8727C10.9557 28.4148 11.275 28.9068 11.6898 29.3102C12.0932 29.725 12.5852 30.0443 13.1273 30.2443C13.5682 30.4159 14.2295 30.6193 15.4489 30.675C16.767 30.7352 17.1614 30.7477 20.5 30.7477C23.8386 30.7477 24.233 30.7352 25.5511 30.675C26.7705 30.6193 27.4318 30.4159 27.8727 30.2443C28.4557 30.017 28.8727 29.7477 29.3102 29.3102C29.725 28.9068 30.0443 28.4148 30.2443 27.8727C30.4159 27.4318 30.6193 26.7705 30.675 25.5511C30.7352 24.233 30.7477 23.8375 30.7477 20.5C30.7477 17.1625 30.7352 16.767 30.675 15.4489C30.6193 14.2295 30.4159 13.5682 30.2443 13.1273C30.017 12.5443 29.7477 12.1273 29.3102 11.6898C28.9067 11.2751 28.4156 10.9559 27.8727 10.7557C27.4318 10.5841 26.7705 10.3807 25.5511 10.325V10.325ZM18.9034 24.3534C19.7951 24.7246 20.7879 24.7747 21.7124 24.4951C22.6369 24.2156 23.4357 23.6238 23.9723 22.8207C24.5089 22.0177 24.7501 21.0533 24.6546 20.0922C24.5591 19.1311 24.133 18.2329 23.4489 17.5511C23.0128 17.1153 22.4855 16.7816 21.9049 16.574C21.3244 16.3665 20.705 16.2902 20.0915 16.3507C19.4779 16.4112 18.8854 16.607 18.3566 16.924C17.8278 17.241 17.3758 17.6713 17.0333 18.1839C16.6908 18.6965 16.4661 19.2787 16.3756 19.8886C16.285 20.4984 16.3309 21.1208 16.5097 21.7108C16.6886 22.3008 16.996 22.8439 17.4099 23.3008C17.8238 23.7578 18.3339 24.1173 18.9034 24.3534ZM15.9568 15.9568C16.5534 15.3602 17.2617 14.8869 18.0412 14.564C18.8208 14.2412 19.6563 14.075 20.5 14.075C21.3437 14.075 22.1792 14.2412 22.9588 14.564C23.7383 14.8869 24.4466 15.3602 25.0432 15.9568C25.6398 16.5534 26.1131 17.2617 26.436 18.0412C26.7588 18.8208 26.925 19.6563 26.925 20.5C26.925 21.3437 26.7588 22.1792 26.436 22.9588C26.1131 23.7383 25.6398 24.4466 25.0432 25.0432C23.8383 26.2481 22.204 26.925 20.5 26.925C18.796 26.925 17.1617 26.2481 15.9568 25.0432C14.7519 23.8383 14.075 22.204 14.075 20.5C14.075 18.796 14.7519 17.1617 15.9568 15.9568V15.9568ZM28.35 15.0318C28.4978 14.8924 28.6162 14.7246 28.6981 14.5386C28.7799 14.3526 28.8236 14.152 28.8266 13.9488C28.8296 13.7456 28.7917 13.5438 28.7153 13.3555C28.6389 13.1671 28.5255 12.996 28.3818 12.8523C28.2381 12.7086 28.067 12.5952 27.8786 12.5188C27.6903 12.4424 27.4885 12.4045 27.2853 12.4075C27.0821 12.4104 26.8815 12.4542 26.6955 12.536C26.5095 12.6179 26.3417 12.7362 26.2023 12.8841C25.931 13.1716 25.7825 13.5535 25.7883 13.9488C25.7941 14.344 25.9536 14.7215 26.2331 15.001C26.5126 15.2805 26.8901 15.44 27.2853 15.4458C27.6805 15.4516 28.0625 15.3031 28.35 15.0318V15.0318Z" fill="white"/>
</svg>