<svg width="106" height="122" viewBox="0 0 106 122" fill="none" xmlns="http://www.w3.org/2000/svg">
<path d="M102.245 78.4389L76.6753 65.9629L65.863 60.6868C66.1341 60.5115 66.3921 60.3127 66.6582 60.1273H80.8552C81.911 60.1273 82.9235 59.6983 83.67 58.9347C84.4165 58.1711 84.8359 57.1354 84.8359 56.0555V45.3414H84.8C84.3657 30.4102 79.2959 17.2744 71.6823 9.03722C67.6673 4.40588 62.4636 1.2593 56.6427 0.319C56.3831 0.275576 56.1235 0.235492 55.8623 0.200419C55.5618 0.162005 55.263 0.123592 54.9593 0.0985393C54.3069 0.0363055 53.652 0.00342735 52.9967 0H52.9935C52.3436 0 51.7019 0.0384139 51.0619 0.0951992C50.7549 0.121922 50.4512 0.160334 50.1475 0.198748C49.8928 0.232151 49.6397 0.268894 49.3883 0.312318C43.6148 1.23592 38.447 4.33406 34.4435 8.8986C26.7563 17.1275 21.6311 30.325 21.1935 45.3431H21.1592V56.0572C21.1592 57.1371 21.5786 58.1728 22.3251 58.9364C23.0716 59.7 24.0841 60.129 25.1399 60.129H39.3761C39.7647 60.3996 40.1517 60.6751 40.5533 60.9223L30.1982 65.8543L3.79948 78.4306C1.50542 79.5296 0 82.1751 0 85.1296V114.8C0 118.777 2.70878 122 6.05434 122H99.9457C103.291 122 106 118.777 106 114.8V85.1263C105.998 82.1818 104.516 79.5613 102.245 78.4389Z" fill="#3182CE"/>
</svg>
