<svg width="40" height="40" viewBox="0 0 40 40" fill="none" xmlns="http://www.w3.org/2000/svg">
<circle cx="20" cy="20" r="20" fill="#3182CE"/>
<path d="M31.643 12.937C30.808 13.307 29.911 13.557 28.968 13.67C29.941 13.0878 30.669 12.1715 31.016 11.092C30.1019 11.635 29.1014 12.0172 28.058 12.222C27.3564 11.4729 26.4271 10.9763 25.4143 10.8095C24.4016 10.6426 23.3621 10.8148 22.4572 11.2993C21.5524 11.7837 20.8328 12.5534 20.4102 13.4887C19.9875 14.424 19.8855 15.4728 20.12 16.472C18.2677 16.379 16.4556 15.8976 14.8014 15.0589C13.1472 14.2203 11.6879 13.0432 10.518 11.604C10.118 12.294 9.88801 13.094 9.88801 13.946C9.88757 14.713 10.0764 15.4682 10.4379 16.1447C10.7993 16.8212 11.3222 17.398 11.96 17.824C11.2203 17.8005 10.4969 17.6006 9.85001 17.241V17.301C9.84994 18.3767 10.222 19.4194 10.9032 20.252C11.5843 21.0846 12.5326 21.6559 13.587 21.869C12.9008 22.0547 12.1813 22.0821 11.483 21.949C11.7805 22.8746 12.36 23.684 13.1404 24.2639C13.9208 24.8438 14.8629 25.1652 15.835 25.183C14.1848 26.4784 12.1469 27.1811 10.049 27.178C9.67739 27.1781 9.30609 27.1564 8.93701 27.113C11.0665 28.4822 13.5454 29.2088 16.077 29.206C24.647 29.206 29.332 22.108 29.332 15.952C29.332 15.752 29.327 15.55 29.318 15.35C30.2293 14.691 31.0159 13.8749 31.641 12.94L31.643 12.937Z" fill="white"/>
</svg>
