
<svg width="40" height="40" viewBox="0 0 40 40" fill="none" xmlns="http://www.w3.org/2000/svg">
<circle cx="20" cy="20" r="20" fill="#3182CE"/>
<path d="M31.4782 13.8118C31.3359 13.2673 31.0569 12.7708 30.6691 12.3719C30.2813 11.973 29.7983 11.6857 29.2684 11.5389C27.3181 11 19.5 11 19.5 11C19.5 11 11.6819 11 9.73158 11.536C9.20151 11.6824 8.71826 11.9695 8.33037 12.3685C7.94249 12.7674 7.66361 13.2642 7.52176 13.8089C7 15.8153 7 20 7 20C7 20 7 24.1847 7.52176 26.1882C7.80915 27.2946 8.65737 28.1659 9.73158 28.4611C11.6819 29 19.5 29 19.5 29C19.5 29 27.3181 29 29.2684 28.4611C30.3454 28.1659 31.1908 27.2946 31.4782 26.1882C32 24.1847 32 20 32 20C32 20 32 15.8153 31.4782 13.8118ZM17.0167 23.8408V16.1592L23.49 19.9713L17.0167 23.8408Z" fill="white"/>
</svg>