<svg width="22" height="20" viewBox="0 0 22 20" fill="none" xmlns="http://www.w3.org/2000/svg">
<path d="M1.06003 19.0791L12.0858 19.9192C12.3669 19.9403 12.6449 19.8491 12.8588 19.6655C13.0727 19.4818 13.205 19.2209 13.2268 18.9398L13.6791 13.0029C13.7003 12.7218 13.609 12.4438 13.4254 12.2299C13.2418 12.016 12.9808 11.8836 12.6998 11.8619L1.67396 11.0218C1.39286 11.0007 1.11486 11.092 0.900964 11.2756C0.687067 11.4592 0.554736 11.7201 0.533008 12.0012L0.0806368 17.9381C0.0595317 18.2193 0.150796 18.4972 0.334405 18.7111C0.518014 18.925 0.778973 19.0574 1.06003 19.0791ZM9.18179 12.8734L12.0957 15.8679L8.76174 18.3863L4.57799 18.0676L1.66405 15.0731L4.99805 12.5547L9.18179 12.8734ZM1.45547 16.6882L2.65513 17.921L1.369 17.8231L1.45547 16.6882ZM10.6846 18.5329L12.0572 17.496L11.9707 18.6309L10.6846 18.5329ZM12.3043 14.2528L11.1047 13.02L12.3908 13.118L12.3043 14.2528ZM3.07519 12.4082L1.70259 13.445L1.78906 12.3102L3.07519 12.4082ZM6.70217 17.8029C7.16348 17.838 7.62484 17.7356 8.02793 17.5085C8.43101 17.2815 8.75771 16.94 8.96672 16.5273C9.17573 16.1145 9.25765 15.6491 9.20213 15.1898C9.1466 14.7305 8.95613 14.298 8.6548 13.9469C8.35346 13.5959 7.9548 13.3421 7.50922 13.2176C7.06364 13.0931 6.59116 13.1036 6.15152 13.2477C5.71188 13.3917 5.32483 13.6629 5.03932 14.0269C4.75381 14.391 4.58266 14.8315 4.54751 15.2928C4.50109 15.9112 4.70188 16.5228 5.10582 16.9934C5.50975 17.4639 6.08386 17.7551 6.70217 17.8029ZM6.96067 14.4103C7.17035 14.4263 7.37059 14.5041 7.53606 14.6339C7.70153 14.7637 7.8248 14.9396 7.89028 15.1394C7.95576 15.3393 7.96051 15.554 7.90393 15.7566C7.84736 15.9591 7.73199 16.1403 7.57243 16.2773C7.41286 16.4143 7.21626 16.5008 7.00749 16.5261C6.79872 16.5513 6.58716 16.5141 6.39955 16.4191C6.21194 16.3241 6.05672 16.1756 5.95351 15.9923C5.8503 15.8091 5.80374 15.5994 5.81972 15.3897C5.84145 15.1087 5.97378 14.8477 6.18768 14.6641C6.40157 14.4805 6.67957 14.3892 6.96067 14.4103Z" fill="#3182CE"/>
<path fill-rule="evenodd" clip-rule="evenodd" d="M17.4229 7.74215C17.616 7.97199 17.9277 8.08553 18.2374 8.01331L20.5096 7.48299C20.7304 7.43144 20.9199 7.29074 21.0332 7.09435C21.1466 6.89816 21.1735 6.6636 21.1078 6.44655L19.3305 0.582121C19.2052 0.168489 18.7803 -0.0766966 18.3594 0.0214965L16.0872 0.551817C15.8664 0.603374 15.6769 0.74407 15.5636 0.940259C15.5065 1.03924 15.4713 1.14767 15.4587 1.25885C14.019 1.26436 11.3676 1.29604 9.31954 1.44362C7.90272 1.54555 6.75136 1.73977 6.3336 1.96528C5.28653 2.53044 1.96194 4.84161 0.991617 6.25292C0.516787 6.94322 0.526037 7.5621 0.772995 7.95684C1.07407 8.43777 1.42945 8.72192 1.83816 8.86753C2.22405 9.00508 2.67684 9.02043 3.22762 8.8758C3.66153 8.76186 4.18732 8.52848 4.83807 8.19238C4.94512 8.40333 5.10825 8.60582 5.33789 8.79099C5.48627 8.91043 5.76648 9.05388 6.16319 9.12551C6.78167 9.23709 7.78367 9.21052 8.83762 8.71975C9.26286 8.52179 9.62258 8.65698 10.0077 8.81066C10.4268 8.97773 10.8633 9.18769 11.3562 9.33587C12.5044 9.68102 13.9012 9.40809 15.1578 8.90531C16.0372 8.55328 16.8442 8.10049 17.4229 7.74215ZM18.6129 6.24171L18.6101 6.23305L17.3119 1.94974L17.9839 1.79291L19.2847 6.08487L18.6129 6.24171ZM8.93149 5.92312C8.14397 6.35702 6.76277 7.14177 6.73286 7.15791C6.61972 7.21891 6.52152 7.28503 6.44183 7.35686C6.40582 7.38913 6.36646 7.44029 6.34088 7.4765C6.53117 7.49637 7.42769 7.56741 8.14555 7.23328C8.91397 6.87553 9.58735 6.93319 10.2739 7.16165C10.7582 7.32281 11.2507 7.59201 11.8283 7.76537C12.6526 8.01312 13.6461 7.74392 14.5484 7.38283C15.5063 6.9995 16.3668 6.48118 16.8717 6.15059L15.8857 2.89763C14.6308 2.89822 11.6693 2.91829 9.43741 3.07906C8.33977 3.15816 7.43616 3.23353 7.11265 3.40827C6.28716 3.85378 3.87975 5.48981 2.70537 6.74408C2.54775 6.91253 2.28505 7.16165 2.38875 7.32301C2.52197 7.52982 2.89979 7.28464 3.29433 7.12072C3.93328 6.85526 4.73968 6.40582 5.78498 5.81233C5.83929 5.77888 5.9731 5.70469 5.98274 5.69997C6.61322 5.34163 7.32773 4.9345 8.14043 4.48682C8.50388 4.2867 9.02142 4.20169 9.57358 4.2251C10.221 4.25246 10.9203 4.41323 11.3279 4.52933C11.763 4.6533 12.0156 5.10727 11.8916 5.54255C11.7677 5.97782 11.3137 6.23029 10.8784 6.10632C10.5591 6.01541 10.0116 5.88494 9.50412 5.86349C9.28589 5.85424 9.07514 5.84401 8.93149 5.92312Z" fill="#3182CE"/>
</svg>
