<?xml version="1.0" encoding="utf-8"?>
<svg width="19" height="19" viewBox="0 0 19 19" fill="none" xmlns="http://www.w3.org/2000/svg">
  <path d="M 12.784 17.951 C 12.814 17.982 12.857 17.966 12.904 17.966 L 14.767 18 L 14.701 18.034 C 15.308 18.036 15.957 17.763 16.384 17.34 C 16.811 16.917 17.05 16.345 17.05 15.749 L 17.05 7.474 M 12.784 17.951 C 12.754 17.921 12.738 17.882 12.738 17.842 L 12.909 18.08 L 12.705 17.086 L 12.739 14.93 C 12.739 14.306 12.489 13.71 12.047 13.271 C 11.605 12.832 11.008 12.587 10.386 12.587 L 7.656 12.587 C 6.363 12.587 5.303 13.629 5.303 14.93 L 5.303 17.112 L 5.283 17.119 L 5.278 17.836 C 5.277 17.92 5.206 18 5.104 18 L 3.283 18 C 2.015 18 1 16.982 1 15.741 L 1 7.487 C 1.012 7.085 1.205 6.708 1.528 6.459 L 1.536 6.453 L 1.544 6.447 L 7.736 1.49 L 7.75 1.479 L 7.763 1.468 C 8.468 0.861 9.511 0.842 10.238 1.423 L 10.241 1.426 L 16.568 6.442 M 17.05 7.474 C 17.05 7.078 16.603 6.463 16.296 6.204" stroke-width="2" style="fill: rgb(255, 255, 255); stroke: rgb(134, 146, 166);"/>
</svg>