<svg width="14" height="19" viewBox="0 0 14 19" fill="none" xmlns="http://www.w3.org/2000/svg">
<path d="M13.125 2.5H9.0625V2.1875C9.0625 1.60734 8.83203 1.05094 8.4218 0.640704C8.01156 0.230468 7.45516 0 6.875 0C6.29484 0 5.73844 0.230468 5.3282 0.640704C4.91797 1.05094 4.6875 1.60734 4.6875 2.1875V2.5H0.625C0.45924 2.5 0.300269 2.56585 0.183058 2.68306C0.0658481 2.80027 0 2.95924 0 3.125V18.125C0 18.2908 0.0658481 18.4497 0.183058 18.5669C0.300269 18.6842 0.45924 18.75 0.625 18.75H13.125C13.2908 18.75 13.4497 18.6842 13.5669 18.5669C13.6842 18.4497 13.75 18.2908 13.75 18.125V3.125C13.75 2.95924 13.6842 2.80027 13.5669 2.68306C13.4497 2.56585 13.2908 2.5 13.125 2.5ZM5.9375 2.1875C5.9375 1.93886 6.03627 1.7004 6.21209 1.52459C6.3879 1.34877 6.62636 1.25 6.875 1.25C7.12364 1.25 7.3621 1.34877 7.53791 1.52459C7.71373 1.7004 7.8125 1.93886 7.8125 2.1875V2.5H5.9375V2.1875ZM12.025 16.0562C12.025 16.222 11.9592 16.381 11.8419 16.4982C11.7247 16.6154 11.5658 16.6812 11.4 16.6812H2.35C2.18424 16.6812 2.02527 16.6154 1.90806 16.4982C1.79085 16.381 1.725 16.222 1.725 16.0562V5.19375C1.725 5.02799 1.79085 4.86902 1.90806 4.75181C2.02527 4.6346 2.18424 4.56875 2.35 4.56875H3.125V4.875C3.125 5.04076 3.19085 5.19973 3.30806 5.31694C3.42527 5.43415 3.58424 5.5 3.75 5.5H10C10.1658 5.5 10.3247 5.43415 10.4419 5.31694C10.5592 5.19973 10.625 5.04076 10.625 4.875V4.56875H11.4C11.5658 4.56875 11.7247 4.6346 11.8419 4.75181C11.9592 4.86902 12.025 5.02799 12.025 5.19375V16.0562Z" fill="#8692A6"/>
<path d="M10 8.75H3.75C3.58424 8.75 3.42527 8.81585 3.30806 8.93306C3.19085 9.05027 3.125 9.20924 3.125 9.375C3.125 9.54076 3.19085 9.69973 3.30806 9.81694C3.42527 9.93415 3.58424 10 3.75 10H10C10.1658 10 10.3247 9.93415 10.4419 9.81694C10.5592 9.69973 10.625 9.54076 10.625 9.375C10.625 9.20924 10.5592 9.05027 10.4419 8.93306C10.3247 8.81585 10.1658 8.75 10 8.75Z" fill="#8692A6"/>
<path d="M10 10.7563H3.75C3.58424 10.7563 3.42527 10.8222 3.30806 10.9394C3.19085 11.0566 3.125 11.2156 3.125 11.3813C3.125 11.5471 3.19085 11.7061 3.30806 11.8233C3.42527 11.9405 3.58424 12.0063 3.75 12.0063H10C10.1658 12.0063 10.3247 11.9405 10.4419 11.8233C10.5592 11.7061 10.625 11.5471 10.625 11.3813C10.625 11.2156 10.5592 11.0566 10.4419 10.9394C10.3247 10.8222 10.1658 10.7563 10 10.7563Z" fill="#8692A6"/>
<path d="M10 12.7625H3.75C3.58424 12.7625 3.42527 12.8283 3.30806 12.9455C3.19085 13.0627 3.125 13.2217 3.125 13.3875C3.125 13.5532 3.19085 13.7122 3.30806 13.8294C3.42527 13.9466 3.58424 14.0125 3.75 14.0125H10C10.1658 14.0125 10.3247 13.9466 10.4419 13.8294C10.5592 13.7122 10.625 13.5532 10.625 13.3875C10.625 13.2217 10.5592 13.0627 10.4419 12.9455C10.3247 12.8283 10.1658 12.7625 10 12.7625Z" fill="#8692A6"/>
</svg>
