<svg width="21" height="20" viewBox="0 0 21 20" fill="none" xmlns="http://www.w3.org/2000/svg">
<path d="M13.3033 1.43538L13.1148 1.42102L8.95882 1.10435L8.77031 1.08999L8.61946 1.20394L5.30761 3.70562L4.85545 4.04718L5.25065 4.45329L8.14522 7.42788L8.27707 7.56337L8.46557 7.57773L12.6215 7.8944L12.81 7.90876L12.9609 7.79481L16.2727 5.29313L16.7249 4.95158L16.3297 4.54546L13.4351 1.57087L13.3033 1.43538ZM5.76013 5.3603L4.98741 4.56623L4.90323 5.67102L4.81734 6.79831L4.77935 7.29686L5.2779 7.33485L6.55549 7.43219L7.87405 7.53266L6.95182 6.58494L5.76013 5.3603ZM14.2682 7.14242L13.213 7.93947L14.5316 8.03994L15.8092 8.13729L16.3078 8.17527L16.3457 7.67672L16.4316 6.54943L16.5158 5.44464L15.6317 6.11248L14.2682 7.14242ZM15.8202 3.63845L16.5929 4.43252L16.6771 3.32773L16.763 2.20045L16.801 1.70189L16.3024 1.6639L15.0249 1.56656L13.7063 1.46609L14.6285 2.41381L15.8202 3.63845ZM7.31212 1.85633L8.36729 1.05928L7.04873 0.958811L5.77115 0.861465L5.27259 0.823477L5.2346 1.32203L5.14871 2.44932L5.06453 3.55411L5.94864 2.88627L7.31212 1.85633ZM11.6852 6.08824C11.371 6.2652 11.0115 6.34506 10.652 6.31773C10.1699 6.28039 9.72223 6.05337 9.40727 5.68645C9.09227 5.31948 8.93569 4.84254 8.97189 4.36026C8.99938 4.00084 9.13279 3.65762 9.35526 3.37397C9.57784 3.09017 9.87959 2.87875 10.2223 2.76644C10.5651 2.65413 10.9334 2.64598 11.2808 2.74301C11.6282 2.84005 11.939 3.03792 12.1739 3.31159C12.4088 3.58526 12.5573 3.92246 12.6006 4.28052C12.6439 4.63859 12.58 5.00145 12.4171 5.32322C12.2541 5.64499 11.9994 5.91122 11.6852 6.08824ZM10.9084 2.94769L10.9078 2.94765C10.4966 2.91677 10.0898 3.0503 9.77689 3.31894C9.46393 3.58757 9.27032 3.96938 9.23853 4.38059L9.23849 4.38114C9.2151 4.68804 9.28325 4.99497 9.43431 5.26314C9.58537 5.5313 9.81255 5.74865 10.0871 5.8877C10.3617 6.02675 10.6714 6.08125 10.9769 6.04431C11.2825 6.00737 11.5702 5.88066 11.8038 5.68018C12.0373 5.47971 12.2062 5.21449 12.289 4.91805C12.3718 4.62162 12.3648 4.30729 12.269 4.0148C12.1731 3.72232 11.9927 3.46483 11.7505 3.27488C11.5084 3.08494 11.2153 2.97107 10.9084 2.94769ZM15.9992 8.41996L5.04729 7.58547C4.90021 7.57404 4.76365 7.50476 4.66756 7.39282C4.57142 7.28082 4.52363 7.13525 4.53468 6.98806L4.98396 1.09164C4.99534 0.944476 5.06463 0.807832 5.17663 0.711691C5.28855 0.615622 5.43398 0.567834 5.58105 0.578787C5.58117 0.578795 5.58128 0.578804 5.58139 0.578812L16.5328 1.41326C16.5329 1.41327 16.5331 1.41328 16.5332 1.41329C16.6802 1.42475 16.8167 1.49402 16.9128 1.60593C17.0089 1.71788 17.0567 1.86335 17.0457 2.01047L16.5964 7.90733C16.5849 8.05441 16.5157 8.19097 16.4037 8.28706C16.2918 8.38315 16.1463 8.43094 15.9992 8.41996Z" fill="#8692A6" stroke="#8692A6"/>
<path d="M5.19957 18.2511L5.64511 18.2494C7.0744 18.2439 9.69358 18.2124 11.7094 18.0672C12.4018 18.0173 13.0224 17.9453 13.5155 17.86C14.0295 17.7711 14.3458 17.677 14.4741 17.6077L5.19957 18.2511ZM5.19957 18.2511L5.15011 18.6939M5.19957 18.2511L5.15011 18.6939M5.15011 18.6939C5.14539 18.7362 5.13193 18.7777 5.11008 18.8156L5.10998 18.8157C5.06645 18.8912 4.99378 18.9451 4.90923 18.9648C4.90921 18.9648 4.9092 18.9648 4.90918 18.9648L2.65216 19.4916L5.15011 18.6939ZM19.6062 13.5052L19.6062 13.5052C19.9973 12.9364 19.9238 12.5408 19.8115 12.3612C19.5636 11.9651 19.2948 11.764 19.0094 11.6622L19.0092 11.6622C18.7394 11.5659 18.3952 11.5429 17.924 11.6667L17.9238 11.6667C17.5491 11.7649 17.0676 11.975 16.4268 12.3061L15.9793 12.5374L15.7514 12.0882C15.6801 11.9477 15.5656 11.8004 15.3871 11.6567L15.3869 11.6565C15.3154 11.5989 15.1182 11.486 14.7919 11.4271L14.7918 11.427C14.271 11.3329 13.3816 11.3505 12.4352 11.7911C11.8072 12.0836 11.264 11.8668 10.895 11.7195C10.8889 11.717 10.8828 11.7146 10.8768 11.7122L10.8767 11.7122C10.7352 11.6557 10.6014 11.5989 10.4703 11.5434C10.1772 11.4191 9.89812 11.3008 9.57835 11.2047M19.6062 13.5052L2.65211 19.4916C2.4905 19.5293 2.32765 19.4352 2.27961 19.2766L2.2796 19.2766L0.513898 13.4509C0.488793 13.3681 0.499066 13.2781 0.542723 13.2024C0.58627 13.1272 0.658953 13.0733 0.743472 13.0535C0.743489 13.0535 0.743508 13.0535 0.743525 13.0535L3.00059 12.5267L3.00085 12.5267C3.1187 12.4991 3.23849 12.5419 3.31314 12.6308L3.5915 12.9622L3.9594 12.7342C4.51963 12.387 5.29432 11.9532 6.13188 11.6179L6.13189 11.6179C7.34171 11.1337 8.59915 10.9105 9.57835 11.2047M19.6062 13.5052C19.1752 14.132 18.1701 15.0134 17.0906 15.8353M19.6062 13.5052L17.0906 15.8353M9.57835 11.2047L9.72223 10.7259L9.57835 11.2047ZM4.85197 17.6217L4.74433 17.2665L3.76502 14.035L3.65641 13.6766L3.96976 13.4716C4.48496 13.1345 5.37088 12.6 6.36548 12.2019L6.36549 12.2019C7.26649 11.8413 8.39885 11.507 9.39737 11.8071L9.39743 11.8071C9.71288 11.9019 10.0006 12.0214 10.2563 12.1305C10.2867 12.1434 10.3165 12.1562 10.3457 12.1687C10.5706 12.2649 10.7642 12.3477 10.9554 12.4114C11.5541 12.6106 12.0849 12.6481 12.7007 12.3614C13.548 11.9668 14.5602 12.0551 14.7568 12.0758L15.6073 12.1654L15.1121 12.8626C15.0836 12.9027 15.0179 12.9921 14.9389 13.0634L14.9384 13.0638C14.8224 13.1681 14.6897 13.2554 14.5524 13.3295L14.4041 13.0548C14.3741 13.0539 14.3424 13.0533 14.309 13.0532C14.3037 13.0531 14.2983 13.0531 14.2929 13.0531C14.2091 13.053 14.116 13.0554 14.0174 13.0621C14.0128 13.0647 14.0082 13.0673 14.0036 13.0699L4.85197 17.6217ZM4.85197 17.6217L5.22308 17.6215M4.85197 17.6217L5.22308 17.6215M12.372 14.5539C12.2069 14.6448 12.0338 14.6694 11.906 14.6775C11.7838 14.6853 11.6562 14.6798 11.5576 14.6756C11.552 14.6754 11.5465 14.6751 11.5411 14.6749L12.372 14.5539ZM12.372 14.5539C13.0629 14.1735 13.6866 13.8223 14.249 13.5055C14.3257 13.4623 14.4013 13.4197 14.4757 13.3778L14.4982 13.3651L14.5193 13.3502C14.5303 13.3424 14.5417 13.3353 14.5535 13.3289L14.4046 13.0548C14.5177 13.0581 14.6047 13.0653 14.652 13.0703L14.6827 12.7793L14.6827 12.7791L14.7044 12.5731L14.2968 12.2835C14.289 12.2944 14.28 12.3064 14.2718 12.3165C14.2689 12.32 14.2666 12.3226 14.2651 12.3243C14.2229 12.3613 14.1619 12.4039 14.0773 12.4496L14.0762 12.4501C14.0377 12.4711 14.0007 12.4936 13.9652 12.5176C13.9327 12.5359 13.9 12.5544 13.8671 12.5729L12.372 14.5539ZM5.22308 17.6215C6.46985 17.6209 9.42769 17.6009 11.6642 17.4398L11.6642 17.4398M5.22308 17.6215L11.6642 17.4398M11.6642 17.4398C12.2075 17.4006 12.7174 17.3615 13.1334 17.3094C13.3417 17.2834 13.5354 17.253 13.7034 17.2155C13.864 17.1797 14.0338 17.1306 14.1753 17.0543L14.1753 17.0542M11.6642 17.4398L14.1753 17.0542M14.1753 17.0542C14.6138 16.8175 15.4373 16.2857 16.2915 15.6625C17.1448 15.04 18.0648 14.3002 18.6807 13.6424L18.6809 13.6422L14.1753 17.0542ZM17.0906 15.8353C16.0243 16.6472 14.9619 17.3443 14.4742 17.6077L17.0906 15.8353ZM17.7589 12.3664C17.681 12.4024 17.6107 12.4349 17.539 12.4647L19.0505 12.4548C18.9167 12.2469 18.709 12.1594 18.5183 12.1481C18.358 12.1387 18.2108 12.1817 18.1131 12.2157C18.008 12.2524 17.9001 12.3013 17.8089 12.3433C17.7918 12.3512 17.7752 12.3589 17.7589 12.3664ZM17.5389 12.4647C16.8699 12.7425 16.0398 13.2065 15.0096 13.7914L15.0015 13.796L14.9935 13.8009C14.9486 13.8287 14.9013 13.856 14.8516 13.8827L14.8506 13.8833L14.8403 13.8886L14.8264 13.8953L14.813 13.903C14.7815 13.9209 14.7497 13.939 14.7177 13.9572C14.1148 14.3001 13.439 14.6844 12.6757 15.1049C12.4247 15.2431 12.0129 15.3244 11.5145 15.3033C10.9267 15.2783 10.274 15.1299 9.88763 15.0198L9.88753 15.0198C9.72077 14.9723 9.62384 14.7979 9.67135 14.6314L9.67142 14.6311C9.71892 14.4644 9.89324 14.3673 10.0601 14.4148C10.3918 14.5094 10.9792 14.6512 11.541 14.6749L17.5389 12.4647ZM2.99022 13.6479L2.85003 13.2077L2.40012 13.3127L1.73278 13.4685L1.21316 13.5898L1.36795 14.1005L2.66022 18.3637L2.79613 18.8121L3.25238 18.7056L3.91973 18.5498L4.43933 18.4285L4.28457 17.9179L2.99503 13.6632L2.99508 13.6632L2.99296 13.6565L2.99022 13.6479Z" fill="#8692A6" stroke="#8692A6"/>
</svg>
