<svg width="21" height="20" viewBox="0 0 21 20" fill="none" xmlns="http://www.w3.org/2000/svg">
<path d="M13.3028 1.43465L13.1143 1.42028L8.95833 1.10362L8.76982 1.08926L8.61897 1.20321L5.30713 3.70489L4.85496 4.04644L5.25016 4.45256L8.14473 7.42715L8.27658 7.56264L8.46509 7.577L12.621 7.89367L12.8095 7.90803L12.9604 7.79408L16.2722 5.29239L16.7244 4.95084L16.3292 4.54473L13.4346 1.57014L13.3028 1.43465ZM5.75964 5.35957L4.98692 4.5655L4.90274 5.67029L4.81685 6.79757L4.77886 7.29613L5.27742 7.33412L6.555 7.43146L7.87356 7.53193L6.95133 6.58421L5.75964 5.35957ZM14.2677 7.14168L13.2126 7.93874L14.5311 8.03921L15.8087 8.13655L16.3073 8.17454L16.3453 7.67599L16.4311 6.5487L16.5153 5.44391L15.6312 6.11174L14.2677 7.14168ZM15.8197 3.63771L16.5924 4.43179L16.6766 3.327L16.7625 2.19971L16.8005 1.70116L16.302 1.66317L15.0244 1.56582L13.7058 1.46536L14.628 2.41308L15.8197 3.63771ZM7.31163 1.8556L8.36681 1.05855L7.04825 0.958079L5.77066 0.860732L5.2721 0.822745L5.23412 1.3213L5.14822 2.44859L5.06404 3.55337L5.94815 2.88554L7.31163 1.8556ZM11.6847 6.0875C11.3705 6.26446 11.011 6.34433 10.6515 6.317C10.1694 6.27966 9.72175 6.05264 9.40679 5.68572C9.09178 5.31875 8.9352 4.84181 8.9714 4.35953C8.9989 4.0001 9.1323 3.65689 9.35477 3.37323C9.57736 3.08944 9.8791 2.87801 10.2218 2.76571C10.5646 2.6534 10.9329 2.64524 11.2803 2.74228C11.6277 2.83932 11.9385 3.03718 12.1734 3.31086C12.4083 3.58453 12.5568 3.92172 12.6001 4.27979C12.6434 4.63786 12.5795 5.00072 12.4166 5.32249C12.2536 5.64426 11.9989 5.91049 11.6847 6.0875ZM10.9079 2.94696L10.9074 2.94692C10.4961 2.91604 10.0893 3.04957 9.7764 3.3182C9.46344 3.58684 9.26983 3.96865 9.23804 4.37986L9.238 4.38041C9.21462 4.68731 9.28276 4.99424 9.43382 5.26241C9.58488 5.53057 9.81206 5.74792 10.0866 5.88697C10.3612 6.02601 10.6709 6.08052 10.9764 6.04358C11.282 6.00664 11.5697 5.87992 11.8033 5.67945C12.0368 5.47898 12.2057 5.21376 12.2885 4.91732C12.3713 4.62089 12.3643 4.30655 12.2685 4.01407C12.1727 3.72159 11.9922 3.46409 11.7501 3.27415C11.5079 3.08421 11.2148 2.97034 10.9079 2.94696ZM15.9987 8.41922L5.0468 7.58474C4.89972 7.57331 4.76317 7.50403 4.66707 7.39208C4.57093 7.28008 4.52314 7.13452 4.5342 6.98733L4.98348 1.09091C4.99485 0.943744 5.06415 0.8071 5.17615 0.710959C5.28806 0.61489 5.43349 0.567102 5.58057 0.578055C5.58068 0.578063 5.58079 0.578071 5.5809 0.57808L16.5323 1.41253C16.5325 1.41254 16.5326 1.41255 16.5327 1.41256C16.6797 1.42401 16.8162 1.49329 16.9123 1.6052C17.0084 1.71715 17.0562 1.86262 17.0452 2.00973L16.5959 7.9066C16.5844 8.05368 16.5152 8.19023 16.4032 8.28633C16.2913 8.38242 16.1458 8.43021 15.9987 8.41922Z" fill="#3182CE" stroke="#3182CE"/>
<path d="M5.19908 18.2511L5.64462 18.2494C7.07391 18.2439 9.69309 18.2124 11.7089 18.0672C12.4013 18.0173 13.022 17.9453 13.515 17.86C14.029 17.7711 14.3453 17.677 14.4736 17.6077L5.19908 18.2511ZM5.19908 18.2511L5.14962 18.6939M5.19908 18.2511L5.14962 18.6939M5.14962 18.6939C5.1449 18.7362 5.13144 18.7777 5.10959 18.8156L5.10949 18.8157C5.06596 18.8912 4.99329 18.9451 4.90874 18.9648C4.90873 18.9648 4.90871 18.9648 4.90869 18.9648L2.65167 19.4916L5.14962 18.6939ZM19.6057 13.5052L19.6057 13.5052C19.9968 12.9364 19.9233 12.5408 19.811 12.3612C19.5631 11.9651 19.2943 11.764 19.0089 11.6622L19.0087 11.6622C18.7389 11.5659 18.3947 11.5429 17.9235 11.6667L17.9233 11.6667C17.5486 11.7649 17.0671 11.975 16.4263 12.3061L15.9788 12.5374L15.7509 12.0882C15.6796 11.9477 15.5651 11.8004 15.3866 11.6567L15.3864 11.6565C15.3149 11.5989 15.1177 11.486 14.7914 11.4271L14.7913 11.427C14.2705 11.3329 13.3811 11.3505 12.4347 11.7911C11.8067 12.0836 11.2635 11.8668 10.8945 11.7195C10.8884 11.717 10.8823 11.7146 10.8763 11.7122L10.8762 11.7122C10.7347 11.6557 10.6009 11.5989 10.4699 11.5434C10.1767 11.4191 9.89763 11.3008 9.57786 11.2047M19.6057 13.5052L2.65162 19.4916C2.49002 19.5293 2.32716 19.4352 2.27912 19.2766L2.27911 19.2766L0.513409 13.4509C0.488305 13.3681 0.498578 13.2781 0.542235 13.2024C0.585782 13.1272 0.658465 13.0733 0.742983 13.0535C0.743001 13.0535 0.74302 13.0535 0.743037 13.0535L3.0001 12.5267L3.00036 12.5267C3.11821 12.4991 3.238 12.5419 3.31265 12.6308L3.59101 12.9622L3.95891 12.7342C4.51915 12.387 5.29383 11.9532 6.13139 11.6179L6.1314 11.6179C7.34122 11.1337 8.59866 10.9105 9.57786 11.2047M19.6057 13.5052C19.1747 14.132 18.1697 15.0134 17.0901 15.8353M19.6057 13.5052L17.0901 15.8353M9.57786 11.2047L9.72174 10.7259L9.57786 11.2047ZM4.85148 17.6217L4.74385 17.2665L3.76453 14.035L3.65592 13.6766L3.96927 13.4716C4.48447 13.1345 5.37039 12.6 6.36499 12.2019L6.365 12.2019C7.266 11.8413 8.39836 11.507 9.39688 11.8071L9.39694 11.8071C9.7124 11.9019 10.0001 12.0214 10.2558 12.1305C10.2862 12.1434 10.316 12.1562 10.3452 12.1687C10.5701 12.2649 10.7637 12.3477 10.9549 12.4114C11.5536 12.6106 12.0844 12.6481 12.7002 12.3614C13.5475 11.9668 14.5597 12.0551 14.7563 12.0758L15.6068 12.1654L15.1116 12.8626C15.0831 12.9027 15.0174 12.9921 14.9384 13.0634L14.9379 13.0638C14.8219 13.1681 14.6892 13.2554 14.5519 13.3295L14.4036 13.0548C14.3736 13.0539 14.3419 13.0533 14.3085 13.0532C14.3032 13.0531 14.2978 13.0531 14.2924 13.0531C14.2086 13.053 14.1155 13.0554 14.0169 13.0621C14.0123 13.0647 14.0077 13.0673 14.0031 13.0699L4.85148 17.6217ZM4.85148 17.6217L5.22259 17.6215M4.85148 17.6217L5.22259 17.6215M12.3715 14.5539C12.2064 14.6448 12.0333 14.6694 11.9055 14.6775C11.7834 14.6853 11.6558 14.6798 11.5571 14.6756C11.5515 14.6754 11.546 14.6751 11.5406 14.6749L12.3715 14.5539ZM12.3715 14.5539C13.0624 14.1735 13.6861 13.8223 14.2486 13.5055C14.3252 13.4623 14.4008 13.4197 14.4752 13.3778L14.4977 13.3651L14.5189 13.3502C14.5298 13.3424 14.5412 13.3353 14.553 13.3289L14.4041 13.0548C14.5172 13.0581 14.6042 13.0653 14.6515 13.0703L14.6822 12.7793L14.6822 12.7791L14.7039 12.5731L14.2963 12.2835C14.2886 12.2944 14.2796 12.3064 14.2713 12.3165C14.2684 12.32 14.2662 12.3226 14.2646 12.3243C14.2225 12.3613 14.1614 12.4039 14.0768 12.4496L14.0758 12.4501C14.0372 12.4711 14.0002 12.4936 13.9647 12.5176C13.9322 12.5359 13.8995 12.5544 13.8666 12.5729L12.3715 14.5539ZM5.22259 17.6215C6.46936 17.6209 9.42721 17.6009 11.6637 17.4398L11.6637 17.4398M5.22259 17.6215L11.6637 17.4398M11.6637 17.4398C12.207 17.4006 12.7169 17.3615 13.133 17.3094C13.3413 17.2834 13.5349 17.253 13.7029 17.2155C13.8635 17.1797 14.0333 17.1306 14.1748 17.0543L14.1749 17.0542M11.6637 17.4398L14.1749 17.0542M14.1749 17.0542C14.6133 16.8175 15.4368 16.2857 16.291 15.6625C17.1443 15.04 18.0643 14.3002 18.6803 13.6424L18.6804 13.6422L14.1749 17.0542ZM17.0901 15.8353C16.0238 16.6472 14.9614 17.3443 14.4737 17.6077L17.0901 15.8353ZM17.7584 12.3664C17.6805 12.4024 17.6102 12.4349 17.5385 12.4647L19.05 12.4548C18.9162 12.2469 18.7085 12.1594 18.5178 12.1481C18.3575 12.1387 18.2104 12.1817 18.1127 12.2157C18.0075 12.2524 17.8996 12.3013 17.8084 12.3433C17.7913 12.3512 17.7747 12.3589 17.7584 12.3664ZM17.5384 12.4647C16.8694 12.7425 16.0394 13.2065 15.0091 13.7914L15.001 13.796L14.993 13.8009C14.9481 13.8287 14.9008 13.856 14.8511 13.8827L14.8501 13.8833L14.8398 13.8886L14.8259 13.8953L14.8125 13.903C14.781 13.9209 14.7492 13.939 14.7172 13.9572C14.1143 14.3001 13.4385 14.6844 12.6752 15.1049C12.4242 15.2431 12.0124 15.3244 11.514 15.3033C10.9262 15.2783 10.2735 15.1299 9.88714 15.0198L9.88704 15.0198C9.72028 14.9723 9.62335 14.7979 9.67086 14.6314L9.67093 14.6311C9.71843 14.4644 9.89275 14.3673 10.0596 14.4148C10.3913 14.5094 10.9788 14.6512 11.5405 14.6749L17.5384 12.4647ZM2.98973 13.6479L2.84955 13.2077L2.39963 13.3127L1.73229 13.4685L1.21267 13.5898L1.36746 14.1005L2.65973 18.3637L2.79564 18.8121L3.2519 18.7056L3.91924 18.5498L4.43884 18.4285L4.28408 17.9179L2.99455 13.6632L2.99459 13.6632L2.99247 13.6565L2.98973 13.6479Z" fill="#3182CE" stroke="#3182CE"/>
</svg>
