<svg width="24" height="24" viewBox="0 0 24 24" fill="none" xmlns="http://www.w3.org/2000/svg">
<path d="M23.6675 2.47681L21.5205 0.332765C21.2988 0.111086 21.0073 0 20.7164 0C20.4254 0 20.1344 0.110594 19.9127 0.332273L18.1953 2.04476L21.9501 5.79316L23.6675 4.08116C24.1114 3.6378 24.1114 2.9187 23.6675 2.47681Z" fill="#494949"/>
<path d="M7.04688 13.1727L10.8022 16.9216L21.1464 6.59655L17.3911 2.84766L7.04688 13.1727Z" fill="#494949"/>
<path d="M6.23625 13.9746L5.43457 18.5222L9.99153 17.723L6.23625 13.9746Z" fill="#494949"/>
<path d="M16.6171 20.5492H2.45814V6.39026H12.4504L14.913 3.93262H1.5896C0.715174 3.93262 0 4.64779 0 5.52222V21.4178C0 22.2922 0.715174 23.0074 1.5896 23.0074H17.4852C18.3596 23.0074 19.0748 22.2922 19.0748 21.4178V10.0531L16.6171 12.5064V20.5492Z" fill="#494949"/>
</svg>
