<svg width="250" height="187" viewBox="0 0 250 187" fill="none" xmlns="http://www.w3.org/2000/svg">
<g id="illustration">
<g id="freepik--background-complete--inject-242">
<rect id="Rectangle" y="163.7" width="250" height="0.125" fill="#EBEBEB"/>
<rect id="Rectangle_2" x="208.39" y="171.745" width="16.56" height="0.125" fill="#EBEBEB"/>
<rect id="Rectangle_3" x="161.265" y="173.104" width="4.345" height="0.125" fill="#EBEBEB"/>
<rect id="Rectangle_4" x="198.295" y="167.104" width="9.595" height="0.125" fill="#EBEBEB"/>
<rect id="Rectangle_5" x="26.2305" y="167.945" width="21.595" height="0.125" fill="#EBEBEB"/>
<rect id="Rectangle_6" x="52.2803" y="167.945" width="3.165" height="0.125" fill="#EBEBEB"/>
<rect id="Rectangle_7" x="65.7354" y="170.055" width="46.84" height="0.125" fill="#EBEBEB"/>
<path id="Shape" fill-rule="evenodd" clip-rule="evenodd" d="M21.9555 141.4H118.5C120.077 141.4 121.355 140.122 121.355 138.545V2.855C121.355 1.27823 120.077 0 118.5 0H21.9555C20.3904 0.00268102 19.1192 1.26495 19.1055 2.83V138.545C19.1055 140.12 20.3806 141.397 21.9555 141.4ZM19.2305 2.83026C19.2305 1.32447 20.4497 0.103018 21.9555 0.10026H118.5C120.007 0.103012 121.228 1.32366 121.23 2.83026V138.545C121.228 140.052 120.007 141.273 118.5 141.275H21.9555C20.4497 141.273 19.2305 140.051 19.2305 138.545V2.83026Z" fill="#EBEBEB"/>
<path id="Shape_2" fill-rule="evenodd" clip-rule="evenodd" d="M130.105 141.4H226.655C228.228 141.395 229.5 140.118 229.5 138.545V2.83C229.486 1.26689 228.218 0.00541536 226.655 0H130.105C128.539 0.00265154 127.266 1.26414 127.25 2.83V138.545C127.253 140.121 128.529 141.397 130.105 141.4ZM127.375 2.83026C127.378 1.32366 128.598 0.103012 130.105 0.10026H226.655C228.162 0.103012 229.382 1.32366 229.385 2.83026V138.545C229.382 140.052 228.162 141.273 226.655 141.275H130.105C128.598 141.273 127.378 140.052 127.375 138.545V2.83026Z" fill="#EBEBEB"/>
<rect id="Rectangle_8" x="143.62" y="163.7" width="14.445" height="51.46" transform="rotate(180 143.62 163.7)" fill="#E6E6E6"/>
<path id="Path" d="M131.915 163.7H129.17V158.93H134.79L131.915 163.7Z" fill="#F0F0F0"/>
<rect id="Rectangle_9" x="226.035" y="163.7" width="14.445" height="51.46" transform="rotate(180 226.035 163.7)" fill="#E6E6E6"/>
<rect id="Rectangle_10" x="213.985" y="162.445" width="84.81" height="50.21" transform="rotate(180 213.985 162.445)" fill="#F0F0F0"/>
<path id="Rectangle_11" d="M186.02 159.66V115.22H211.16V159.66H186.02Z" fill="#E6E6E6"/>
<path id="Path_2" d="M196.105 117.769H201.075C203.317 117.73 205.419 116.674 206.79 114.899H190.39C191.762 116.672 193.863 117.728 196.105 117.769Z" fill="#F0F0F0"/>
<path id="Rectangle_12" d="M159.005 159.665V115.225H184.145V159.665H159.005Z" fill="#E6E6E6"/>
<path id="Path_3" d="M168.835 117.769H173.81C176.043 117.722 178.135 116.667 179.5 114.899H163.125C164.494 116.673 166.595 117.728 168.835 117.769Z" fill="#F0F0F0"/>
<path id="Rectangle_13" d="M131.99 159.665V115.225H157.13V159.665H131.99Z" fill="#E6E6E6"/>
<path id="Path_4" d="M141.82 117.769H146.795C149.034 117.727 151.132 116.671 152.5 114.899H136.11C137.48 116.673 139.58 117.728 141.82 117.769Z" fill="#F0F0F0"/>
<path id="Path_5" d="M211.24 163.7H213.98V158.93H208.36L211.24 163.7Z" fill="#F0F0F0"/>
<rect id="Rectangle_14" x="135.24" y="98.8604" width="96.915" height="82.515" transform="rotate(180 135.24 98.8604)" fill="#E6E6E6"/>
<rect id="Rectangle_15" x="134.29" y="98.8604" width="98.145" height="82.515" transform="rotate(180 134.29 98.8604)" fill="#F5F5F5"/>
<path id="Rectangle_16" d="M130.375 20.3047V94.8997H40.06V20.3047L130.375 20.3047Z" fill="#FAFAFA"/>
<path id="Path_6" d="M119.295 94.8997L83.7498 20.3047H71.6748L107.22 94.8997H119.295Z" fill="white"/>
<path id="Path_7" d="M103.799 94.8997L68.2495 20.3047H59.9395L95.4845 94.8997H103.799Z" fill="white"/>
<path id="Rectangle_17" d="M73.5996 20.2998V94.8948H68.9296V20.2998H73.5996Z" fill="#E6E6E6"/>
<path id="Rectangle_18" d="M104.64 20.2998V94.8948H99.9696V20.2998H104.64Z" fill="#E6E6E6"/>
<path id="Rectangle_19" d="M72.7549 17.3604V97.4154H66.8499V17.3604H72.7549Z" fill="#F5F5F5"/>
<path id="Rectangle_20" d="M103.795 17.3604V97.4154H97.8899V17.3604H103.795Z" fill="#F5F5F5"/>
<path id="Rectangle_21" d="M40.4748 20.3047L40.4748 94.8997H40.0598L40.0598 20.3047H40.4748Z" fill="#E6E6E6"/>
<path id="Path_8" d="M34.5 11.25H139.5C139.776 11.25 140 11.4739 140 11.75C140 12.0261 139.776 12.25 139.5 12.25H34.5C34.2239 12.25 34 12.0261 34 11.75C34 11.4739 34.2239 11.25 34.5 11.25Z" fill="#E6E6E6"/>
<path id="Path_9" d="M135.24 14.5849C135.616 14.5821 135.92 14.2763 135.92 13.8999V12.4349C135.92 12.0593 135.615 11.7549 135.24 11.7549C134.863 11.7549 134.557 12.0585 134.555 12.4349V13.8999C134.557 14.2771 134.863 14.5822 135.24 14.5849Z" fill="#E6E6E6"/>
<path id="Path_10" d="M42.1155 14.5849C42.4927 14.5822 42.7978 14.2771 42.8005 13.8999V12.4349C42.7978 12.0585 42.4919 11.7549 42.1155 11.7549C41.74 11.7549 41.4355 12.0593 41.4355 12.4349V13.8999C41.4355 14.2763 41.7392 14.5821 42.1155 14.5849Z" fill="#E6E6E6"/>
<rect id="Rectangle_22" opacity="0.6" x="132.735" y="52.71" width="98.075" height="40.955" transform="rotate(180 132.735 52.71)" fill="#E0E0E0"/>
<rect id="Rectangle_23" x="38.5254" y="163.7" width="2.52" height="41.32" transform="rotate(180 38.5254 163.7)" fill="#E6E6E6"/>
<rect id="Rectangle_24" x="81.4746" y="114.335" width="13.645" height="8.04" fill="#E6E6E6"/>
<rect id="Rectangle_25" x="81.4746" y="122.38" width="54.195" height="8.04" transform="rotate(180 81.4746 122.38)" fill="#F5F5F5"/>
<rect id="Rectangle_26" x="81.4746" y="127.375" width="13.645" height="8.04" fill="#E6E6E6"/>
<rect id="Rectangle_27" x="81.4746" y="135.42" width="54.195" height="8.04" transform="rotate(180 81.4746 135.42)" fill="#F5F5F5"/>
<rect id="Rectangle_28" x="81.4746" y="140.42" width="13.645" height="8.04" fill="#E6E6E6"/>
<rect id="Rectangle_29" x="81.4746" y="148.46" width="54.195" height="8.04" transform="rotate(180 81.4746 148.46)" fill="#F5F5F5"/>
<rect id="Rectangle_30" x="92.7197" y="163.7" width="2.52" height="41.32" transform="rotate(180 92.7197 163.7)" fill="#E6E6E6"/>
<rect id="Rectangle_31" x="81.4746" y="163.7" width="2.52" height="41.32" transform="rotate(180 81.4746 163.7)" fill="#F5F5F5"/>
<rect id="Rectangle_32" x="29.7998" y="163.7" width="2.52" height="41.32" transform="rotate(180 29.7998 163.7)" fill="#F5F5F5"/>
</g>
<g id="freepik--Shadow--inject-242">
<ellipse id="freepik--path--inject-242" cx="125" cy="180.621" rx="96.945" ry="5.66" fill="#F5F5F5"/>
</g>
<g id="freepik--Invoice--inject-242">
<path id="Path_11" d="M198 157.919H116.8C115.186 157.939 113.639 157.273 112.544 156.087C111.449 154.901 110.908 153.307 111.055 151.699L121 21.3142C121.321 17.8359 124.207 15.156 127.7 15.0942H208.9C210.515 15.0732 212.062 15.7385 213.158 16.9247C214.254 18.1109 214.794 19.7064 214.645 21.3142L204.7 151.699C204.377 155.177 201.492 157.855 198 157.919Z" fill="#407BFF"/>
<path id="Path_12" opacity="0.5" d="M198 157.919H116.8C115.186 157.939 113.639 157.273 112.544 156.087C111.449 154.901 110.908 153.307 111.055 151.699L121 21.3142C121.321 17.8359 124.207 15.156 127.7 15.0942H208.9C210.515 15.0732 212.062 15.7385 213.158 16.9247C214.254 18.1109 214.794 19.7064 214.645 21.3142L204.7 151.699C204.377 155.177 201.492 157.855 198 157.919Z" fill="white"/>
<path id="Path_13" d="M196.794 157.919H115.589C113.975 157.939 112.428 157.273 111.333 156.087C110.238 154.901 109.697 153.307 109.844 151.699L119.794 21.3142C120.115 17.834 123.005 15.1535 126.499 15.0942H207.699C209.314 15.0732 210.861 15.7385 211.957 16.9247C213.053 18.1109 213.593 19.7064 213.444 21.3142L203.499 151.699C203.178 155.179 200.289 157.86 196.794 157.919Z" fill="#407BFF"/>
<path id="Path_14" opacity="0.7" d="M196.794 157.919H115.589C113.975 157.939 112.428 157.273 111.333 156.087C110.238 154.901 109.697 153.307 109.844 151.699L119.794 21.3142C120.115 17.834 123.005 15.1535 126.499 15.0942H207.699C209.314 15.0732 210.861 15.7385 211.957 16.9247C213.053 18.1109 213.593 19.7064 213.444 21.3142L203.499 151.699C203.178 155.179 200.289 157.86 196.794 157.919Z" fill="white"/>
<path id="Path_15" d="M115.75 155.845C114.673 155.861 113.641 155.418 112.91 154.627C112.179 153.836 111.819 152.772 111.92 151.7L121.735 23.0448C121.944 20.7247 123.871 18.9364 126.2 18.8998H207.4C208.477 18.8837 209.51 19.3264 210.24 20.1173C210.971 20.9083 211.331 21.9727 211.23 23.0448L201.415 151.7C201.206 154.018 199.282 155.806 196.955 155.845H115.75Z" fill="#407BFF"/>
<path id="Path_16" opacity="0.2" d="M196.38 40.5393H138.27C137.632 40.5478 137.02 40.2846 136.587 39.8153C136.154 39.3461 135.94 38.715 136 38.0793C136.129 36.7076 137.268 35.6513 138.645 35.6243H196.755C197.393 35.6144 198.005 35.8764 198.438 36.3449C198.871 36.8134 199.085 37.444 199.025 38.0793C198.902 39.4552 197.761 40.5166 196.38 40.5393Z" fill="black"/>
<path id="Path_17" opacity="0.3" d="M171.59 17.6289H162.205C162.048 17.631 161.897 17.5663 161.79 17.451C161.684 17.3357 161.631 17.1805 161.645 17.0239C161.678 16.687 161.956 16.4275 162.295 16.4189H171.685C171.841 16.4183 171.99 16.4836 172.096 16.5988C172.202 16.7139 172.254 16.8683 172.24 17.0239C172.212 17.363 171.93 17.625 171.59 17.6289Z" fill="#407BFF"/>
<path id="Path_18" d="M138 38.0791C138.168 36.3203 137.579 34.5731 136.38 33.2751C135.181 31.9771 133.486 31.2512 131.72 31.2791H190.72C192.486 31.2512 194.181 31.9771 195.38 33.2751C196.579 34.5731 197.168 36.3203 197 38.0791H138Z" fill="#F0F0F0"/>
<path id="Path_19" d="M131.735 31.2793C127.913 31.3381 124.752 34.2724 124.41 38.0793L118.365 117.314C118.025 121.12 114.866 124.055 111.045 124.114H170.045C173.867 124.055 177.028 121.121 177.37 117.314L183.415 38.0793C183.755 34.2732 186.914 31.3384 190.735 31.2793L131.735 31.2793Z" fill="white"/>
<path id="Path_20" d="M163.76 117.314C163.592 119.073 164.181 120.82 165.379 122.118C166.578 123.416 168.273 124.142 170.04 124.114H111.04C109.273 124.142 107.578 123.416 106.379 122.118C105.181 120.82 104.592 119.073 104.76 117.314H163.76Z" fill="#F0F0F0"/>
<path id="Path_21" d="M129.224 115.75C129.449 112.855 128.539 110.515 125.649 110.515H171.079C173.969 110.515 176.144 113.16 174.659 115.75H129.224Z" fill="#E0E0E0"/>
<path id="Path_22" d="M163.76 117.314C164.092 113.502 167.254 110.559 171.08 110.499H112.08C108.259 110.558 105.1 113.493 104.76 117.299L163.76 117.314Z" fill="#F0F0F0"/>
<path id="Path_23" d="M191.654 136.96H123.929C123.466 136.966 123.021 136.775 122.707 136.435C122.392 136.094 122.237 135.636 122.279 135.175C122.371 134.177 123.198 133.408 124.199 133.39H191.929C192.392 133.385 192.835 133.576 193.149 133.917C193.462 134.257 193.617 134.714 193.574 135.175C193.483 136.172 192.656 136.941 191.654 136.96Z" fill="white"/>
<path id="Path_24" d="M157.455 145.54H123.275C122.811 145.548 122.365 145.357 122.05 145.017C121.735 144.676 121.58 144.217 121.625 143.755C121.716 142.758 122.543 141.989 123.545 141.97H157.725C158.188 141.964 158.632 142.154 158.947 142.495C159.262 142.835 159.417 143.293 159.375 143.755C159.283 144.752 158.456 145.521 157.455 145.54Z" fill="white"/>
<path id="Path_25" d="M181.12 145.54H167.275C166.811 145.548 166.365 145.357 166.05 145.016C165.735 144.676 165.58 144.217 165.625 143.755C165.716 142.757 166.543 141.989 167.545 141.97H181.39C181.853 141.965 182.296 142.156 182.61 142.497C182.925 142.837 183.081 143.294 183.04 143.755C182.948 144.752 182.121 145.521 181.12 145.54Z" fill="white"/>
<path id="Path_26" d="M176.18 65.7748H127.415L127.515 64.4248H176.285L176.18 65.7748Z" fill="#407BFF"/>
<path id="Path_27" d="M176.18 65.7744H127.415L127.095 69.9194H175.865L176.18 65.7744Z" fill="#F0F0F0"/>
<path id="Path_28" d="M175.55 74.0596H126.78L126.465 78.1996H175.235L175.55 74.0596Z" fill="#F0F0F0"/>
<path id="Path_29" d="M174.915 82.3389H126.15L125.835 86.4839H174.6L174.915 82.3389Z" fill="#F0F0F0"/>
<path id="Path_30" d="M174.284 90.624H125.514L125.199 94.764H173.969L174.284 90.624Z" fill="#F0F0F0"/>
<path id="Path_31" d="M173.549 100.259H124.779L124.884 98.9043H173.654L173.549 100.259Z" fill="#407BFF"/>
<path id="Path_32" d="M167.97 40.5391H178.105L177.645 46.5841H167.51L167.97 40.5391Z" fill="#F0F0F0"/>
</g>
<g id="Group 1000000687">
<path id="Vector" d="M93.4744 164.026H98.2205L100.479 145.556L93.4736 145.556L93.4744 164.026Z" fill="#FFB573"/>
<path id="Vector_2" d="M101.611 162.658H92.4582V168.473H107.374C107.374 167.709 107.225 166.953 106.935 166.248C106.646 165.542 106.221 164.901 105.686 164.361C105.151 163.821 104.516 163.393 103.816 163.101C103.117 162.809 102.368 162.658 101.611 162.658Z" fill="#2F2E41"/>
<path id="Vector_3" d="M69.8611 164.026H74.6072L76.8652 145.556L69.8604 145.556L69.8611 164.026Z" fill="#FFB573"/>
<path id="Vector_4" d="M77.9958 162.658H68.8429V168.473H83.7588C83.7588 167.709 83.6097 166.953 83.3201 166.248C83.0305 165.542 82.606 164.901 82.0709 164.361C81.5357 163.821 80.9004 163.393 80.2012 163.101C79.502 162.809 78.7526 162.658 77.9958 162.658Z" fill="#2F2E41"/>
<path id="Vector_5" d="M119.328 96.7612C119.633 96.231 119.819 95.6396 119.873 95.0287C119.927 94.4178 119.847 93.8022 119.64 93.2253C119.433 92.6485 119.102 92.1243 118.673 91.6898C118.243 91.2553 117.724 90.921 117.153 90.7105L97.9191 47.0838L90.3058 51.9999L111.682 93.481C111.397 94.4723 111.481 95.5354 111.92 96.4688C112.36 97.4022 113.123 98.141 114.065 98.5454C115.008 98.9497 116.064 98.9914 117.034 98.6626C118.004 98.3338 118.82 97.6572 119.328 96.7612Z" fill="#FFB573"/>
<path id="Vector_6" d="M72.2845 106.402C72.8119 106.097 73.2666 105.679 73.6166 105.177C73.9665 104.675 74.2032 104.103 74.31 103.499C74.4168 102.895 74.391 102.275 74.2346 101.682C74.0781 101.089 73.7947 100.538 73.4044 100.068L78.4023 52.6074L69.368 53.0239L67.2908 99.7074C66.5512 100.421 66.0969 101.384 66.0139 102.414C65.9309 103.443 66.2251 104.467 66.8406 105.293C67.4562 106.118 68.3503 106.686 69.3536 106.891C70.357 107.095 71.3998 106.921 72.2845 106.402Z" fill="#FFB573"/>
<path id="Vector_7" d="M86.6971 38.6075C81.446 38.6075 77.1892 34.3124 77.1892 29.0142C77.1892 23.716 81.446 19.4209 86.6971 19.4209C91.9482 19.4209 96.2051 23.716 96.2051 29.0142C96.2051 34.3124 91.9482 38.6075 86.6971 38.6075Z" fill="#FFB573"/>
<path id="Vector_8" d="M72.345 95.6083H101.01L100.975 95.3832C100.924 95.0468 95.8666 61.621 99.5965 50.6856C99.9707 49.611 99.9378 48.4347 99.504 47.383C99.0703 46.3314 98.2663 45.4789 97.2469 44.9895H97.2468C91.9156 42.4563 81.6818 39.3371 73.0443 46.9069C71.7733 48.0392 70.7807 49.4543 70.1452 51.0403C69.5096 52.6263 69.2485 54.3398 69.3824 56.0452L72.345 95.6083Z" fill="#3182CE"/>
<path id="Vector_9" d="M95.6645 66.5624L108.487 63.5433L102.016 49.2635C101.613 47.8739 100.68 46.702 99.4223 46.0048C98.1644 45.3076 96.6841 45.1421 95.306 45.5445C93.928 45.947 92.7647 46.8846 92.0713 48.1517C91.3779 49.4187 91.2111 50.9118 91.6074 52.3034L95.6645 66.5624Z" fill="#3182CE"/>
<path id="Vector_10" d="M78.9763 71.4659L79.7521 53.5216C80.3405 50.1484 78.4266 46.9596 75.4833 46.4384C72.5391 45.919 69.6642 48.2586 69.0733 51.6566L66.1571 68.4238L78.9763 71.4659Z" fill="#3182CE"/>
<path id="Vector_11" d="M73.2994 93.46C68.6871 111.184 68.1839 133.718 69.4283 158.298L75.6221 157.517L86.8485 110.646L93.0424 158.298L100.01 157.907C102.092 132.117 104.119 109.976 100.785 95.4129L73.2994 93.46Z" fill="#2F2E41"/>
<path id="Vector_12" d="M80.4322 36.4285C82.206 38.3349 85.5001 37.3115 85.7312 34.7071C85.7493 34.5049 85.748 34.3014 85.7273 34.0994C85.6079 32.9458 84.9474 31.8984 85.1056 30.6804C85.1414 30.3772 85.2534 30.0883 85.4308 29.841C86.8443 27.9313 90.1623 30.6952 91.4962 28.9664C92.3142 27.9063 91.3527 26.2373 91.9804 25.0525C92.8088 23.4887 95.2627 24.2601 96.8015 23.4037C98.5136 22.4509 98.4112 19.8004 97.2842 18.1883C95.9097 16.2222 93.4998 15.1731 91.12 15.0219C88.7401 14.8707 86.3767 15.5198 84.1549 16.3935C81.6305 17.3861 79.1271 18.7579 77.5736 20.9976C75.6844 23.7212 75.5027 27.3829 76.4475 30.5677C77.0222 32.5051 78.9838 34.8717 80.4322 36.4285Z" fill="#263238"/>
</g>
</g>
</svg>
