<svg width="250" height="187" viewBox="0 0 250 187" fill="none" xmlns="http://www.w3.org/2000/svg">
<g id="illustration">
<g id="freepik--background-complete--inject-242">
<rect id="Rectangle" y="163.7" width="250" height="0.125" fill="#EBEBEB"/>
<rect id="Rectangle_2" x="208.39" y="171.745" width="16.56" height="0.125" fill="#EBEBEB"/>
<rect id="Rectangle_3" x="161.265" y="173.104" width="4.345" height="0.125" fill="#EBEBEB"/>
<rect id="Rectangle_4" x="198.295" y="167.104" width="9.595" height="0.125" fill="#EBEBEB"/>
<rect id="Rectangle_5" x="26.2305" y="167.945" width="21.595" height="0.125" fill="#EBEBEB"/>
<rect id="Rectangle_6" x="52.2803" y="167.945" width="3.165" height="0.125" fill="#EBEBEB"/>
<rect id="Rectangle_7" x="65.7354" y="170.055" width="46.84" height="0.125" fill="#EBEBEB"/>
<path id="Shape" fill-rule="evenodd" clip-rule="evenodd" d="M21.9555 141.4H118.5C120.077 141.4 121.355 140.122 121.355 138.545V2.855C121.355 1.27823 120.077 0 118.5 0H21.9555C20.3904 0.00268102 19.1192 1.26495 19.1055 2.83V138.545C19.1055 140.12 20.3806 141.397 21.9555 141.4ZM19.2305 2.83026C19.2305 1.32447 20.4497 0.103018 21.9555 0.10026H118.5C120.007 0.103012 121.228 1.32366 121.23 2.83026V138.545C121.228 140.052 120.007 141.273 118.5 141.275H21.9555C20.4497 141.273 19.2305 140.051 19.2305 138.545V2.83026Z" fill="#EBEBEB"/>
<path id="Shape_2" fill-rule="evenodd" clip-rule="evenodd" d="M130.105 141.4H226.655C228.228 141.395 229.5 140.118 229.5 138.545V2.83C229.486 1.26689 228.218 0.00541536 226.655 0H130.105C128.539 0.00265154 127.266 1.26414 127.25 2.83V138.545C127.253 140.121 128.529 141.397 130.105 141.4ZM127.375 2.83026C127.378 1.32366 128.598 0.103012 130.105 0.10026H226.655C228.162 0.103012 229.382 1.32366 229.385 2.83026V138.545C229.382 140.052 228.162 141.273 226.655 141.275H130.105C128.598 141.273 127.378 140.052 127.375 138.545V2.83026Z" fill="#EBEBEB"/>
<rect id="Rectangle_8" x="143.62" y="163.7" width="14.445" height="51.46" transform="rotate(180 143.62 163.7)" fill="#E6E6E6"/>
<path id="Path" d="M131.915 163.7H129.17V158.93H134.79L131.915 163.7Z" fill="#F0F0F0"/>
<rect id="Rectangle_9" x="226.035" y="163.7" width="14.445" height="51.46" transform="rotate(180 226.035 163.7)" fill="#E6E6E6"/>
<rect id="Rectangle_10" x="213.985" y="162.445" width="84.81" height="50.21" transform="rotate(180 213.985 162.445)" fill="#F0F0F0"/>
<path id="Rectangle_11" d="M186.02 159.66V115.22H211.16V159.66H186.02Z" fill="#E6E6E6"/>
<path id="Path_2" d="M196.105 117.769H201.075C203.317 117.73 205.419 116.674 206.79 114.899H190.39C191.762 116.672 193.863 117.728 196.105 117.769Z" fill="#F0F0F0"/>
<path id="Rectangle_12" d="M159.005 159.665V115.225H184.145V159.665H159.005Z" fill="#E6E6E6"/>
<path id="Path_3" d="M168.835 117.769H173.81C176.043 117.722 178.135 116.667 179.5 114.899H163.125C164.494 116.673 166.595 117.728 168.835 117.769Z" fill="#F0F0F0"/>
<path id="Rectangle_13" d="M131.99 159.665V115.225H157.13V159.665H131.99Z" fill="#E6E6E6"/>
<path id="Path_4" d="M141.82 117.769H146.795C149.034 117.727 151.132 116.671 152.5 114.899H136.11C137.48 116.673 139.58 117.728 141.82 117.769Z" fill="#F0F0F0"/>
<path id="Path_5" d="M211.24 163.7H213.98V158.93H208.36L211.24 163.7Z" fill="#F0F0F0"/>
<rect id="Rectangle_14" x="135.24" y="98.8604" width="96.915" height="82.515" transform="rotate(180 135.24 98.8604)" fill="#E6E6E6"/>
<rect id="Rectangle_15" x="134.29" y="98.8604" width="98.145" height="82.515" transform="rotate(180 134.29 98.8604)" fill="#F5F5F5"/>
<path id="Rectangle_16" d="M130.375 20.3047V94.8997H40.06V20.3047L130.375 20.3047Z" fill="#FAFAFA"/>
<path id="Path_6" d="M119.295 94.8997L83.7498 20.3047H71.6748L107.22 94.8997H119.295Z" fill="white"/>
<path id="Path_7" d="M103.799 94.8997L68.2495 20.3047H59.9395L95.4845 94.8997H103.799Z" fill="white"/>
<path id="Rectangle_17" d="M73.5996 20.2998V94.8948H68.9296V20.2998H73.5996Z" fill="#E6E6E6"/>
<path id="Rectangle_18" d="M104.64 20.2998V94.8948H99.9696V20.2998H104.64Z" fill="#E6E6E6"/>
<path id="Rectangle_19" d="M72.7549 17.3604V97.4154H66.8499V17.3604H72.7549Z" fill="#F5F5F5"/>
<path id="Rectangle_20" d="M103.795 17.3604V97.4154H97.8899V17.3604H103.795Z" fill="#F5F5F5"/>
<path id="Rectangle_21" d="M40.4748 20.3047L40.4748 94.8997H40.0598L40.0598 20.3047H40.4748Z" fill="#E6E6E6"/>
<path id="Path_8" d="M34.5 11.25H139.5C139.776 11.25 140 11.4739 140 11.75C140 12.0261 139.776 12.25 139.5 12.25H34.5C34.2239 12.25 34 12.0261 34 11.75C34 11.4739 34.2239 11.25 34.5 11.25Z" fill="#E6E6E6"/>
<path id="Path_9" d="M135.24 14.5849C135.616 14.5821 135.92 14.2763 135.92 13.8999V12.4349C135.92 12.0593 135.615 11.7549 135.24 11.7549C134.863 11.7549 134.557 12.0585 134.555 12.4349V13.8999C134.557 14.2771 134.863 14.5822 135.24 14.5849Z" fill="#E6E6E6"/>
<path id="Path_10" d="M42.1155 14.5849C42.4927 14.5822 42.7978 14.2771 42.8005 13.8999V12.4349C42.7978 12.0585 42.4919 11.7549 42.1155 11.7549C41.74 11.7549 41.4355 12.0593 41.4355 12.4349V13.8999C41.4355 14.2763 41.7392 14.5821 42.1155 14.5849Z" fill="#E6E6E6"/>
<rect id="Rectangle_22" opacity="0.6" x="132.735" y="52.71" width="98.075" height="40.955" transform="rotate(180 132.735 52.71)" fill="#E0E0E0"/>
<rect id="Rectangle_23" x="38.5254" y="163.7" width="2.52" height="41.32" transform="rotate(180 38.5254 163.7)" fill="#E6E6E6"/>
<rect id="Rectangle_24" x="81.4746" y="114.335" width="13.645" height="8.04" fill="#E6E6E6"/>
<rect id="Rectangle_25" x="81.4746" y="122.38" width="54.195" height="8.04" transform="rotate(180 81.4746 122.38)" fill="#F5F5F5"/>
<rect id="Rectangle_26" x="81.4746" y="127.375" width="13.645" height="8.04" fill="#E6E6E6"/>
<rect id="Rectangle_27" x="81.4746" y="135.42" width="54.195" height="8.04" transform="rotate(180 81.4746 135.42)" fill="#F5F5F5"/>
<rect id="Rectangle_28" x="81.4746" y="140.42" width="13.645" height="8.04" fill="#E6E6E6"/>
<rect id="Rectangle_29" x="81.4746" y="148.46" width="54.195" height="8.04" transform="rotate(180 81.4746 148.46)" fill="#F5F5F5"/>
<rect id="Rectangle_30" x="92.7197" y="163.7" width="2.52" height="41.32" transform="rotate(180 92.7197 163.7)" fill="#E6E6E6"/>
<rect id="Rectangle_31" x="81.4746" y="163.7" width="2.52" height="41.32" transform="rotate(180 81.4746 163.7)" fill="#F5F5F5"/>
<rect id="Rectangle_32" x="29.7998" y="163.7" width="2.52" height="41.32" transform="rotate(180 29.7998 163.7)" fill="#F5F5F5"/>
</g>
<g id="freepik--Shadow--inject-242">
<ellipse id="freepik--path--inject-242" cx="125" cy="180.621" rx="96.945" ry="5.66" fill="#F5F5F5"/>
</g>
<g id="freepik--Invoice--inject-242">
<path id="Path_11" d="M198 157.919H116.8C115.186 157.939 113.639 157.273 112.544 156.087C111.449 154.901 110.908 153.307 111.055 151.699L121 21.3142C121.321 17.8359 124.207 15.156 127.7 15.0942H208.9C210.515 15.0732 212.062 15.7385 213.158 16.9247C214.254 18.1109 214.794 19.7064 214.645 21.3142L204.7 151.699C204.377 155.177 201.492 157.855 198 157.919Z" fill="#407BFF"/>
<path id="Path_12" opacity="0.5" d="M198 157.919H116.8C115.186 157.939 113.639 157.273 112.544 156.087C111.449 154.901 110.908 153.307 111.055 151.699L121 21.3142C121.321 17.8359 124.207 15.156 127.7 15.0942H208.9C210.515 15.0732 212.062 15.7385 213.158 16.9247C214.254 18.1109 214.794 19.7064 214.645 21.3142L204.7 151.699C204.377 155.177 201.492 157.855 198 157.919Z" fill="white"/>
<path id="Path_13" d="M196.794 157.919H115.589C113.975 157.939 112.428 157.273 111.333 156.087C110.238 154.901 109.697 153.307 109.844 151.699L119.794 21.3142C120.115 17.834 123.005 15.1535 126.499 15.0942H207.699C209.314 15.0732 210.861 15.7385 211.957 16.9247C213.053 18.1109 213.593 19.7064 213.444 21.3142L203.499 151.699C203.178 155.179 200.289 157.86 196.794 157.919Z" fill="#407BFF"/>
<path id="Path_14" opacity="0.7" d="M196.794 157.919H115.589C113.975 157.939 112.428 157.273 111.333 156.087C110.238 154.901 109.697 153.307 109.844 151.699L119.794 21.3142C120.115 17.834 123.005 15.1535 126.499 15.0942H207.699C209.314 15.0732 210.861 15.7385 211.957 16.9247C213.053 18.1109 213.593 19.7064 213.444 21.3142L203.499 151.699C203.178 155.179 200.289 157.86 196.794 157.919Z" fill="white"/>
<path id="Path_15" d="M115.75 155.845C114.673 155.861 113.641 155.418 112.91 154.627C112.179 153.836 111.819 152.772 111.92 151.7L121.735 23.0448C121.944 20.7247 123.871 18.9364 126.2 18.8998H207.4C208.477 18.8837 209.51 19.3264 210.24 20.1173C210.971 20.9083 211.331 21.9727 211.23 23.0448L201.415 151.7C201.206 154.018 199.282 155.806 196.955 155.845H115.75Z" fill="#407BFF"/>
<path id="Path_16" opacity="0.2" d="M196.38 40.5393H138.27C137.632 40.5478 137.02 40.2846 136.587 39.8153C136.154 39.3461 135.94 38.715 136 38.0793C136.129 36.7076 137.268 35.6513 138.645 35.6243H196.755C197.393 35.6144 198.005 35.8764 198.438 36.3449C198.871 36.8134 199.085 37.444 199.025 38.0793C198.902 39.4552 197.761 40.5166 196.38 40.5393Z" fill="black"/>
<path id="Path_17" opacity="0.3" d="M171.59 17.6289H162.205C162.048 17.631 161.897 17.5663 161.79 17.451C161.684 17.3357 161.631 17.1805 161.645 17.0239C161.678 16.687 161.956 16.4275 162.295 16.4189H171.685C171.841 16.4183 171.99 16.4836 172.096 16.5988C172.202 16.7139 172.254 16.8683 172.24 17.0239C172.212 17.363 171.93 17.625 171.59 17.6289Z" fill="#407BFF"/>
<path id="Path_18" d="M138 38.0791C138.168 36.3203 137.579 34.5731 136.38 33.2751C135.181 31.9771 133.486 31.2512 131.72 31.2791H190.72C192.486 31.2512 194.181 31.9771 195.38 33.2751C196.579 34.5731 197.168 36.3203 197 38.0791H138Z" fill="#F0F0F0"/>
<path id="Path_19" d="M131.735 31.2793C127.913 31.3381 124.752 34.2724 124.41 38.0793L118.365 117.314C118.025 121.12 114.866 124.055 111.045 124.114H170.045C173.867 124.055 177.028 121.121 177.37 117.314L183.415 38.0793C183.755 34.2732 186.914 31.3384 190.735 31.2793L131.735 31.2793Z" fill="white"/>
<path id="Path_20" d="M163.76 117.314C163.592 119.073 164.181 120.82 165.379 122.118C166.578 123.416 168.273 124.142 170.04 124.114H111.04C109.273 124.142 107.578 123.416 106.379 122.118C105.181 120.82 104.592 119.073 104.76 117.314H163.76Z" fill="#F0F0F0"/>
<path id="Path_21" d="M129.224 115.75C129.449 112.855 128.539 110.515 125.649 110.515H171.079C173.969 110.515 176.144 113.16 174.659 115.75H129.224Z" fill="#E0E0E0"/>
<path id="Path_22" d="M163.76 117.314C164.092 113.502 167.254 110.559 171.08 110.499H112.08C108.259 110.558 105.1 113.493 104.76 117.299L163.76 117.314Z" fill="#F0F0F0"/>
<path id="Path_23" d="M191.654 136.96H123.929C123.466 136.966 123.021 136.775 122.707 136.435C122.392 136.094 122.237 135.636 122.279 135.175C122.371 134.177 123.198 133.408 124.199 133.39H191.929C192.392 133.385 192.835 133.576 193.149 133.917C193.462 134.257 193.617 134.714 193.574 135.175C193.483 136.172 192.656 136.941 191.654 136.96Z" fill="white"/>
<path id="Path_24" d="M157.455 145.54H123.275C122.811 145.548 122.365 145.357 122.05 145.017C121.735 144.676 121.58 144.217 121.625 143.755C121.716 142.758 122.543 141.989 123.545 141.97H157.725C158.188 141.964 158.632 142.154 158.947 142.495C159.262 142.835 159.417 143.293 159.375 143.755C159.283 144.752 158.456 145.521 157.455 145.54Z" fill="white"/>
<path id="Path_25" d="M181.12 145.54H167.275C166.811 145.548 166.365 145.357 166.05 145.016C165.735 144.676 165.58 144.217 165.625 143.755C165.716 142.757 166.543 141.989 167.545 141.97H181.39C181.853 141.965 182.296 142.156 182.61 142.497C182.925 142.837 183.081 143.294 183.04 143.755C182.948 144.752 182.121 145.521 181.12 145.54Z" fill="white"/>
<path id="Path_26" d="M176.18 65.7748H127.415L127.515 64.4248H176.285L176.18 65.7748Z" fill="#407BFF"/>
<path id="Path_27" d="M176.18 65.7744H127.415L127.095 69.9194H175.865L176.18 65.7744Z" fill="#F0F0F0"/>
<path id="Path_28" d="M175.55 74.0596H126.78L126.465 78.1996H175.235L175.55 74.0596Z" fill="#F0F0F0"/>
<path id="Path_29" d="M174.915 82.3389H126.15L125.835 86.4839H174.6L174.915 82.3389Z" fill="#F0F0F0"/>
<path id="Path_30" d="M174.284 90.624H125.514L125.199 94.764H173.969L174.284 90.624Z" fill="#F0F0F0"/>
<path id="Path_31" d="M173.549 100.259H124.779L124.884 98.9043H173.654L173.549 100.259Z" fill="#407BFF"/>
<path id="Path_32" d="M167.97 40.5391H178.105L177.645 46.5841H167.51L167.97 40.5391Z" fill="#F0F0F0"/>
</g>
<g id="freepik--character-male--inject-31">
<path id="Path_33" d="M93.2732 163.242H96.9523L97.3232 154.711H93.6391L93.2732 163.242Z" fill="#FFB573"/>
<path id="Path_34" opacity="0.2" d="M97.3184 154.716L97.1329 159.112H93.4488L93.6393 154.716H97.3184Z" fill="black"/>
<path id="Path_35" d="M61.9304 153.247L65.4291 154.389L69.835 146.856L66.3313 145.713L61.9304 153.247Z" fill="#FFB573"/>
<path id="Path_36" opacity="0.2" d="M66.3313 145.713L69.835 146.856L67.5593 150.74L64.0607 149.598L66.3313 145.713Z" fill="black"/>
<path id="Path_37" d="M80.8222 40.0264C80.3661 40.5827 79.9801 41.079 79.5841 41.6253C79.1882 42.1717 78.8122 42.693 78.4363 43.2343C77.6945 44.322 76.9827 45.4348 76.3161 46.5826C74.9288 48.9114 73.7977 51.3835 72.9427 53.9558L72.8575 54.2065L72.8174 54.3368L72.7623 54.5423L72.662 54.9533L72.6069 55.3292C72.5475 55.7794 72.5291 56.2341 72.5517 56.6876C72.5984 57.4524 72.7091 58.2119 72.8826 58.9582C73.1999 60.2954 73.6205 61.6059 74.1407 62.8779C75.1319 65.3164 76.3327 67.6643 77.7296 69.8953L80.2358 68.6973C79.4839 66.3465 78.732 63.9406 78.1807 61.5998C77.8936 60.4713 77.676 59.3264 77.5291 58.1713C77.4673 57.6726 77.4488 57.1694 77.4739 56.6676C77.4815 56.4887 77.5049 56.3109 77.5441 56.1362L77.5692 56.046C77.5785 56.0298 77.5869 56.0131 77.5942 55.9959L77.6343 55.9007L77.7145 55.7052L78.0504 54.9182L78.4263 54.1363C78.6769 53.635 78.9526 53.0937 79.2283 52.5724C79.7997 51.5399 80.4162 50.5123 81.0578 49.4898C81.6994 48.4673 82.3811 47.4848 83.0628 46.4823C83.7444 45.4799 84.4913 44.4774 85.168 43.5701L80.8222 40.0264Z" fill="#FFB573"/>
<path id="Path_38" d="M80.0058 68.0748L81.4443 71.2577H77.3292C77.3292 71.2577 76.6725 68.8417 78.1662 67.8643L80.0058 68.0748Z" fill="#FFB573"/>
<path id="Path_39" d="M80.9631 74.8376L77.1437 74.1008L77.3292 71.2588H81.4443L80.9631 74.8376Z" fill="#FFB573"/>
<path id="Path_40" d="M99.058 23.8703C99.058 24.1711 99.2134 24.4117 99.4089 24.4117C99.6044 24.4117 99.7598 24.1711 99.7598 23.8703C99.7598 23.5696 99.5994 23.334 99.4089 23.334C99.2184 23.334 99.058 23.5746 99.058 23.8703Z" fill="#263238"/>
<path id="Path_41" d="M99.1694 24.4131C99.5227 25.32 100 26.1736 100.588 26.9494C100.178 27.2434 99.659 27.3424 99.1694 27.22V24.4131Z" fill="#ED893E"/>
<path id="Path_42" d="M98.0046 22.2272C98.0411 22.2276 98.0766 22.2152 98.1048 22.1921C98.4588 21.9257 98.9177 21.8421 99.3429 21.9665C99.4297 21.9902 99.5204 21.9443 99.5527 21.8602C99.585 21.7762 99.5485 21.6814 99.4682 21.6407C98.9323 21.4705 98.3472 21.5715 97.8993 21.9114C97.8226 21.9695 97.8049 22.0775 97.8592 22.157C97.8944 22.2013 97.9479 22.2272 98.0046 22.2272Z" fill="#263238"/>
<path id="Path_43" d="M89.469 27.2939C90.0004 29.9906 90.5267 34.9278 88.642 36.7223C88.642 36.7223 89.3788 39.454 94.3812 39.454C99.8948 39.454 97.0127 36.7223 97.0127 36.7223C94.0053 36.0055 94.0855 33.78 94.6118 31.6848L89.469 27.2939Z" fill="#FFB573"/>
<path id="Path_44" d="M87.9214 37.6609C87.5254 36.7987 87.0894 35.8063 87.9916 35.4955C88.9941 35.1547 94.3874 34.8088 96.2571 35.4504C96.7537 35.588 97.1745 35.919 97.4251 36.3694C97.6757 36.8197 97.7352 37.3517 97.5904 37.8463L87.9214 37.6609Z" fill="#263238"/>
<path id="Shape_3" fill-rule="evenodd" clip-rule="evenodd" d="M66.9936 155.703C66.763 155.738 66.4572 155.527 66.1866 155.267C65.954 155.042 65.7457 154.793 65.565 154.525C65.5456 154.496 65.5456 154.458 65.565 154.43C65.5849 154.403 65.6175 154.39 65.6502 154.395C65.7154 154.4 66.9184 154.6 67.2191 155.066C67.2882 155.164 67.3102 155.287 67.2793 155.402C67.2569 155.552 67.1426 155.673 66.9936 155.703ZM67.0735 155.157C67.053 155.128 67.0295 155.101 67.0033 155.077C66.6519 154.835 66.2513 154.674 65.8304 154.605C66.1662 155.027 66.7126 155.568 66.9682 155.528C66.9933 155.528 67.0685 155.513 67.1086 155.357C67.1271 155.289 67.1143 155.215 67.0735 155.157Z" fill="#407BFF"/>
<path id="Shape_4" fill-rule="evenodd" clip-rule="evenodd" d="M65.6263 154.567L65.5862 154.541C65.5746 154.531 65.5674 154.517 65.5662 154.501C65.5566 154.47 65.5665 154.437 65.5912 154.416C65.5922 154.415 65.5937 154.414 65.5958 154.412C65.6694 154.348 66.4383 153.68 66.9747 153.719C67.1088 153.729 67.2334 153.792 67.3205 153.895C67.4149 153.992 67.4314 154.14 67.3606 154.256C67.1301 154.607 66.0424 154.677 65.6263 154.567ZM67.1851 154.01L67.155 153.98H67.145C67.0952 153.931 67.0295 153.9 66.9595 153.895C66.5449 153.96 66.1582 154.145 65.8468 154.426C66.3179 154.481 67.0798 154.366 67.2151 154.161C67.2157 154.159 67.2163 154.158 67.217 154.157C67.2282 154.135 67.2514 154.091 67.1851 154.01Z" fill="#407BFF"/>
<path id="Shape_5" fill-rule="evenodd" clip-rule="evenodd" d="M99.5155 163.15C99.3651 163.36 98.909 163.426 98.4378 163.426C98.0597 163.424 97.6824 163.39 97.31 163.325C97.2759 163.317 97.2501 163.29 97.2448 163.255C97.2359 163.219 97.2524 163.182 97.2849 163.165C97.3401 163.13 98.6283 162.398 99.2398 162.563C99.3559 162.591 99.4556 162.666 99.5155 162.769C99.599 162.882 99.599 163.037 99.5155 163.15ZM99.1897 162.713C99.1331 162.705 99.0758 162.705 99.0192 162.713C98.5126 162.772 98.0223 162.928 97.5757 163.174C98.2574 163.27 99.1897 163.265 99.3601 163.029C99.4002 162.999 99.4202 162.944 99.3601 162.833C99.323 162.771 99.261 162.727 99.1897 162.713Z" fill="#407BFF"/>
<path id="Shape_6" fill-rule="evenodd" clip-rule="evenodd" d="M97.3596 163.325H97.3245C97.3023 163.331 97.2788 163.327 97.2593 163.315C97.2347 163.296 97.22 163.267 97.2192 163.235C97.2194 163.234 97.2196 163.232 97.2199 163.229C97.2307 163.135 97.3388 162.191 97.7906 161.817C97.9302 161.7 98.1113 161.646 98.2919 161.666C98.5325 161.691 98.6177 161.812 98.6177 161.912C98.6828 162.323 97.8007 163.125 97.3596 163.325ZM98.2717 161.821H98.2215V161.831C98.1194 161.833 98.0207 161.868 97.9408 161.932C97.6584 162.247 97.4829 162.643 97.4396 163.064C97.8857 162.794 98.4822 162.167 98.4421 161.917C98.4421 161.896 98.4321 161.821 98.2717 161.821Z" fill="#407BFF"/>
<path id="Path_45" d="M65.7354 153.983L62.728 151.121C62.6201 151.015 62.4518 151 62.327 151.086L59.5401 152.951C59.4035 153.043 59.3168 153.193 59.3051 153.357C59.2933 153.522 59.3578 153.682 59.4799 153.793C60.5376 154.795 61.104 155.201 62.4172 156.454C63.2292 157.231 65.6452 159.863 66.763 160.935C67.8807 162.008 69.0837 161.036 68.7228 160.499C67.0988 158.088 66.0863 155.778 65.9961 154.56C65.9799 154.343 65.8876 154.139 65.7354 153.983Z" fill="#263238"/>
<path id="Path_46" d="M96.9332 162.814H92.9233C92.7734 162.814 92.6435 162.918 92.6126 163.065L91.8858 166.338C91.8487 166.498 91.8871 166.665 91.9899 166.792C92.0927 166.92 92.2485 166.993 92.4121 166.99C93.8657 166.99 95.9608 166.885 97.7854 166.885C99.9156 166.885 101.755 167 104.256 167C105.76 167 106.186 165.471 105.555 165.331C102.677 164.704 100.322 164.634 97.8355 163.1C97.5673 162.923 97.2548 162.824 96.9332 162.814Z" fill="#263238"/>
<path id="Path_47" d="M102.175 45.0781C103.639 47.2335 105.148 49.2484 106.772 51.2384C108.402 53.2526 110.144 55.1737 111.99 56.9926L112.702 57.6843L112.882 57.8547L113.012 57.975L113.203 58.1104C113.439 58.3007 113.692 58.4685 113.96 58.6116C114.806 59.058 115.737 59.3194 116.691 59.3785C118.148 59.4647 119.61 59.3432 121.032 59.0176C123.61 58.4491 126.109 57.5706 128.476 56.4012L127.553 53.7947C125.206 54.2639 122.833 54.5887 120.446 54.7671C119.397 54.85 118.341 54.8062 117.303 54.6368C117.005 54.5922 116.72 54.4808 116.471 54.311C116.446 54.311 116.471 54.2809 116.471 54.2809L116.431 54.2408L116.285 54.0754L115.689 53.4238C114.125 51.6394 112.606 49.7347 111.133 47.7898C109.659 45.845 108.18 43.8501 106.772 41.9053L102.175 45.0781Z" fill="#FFB573"/>
<path id="Path_48" d="M82.0457 37.5597C78.5971 38.3516 74.6373 47.7599 74.6373 47.7599L81.5695 52.5117C83.2913 50.0376 84.818 47.4333 86.1358 44.7224C88.1909 40.4168 85.5744 36.7477 82.0457 37.5597Z" fill="#407BFF"/>
<path id="Path_49" opacity="0.3" d="M84.5225 43.5752L81.2443 52.3018L81.5702 52.5274C81.5702 52.5274 82.9887 50.5224 84.5225 47.8508L84.5225 43.5752Z" fill="black"/>
<path id="Path_50" d="M102.677 37.7455C102.677 37.7455 106.596 42.1714 102.892 69.5742H83.1984C83.0631 66.5668 84.9628 51.8002 82.0456 37.555C84.2241 37.136 86.4275 36.8581 88.6419 36.7229C91.4298 36.5624 94.2247 36.5624 97.0126 36.7229C98.9244 36.9155 100.818 37.2574 102.677 37.7455Z" fill="#407BFF"/>
<path id="Path_51" opacity="0.3" d="M100.491 45.6709C101.003 48.7805 102.347 51.6937 104.381 54.1018C104.461 52.3374 104.491 50.7535 104.486 49.335L100.491 45.6709Z" fill="black"/>
<path id="Path_52" d="M98.7932 40.7346C98.2919 44.2182 105.179 53.1253 105.179 53.1253L112.081 48.3735C112.081 48.3735 110.166 43.4664 106.943 40.2484C103.259 36.5593 99.3195 36.9402 98.7932 40.7346Z" fill="#407BFF"/>
<path id="Path_53" d="M127.077 54.1005L129.779 51.3086L132.661 55.0228C132.661 55.0228 130.466 57.143 127.854 56.5265L127.077 54.1005Z" fill="#FFB573"/>
<path id="Path_54" d="M133.488 49.7559L134.727 53.6555L132.661 55.0089L129.779 51.2947L133.488 49.7559Z" fill="#FFB573"/>
<path id="Path_55" d="M89.1439 23.244C89.3695 26.888 89.3144 29.0383 91.1489 30.9079C93.9208 33.7249 98.4219 32.0558 99.289 28.4017C100.076 25.1236 99.5748 19.7102 96.0059 18.2616C94.4076 17.6049 92.5832 17.8231 91.1849 18.8384C89.7866 19.8536 89.0143 21.5209 89.1439 23.244Z" fill="#FFB573"/>
<path id="Path_56" d="M85.9716 15.6309C84.8488 16.6635 85.325 17.8163 85.9114 18.0319C84.0919 18.4078 83.8263 19.8564 84.7836 22.9139C85.6959 25.8412 87.9064 29.7659 90.6682 30.0065C94.8185 30.3674 96.0315 26.0417 96.0615 21.7511C98.4073 21.8964 97.3948 19.8163 100.277 20.2975C102.783 20.7135 101.841 18.7587 103.971 17.9065C106.442 16.9041 105.946 13.1197 103.64 14.2074C103.64 14.2074 104.708 14.9091 103.465 15.5708C102.222 16.2324 102.342 14.7036 99.881 14.5182C97.4199 14.3327 97.1342 16.4379 94.2571 15.1698C90.6481 13.5758 88.2773 13.5006 85.9716 15.6309Z" fill="#263238"/>
<path id="Path_57" d="M87.3545 18.0113C87.0183 17.4723 86.3684 17.2177 85.7555 17.3848C84.6277 17.6253 84.5375 18.1216 83.8308 18.0564C83.124 17.9913 83.3797 18.7431 83.3797 18.7431C83.3797 18.7431 83.5701 18.1767 84.4222 18.4925C85.2743 18.8083 85.8307 18.0364 86.1966 18.3822C86.5625 18.7281 87.3545 18.0113 87.3545 18.0113Z" fill="#263238"/>
<path id="Path_58" d="M94.0957 24.2375C94.2559 25.1311 94.7091 25.9459 95.3839 26.5533C96.2761 27.3452 97.0481 26.7087 97.0781 25.626C97.0781 24.6486 96.6621 23.0546 95.6346 22.6737C94.607 22.2927 93.9103 23.1549 94.0957 24.2375Z" fill="#FFB573"/>
<path id="Path_59" d="M95.9102 69.5747C95.9102 69.5747 91.7298 97.7094 89.4341 108.235C86.9279 119.764 69.4597 150.44 69.4597 150.44L63.0438 148.355C63.0438 148.355 76.9532 120.716 78.3868 109.283C79.9456 96.8773 83.1987 69.5547 83.1987 69.5547L95.9102 69.5747Z" fill="#263238"/>
<path id="Path_60" d="M71.2546 148.434C71.2796 148.434 69.7859 150.68 69.7859 150.68L62.5781 148.334L63.4252 146.179L71.2546 148.434Z" fill="#407BFF"/>
<path id="Path_61" opacity="0.3" d="M93.2688 79.5991C88.4368 80.5464 88.9481 98.566 89.5295 107.834C90.9229 101.283 92.963 88.6765 94.3564 79.7294C94.0193 79.5633 93.6356 79.5173 93.2688 79.5991Z" fill="black"/>
<path id="Path_62" d="M102.893 69.5732C102.893 69.5732 103.394 97.1064 103.003 108.334C102.587 120.013 98.492 158.258 98.492 158.258H92.2516C92.2516 158.258 92.026 120.695 91.7503 109.226C91.4496 96.6954 89.9409 69.5732 89.9409 69.5732L102.893 69.5732Z" fill="#263238"/>
<path id="Path_63" d="M99.7044 155.773C99.7344 155.773 99.3535 158.365 99.3535 158.365H91.7647L91.5592 156.054L99.7044 155.773Z" fill="#407BFF"/>
</g>
</g>
</svg>
