<svg width="250" height="187" viewBox="0 0 250 187" fill="none" xmlns="http://www.w3.org/2000/svg">
<g id="illustration">
<g id="freepik--background-complete--inject-31">
<rect id="Rectangle" y="163.7" width="250" height="0.125" fill="#EBEBEB"/>
<rect id="Rectangle_2" x="208.39" y="171.745" width="16.56" height="0.125" fill="#EBEBEB"/>
<rect id="Rectangle_3" x="161.265" y="173.105" width="4.345" height="0.125" fill="#EBEBEB"/>
<rect id="Rectangle_4" x="198.295" y="167.105" width="9.595" height="0.125" fill="#EBEBEB"/>
<rect id="Rectangle_5" x="26.23" y="167.945" width="21.595" height="0.125" fill="#EBEBEB"/>
<rect id="Rectangle_6" x="52.2799" y="167.945" width="3.165" height="0.125" fill="#EBEBEB"/>
<rect id="Rectangle_7" x="65.735" y="170.055" width="46.84" height="0.125" fill="#EBEBEB"/>
<path id="Shape" fill-rule="evenodd" clip-rule="evenodd" d="M21.955 141.4H118.5C120.077 141.4 121.355 140.122 121.355 138.545V2.855C121.355 1.27823 120.077 0 118.5 0H21.955C20.3899 0.00268102 19.1187 1.26495 19.105 2.83V138.545C19.105 140.12 20.3802 141.397 21.955 141.4ZM19.23 2.83026C19.23 1.32447 20.4492 0.103018 21.955 0.10026H118.5C120.007 0.103012 121.227 1.32366 121.23 2.83026V138.545C121.227 140.052 120.007 141.273 118.5 141.275H21.955C20.4492 141.273 19.23 140.051 19.23 138.545V2.83026Z" fill="#EBEBEB"/>
<path id="Shape_2" fill-rule="evenodd" clip-rule="evenodd" d="M130.105 141.4H226.655C228.228 141.395 229.5 140.118 229.5 138.545V2.83C229.486 1.26689 228.218 0.00541536 226.655 0H130.105C128.539 0.00265154 127.266 1.26414 127.25 2.83V138.545C127.253 140.121 128.529 141.397 130.105 141.4ZM127.375 2.83026C127.378 1.32366 128.598 0.103012 130.105 0.10026H226.655C228.162 0.103012 229.382 1.32366 229.385 2.83026V138.545C229.382 140.052 228.162 141.273 226.655 141.275H130.105C128.598 141.273 127.378 140.052 127.375 138.545V2.83026Z" fill="#EBEBEB"/>
<rect id="Rectangle_8" x="179.495" y="37.5054" width="7.085" height="22.055" fill="#E6E6E6"/>
<path id="Path" d="M205.785 59.5596H182.275L178.725 33.7446H202.235L205.785 59.5596Z" fill="#F0F0F0"/>
<path id="Path_2" d="M208.33 59.5596H184.05L180.5 33.7446H204.78L208.33 59.5596Z" fill="#F5F5F5"/>
<path id="Path_3" d="M185.805 57.5248L182.815 35.7798H203.025L206.02 57.5248H185.805Z" fill="white"/>
<path id="Path_4" d="M189.8 50.9404L188.675 42.7804C188.607 42.3445 188.735 41.9009 189.024 41.5676C189.313 41.2344 189.734 41.0452 190.175 41.0504H197.52C198.281 41.0446 198.926 41.6099 199.02 42.3654L200.14 50.5304C200.206 50.9655 200.078 51.4077 199.789 51.7398C199.5 52.0719 199.08 52.2604 198.64 52.2554H191.305C190.542 52.2638 189.894 51.6978 189.8 50.9404Z" fill="#F5F5F5"/>
<rect id="Rectangle_9" x="36.5801" y="13.3398" width="105.895" height="65.325" fill="#E6E6E6"/>
<rect id="Rectangle_10" x="37.8499" y="13.3398" width="107.345" height="65.325" fill="#F0F0F0"/>
<rect id="Rectangle_11" x="36.5801" y="78.6699" width="105.895" height="5.055" fill="#E6E6E6"/>
<rect id="Rectangle_12" x="42.38" y="78.6699" width="107.345" height="5.055" fill="#F0F0F0"/>
<path id="Rectangle_13" d="M141.385 17.1499V74.8599H41.66V17.1499L141.385 17.1499Z" fill="#FAFAFA"/>
<path id="Path_5" d="M48.98 74.8599L71.335 17.1499H81.885L59.53 74.8599H48.98Z" fill="white"/>
<path id="Path_6" d="M61.8 74.8599L84.155 17.1499H88.265L65.91 74.8599H61.8Z" fill="white"/>
<path id="Path_7" d="M100.91 74.8599L123.265 17.1499H127.375L105.025 74.8599H100.91Z" fill="white"/>
<path id="Rectangle_14" d="M141.38 17.1499V74.8599H140.895V17.1499H141.38Z" fill="#E6E6E6"/>
<rect id="Rectangle_15" x="200.33" y="59.5601" width="22.42" height="104.14" fill="#E6E6E6"/>
<path id="Path_8" d="M220.495 163.7H222.75V157.285H218.13L220.495 163.7Z" fill="#F0F0F0"/>
<rect id="Rectangle_16" x="161.045" y="59.5601" width="22.42" height="104.14" fill="#E6E6E6"/>
<rect id="Rectangle_17" x="181.495" y="59.5601" width="41.255" height="100.205" fill="#F0F0F0"/>
<path id="Path_9" d="M183.75 163.7H181.495V157.285H186.115L183.75 163.7Z" fill="#F0F0F0"/>
<rect id="Rectangle_18" x="183.245" y="61.395" width="37.755" height="47.27" fill="#E6E6E6"/>
<path id="Path_10" d="M206.21 65.0752H198.035C194.483 65.0748 191.088 63.6139 188.645 61.0352H215.6C213.159 63.6154 209.762 65.0766 206.21 65.0752Z" fill="#F0F0F0"/>
<rect id="Rectangle_19" x="183.245" y="110.58" width="37.755" height="47.27" fill="#E6E6E6"/>
<path id="Path_11" d="M206.21 114.26H198.035C194.483 114.26 191.088 112.799 188.645 110.22H215.6C213.159 112.8 209.762 114.262 206.21 114.26Z" fill="#F0F0F0"/>
<path id="Path_12" d="M64.75 92.4453H102.06L107.47 114.48H70.155L64.75 92.4453Z" fill="#E6E6E6"/>
<path id="Path_13" d="M70.1549 114.48L70.3099 115.695H107.62L107.47 114.48H70.1549Z" fill="#E6E6E6"/>
<path id="Path_14" d="M65.9001 92.4453H103.21L108.62 114.48H71.3051L65.9001 92.4453Z" fill="#F0F0F0"/>
<path id="Path_15" d="M72.095 113.47L67.18 93.4497H102.42L107.335 113.47H72.095Z" fill="white"/>
<path id="Path_16" d="M81.0299 114.48L81.1799 115.695H122.265L122.115 114.48H81.0299Z" fill="#F0F0F0"/>
<rect id="Rectangle_20" x="127.17" y="115.695" width="4.47" height="48" fill="#E6E6E6"/>
<rect id="Rectangle_21" x="129.95" y="115.695" width="3.105" height="48" fill="#F0F0F0"/>
<rect id="Rectangle_22" x="134.02" y="121.19" width="57.605" height="5.495" transform="rotate(180 134.02 121.19)" fill="#F0F0F0"/>
<rect id="Rectangle_23" x="69.9399" y="121.19" width="4.47" height="42.505" fill="#E6E6E6"/>
<rect id="Rectangle_24" x="72.715" y="121.19" width="3.105" height="42.505" fill="#F0F0F0"/>
<rect id="Rectangle_25" x="41.645" y="121.19" width="4.47" height="42.505" fill="#E6E6E6"/>
<rect id="Rectangle_26" x="44.425" y="121.19" width="3.105" height="42.505" fill="#F0F0F0"/>
<rect id="Rectangle_27" x="98.88" y="121.19" width="4.47" height="42.505" fill="#E6E6E6"/>
<rect id="Rectangle_28" x="101.655" y="121.19" width="3.105" height="42.505" fill="#F0F0F0"/>
<rect id="Rectangle_29" x="41.645" y="115.695" width="34.765" height="5.495" fill="#E6E6E6"/>
<path id="Path_17" d="M146.17 163.7H145.085L142 148.38L141.455 145.695L138.035 129H125.035L118 163.7H116.9L124.08 128.36C124.127 128.119 124.334 127.942 124.58 127.935H138.5C138.749 127.932 138.963 128.114 139 128.36L142 143.02L142.5 145.7L146.17 163.7Z" fill="#F0F0F0"/>
<path id="Path_18" d="M167.045 163.7H165.955L158.905 129H145.905L142.5 145.7L142 148.38L138.885 163.7H137.8L141.455 145.7L141.995 143.025L144.995 128.365C145.043 128.125 145.25 127.949 145.495 127.94H159.37C159.616 127.947 159.823 128.124 159.87 128.365L167.045 163.7Z" fill="#F0F0F0"/>
<path id="Path_19" d="M135 128.465H158.89C163.45 128.465 165.98 125.365 167.27 120.255L167.9 117.335C168.331 115.545 167.917 113.657 166.776 112.212C165.636 110.767 163.896 109.926 162.055 109.93H147.055C143.955 109.93 143.135 110.67 140.99 115.34C138.845 120.01 135 128.465 135 128.465Z" fill="#F0F0F0"/>
<path id="Path_20" d="M148.025 128.465H122.565C121.905 128.465 121.37 127.93 121.37 127.27V127.16C121.37 126.293 121.715 125.461 122.328 124.848C122.941 124.235 123.773 123.89 124.64 123.89H148.025V128.47V128.465Z" fill="#F0F0F0"/>
</g>
<g id="freepik--Shadow--inject-31">
<ellipse id="freepik--path--inject-31" cx="125" cy="180.62" rx="96.945" ry="5.66" fill="#F5F5F5"/>
</g>
<g id="freepik--Account--inject-31">
<path id="Path_21" d="M144.315 27.3346H71.65C70.0809 27.3239 68.5771 27.9623 67.4948 29.0985C66.4125 30.2348 65.848 31.7678 65.935 33.3346L72.75 174.62C72.9514 177.958 75.6954 180.576 79.04 180.62H151.705C153.274 180.63 154.777 179.992 155.859 178.855C156.94 177.719 157.503 176.186 157.415 174.62L150.605 33.3346C150.404 29.9958 147.66 27.3783 144.315 27.3346Z" fill="black"/>
<path id="Path_22" d="M147 27.3346H74.3151C72.7463 27.3238 71.243 27.9623 70.1615 29.0988C69.08 30.2352 68.5167 31.7683 68.6051 33.3346L75.4151 174.62C75.6165 177.958 78.3605 180.576 81.7051 180.62H154.37C155.939 180.63 157.442 179.992 158.524 178.855C159.605 177.719 160.169 176.186 160.08 174.62L153.27 33.3346C153.069 30.0034 150.337 27.3887 147 27.3346Z" fill="#263238"/>
<path id="Path_23" d="M81.5 176.619C80.391 176.591 79.4844 175.726 79.405 174.619L72.605 33.3345C72.5804 32.8134 72.7701 32.3049 73.1299 31.9271C73.4897 31.5494 73.9883 31.3353 74.51 31.3345H147.175C148.286 31.3578 149.195 32.2258 149.27 33.3345L156.08 174.619C156.105 175.14 155.916 175.647 155.557 176.025C155.198 176.403 154.701 176.617 154.18 176.619H81.5Z" fill="#407BFF"/>
<path id="Path_24" opacity="0.1" d="M81.465 175.619C80.9119 175.601 80.4604 175.171 80.415 174.619L73.605 33.3345C73.5955 33.0751 73.691 32.8229 73.8697 32.6347C74.0485 32.4466 74.2955 32.3383 74.555 32.3345H147.22C147.774 32.3507 148.227 32.7819 148.27 33.3345L155.08 174.619C155.089 174.879 154.994 175.131 154.815 175.319C154.636 175.507 154.389 175.616 154.13 175.619H81.465Z" fill="black"/>
<g id="Group" opacity="0.3">
<path id="Shape_3" fill-rule="evenodd" clip-rule="evenodd" d="M89 167.499H103.395C103.787 167.502 104.162 167.343 104.432 167.058C104.701 166.774 104.84 166.39 104.815 165.999L103.78 144.139C103.735 143.322 103.063 142.681 102.245 142.674H87.825C87.4335 142.67 87.0583 142.83 86.7897 143.115C86.5211 143.399 86.3835 143.783 86.41 144.174L87.46 166.029C87.5072 166.847 88.1801 167.49 89 167.499ZM87.135 143.464C87.3111 143.284 87.5529 143.183 87.805 143.184L102.225 143.174C102.78 143.181 103.234 143.619 103.26 144.174L104.315 166.029C104.33 166.282 104.24 166.53 104.066 166.714C103.891 166.897 103.648 167.001 103.395 166.999H88.98C88.4239 166.992 87.9689 166.554 87.94 165.999L86.885 144.149C86.8733 143.896 86.9633 143.65 87.135 143.464Z" fill="#FAFAFA"/>
<path id="Path_25" d="M102.035 148.259H88.5C88.3619 148.259 88.25 148.147 88.25 148.009C88.25 147.871 88.3619 147.759 88.5 147.759H102.05C102.188 147.759 102.3 147.871 102.3 148.009C102.3 148.147 102.188 148.259 102.05 148.259H102.035Z" fill="#FAFAFA"/>
<path id="Path_26" d="M102.175 151.084H88.62C88.483 151.082 88.3726 150.971 88.37 150.834C88.37 150.696 88.4819 150.584 88.62 150.584H102.175C102.313 150.584 102.425 150.696 102.425 150.834C102.422 150.971 102.312 151.082 102.175 151.084Z" fill="#FAFAFA"/>
<path id="Path_27" d="M102.31 153.909H88.7549C88.6179 153.907 88.5075 153.796 88.5049 153.659C88.5049 153.521 88.6168 153.409 88.7549 153.409H102.31C102.448 153.409 102.56 153.521 102.56 153.659C102.56 153.797 102.448 153.909 102.31 153.909Z" fill="#FAFAFA"/>
<path id="Path_28" d="M102.445 156.734H88.895C88.7569 156.734 88.645 156.622 88.645 156.484C88.645 156.346 88.7569 156.234 88.895 156.234H102.445C102.583 156.234 102.695 156.346 102.695 156.484C102.695 156.622 102.583 156.734 102.445 156.734Z" fill="#FAFAFA"/>
<path id="Path_29" d="M102.58 159.56H89.0299C88.8919 159.56 88.7799 159.448 88.7799 159.31C88.7799 159.171 88.8919 159.06 89.0299 159.06H102.58C102.718 159.06 102.83 159.171 102.83 159.31C102.83 159.448 102.718 159.56 102.58 159.56Z" fill="#FAFAFA"/>
<path id="Path_30" d="M99.94 162.384H89.165C89.027 162.384 88.915 162.272 88.915 162.134C88.915 161.996 89.027 161.884 89.165 161.884H99.94C100.078 161.884 100.19 161.996 100.19 162.134C100.187 162.271 100.077 162.382 99.94 162.384Z" fill="#FAFAFA"/>
</g>
<path id="Path_31" opacity="0.2" d="M138.6 45.7798H89.1001L93.9251 145.835C94.4137 154.34 101.406 161.014 109.925 161.105H159.425L154.605 61.0498C154.121 52.5404 147.123 45.8634 138.6 45.7798V45.7798Z" fill="black"/>
<path id="Path_32" d="M150.725 45.7798H89.1151C97.6349 45.8685 104.629 52.5434 105.115 61.0498L109.05 142.5C109.539 151.005 116.531 157.679 125.05 157.77H156.115C160.113 157.811 163.949 156.191 166.707 153.296C169.464 150.401 170.896 146.491 170.66 142.5L166.73 61.0498C166.246 52.5404 159.248 45.8634 150.725 45.7798Z" fill="#FAFAFA"/>
<path id="Path_33" d="M139.59 142.5C139.827 146.489 138.398 150.398 135.643 153.292C132.889 156.187 129.056 157.809 125.06 157.77H186.665C190.661 157.809 194.495 156.187 197.25 153.293C200.005 150.398 201.436 146.49 201.2 142.5H139.59Z" fill="#E6E6E6"/>
<path id="Path_34" d="M159.4 96.3345H115.86C115.227 96.3277 114.707 95.8317 114.67 95.1995C114.653 94.9032 114.76 94.6133 114.965 94.3984C115.169 94.1835 115.453 94.0626 115.75 94.0645H159.29C159.931 94.0607 160.463 94.5595 160.5 95.1995C160.517 95.4992 160.408 95.7924 160.199 96.0079C159.99 96.2235 159.7 96.3419 159.4 96.3345Z" fill="#407BFF"/>
<path id="Path_35" d="M159.74 103.419H116.2C115.567 103.413 115.047 102.917 115.01 102.284C114.993 101.988 115.1 101.698 115.305 101.483C115.509 101.268 115.793 101.148 116.09 101.149H159.635C160.266 101.159 160.783 101.654 160.82 102.284C160.837 102.581 160.73 102.871 160.525 103.085C160.321 103.3 160.037 103.421 159.74 103.419Z" fill="#407BFF"/>
<path id="Path_36" d="M160.085 110.5H116.54C115.907 110.493 115.387 109.997 115.35 109.365C115.333 109.068 115.44 108.778 115.645 108.563C115.849 108.349 116.133 108.228 116.43 108.23H160C160.633 108.236 161.153 108.732 161.19 109.365C161.207 109.665 161.097 109.959 160.887 110.175C160.677 110.391 160.386 110.508 160.085 110.5Z" fill="#407BFF"/>
<path id="Path_37" d="M160.425 117.595H116.885C116.253 117.585 115.734 117.091 115.695 116.46C115.678 116.164 115.785 115.874 115.99 115.659C116.194 115.444 116.478 115.323 116.775 115.325H160.315C160.948 115.332 161.468 115.827 161.505 116.46C161.522 116.756 161.415 117.046 161.21 117.261C161.006 117.476 160.722 117.597 160.425 117.595Z" fill="#407BFF"/>
<path id="Path_38" d="M143.455 124.679H117.225C116.592 124.672 116.072 124.176 116.035 123.544C116.018 123.248 116.125 122.958 116.33 122.743C116.534 122.528 116.818 122.407 117.115 122.409H143.345C143.978 122.416 144.498 122.912 144.535 123.544C144.552 123.84 144.445 124.13 144.24 124.345C144.036 124.56 143.752 124.681 143.455 124.679Z" fill="#407BFF"/>
<ellipse id="Oval" cx="136.451" cy="71.8586" rx="13.355" ry="14.015" transform="rotate(-45.69 136.451 71.8586)" fill="#407BFF"/>
<path id="Path_39" d="M147.74 71.8496C147.834 73.7077 147.454 75.5592 146.635 77.2296C144.823 80.8845 141.079 83.1806 137 83.1396C132.793 83.1079 128.913 80.8622 126.79 77.2296C125.816 75.5962 125.258 73.7489 125.165 71.8496C124.99 68.9001 126.048 66.0103 128.085 63.87C130.122 61.7297 132.955 60.5309 135.91 60.5596C142.204 60.6378 147.368 65.566 147.74 71.8496Z" fill="white"/>
<path id="Path_40" opacity="0.4" d="M146.635 77.2293C144.823 80.8843 141.079 83.1804 137 83.1393C132.793 83.1076 128.913 80.8619 126.79 77.2293C129.668 75.2548 133.08 74.2079 136.57 74.2293C140.144 74.236 143.64 75.278 146.635 77.2293Z" fill="#407BFF"/>
<ellipse id="Oval_2" opacity="0.4" cx="136.262" cy="67.981" rx="4.91" ry="5.15" transform="rotate(-45.69 136.262 67.981)" fill="#407BFF"/>
</g>
<g id="freepik--character-male--inject-31">
<path id="Path_41" d="M178.38 176.87H174.71L174.34 168.36H178.015L178.38 176.87Z" fill="#FFB573"/>
<path id="Path_42" opacity="0.2" d="M174.345 168.365L174.53 172.75H178.205L178.015 168.365H174.345Z" fill="black"/>
<path id="Path_43" d="M209.645 166.9L206.155 168.04L201.76 160.525L205.255 159.385L209.645 166.9Z" fill="#FFB573"/>
<path id="Path_44" opacity="0.2" d="M205.255 159.385L201.76 160.525L204.03 164.4L207.52 163.26L205.255 159.385Z" fill="black"/>
<path id="Path_45" d="M190.8 53.9595C191.255 54.5145 191.64 55.0095 192.035 55.5545C192.43 56.0995 192.805 56.6195 193.18 57.1595C193.92 58.2445 194.63 59.3545 195.295 60.4995C196.679 62.8225 197.807 65.2885 198.66 67.8545L198.745 68.1045L198.785 68.2345L198.84 68.4395L198.94 68.8495L198.995 69.2245C199.054 69.6736 199.073 70.1271 199.05 70.5795C199.003 71.3424 198.893 72.1 198.72 72.8445C198.403 74.1783 197.984 75.4856 197.465 76.7545C196.476 79.1869 195.279 81.529 193.885 83.7545L191.385 82.5595C192.135 80.2145 192.885 77.8145 193.435 75.4795C193.721 74.3538 193.939 73.2117 194.085 72.0595C194.147 71.562 194.165 71.0601 194.14 70.5595C194.133 70.3811 194.109 70.2037 194.07 70.0295L194.045 69.9395C194.036 69.9233 194.027 69.9066 194.02 69.8895L193.98 69.7945L193.9 69.5995L193.565 68.8145L193.19 68.0345C192.94 67.5345 192.665 66.9945 192.39 66.4745C191.82 65.4445 191.205 64.4195 190.565 63.3995C189.925 62.3795 189.245 61.3995 188.565 60.3995C187.885 59.3995 187.14 58.3995 186.465 57.4945L190.8 53.9595Z" fill="#FFB573"/>
<path id="Path_46" d="M191.615 81.94L190.18 85.115H194.285C194.285 85.115 194.94 82.705 193.45 81.73L191.615 81.94Z" fill="#FFB573"/>
<path id="Path_47" d="M190.66 88.6852L194.47 87.9502L194.285 85.1152H190.18L190.66 88.6852Z" fill="#FFB573"/>
<path id="Path_48" d="M172.61 37.8451C172.61 38.1451 172.455 38.3851 172.26 38.3851C172.065 38.3851 171.91 38.1451 171.91 37.8451C171.91 37.5451 172.07 37.3101 172.26 37.3101C172.45 37.3101 172.61 37.5501 172.61 37.8451Z" fill="#263238"/>
<path id="Path_49" d="M172.5 38.3848C172.148 39.2895 171.671 40.1409 171.085 40.9148C171.494 41.2081 172.012 41.3068 172.5 41.1848V38.3848Z" fill="#ED893E"/>
<path id="Path_50" d="M173.66 36.205C173.624 36.2054 173.588 36.1931 173.56 36.17C173.207 35.9043 172.749 35.8209 172.325 35.945C172.238 35.9686 172.148 35.9228 172.116 35.839C172.083 35.7552 172.12 35.6605 172.2 35.62C172.734 35.4502 173.318 35.5509 173.765 35.89C173.841 35.9479 173.859 36.0557 173.805 36.135C173.77 36.1792 173.716 36.205 173.66 36.205Z" fill="#263238"/>
<path id="Path_51" d="M182.175 41.2598C181.645 43.9498 181.12 48.8748 183 50.6648C183 50.6648 182.265 53.3898 177.275 53.3898C171.775 53.3898 174.65 50.6648 174.65 50.6648C177.65 49.9498 177.57 47.7298 177.045 45.6398L182.175 41.2598Z" fill="#FFB573"/>
<path id="Path_52" d="M183.72 51.6003C184.115 50.7403 184.55 49.7503 183.65 49.4403C182.65 49.1003 177.27 48.7553 175.405 49.3953C174.91 49.5326 174.49 49.8628 174.24 50.312C173.99 50.7612 173.931 51.2919 174.075 51.7853L183.72 51.6003Z" fill="#263238"/>
<path id="Shape_4" fill-rule="evenodd" clip-rule="evenodd" d="M204.595 169.35C204.825 169.385 205.13 169.175 205.4 168.915C205.632 168.691 205.84 168.443 206.02 168.175C206.039 168.147 206.039 168.109 206.02 168.08C206 168.054 205.968 168.041 205.935 168.045C205.87 168.05 204.67 168.25 204.37 168.715C204.301 168.813 204.279 168.935 204.31 169.05C204.332 169.2 204.446 169.32 204.595 169.35ZM204.515 168.805C204.535 168.776 204.559 168.749 204.585 168.725C204.936 168.484 205.335 168.324 205.755 168.255C205.42 168.675 204.875 169.215 204.62 169.175C204.595 169.175 204.52 169.16 204.48 169.005C204.462 168.937 204.474 168.864 204.515 168.805Z" fill="#407BFF"/>
<path id="Shape_5" fill-rule="evenodd" clip-rule="evenodd" d="M205.96 168.215L206 168.19C206.012 168.18 206.019 168.166 206.02 168.15C206.03 168.12 206.02 168.086 205.995 168.065C205.994 168.064 205.993 168.063 205.99 168.061C205.917 167.998 205.15 167.331 204.615 167.37C204.481 167.38 204.357 167.443 204.27 167.545C204.176 167.642 204.159 167.79 204.23 167.905C204.46 168.255 205.545 168.325 205.96 168.215ZM204.405 167.66L204.435 167.63H204.445C204.495 167.581 204.56 167.551 204.63 167.545C205.044 167.61 205.429 167.794 205.74 168.075C205.27 168.13 204.51 168.015 204.375 167.81C204.374 167.809 204.374 167.808 204.373 167.807C204.362 167.785 204.339 167.74 204.405 167.66Z" fill="#407BFF"/>
<path id="Shape_6" fill-rule="evenodd" clip-rule="evenodd" d="M172.155 176.78C172.305 176.99 172.76 177.055 173.23 177.055C173.607 177.053 173.984 177.02 174.355 176.955C174.389 176.947 174.415 176.919 174.42 176.885C174.429 176.849 174.412 176.812 174.38 176.795C174.325 176.76 173.04 176.03 172.43 176.195C172.314 176.222 172.215 176.297 172.155 176.4C172.072 176.513 172.072 176.667 172.155 176.78ZM172.48 176.344C172.537 176.336 172.594 176.336 172.65 176.344C173.155 176.403 173.645 176.559 174.09 176.804C173.41 176.899 172.48 176.894 172.31 176.659C172.27 176.629 172.25 176.574 172.31 176.464C172.347 176.402 172.409 176.358 172.48 176.344Z" fill="#407BFF"/>
<path id="Shape_7" fill-rule="evenodd" clip-rule="evenodd" d="M174.305 176.955H174.34C174.362 176.96 174.386 176.956 174.405 176.945C174.43 176.925 174.444 176.896 174.445 176.865C174.445 176.863 174.445 176.861 174.444 176.858C174.434 176.764 174.326 175.823 173.875 175.45C173.736 175.334 173.555 175.279 173.375 175.3C173.135 175.325 173.05 175.445 173.05 175.545C172.985 175.955 173.865 176.755 174.305 176.955ZM173.395 175.454H173.445V175.464C173.547 175.466 173.645 175.501 173.725 175.564C174.007 175.879 174.182 176.274 174.225 176.694C173.78 176.424 173.185 175.799 173.225 175.549C173.225 175.529 173.235 175.454 173.395 175.454Z" fill="#407BFF"/>
<path id="Path_53" d="M205.85 167.635L208.85 164.78C208.958 164.674 209.126 164.659 209.25 164.745L212.03 166.605C212.166 166.697 212.253 166.847 212.264 167.011C212.276 167.175 212.212 167.335 212.09 167.445C211.035 168.445 210.47 168.85 209.16 170.1C208.35 170.875 205.94 173.5 204.825 174.57C203.71 175.64 202.51 174.67 202.87 174.135C204.49 171.73 205.5 169.425 205.59 168.21C205.606 167.994 205.698 167.79 205.85 167.635Z" fill="#263238"/>
<path id="Path_54" d="M174.73 176.445H178.73C178.88 176.444 179.009 176.548 179.04 176.695L179.765 179.96C179.802 180.119 179.764 180.286 179.661 180.413C179.559 180.54 179.403 180.613 179.24 180.61C177.79 180.61 175.7 180.505 173.88 180.505C171.755 180.505 169.92 180.62 167.425 180.62C165.925 180.62 165.5 179.095 166.13 178.955C169 178.33 171.35 178.26 173.83 176.73C174.098 176.553 174.409 176.454 174.73 176.445Z" fill="#263238"/>
<path id="Path_55" d="M169.5 58.9995C168.04 61.1495 166.535 63.1595 164.915 65.1445C163.289 67.1537 161.551 69.0701 159.71 70.8845L159 71.5745L158.82 71.7445L158.69 71.8645L158.5 71.9995C158.265 72.1893 158.012 72.3567 157.745 72.4995C156.901 72.9447 155.972 73.2055 155.02 73.2645C153.567 73.3505 152.109 73.2292 150.69 72.9045C148.119 72.3374 145.626 71.461 143.265 70.2945L144.185 67.6945C146.526 68.1625 148.894 68.4865 151.275 68.6645C152.321 68.7471 153.374 68.7035 154.41 68.5345C154.708 68.49 154.991 68.3789 155.24 68.2095C155.265 68.2095 155.24 68.1795 155.24 68.1795L155.28 68.1395L155.425 67.9745L156.02 67.3245C157.58 65.5445 159.095 63.6445 160.565 61.7045C162.035 59.7645 163.51 57.7745 164.915 55.8345L169.5 58.9995Z" fill="#FFB573"/>
<path id="Path_56" d="M189.58 51.4998C193.02 52.2898 196.97 61.6748 196.97 61.6748L190.055 66.4148C188.337 63.9469 186.815 61.3491 185.5 58.6448C183.45 54.3498 186.06 50.6898 189.58 51.4998Z" fill="#407BFF"/>
<path id="Path_57" opacity="0.3" d="M187.11 57.5L190.38 66.205L190.055 66.43C190.055 66.43 188.64 64.43 187.11 61.765L187.11 57.5Z" fill="black"/>
<path id="Path_58" d="M169 51.685C169 51.685 165.09 56.1 168.785 83.435H188.43C188.565 80.435 186.67 65.705 189.58 51.495C187.407 51.0771 185.209 50.7998 183 50.665C180.219 50.5049 177.431 50.5049 174.65 50.665C172.743 50.8572 170.854 51.1982 169 51.685Z" fill="#407BFF"/>
<path id="Path_59" opacity="0.3" d="M171.18 59.5898C170.669 62.6918 169.328 65.5977 167.3 67.9998C167.22 66.2398 167.19 64.6598 167.195 63.2448L171.18 59.5898Z" fill="black"/>
<path id="Path_60" d="M172.875 54.665C173.375 58.14 166.505 67.025 166.505 67.025L159.62 62.285C159.62 62.285 161.53 57.39 164.745 54.18C168.42 50.5 172.35 50.88 172.875 54.665Z" fill="#407BFF"/>
<path id="Path_61" d="M144.66 67.9998L141.965 65.2148L139.09 68.9198C139.09 68.9198 141.28 71.0348 143.885 70.4198L144.66 67.9998Z" fill="#FFB573"/>
<path id="Path_62" d="M138.265 63.6646L137.03 67.5546L139.09 68.9046L141.965 65.1996L138.265 63.6646Z" fill="#FFB573"/>
<path id="Path_63" d="M182.5 37.22C182.275 40.855 182.33 43 180.5 44.865C177.735 47.675 173.245 46.01 172.38 42.365C171.595 39.095 172.095 33.695 175.655 32.25C177.249 31.5948 179.069 31.8125 180.464 32.8253C181.859 33.838 182.629 35.5011 182.5 37.22Z" fill="#FFB573"/>
<path id="Path_64" d="M185.665 29.6249C186.785 30.6549 186.31 31.8049 185.725 32.0199C187.54 32.3949 187.805 33.8399 186.85 36.8899C185.94 39.8099 183.735 43.7249 180.98 43.9649C176.84 44.3249 175.63 40.0099 175.6 35.7299C173.26 35.8749 174.27 33.7999 171.395 34.2799C168.895 34.6949 169.835 32.7449 167.71 31.8949C165.245 30.8949 165.74 27.1199 168.04 28.2049C168.04 28.2049 166.975 28.9049 168.215 29.5649C169.455 30.2249 169.335 28.6999 171.79 28.5149C174.245 28.3299 174.53 30.4299 177.4 29.1649C181 27.5749 183.365 27.4999 185.665 29.6249Z" fill="#263238"/>
<path id="Path_65" d="M184.285 31.9999C184.62 31.4622 185.269 31.2082 185.88 31.3749C187.005 31.6149 187.095 32.1099 187.8 32.0449C188.505 31.9799 188.25 32.7299 188.25 32.7299C188.25 32.7299 188.06 32.1649 187.21 32.4799C186.36 32.7949 185.805 32.0249 185.44 32.3699C185.075 32.7149 184.285 31.9999 184.285 31.9999Z" fill="#263238"/>
<path id="Path_66" d="M177.56 38.21C177.4 39.1014 176.948 39.9142 176.275 40.52C175.385 41.31 174.615 40.675 174.585 39.595C174.585 38.62 175 37.03 176.025 36.65C177.05 36.27 177.745 37.13 177.56 38.21Z" fill="#FFB573"/>
<path id="Path_67" d="M175.75 83.4346C175.75 83.4346 179.92 111.5 182.21 122C184.71 133.5 202.135 164.1 202.135 164.1L208.535 162.02C208.535 162.02 194.66 134.45 193.23 123.045C191.675 110.67 188.43 83.4146 188.43 83.4146L175.75 83.4346Z" fill="#263238"/>
<path id="Path_68" d="M200.345 162.1C200.32 162.1 201.81 164.34 201.81 164.34L209 162L208.155 159.85L200.345 162.1Z" fill="#407BFF"/>
<path id="Path_69" opacity="0.3" d="M178.385 93.4354C183.205 94.3804 182.695 112.355 182.115 121.6C180.725 115.065 178.69 102.49 177.3 93.5654C177.636 93.3997 178.019 93.3538 178.385 93.4354Z" fill="black"/>
<path id="Path_70" d="M168.785 83.4351C168.785 83.4351 168.285 110.9 168.675 122.1C169.09 133.75 173.175 171.9 173.175 171.9H179.4C179.4 171.9 179.625 134.43 179.9 122.99C180.2 110.49 181.705 83.4351 181.705 83.4351L168.785 83.4351Z" fill="#263238"/>
<path id="Path_71" d="M171.965 169.42C171.935 169.42 172.315 172.005 172.315 172.005H179.885L180.09 169.7L171.965 169.42Z" fill="#407BFF"/>
</g>
</g>
</svg>
